<?xml version="1.0" ?>
<svg xmlns="http://www.w3.org/2000/svg" width="33.0" height="32.0" viewBox="0 0 33.0 32.0">
  <path d="M16.75,2.667C14.113,2.667 11.535,3.448 9.342,4.914C7.15,6.379 5.441,8.461 4.432,10.897C3.422,13.334 3.158,16.015 3.673,18.601C4.187,21.188 5.457,23.563 7.322,25.428C9.187,27.293 11.562,28.563 14.149,29.077C16.735,29.591 19.416,29.327 21.852,28.318C24.289,27.309 26.371,25.6 27.836,23.407C29.301,21.215 30.083,18.637 30.083,16C30.083,14.249 29.738,12.515 29.068,10.897C28.398,9.28 27.416,7.81 26.178,6.572C24.94,5.334 23.47,4.351 21.852,3.681C20.235,3.011 18.501,2.667 16.75,2.667ZM22.85,17.055H17.617V22.289C17.617,22.519 17.525,22.74 17.363,22.902C17.2,23.065 16.98,23.156 16.75,23.156C16.52,23.156 16.3,23.065 16.137,22.902C15.975,22.74 15.883,22.519 15.883,22.289L15.883,17.055H10.649C10.419,17.055 10.199,16.964 10.036,16.801C9.874,16.639 9.783,16.418 9.783,16.188C9.783,15.959 9.874,15.738 10.036,15.576C10.199,15.413 10.419,15.322 10.649,15.322H15.883V10.088C15.883,9.858 15.975,9.638 16.137,9.475C16.3,9.313 16.52,9.222 16.75,9.222C16.98,9.222 17.2,9.313 17.363,9.475C17.525,9.638 17.617,9.858 17.617,10.088V15.322L22.85,15.322C23.08,15.322 23.301,15.413 23.463,15.576C23.625,15.738 23.717,15.959 23.717,16.188C23.717,16.418 23.625,16.639 23.463,16.801C23.301,16.964 23.08,17.055 22.85,17.055Z" fill="@color/widget_primary_blue"/>
</svg>
