<?xml version="1.0" ?>
<svg xmlns="http://www.w3.org/2000/svg" width="24.0" height="24.0" viewBox="0 0 24.0 24.0">
  <path d="M12,24C18.627,24 24,18.627 24,12C24,5.373 18.627,0 12,0C5.373,0 0,5.373 0,12C0,18.627 5.373,24 12,24ZM16.755,15.399C16.78,15.459 16.793,15.524 16.793,15.59C16.793,15.656 16.78,15.721 16.755,15.781C16.73,15.842 16.693,15.897 16.646,15.943L15.943,16.646C15.897,16.693 15.842,16.73 15.781,16.755C15.721,16.78 15.656,16.793 15.59,16.793C15.524,16.793 15.459,16.78 15.399,16.755C15.338,16.73 15.283,16.693 15.236,16.646L12.354,13.764C12.307,13.717 12.252,13.68 12.191,13.655C12.131,13.63 12.066,13.617 12,13.617C11.934,13.617 11.869,13.63 11.809,13.655C11.748,13.68 11.693,13.717 11.646,13.764L8.763,16.646C8.717,16.693 8.662,16.73 8.601,16.755C8.541,16.78 8.476,16.793 8.41,16.793C8.344,16.793 8.279,16.78 8.219,16.755C8.158,16.73 8.103,16.693 8.056,16.646L7.353,15.943C7.307,15.897 7.27,15.842 7.245,15.781C7.22,15.721 7.207,15.656 7.207,15.59C7.207,15.524 7.22,15.459 7.245,15.399C7.27,15.338 7.307,15.283 7.353,15.236L10.236,12.354C10.283,12.307 10.32,12.252 10.345,12.191C10.37,12.131 10.383,12.066 10.383,12C10.383,11.934 10.37,11.869 10.345,11.809C10.32,11.748 10.283,11.693 10.236,11.646L7.353,8.763C7.307,8.717 7.27,8.662 7.245,8.601C7.22,8.541 7.207,8.476 7.207,8.41C7.207,8.344 7.22,8.279 7.245,8.219C7.27,8.158 7.307,8.103 7.353,8.056L8.056,7.353C8.103,7.307 8.158,7.27 8.219,7.245C8.279,7.22 8.344,7.207 8.41,7.207C8.476,7.207 8.541,7.22 8.601,7.245C8.662,7.27 8.717,7.307 8.763,7.353L11.646,10.236C11.693,10.283 11.748,10.32 11.809,10.345C11.869,10.37 11.934,10.383 12,10.383C12.066,10.383 12.131,10.37 12.191,10.345C12.252,10.32 12.307,10.283 12.354,10.236L15.236,7.353C15.283,7.307 15.338,7.27 15.399,7.245C15.459,7.22 15.524,7.207 15.59,7.207C15.656,7.207 15.721,7.22 15.781,7.245C15.842,7.27 15.897,7.307 15.943,7.353L16.646,8.056C16.693,8.103 16.73,8.158 16.755,8.219C16.78,8.279 16.793,8.344 16.793,8.41C16.793,8.476 16.78,8.541 16.755,8.601C16.73,8.662 16.693,8.717 16.646,8.763L13.764,11.646C13.717,11.693 13.68,11.748 13.655,11.809C13.63,11.869 13.617,11.934 13.617,12C13.617,12.066 13.63,12.131 13.655,12.191C13.68,12.252 13.717,12.307 13.764,12.354L16.646,15.236C16.693,15.283 16.73,15.338 16.755,15.399Z" fill="#ff5072ff"/>
</svg>
