<?xml version="1.0" ?>
<svg xmlns="http://www.w3.org/2000/svg" width="25.0" height="25.0" viewBox="0 0 25.0 25.0">
  <g>
    <path d="M4,0L21,0A4,4 0,0 1,25 4L25,21A4,4 0,0 1,21 25L4,25A4,4 0,0 1,0 21L0,4A4,4 0,0 1,4 0z" fill="#ffffffff"/>
    <path d="M10.101,5.702H0V19.298H10.101C11.904,19.298 13.633,18.582 14.908,17.307C16.183,16.032 16.899,14.303 16.899,12.5C16.899,10.697 16.183,8.968 14.908,7.693C13.633,6.418 11.904,5.702 10.101,5.702ZM9.824,17.446C8.846,17.446 7.89,17.156 7.076,16.613C6.263,16.069 5.629,15.297 5.254,14.393C4.88,13.489 4.782,12.495 4.973,11.535C5.164,10.575 5.635,9.694 6.327,9.002C7.018,8.311 7.9,7.84 8.859,7.649C9.819,7.458 10.813,7.556 11.717,7.93C12.621,8.305 13.393,8.939 13.937,9.752C14.48,10.565 14.771,11.522 14.771,12.5C14.771,13.15 14.643,13.793 14.394,14.393C14.146,14.993 13.781,15.538 13.322,15.998C12.863,16.457 12.317,16.821 11.717,17.07C11.117,17.319 10.474,17.446 9.824,17.446Z" fill="#0088ceff"/>
    <path d="M25,5.702C23.197,5.702 21.467,6.418 20.192,7.693C18.917,8.968 18.201,10.697 18.201,12.5C18.201,14.303 18.917,16.032 20.192,17.307C21.467,18.582 23.197,19.298 25,19.298V5.702Z" fill="#0c131fff"/>
  </g>
</svg>
