<?xml version="1.0" ?>
<svg xmlns="http://www.w3.org/2000/svg" width="32.0" height="24.0" viewBox="0 0 32.0 24.0">
  <path d="M9.84888 6.98538C9.79658 6.97579 9.74568 6.96841 9.69415 6.96325C9.52757 6.94555 9.35808 6.95071 9.15246 6.97874C8.97705 7.0016 8.83919 7.0429 8.73091 7.10189C8.60187 7.17128 8.51491 7.26565 8.46408 7.38954C8.4331 7.4633 8.40952 7.54666 8.39187 7.63144C8.37931 7.69045 8.369 7.74946 8.36314 7.80551C8.33879 8.05264 8.38594 8.27979 8.69399 8.30485C8.7847 8.31226 8.8694 8.31742 8.95121 8.32109C9.18119 8.33069 9.38533 8.32405 9.59166 8.30118C9.65138 8.29455 9.7111 8.28713 9.77152 8.27761L9.8887 8.12266C9.56074 8.1773 9.18705 8.16325 9.06253 8.14335C8.81561 8.10205 8.87604 7.80184 8.87604 7.80184C9.09571 7.82838 9.36175 7.82175 9.55044 7.80184C9.71032 7.78638 10.0177 7.7465 10.1201 7.51419C10.123 7.50685 10.1267 7.50092 10.1297 7.49358C10.2211 7.24497 10.1511 7.04217 9.85037 6.98612L9.84888 6.98538ZM9.69634 7.36596C9.69486 7.37259 9.69486 7.37852 9.69338 7.38516C9.689 7.4021 9.68307 7.41904 9.67495 7.43528C9.60493 7.58062 9.51133 7.61231 9.38978 7.63737C9.3566 7.64401 9.32046 7.64916 9.28291 7.65361C9.2018 7.66172 9.10968 7.66391 9.01164 7.66095C8.9719 7.65953 8.93208 7.65805 8.89008 7.65509C8.89008 7.65361 8.89008 7.65283 8.89008 7.65142C8.89742 7.61083 8.90921 7.5629 8.92248 7.51716C8.93505 7.47361 8.94902 7.43231 8.96152 7.40358C8.98142 7.35636 9.005 7.31506 9.03232 7.27822C9.09493 7.19337 9.17971 7.13655 9.30719 7.10704C9.3271 7.10266 9.3463 7.09899 9.36542 7.09674C9.38462 7.09455 9.40375 7.09377 9.42366 7.09377C9.4627 7.09377 9.5047 7.0997 9.55262 7.1093C9.67058 7.13365 9.71921 7.25309 9.69782 7.36666L9.69634 7.36596Z" fill="#000000ff"/>
  <path d="M3.25058 7.15356L3.35892 6.99202C3.3228 6.98907 3.28226 6.98685 3.24026 6.9839C3.09507 6.97505 2.9204 6.96841 2.75605 6.96989C2.62855 6.97136 2.50694 6.97726 2.41113 6.99127C2.25047 7.01414 2.13403 7.04217 2.04927 7.08565C2.02569 7.09822 2.00431 7.11149 1.98515 7.12624C1.95272 7.15208 1.92619 7.18306 1.90482 7.21843C1.88271 7.25683 1.86576 7.30102 1.85397 7.35339C1.84881 7.37408 1.84217 7.40944 1.83407 7.45299C1.79279 7.6757 1.71909 8.14116 1.68814 8.29306H2.22026C2.24605 8.15146 2.28658 7.88224 2.31827 7.67718C2.33375 7.57765 2.34702 7.49358 2.35586 7.44636C2.36397 7.40358 2.37502 7.36596 2.38903 7.33278C2.42882 7.24059 2.49884 7.18377 2.62781 7.15942C2.78406 7.13217 3.07959 7.13217 3.25058 7.1513V7.15356Z" fill="#000000ff"/>
  <path d="M4.82186 7.04069C4.77837 7.01635 4.72531 6.99791 4.66193 6.98611C4.61181 6.97725 4.56244 6.96988 4.51232 6.96472C4.34281 6.94628 4.17257 6.9507 3.96473 6.97946C3.77238 7.00454 3.6235 7.05027 3.51074 7.11811C3.39798 7.18595 3.32207 7.27595 3.27417 7.3903C3.22332 7.51567 3.18794 7.66983 3.17467 7.80628C3.1614 7.93757 3.16804 8.06294 3.22405 8.15512C3.27343 8.23701 3.35966 8.29376 3.50485 8.30562C3.5955 8.31296 3.68025 8.31811 3.76279 8.32178C3.97653 8.33068 4.16815 8.32552 4.35977 8.30632C4.43347 8.29898 4.5079 8.29009 4.58307 8.2783L4.6494 8.18978L4.69878 8.12343C4.37082 8.178 3.99789 8.16395 3.87335 8.14404C3.62571 8.10275 3.68615 7.80261 3.68615 7.80261C3.90577 7.82915 4.17183 7.82251 4.3605 7.80261C4.47326 7.79153 4.6612 7.76865 4.79754 7.6735C4.85945 7.63002 4.91104 7.57249 4.93978 7.49357C4.97515 7.39694 4.98547 7.30694 4.96853 7.23021C4.95084 7.15129 4.90293 7.08642 4.82039 7.04069H4.82186ZM4.49758 7.40873C4.49463 7.41755 4.49169 7.42715 4.48726 7.43527C4.41725 7.58061 4.32365 7.6123 4.20131 7.63736C4.17256 7.64329 4.14088 7.64767 4.10845 7.65141C4.02517 7.66094 3.93083 7.6639 3.82913 7.66094C3.78785 7.65953 3.74584 7.65804 3.70236 7.6543C3.71415 7.57983 3.74511 7.47656 3.76943 7.41465C3.7709 7.41021 3.77311 7.40576 3.77459 7.40209C3.84018 7.24496 3.93746 7.14762 4.11803 7.10562C4.15635 7.09673 4.19246 7.09305 4.22932 7.09305C4.23153 7.09305 4.233 7.09305 4.23521 7.09305C4.23742 7.09305 4.24037 7.09305 4.24332 7.09305C4.28017 7.09376 4.31923 7.09898 4.36493 7.10781C4.43641 7.12256 4.48284 7.17197 4.50348 7.23395C4.5219 7.28774 4.51896 7.35049 4.49758 7.40873Z" fill="#000000ff"/>
  <path d="M8.0138 6.98021C8.05651 6.71912 8.10663 6.46097 8.15089 6.37172C8.21279 6.24635 8.35425 6.1276 8.55324 6.1276L8.6498 6C8.37416 6.00148 8.10225 6.06786 7.94152 6.17996C7.6394 6.39164 7.58929 6.6638 7.51778 6.98316L7.30623 8.15809C7.2554 8.45238 7.20677 8.65369 7.17507 8.75033C7.13378 8.8728 7.0004 9.05125 6.77931 9.05202L6.69382 9.17958C6.97682 9.19433 7.2038 9.11174 7.36298 9.00035C7.66517 8.78725 7.72785 8.49219 7.79858 8.17355C7.80006 8.16918 7.8914 7.68162 7.93714 7.41607C7.97251 7.22358 8.10366 7.11889 8.31966 7.11889L8.41467 6.98021H8.0138Z" fill="#000000ff"/>
  <path d="M6.36364 8.29454H6.8589C6.91197 8.07324 6.98124 7.63369 7.01515 7.45595C7.06601 7.18672 6.9127 6.97873 6.56558 6.97873H5.38491C5.323 7.34527 5.20508 7.98105 5.16086 8.29454H5.65318C5.68929 8.05115 5.80573 7.41903 5.8588 7.14028H6.25383C6.42186 7.14028 6.54568 7.25456 6.51841 7.44783C6.49556 7.60341 6.42629 7.97075 6.36364 8.29454Z" fill="#000000ff"/>
  <path d="M20.7248 10.5359V10.269H19.8492C18.1836 10.269 17.4097 10.6451 16.633 11.6865C15.8562 12.728 13.3062 16.1945 13.3062 16.1945L14.6534 18C14.6534 18 18.911 12.2227 19.2478 11.7654C19.5846 11.3082 19.8367 10.9401 20.0121 10.7801C20.2317 10.5787 20.5294 10.5359 20.7248 10.5359Z" fill="#000000ff"/>
  <path d="M25.499 10.9799H28.8819L29.4118 10.269H25.202C23.5364 10.269 22.7626 10.6451 21.9858 11.6865C21.4434 12.4145 20.0349 14.3262 19.2353 15.412C19.1439 15.5292 19.065 15.6221 18.9973 15.6841C18.7776 15.8855 18.4799 15.9275 18.2846 15.9275V16.1945H25.0362L25.5587 15.4849H21.8598C22.2423 14.9657 23.3168 13.5076 23.3168 13.5076H27.0158L27.5383 12.7988H23.8379C23.8379 12.7988 24.8999 11.362 25.0185 11.2005C25.1209 11.0611 25.2588 10.9799 25.499 10.9799Z" fill="#000000ff"/>
  <path d="M10.1003 15.4672C9.9197 15.2283 6.27006 10.2726 6.27006 10.2726H5.77775L1.41177 16.1937H2.53938L3.62129 14.7245H6.87661C6.88987 14.7422 6.90314 14.7599 6.91567 14.7769C7.69243 15.8183 8.46629 16.1945 10.1319 16.1945H11.0082V15.9275C10.8026 15.9186 10.4481 15.9275 10.1003 15.4672ZM4.14382 14.0157L5.24711 12.5192L6.35186 14.0157H4.14382Z" fill="#000000ff"/>
  <path d="M8.95639 10.2726L10.636 12.5672C11.2986 13.4641 12.071 14.518 12.6362 15.2843C13.0003 14.7894 13.4941 14.119 13.9754 13.467C13.4426 12.7442 12.9384 12.062 12.6606 11.6903C11.8838 10.6488 11.1099 10.2726 9.4443 10.2726H8.95639Z" fill="#000000ff"/>
</svg>
