<?xml version="1.0" ?>
<svg xmlns="http://www.w3.org/2000/svg" width="24.0" height="24.0" viewBox="0 0 24.0 24.0">
  <path d="M19.6968 5.51245H5.98389C4.92766 5.51363 3.91502 5.93373 3.16815 6.6806C2.42128 7.42747 2.00118 8.44011 2 9.49634V16.3152C1.99996 16.3809 2.01287 16.4459 2.03799 16.5066C2.0631 16.5673 2.09993 16.6224 2.14636 16.6688C2.1928 16.7153 2.24794 16.7521 2.30861 16.7772C2.36929 16.8023 2.43433 16.8152 2.5 16.8152H4.60571C4.71704 17.291 4.98599 17.7151 5.36884 18.0187C5.7517 18.3223 6.22597 18.4876 6.7146 18.4876C7.20323 18.4876 7.6775 18.3223 8.06036 18.0187C8.44321 17.7151 8.71216 17.291 8.82349 16.8152H14.6409C14.7522 17.291 15.0212 17.7151 15.404 18.0187C15.7869 18.3223 16.2611 18.4875 16.7498 18.4875C17.2384 18.4875 17.7126 18.3223 18.0955 18.0187C18.4784 17.7151 18.7473 17.291 18.8586 16.8152H21.5C21.5657 16.8152 21.6307 16.8023 21.6914 16.7772C21.7521 16.7521 21.8072 16.7153 21.8536 16.6688C21.9001 16.6224 21.9369 16.5673 21.962 16.5066C21.9871 16.4459 22 16.3809 22 16.3152V7.81519C21.9992 7.20462 21.7563 6.6193 21.3245 6.1876C20.8927 5.75591 20.3073 5.51311 19.6968 5.51245V5.51245ZM21 12.8884H19.7261C19.6516 12.8885 19.5779 12.8728 19.51 12.8422C19.4421 12.8117 19.3814 12.767 19.332 12.7112C19.2827 12.6554 19.2457 12.5898 19.2237 12.5187C19.2016 12.4475 19.1949 12.3725 19.2041 12.2986L19.6108 8.9812C19.6266 8.85383 19.6883 8.7366 19.7845 8.65154C19.8806 8.56649 20.0045 8.51946 20.1328 8.51929H21V12.8884ZM3 9.85376C3.00034 9.4822 3.1481 9.12595 3.41083 8.86322C3.67356 8.60049 4.02981 8.45273 4.40137 8.45239H16.1978L15.834 10.1375C15.7887 10.3429 15.6749 10.5269 15.5111 10.659C15.3474 10.7912 15.1435 10.8637 14.9331 10.8645H3V9.85376ZM6.71436 17.4876C6.48251 17.4875 6.25589 17.4186 6.06316 17.2897C5.87042 17.1609 5.72023 16.9777 5.63157 16.7635C5.54291 16.5493 5.51976 16.3136 5.56506 16.0862C5.61035 15.8588 5.72204 15.6499 5.88602 15.486C6.05 15.3221 6.2589 15.2105 6.4863 15.1653C6.71371 15.1201 6.94941 15.1434 7.1636 15.2321C7.3778 15.3209 7.56087 15.4711 7.68967 15.6639C7.81847 15.8567 7.88721 16.0833 7.88721 16.3152C7.88687 16.6261 7.76318 16.9242 7.54329 17.144C7.32339 17.3638 7.02527 17.4873 6.71436 17.4876V17.4876ZM16.75 17.4876C16.5181 17.4876 16.2915 17.4188 16.0987 17.29C15.9059 17.1612 15.7556 16.9781 15.6669 16.7638C15.5781 16.5496 15.5549 16.3139 15.6001 16.0865C15.6454 15.859 15.757 15.6501 15.921 15.4862C16.085 15.3222 16.2939 15.2106 16.5213 15.1653C16.7487 15.1201 16.9844 15.1433 17.1986 15.2321C17.4129 15.3208 17.596 15.4711 17.7248 15.6639C17.8536 15.8567 17.9224 16.0833 17.9224 16.3152C17.9219 16.626 17.7983 16.9239 17.5785 17.1437C17.3587 17.3634 17.0608 17.4871 16.75 17.4876V17.4876ZM21 15.8152H18.8586C18.7473 15.3394 18.4784 14.9153 18.0955 14.6116C17.7127 14.308 17.2384 14.1428 16.7498 14.1428C16.2611 14.1428 15.7869 14.308 15.404 14.6116C15.0211 14.9153 14.7522 15.3394 14.6409 15.8152H8.82349C8.71216 15.3394 8.44321 14.9153 8.06036 14.6117C7.6775 14.308 7.20323 14.1428 6.7146 14.1428C6.22597 14.1428 5.7517 14.308 5.36884 14.6117C4.98599 14.9153 4.71704 15.3394 4.60571 15.8152H3V11.8645H14.9331C15.3718 11.8626 15.7969 11.7115 16.1383 11.4359C16.4797 11.1604 16.7171 10.7768 16.8115 10.3484L17.3057 8.05786C17.3214 7.98492 17.3206 7.90939 17.3034 7.83679C17.2861 7.7642 17.2528 7.69638 17.206 7.63832C17.1591 7.58027 17.0998 7.53343 17.0325 7.50126C16.9652 7.46909 16.8915 7.45239 16.8169 7.45239H4.40137C4.17467 7.45567 3.94962 7.49158 3.73315 7.55902C4.0104 7.2323 4.35518 6.96955 4.74373 6.78888C5.13229 6.6082 5.55539 6.5139 5.98389 6.51245H19.6968C19.9873 6.5152 20.2683 6.61621 20.494 6.79903C20.7198 6.98185 20.877 7.23572 20.9401 7.51929H20.1328C19.7604 7.51957 19.4009 7.65598 19.122 7.90283C18.8431 8.14969 18.6641 8.48997 18.6187 8.85962L18.2119 12.1765C18.1854 12.391 18.2048 12.6087 18.2688 12.8151C18.3327 13.0215 18.4399 13.212 18.583 13.3738C18.7262 13.5357 18.9022 13.6653 19.0992 13.754C19.2963 13.8427 19.51 13.8886 19.7261 13.8884H21V15.8152Z" fill="#000000ff"/>
</svg>
