<?xml version="1.0" ?>
<svg xmlns="http://www.w3.org/2000/svg" width="24.0" height="24.0" viewBox="0 0 24.0 24.0">
  <path d="M19.225 13.375C19.225 12.35 18.65 11.75 17.925 11.35L17.375 11.05C17.05 10.875 16.775 10.6 16.775 10.25C16.775 9.85 17.1 9.575 17.575 9.575C17.9 9.575 18.2 9.7 18.425 9.8C18.775 9.975 19 9.75 19.1 9.375C19.225 8.95 19.05 8.8 18.75 8.65C18.45 8.5 18.025 8.4 17.6 8.4C16.425 8.4 15.45 9.175 15.45 10.425C15.45 11.4 15.95 11.95 16.75 12.4L17.325 12.725C17.675 12.925 17.9 13.2 17.9 13.575C17.9 14.05 17.45 14.275 17 14.275C16.65 14.275 16.225 14.125 16 14.025C15.625 13.85 15.425 14.075 15.3 14.475C15.175 14.9 15.375 15.075 15.7 15.225C16 15.375 16.525 15.5 17 15.5C18.225 15.5 19.225 14.675 19.225 13.375ZM14.85 13.125V8.975C14.85 8.625 14.5 8.45 14.175 8.45C13.825 8.45 13.5 8.625 13.5 8.975V12.95C13.5 13.75 13.25 14.275 12.6 14.275C11.975 14.275 11.675 13.775 11.675 12.95V8.975C11.675 8.625 11.3 8.45 10.975 8.45C10.6 8.45 10.275 8.625 10.275 8.975V13.1C10.275 14.75 11.1 15.5 12.6 15.5C13.95 15.5 14.85 14.725 14.85 13.125ZM9.625 13.425C9.625 12.275 8.825 11.85 8.4 11.775V11.75C8.9 11.5 9.5 11.025 9.5 10.175C9.5 9.025 8.5 8.475 7.525 8.475H5.65C5.3 8.475 5.1 8.75 5.1 9.05V14.9C5.1 15.25 5.45 15.425 5.775 15.425H7.55C8.625 15.425 9.625 14.85 9.625 13.425ZM8.1 10.5C8.1 11.15 7.55 11.375 6.975 11.375H6.45V9.625H6.975C7.575 9.625 8.1 9.825 8.1 10.5ZM8.3 13.275C8.3 13.95 7.925 14.275 7.125 14.275H6.525V12.325H7.125C7.625 12.325 8.3 12.5 8.3 13.275ZM21.35 3.3H2.65C2.29167 3.3 2 3.00833 2 2.65C2 2.29167 2.29167 2 2.65 2H21.35C21.7083 2 22 2.29167 22 2.65C22 3.00833 21.7083 3.3 21.35 3.3ZM21.35 22H2.65C2.29167 22 2 21.7083 2 21.35C2 20.9917 2.29167 20.7 2.65 20.7H21.35C21.7083 20.7 22 20.9917 22 21.35C22 21.7083 21.7083 22 21.35 22Z" fill="#000000ff"/>
</svg>
