<?xml version="1.0" ?>
<svg xmlns="http://www.w3.org/2000/svg" width="20.0" height="20.0" viewBox="0 0 20.0 20.0">
  <path d="M10,0C8.022,0 6.089,0.586 4.444,1.685C2.8,2.784 1.518,4.346 0.761,6.173C0.004,8 -0.194,10.011 0.192,11.951C0.578,13.891 1.53,15.672 2.929,17.071C4.327,18.47 6.109,19.422 8.049,19.808C9.989,20.194 12,19.996 13.827,19.239C15.654,18.482 17.216,17.2 18.315,15.556C19.413,13.911 20,11.978 20,10C20,8.687 19.741,7.386 19.239,6.173C18.736,4.96 18,3.858 17.071,2.929C16.142,2 15.04,1.264 13.827,0.761C12.614,0.259 11.313,-0 10,0V0ZM14.575,10.791H10.65V14.717C10.65,14.889 10.581,15.055 10.46,15.177C10.338,15.299 10.172,15.367 10,15.367C9.828,15.367 9.662,15.299 9.54,15.177C9.419,15.055 9.35,14.889 9.35,14.717V10.791H5.424C5.252,10.791 5.087,10.723 4.965,10.601C4.843,10.479 4.774,10.314 4.774,10.141C4.774,9.969 4.843,9.804 4.965,9.682C5.087,9.56 5.252,9.492 5.424,9.492H9.35V5.566C9.35,5.394 9.419,5.229 9.54,5.107C9.662,4.985 9.828,4.916 10,4.916C10.172,4.916 10.338,4.985 10.46,5.107C10.581,5.229 10.65,5.394 10.65,5.566V9.492H14.575C14.748,9.492 14.913,9.56 15.035,9.682C15.157,9.804 15.225,9.969 15.225,10.141C15.225,10.314 15.157,10.479 15.035,10.601C14.913,10.723 14.748,10.791 14.575,10.791Z" fill="@color/widget_primary_blue"/>
</svg>
