<?xml version="1.0" ?>
<svg xmlns="http://www.w3.org/2000/svg" width="24.0" height="24.0" viewBox="0 0 24.0 24.0">
  <path d="M20.9815 3.36488C21.0562 3.63073 20.9012 3.9068 20.6354 3.98149L15.5833 5.40092C15.5658 5.9648 15.2057 6.49396 14.6251 6.64943L13.092 7.05995L14.0843 10.3791H17.8537C18.8675 10.3791 19.6327 11.248 19.6327 12.2475V19.1317C19.6327 20.1312 18.8675 21.0001 17.8537 21.0001H6.23507C5.22128 21.0001 4.45614 20.1312 4.45614 19.1317V17.2107H4.44631V12.4317H4.45614V12.2475C4.45614 11.248 5.22128 10.3791 6.23507 10.3791H10.0039L10.8092 7.6712L10.2636 7.81727C9.7107 7.96533 9.17992 7.71714 8.8917 7.27887L3.63577 8.76032C3.36999 8.83524 3.09379 8.6805 3.01888 8.41472C2.94396 8.14893 3.0987 7.87274 3.36448 7.79782L8.63729 6.31161C8.66714 5.75976 9.02451 5.24748 9.59419 5.09494L13.9556 3.9271C14.4974 3.78204 15.0178 4.01732 15.3097 4.43907L20.3649 3.01877C20.6307 2.94407 20.9068 3.09903 20.9815 3.36488ZM14.5351 5.10735C14.4821 4.92431 14.3256 4.86325 14.2143 4.89307L9.85285 6.06091C9.72269 6.09576 9.59618 6.26349 9.6451 6.47264L9.67854 6.6156C9.72524 6.81528 9.88941 6.88225 10.005 6.8513L11.1437 6.54641L11.1483 6.53067L12.8028 6.09287L12.8054 6.10145L14.3664 5.68346C14.4966 5.64861 14.6231 5.48088 14.5742 5.27173L14.5571 5.1988C14.5541 5.19007 14.5514 5.1812 14.5489 5.17221C14.5428 5.15062 14.5382 5.12896 14.5351 5.10735ZM11.9427 7.36768L11.0472 10.3791H13.0406L12.1256 7.31871L11.9427 7.36768ZM5.45614 16.2107H6.95499V13.4317H5.45614V16.2107ZM5.45614 17.2107V19.1317C5.45614 19.6437 5.83619 20.0001 6.23507 20.0001H17.8537C18.2526 20.0001 18.6327 19.6437 18.6327 19.1317V17.2107H16.7715C16.2969 17.2107 15.9764 16.8176 15.9764 16.3949V13.2475C15.9764 12.8248 16.2969 12.4317 16.7715 12.4317H18.6327V12.2475C18.6327 11.7355 18.2526 11.3791 17.8537 11.3791H6.23507C5.83619 11.3791 5.45614 11.7355 5.45614 12.2475V12.4317H7.15985C7.63454 12.4317 7.95499 12.8248 7.95499 13.2475V16.3949C7.95499 16.8176 7.63454 17.2107 7.15985 17.2107H5.45614ZM18.6228 13.4317H16.9764V16.2107H18.6228V13.4317ZM9.9029 13.4317V16.2107H14.1859V13.4317H9.9029ZM8.9029 13.2475C8.9029 12.8293 9.22759 12.4317 9.69804 12.4317H14.3908C14.8612 12.4317 15.1859 12.8293 15.1859 13.2475V16.3949C15.1859 16.813 14.8612 17.2107 14.3908 17.2107H9.69804C9.22759 17.2107 8.9029 16.813 8.9029 16.3949V13.2475Z" fill="#000000ff"/>
</svg>
