<?xml version="1.0" ?>
<svg xmlns="http://www.w3.org/2000/svg" width="24.0" height="24.0" viewBox="0 0 24.0 24.0">
  <path d="M4.25488 15.9861H4.96948C5.0792 16.4274 5.33343 16.8193 5.69167 17.0993C6.04991 17.3794 6.49156 17.5316 6.94629 17.5316C7.40102 17.5316 7.84267 17.3794 8.20091 17.0993C8.55915 16.8193 8.81338 16.4274 8.9231 15.9861H14.2669C14.3776 16.4305 14.6348 16.8246 14.9969 17.105C15.3591 17.3853 15.8051 17.5355 16.263 17.5314C16.721 17.5273 17.1642 17.3691 17.5212 17.0823C17.8783 16.7954 18.1283 16.3967 18.2311 15.9504H19.4253C20.1079 15.9497 20.7624 15.6783 21.2451 15.1956C21.7278 14.7129 21.9993 14.0584 22 13.3757V12.7541C21.9993 12.0715 21.7278 11.417 21.2451 10.9343C20.7624 10.4516 20.1079 10.1801 19.4253 10.1794H17.2402L14.3706 7.57056C13.5909 6.86085 12.5743 6.46784 11.52 6.46851H8.125C7.07713 6.47021 6.06637 6.85663 5.28462 7.5544C4.50286 8.25217 4.00455 9.21271 3.88428 10.2537H3.51465C3.1131 10.2542 2.72815 10.4139 2.44422 10.6979C2.16028 10.9818 2.00053 11.3668 2 11.7683V13.7312C2.00074 14.329 2.23854 14.9021 2.66125 15.3248C3.08397 15.7475 3.65708 15.9853 4.25488 15.9861ZM6.94629 16.5315C6.73948 16.5314 6.53733 16.4701 6.3654 16.3551C6.19347 16.2402 6.05949 16.0768 5.98039 15.8858C5.90129 15.6947 5.88064 15.4844 5.92103 15.2816C5.96142 15.0788 6.06106 14.8925 6.20733 14.7463C6.3536 14.6001 6.53994 14.5005 6.74278 14.4602C6.94563 14.4199 7.15587 14.4407 7.34692 14.5199C7.53797 14.5991 7.70124 14.7331 7.8161 14.9051C7.93096 15.0771 7.99224 15.2793 7.99219 15.4861C7.99184 15.7633 7.88152 16.0291 7.68544 16.2251C7.48935 16.4211 7.22353 16.5313 6.94629 16.5315ZM16.2437 16.5315C16.0368 16.5315 15.8346 16.4702 15.6626 16.3554C15.4906 16.2405 15.3566 16.0772 15.2774 15.8861C15.1982 15.695 15.1775 15.4848 15.2178 15.2819C15.2582 15.079 15.3578 14.8927 15.504 14.7465C15.6503 14.6002 15.8366 14.5006 16.0395 14.4603C16.2423 14.4199 16.4526 14.4407 16.6437 14.5198C16.8348 14.599 16.9981 14.7331 17.1129 14.9051C17.2278 15.077 17.2891 15.2792 17.2891 15.4861C17.2887 15.7632 17.1785 16.0289 16.9825 16.2249C16.7865 16.4209 16.5208 16.5311 16.2437 16.5315ZM8.125 7.46851H11.52C12.3256 7.46774 13.1023 7.76817 13.6977 8.31079L15.7615 10.187L4.90472 10.2505C5.02022 9.47835 5.40857 8.77316 5.99937 8.26278C6.59016 7.7524 7.34428 7.47061 8.125 7.46851ZM3 11.7683C3.00019 11.6319 3.05447 11.5011 3.15094 11.4046C3.24742 11.3081 3.37821 11.2538 3.51465 11.2537H4.3584L17.0498 11.1794H19.4253C19.8428 11.18 20.243 11.346 20.5382 11.6412C20.8334 11.9364 20.9995 12.3367 21 12.7541V13.3757C20.9995 13.7932 20.8334 14.1934 20.5382 14.4886C20.243 14.7838 19.8428 14.9499 19.4253 14.9504H18.2089C18.0924 14.5142 17.8342 14.1291 17.4749 13.8557C17.1156 13.5823 16.6756 13.4362 16.2241 13.4403C15.7726 13.4444 15.3353 13.5984 14.981 13.8783C14.6266 14.1581 14.3754 14.5478 14.2669 14.9861H8.9231C8.81348 14.5447 8.55929 14.1527 8.20104 13.8725C7.84278 13.5924 7.40108 13.4402 6.94629 13.4402C6.4915 13.4402 6.0498 13.5924 5.69154 13.8725C5.33329 14.1527 5.07911 14.5447 4.96948 14.9861H4.25488C3.92219 14.9857 3.60323 14.8533 3.36798 14.6181C3.13273 14.3828 3.00039 14.0639 3 13.7312V11.7683Z" fill="#000000ff"/>
</svg>
