<?xml version="1.0" ?>
<svg xmlns="http://www.w3.org/2000/svg" width="24.0" height="24.0" viewBox="0 0 24.0 24.0">
  <path d="M20.2639 6.74524H10.1322C9.54102 6.74621 8.96351 6.92296 8.47306 7.25301C7.98262 7.58305 7.6014 8.05149 7.37787 8.59876H8.68705C9.259 8.6034 9.82264 8.73621 10.3365 8.98741H17.635L17.3756 10.1909C17.3438 10.3348 17.264 10.4636 17.1492 10.5561C17.0345 10.6487 16.8916 10.6993 16.7442 10.6999H12.485L13.0175 11.1842H14.1943C14.6322 11.1873 15.0626 11.2988 15.4469 11.5087H16.7442C17.0764 11.5073 17.3981 11.3928 17.6565 11.1841C17.9148 10.9754 18.0944 10.6849 18.1657 10.3605L18.5307 8.66781C18.5432 8.60888 18.5424 8.54791 18.5284 8.48933C18.5143 8.43075 18.4874 8.37604 18.4496 8.32917C18.4117 8.2823 18.3639 8.24446 18.3096 8.21841C18.2553 8.19235 18.1959 8.17873 18.1356 8.17854H8.96276C8.83057 8.17932 8.69886 8.19468 8.57004 8.22434C8.77158 8.01281 9.01393 7.84435 9.28243 7.72915C9.55093 7.61396 9.84001 7.55441 10.1322 7.55412H20.2639C20.4634 7.55577 20.657 7.62244 20.8152 7.74402C20.9734 7.86561 21.0877 8.03547 21.1406 8.22786H20.5859C20.3023 8.22811 20.0285 8.33204 19.8161 8.52008C19.6037 8.70812 19.4674 8.96731 19.4328 9.24886L19.1319 11.7001C19.1121 11.8635 19.1271 12.0292 19.176 12.1863C19.2249 12.3434 19.3065 12.4884 19.4155 12.6116C19.5245 12.7348 19.6585 12.8335 19.8084 12.9012C19.9584 12.9689 20.121 13.004 20.2856 13.0042H21.1921V14.3576H19.6694C19.5978 14.0684 19.4481 13.8043 19.2367 13.5943C19.0253 13.3843 18.7603 13.2364 18.4706 13.1667C18.1808 13.097 17.8775 13.1083 17.5938 13.1992C17.31 13.2901 17.0566 13.4573 16.8614 13.6823C16.8659 13.7456 16.8804 13.8059 16.8804 13.8703V14.3034C16.8804 14.3236 16.8749 14.3424 16.8744 14.3625C16.8588 14.7423 16.7683 15.1153 16.608 15.46C16.7503 15.7657 16.9839 16.0197 17.2766 16.1872C17.5693 16.3546 17.9067 16.4273 18.2424 16.3951C18.578 16.3629 18.8955 16.2275 19.151 16.0075C19.4066 15.7875 19.5877 15.4937 19.6694 15.1665H21.5961C21.7032 15.1664 21.806 15.1237 21.8817 15.0478C21.9574 14.972 22 14.8692 22 14.762V8.48236C21.9996 8.02194 21.8166 7.58047 21.4911 7.25481C21.1657 6.92914 20.7243 6.74589 20.2639 6.74524ZM18.0863 15.5936C17.9218 15.5936 17.7611 15.5448 17.6243 15.4534C17.4876 15.3621 17.381 15.2322 17.318 15.0802C17.2551 14.9283 17.2386 14.7611 17.2707 14.5998C17.3028 14.4385 17.382 14.2903 17.4983 14.174C17.6146 14.0577 17.7628 13.9785 17.9241 13.9464C18.0854 13.9143 18.2526 13.9308 18.4045 13.9937C18.5565 14.0567 18.6864 14.1633 18.7777 14.3C18.8691 14.4368 18.9179 14.5975 18.9179 14.762C18.9176 14.9825 18.8299 15.1938 18.674 15.3497C18.5181 15.5056 18.3068 15.5933 18.0863 15.5936ZM20.2856 12.1953C20.2355 12.1953 20.1859 12.1848 20.1402 12.1642C20.0945 12.1437 20.0537 12.1137 20.0205 12.0762C19.9872 12.0387 19.9623 11.9946 19.9474 11.9468C19.9325 11.8989 19.9279 11.8485 19.9339 11.7988L20.2348 9.34746C20.2453 9.26172 20.2868 9.1828 20.3515 9.12556C20.4162 9.06832 20.4996 9.03672 20.5859 9.03673H21.1921V12.1953H20.2856ZM14.1943 12.0207H12.694L12.1308 11.5087L11.7786 11.1885L11.2409 10.6998L10.7103 10.2175C10.1568 9.71396 9.43535 9.43503 8.68709 9.43523H6.32209C5.59071 9.44919 4.88788 9.72163 4.33817 10.2043C3.78846 10.6869 3.42736 11.3486 3.31887 12.072H3.11073C2.88838 12.0775 2.67315 12.1515 2.49439 12.2838C2.34463 12.3817 2.22122 12.5148 2.13501 12.6716C2.0488 12.8283 2.00244 13.0039 2 13.1827V14.5509C2.0011 14.9102 2.12126 15.2591 2.34168 15.5429C2.56211 15.8266 2.87036 16.0294 3.21825 16.1193C3.35115 16.1562 3.48824 16.1757 3.62614 16.1775H4.08342C4.17046 16.4865 4.35605 16.7586 4.61197 16.9524C4.86788 17.1462 5.1801 17.2511 5.50111 17.2511C5.82212 17.2511 6.13434 17.1462 6.39025 16.9524C6.64617 16.7586 6.83176 16.4865 6.9188 16.1775H10.5599C10.5807 16.2535 10.6076 16.3277 10.6404 16.3993C10.7473 16.6269 10.9101 16.8236 11.1136 16.9711C11.3079 17.1104 11.533 17.2005 11.7697 17.2337C12.0064 17.267 12.2476 17.2423 12.4727 17.1619C12.6977 17.0814 12.9 16.9476 13.062 16.7719C13.224 16.5961 13.341 16.3837 13.4029 16.1529H14.1943C14.216 16.1529 14.2362 16.1472 14.2577 16.1465C14.7252 16.1273 15.1683 15.9325 15.4983 15.6008C15.8283 15.2691 16.0211 14.8252 16.0379 14.3576C16.0385 14.3391 16.0434 14.3219 16.0434 14.3033V13.8703C16.0429 13.38 15.848 12.9099 15.5013 12.5631C15.1547 12.2164 14.6846 12.0213 14.1943 12.0207ZM15.2355 14.3033C15.2355 14.3225 15.2256 14.3386 15.2245 14.3576C15.2045 14.6093 15.0956 14.8456 14.9172 15.0243C14.7388 15.2029 14.5026 15.3122 14.2509 15.3326C14.2311 15.3337 14.2143 15.344 14.1943 15.344H13.3875C13.318 15.109 13.1902 14.8953 13.016 14.7229C12.8418 14.5504 12.6269 14.4248 12.3912 14.3576C12.3425 14.3419 12.2931 14.3288 12.2431 14.3183C11.8821 14.2526 11.5096 14.3239 11.1984 14.5181C10.8871 14.7123 10.6595 15.0156 10.5598 15.3687H6.9188C6.83178 15.0597 6.64618 14.7876 6.39027 14.5938C6.13435 14.4 5.82213 14.2951 5.50111 14.2951C5.18009 14.2951 4.86787 14.4 4.61195 14.5938C4.35604 14.7876 4.17044 15.0597 4.08342 15.3687H3.62614C3.49189 15.3657 3.36057 15.3288 3.24439 15.2615C3.11402 15.1938 3.00453 15.0919 2.92764 14.9667C2.85074 14.8416 2.80935 14.6978 2.80789 14.5509V13.1827C2.80811 13.1026 2.84012 13.0258 2.8969 12.9692C2.95367 12.9126 3.03057 12.8808 3.11073 12.8809H3.69864L4.85493 12.8742L7.15364 12.8608L7.96153 12.8562L11.1464 12.8377L12.5401 12.8296H14.1943C14.4703 12.8298 14.7349 12.9395 14.9301 13.1346C15.1253 13.3297 15.2352 13.5943 15.2355 13.8703V14.3033ZM11.9778 16.4459C11.9586 16.4459 11.9424 16.4365 11.9235 16.4349C11.7576 16.4186 11.6032 16.3424 11.4893 16.2206C11.3754 16.0988 11.3097 15.9398 11.3046 15.7731C11.3046 15.7662 11.3083 15.7605 11.3085 15.7537C11.3162 15.5904 11.3827 15.4354 11.4958 15.3174C11.6088 15.1993 11.7607 15.1261 11.9235 15.1113C11.9424 15.1097 11.9585 15.1003 11.9778 15.1003C12.0316 15.1043 12.0847 15.1151 12.1359 15.1323C12.1768 15.1393 12.217 15.15 12.2559 15.1644L12.2589 15.1664C12.371 15.2184 12.4665 15.3005 12.5348 15.4035C12.6031 15.5065 12.6416 15.6264 12.6459 15.7499C12.6462 15.758 12.6506 15.7649 12.6506 15.7731C12.6493 15.9172 12.6014 16.057 12.5138 16.1715C12.4263 16.286 12.3039 16.3689 12.1652 16.4079C12.1049 16.4297 12.0418 16.4425 11.9778 16.4459ZM5.447 16.435C5.27955 16.4226 5.12291 16.3476 5.00823 16.225C4.89354 16.1024 4.82923 15.941 4.82807 15.7731L4.82832 15.772C4.82971 15.6044 4.8941 15.4433 5.00872 15.3209C5.12333 15.1985 5.27978 15.1237 5.447 15.1113C5.46568 15.1098 5.48171 15.1004 5.50082 15.1004C5.52006 15.1004 5.53621 15.1098 5.55508 15.1114C5.72156 15.1238 5.87735 15.1981 5.99174 15.3197C6.10613 15.4413 6.17083 15.6013 6.17308 15.7682L6.17408 15.7732C6.17291 15.9411 6.10858 16.1024 5.99388 16.225C5.87919 16.3476 5.72253 16.4226 5.55508 16.435C5.53621 16.4366 5.52008 16.446 5.50082 16.446C5.48175 16.4459 5.46572 16.4365 5.447 16.435ZM4.47647 11.231C4.67931 10.9275 4.95382 10.6787 5.27573 10.5066C5.59763 10.3344 5.957 10.2443 6.32203 10.2442H8.68703C9.1673 10.2464 9.63351 10.4066 10.0138 10.6999C10.0648 10.7387 10.1193 10.7719 10.1672 10.8153L10.5852 11.1955L10.9296 11.5088L11.4991 12.0268L10.2627 12.034L7.96151 12.0473L7.15362 12.052L5.00331 12.0645L4.14018 12.0695C4.19326 11.7698 4.30777 11.4843 4.47651 11.231H4.47647Z" fill="#000000ff"/>
</svg>
