<?xml version="1.0" ?>
<svg xmlns="http://www.w3.org/2000/svg" width="96.0" height="24.0" viewBox="0 0 96.0 24.0">
  <path d="M6.22024 11.0732C5.98165 10.8162 5.74918 10.6449 5.52282 10.5593C5.30259 10.4736 5.0793 10.4308 4.85294 10.4308C4.51647 10.4308 4.21059 10.492 3.9353 10.6144C3.66612 10.7305 3.43365 10.8957 3.23788 11.1099C3.04212 11.3178 2.88918 11.5626 2.77906 11.844C2.67506 12.1254 2.62306 12.4282 2.62306 12.7525C2.62306 13.1012 2.67506 13.4224 2.77906 13.716C2.88918 14.0096 3.04212 14.2635 3.23788 14.4776C3.43365 14.6917 3.66612 14.86 3.9353 14.9824C4.21059 15.1047 4.51647 15.1659 4.85294 15.1659C5.116 15.1659 5.36988 15.1047 5.61459 14.9824C5.86541 14.8539 6.09789 14.652 6.312 14.3767L7.26635 15.0558C6.97271 15.4595 6.61482 15.7532 6.19271 15.9367C5.77059 16.1202 5.32094 16.212 4.84377 16.212C4.34212 16.212 3.88024 16.1324 3.45812 15.9734C3.04212 15.8082 2.68118 15.5788 2.3753 15.2852C2.07553 14.9854 1.84 14.6275 1.66871 14.2115C1.49741 13.7955 1.41177 13.3336 1.41177 12.8259C1.41177 12.3059 1.49741 11.8348 1.66871 11.4127C1.84 10.9844 2.07553 10.6204 2.3753 10.3207C2.68118 10.0209 3.04212 9.7915 3.45812 9.63247C3.88024 9.46729 4.34212 9.3847 4.84377 9.3847C5.28424 9.3847 5.69106 9.46419 6.06424 9.62329C6.44353 9.77619 6.7953 10.0393 7.11953 10.4125L6.22024 11.0732Z" fill="#000000ff"/>
  <path d="M10.1438 9.54988H11.144L13.9429 16.0468H12.6215L12.0158 14.5602H9.19864L8.61134 16.0468H7.31746L10.1438 9.54988ZM11.612 13.5692L10.6118 10.9264L9.59322 13.5692H11.612Z" fill="#000000ff"/>
  <path d="M14.6648 9.54988H16.9223C17.2343 9.54988 17.534 9.58045 17.8216 9.64165C18.1152 9.6967 18.3752 9.79454 18.6016 9.93529C18.8279 10.076 19.0084 10.2656 19.143 10.5042C19.2776 10.7428 19.3449 11.0456 19.3449 11.4127C19.3449 11.8837 19.2133 12.2783 18.9503 12.5965C18.6933 12.9145 18.3232 13.1072 17.84 13.1746L19.5652 16.0468H18.1703L16.6653 13.2939H15.8211V16.0468H14.6648V9.54988ZM16.7204 12.3028C16.8856 12.3028 17.0508 12.2967 17.216 12.2845C17.3812 12.2661 17.531 12.2294 17.6656 12.1744C17.8063 12.1132 17.9195 12.0244 18.0052 11.9082C18.0908 11.7858 18.1336 11.6176 18.1336 11.4035C18.1336 11.2139 18.0938 11.0609 18.0143 10.9447C17.9348 10.8284 17.8308 10.7428 17.7023 10.6878C17.5739 10.6266 17.4301 10.5868 17.271 10.5685C17.1181 10.5501 16.9681 10.5409 16.8213 10.5409H15.8211V12.3028H16.7204Z" fill="#000000ff"/>
  <path d="M25.2617 9.54988H26.2619L29.0607 16.0468H27.7393L27.1337 14.5602H24.3165L23.7292 16.0468H22.4353L25.2617 9.54988ZM26.7299 13.5692L25.7297 10.9263L24.7111 13.5692H26.7299ZM26.1793 9.10941H25.3167L24.0229 7.78799H25.2709L26.1793 9.10941Z" fill="#000000ff"/>
  <path d="M32.498 9.54988H34.7555C35.0675 9.54988 35.3672 9.58045 35.6548 9.64165C35.9484 9.6967 36.2084 9.79454 36.4348 9.93529C36.6611 10.076 36.8416 10.2656 36.9762 10.5042C37.1108 10.7428 37.178 11.0456 37.178 11.4127C37.178 11.8837 37.0465 12.2783 36.7835 12.5965C36.5265 12.9145 36.1564 13.1072 35.6731 13.1746L37.3983 16.0468H36.0035L34.4985 13.2939H33.6543V16.0468H32.498V9.54988ZM34.5536 12.3028C34.7188 12.3028 34.8839 12.2967 35.0491 12.2845C35.2143 12.2661 35.3642 12.2294 35.4988 12.1744C35.6395 12.1132 35.7527 12.0244 35.8383 11.9082C35.924 11.7858 35.9668 11.6176 35.9668 11.4035C35.9668 11.2139 35.927 11.0609 35.8475 10.9447C35.768 10.8284 35.6639 10.7428 35.5355 10.6878C35.407 10.6266 35.2633 10.5868 35.1042 10.5685C34.9513 10.5501 34.8013 10.5409 34.6545 10.5409H33.6543V12.3028H34.5536Z" fill="#000000ff"/>
  <path d="M38.2782 9.54988H42.5819V10.596H39.4344V12.1927H42.4168V13.2388H39.4344V15.0007H42.7471V16.0468H38.2782V9.54988ZM40.8384 7.78799H42.0864L40.7925 9.10941H39.9299L40.8384 7.78799Z" fill="#000000ff"/>
  <path d="M47.0723 10.9447C46.9499 10.7672 46.7847 10.6388 46.5767 10.5593C46.3749 10.4736 46.1607 10.4308 45.9344 10.4308C45.7998 10.4308 45.6683 10.4461 45.5398 10.4767C45.4174 10.5073 45.3042 10.5562 45.2003 10.6235C45.1024 10.6908 45.0228 10.7795 44.9617 10.8896C44.9005 10.9936 44.8699 11.1191 44.8699 11.2659C44.8699 11.4861 44.9464 11.6543 45.0993 11.7706C45.2522 11.8868 45.4419 11.9877 45.6683 12.0734C45.8946 12.159 46.1423 12.2416 46.4116 12.3212C46.6807 12.4007 46.9285 12.5108 47.1548 12.6515C47.3812 12.7922 47.5708 12.9788 47.7238 13.2113C47.8767 13.4437 47.9532 13.7527 47.9532 14.1381C47.9532 14.4868 47.889 14.7927 47.7605 15.0558C47.632 15.3127 47.4577 15.5268 47.2374 15.6981C47.0233 15.8694 46.7725 15.9978 46.485 16.0835C46.1974 16.1692 45.8946 16.212 45.5765 16.212C45.1727 16.212 44.7842 16.1447 44.4111 16.0101C44.0379 15.8755 43.7167 15.6491 43.4476 15.3311L44.3193 14.4868C44.46 14.7009 44.6435 14.8691 44.8699 14.9915C45.1024 15.1077 45.3471 15.1659 45.604 15.1659C45.7386 15.1659 45.8732 15.1475 46.0078 15.1108C46.1423 15.0741 46.2647 15.0191 46.3748 14.9456C46.485 14.8722 46.5736 14.7805 46.641 14.6704C46.7082 14.5541 46.7419 14.4226 46.7419 14.2758C46.7419 14.0372 46.6654 13.8536 46.5125 13.7252C46.3595 13.5967 46.1699 13.4896 45.9436 13.404C45.7172 13.3122 45.4694 13.2265 45.2003 13.1471C44.931 13.0675 44.6833 12.9604 44.457 12.8259C44.2306 12.6851 44.0409 12.5016 43.888 12.2753C43.7351 12.0428 43.6586 11.7339 43.6586 11.3485C43.6586 11.012 43.7259 10.7214 43.8605 10.4767C44.0012 10.232 44.1817 10.0301 44.4019 9.87106C44.6282 9.70588 44.8852 9.58348 45.1727 9.504C45.4602 9.42445 45.7539 9.3847 46.0537 9.3847C46.3962 9.3847 46.7266 9.43666 47.0447 9.5407C47.3689 9.64468 47.6596 9.816 47.9165 10.0546L47.0723 10.9447Z" fill="#000000ff"/>
  <path d="M49.1573 9.54988H53.4611V10.596H50.3135V12.1927H53.2959V13.2388H50.3135V15.0007H53.6262V16.0468H49.1573V9.54988Z" fill="#000000ff"/>
  <path d="M54.7672 9.54988H57.0246C57.3366 9.54988 57.6363 9.58045 57.9239 9.64165C58.2175 9.6967 58.4775 9.79454 58.7039 9.93529C58.9302 10.076 59.1107 10.2656 59.2453 10.5042C59.3798 10.7428 59.4471 11.0456 59.4471 11.4127C59.4471 11.8837 59.3156 12.2783 59.0526 12.5965C58.7956 12.9145 58.4255 13.1072 57.9422 13.1746L59.6674 16.0468H58.2726L56.7676 13.2939H55.9234V16.0468H54.7672V9.54988ZM56.8227 12.3028C56.9879 12.3028 57.153 12.2967 57.3182 12.2845C57.4834 12.2661 57.6332 12.2294 57.7679 12.1744C57.9085 12.1132 58.0217 12.0244 58.1074 11.9082C58.193 11.7858 58.2359 11.6176 58.2359 11.4035C58.2359 11.2139 58.196 11.0609 58.1166 10.9447C58.037 10.8284 57.933 10.7428 57.8046 10.6878C57.6761 10.6266 57.5323 10.5868 57.3733 10.5685C57.2203 10.5501 57.0704 10.5409 56.9236 10.5409H55.9234V12.3028H56.8227Z" fill="#000000ff"/>
  <path d="M59.7948 9.54988H61.1254L62.8965 14.4593L64.7226 9.54988H65.9706L63.346 16.0468H62.3458L59.7948 9.54988Z" fill="#000000ff"/>
  <path d="M68.2674 9.54988H69.2677L72.0664 16.0468H70.7449L70.1394 14.5602H67.3223L66.735 16.0468H65.4411L68.2674 9.54988ZM69.7357 13.5692L68.7354 10.9264L67.7168 13.5692H69.7357Z" fill="#000000ff"/>
  <path d="M73.2769 10.596H71.2856V9.54988H76.4245V10.596H74.4332V16.0468H73.2769V10.596Z" fill="#000000ff"/>
  <path d="M77.1882 9.54988H78.3445V16.0468H77.1882V9.54988Z" fill="#000000ff"/>
  <path d="M79.4209 12.8259C79.4209 12.3059 79.5064 11.8348 79.6779 11.4127C79.8487 10.9845 80.0845 10.6204 80.3845 10.3207C80.6901 10.0209 81.0508 9.79151 81.4673 9.63248C81.8894 9.4673 82.3511 9.38471 82.8529 9.38471C83.3605 9.37857 83.8256 9.45502 84.2478 9.61412C84.6699 9.76702 85.0334 9.99339 85.3398 10.2932C85.6454 10.5929 85.884 10.9539 86.0555 11.376C86.2264 11.7981 86.3125 12.2692 86.3125 12.7892C86.3125 13.2969 86.2264 13.7588 86.0555 14.1748C85.884 14.5908 85.6454 14.9487 85.3398 15.2485C85.0334 15.5482 84.6699 15.7837 84.2478 15.9551C83.8256 16.1202 83.3605 16.2059 82.8529 16.212C82.3511 16.212 81.8894 16.1325 81.4673 15.9734C81.0508 15.8082 80.6901 15.5788 80.3845 15.2852C80.0845 14.9854 79.8487 14.6275 79.6779 14.2115C79.5064 13.7955 79.4209 13.3336 79.4209 12.8259ZM80.6322 12.7525C80.6322 13.1012 80.6838 13.4224 80.7882 13.716C80.8984 14.0097 81.0508 14.2635 81.2471 14.4777C81.4426 14.6917 81.6748 14.86 81.9445 14.9824C82.2198 15.1047 82.5254 15.1659 82.8621 15.1659C83.1981 15.1659 83.5045 15.1047 83.7798 14.9824C84.0551 14.86 84.2901 14.6917 84.4864 14.4777C84.6819 14.2635 84.8315 14.0097 84.936 13.716C85.0461 13.4224 85.1012 13.1012 85.1012 12.7525C85.1012 12.4282 85.0461 12.1254 84.936 11.844C84.8315 11.5626 84.6819 11.3178 84.4864 11.1099C84.2901 10.8957 84.0551 10.7305 83.7798 10.6144C83.5045 10.492 83.1981 10.4308 82.8621 10.4308C82.5254 10.4308 82.2198 10.492 81.9445 10.6144C81.6748 10.7305 81.4426 10.8957 81.2471 11.1099C81.0508 11.3178 80.8984 11.5626 80.7882 11.844C80.6838 12.1254 80.6322 12.4282 80.6322 12.7525Z" fill="#000000ff"/>
  <path d="M87.4137 9.54988H88.9461L92.0937 14.3767H92.112V9.54988H93.2682V16.0468H91.8L88.5882 11.064H88.5699V16.0468H87.4137V9.54988Z" fill="#000000ff"/>
</svg>
