<?xml version="1.0" ?>
<svg xmlns="http://www.w3.org/2000/svg" width="24.0" height="24.0" viewBox="0 0 24.0 24.0">
  <path d="M18.0269 13.2173H16.0386L13.4175 10.8345C12.6946 10.1764 11.752 9.81214 10.7744 9.813H7.66016C6.69511 9.8147 5.76382 10.1684 5.04091 10.8077C4.31799 11.447 3.8531 12.328 3.7334 13.2856H3.43115C3.05177 13.286 2.68803 13.4368 2.41973 13.705C2.15142 13.9732 2.00047 14.3369 2 14.7163V16.5171C2.00067 17.0764 2.22319 17.6126 2.61873 18.0081C3.01428 18.4035 3.55054 18.6259 4.10986 18.6265H4.73566C4.84357 19.033 5.08285 19.3925 5.41625 19.6489C5.74965 19.9054 6.15848 20.0444 6.5791 20.0444C6.99973 20.0444 7.40856 19.9054 7.74196 19.6489C8.07536 19.3925 8.31464 19.033 8.42255 18.6265H13.2645C13.3733 19.0358 13.6153 19.3974 13.9522 19.6541C14.2891 19.9108 14.7019 20.0481 15.1255 20.0444C15.549 20.0407 15.9594 19.8962 16.2918 19.6337C16.6242 19.3711 16.8598 19.0054 16.9615 18.5942H18.0269C18.6641 18.5935 19.275 18.3401 19.7255 17.8895C20.1761 17.439 20.4295 16.8281 20.4302 16.1909V15.6206C20.4295 14.9834 20.1761 14.3725 19.7255 13.922C19.2749 13.4714 18.664 13.218 18.0269 13.2173ZM7.66016 10.813H10.7744C11.5033 10.8125 12.2061 11.0841 12.7451 11.5747L14.5601 13.2248L4.75159 13.2824C4.86661 12.5936 5.22178 11.9677 5.75417 11.5157C6.28656 11.0637 6.96178 10.8147 7.66016 10.813ZM6.5791 19.0444C6.39754 19.0444 6.22005 18.9906 6.06909 18.8897C5.91812 18.7888 5.80046 18.6455 5.73098 18.4777C5.6615 18.31 5.64332 18.1254 5.67874 17.9473C5.71416 17.7693 5.80159 17.6057 5.92998 17.4773C6.05836 17.3489 6.22193 17.2615 6.40001 17.2261C6.57808 17.1906 6.76266 17.2088 6.9304 17.2783C7.09815 17.3478 7.24152 17.4655 7.34239 17.6164C7.44326 17.7674 7.4971 17.9449 7.4971 18.1264C7.49681 18.3698 7.4 18.6031 7.22791 18.7752C7.05581 18.9473 6.82248 19.0441 6.5791 19.0444ZM15.1079 19.0444C14.9263 19.0444 14.7489 18.9906 14.5979 18.8897C14.4469 18.7888 14.3293 18.6455 14.2598 18.4777C14.1903 18.31 14.1721 18.1254 14.2075 17.9473C14.243 17.7693 14.3304 17.6057 14.4588 17.4773C14.5872 17.3489 14.7507 17.2615 14.9288 17.2261C15.1069 17.1906 15.2915 17.2088 15.4592 17.2783C15.627 17.3478 15.7703 17.4655 15.8712 17.6164C15.9721 17.7674 16.0259 17.9449 16.0259 18.1264C16.0256 18.3698 15.9288 18.6031 15.7567 18.7752C15.5846 18.9473 15.3513 19.0441 15.1079 19.0444ZM19.4302 16.1909C19.4297 16.563 19.2817 16.9196 19.0187 17.1827C18.7556 17.4458 18.3989 17.5938 18.0269 17.5942H16.9414C16.8273 17.1924 16.5844 16.8392 16.25 16.5889C15.9156 16.3385 15.5083 16.2049 15.0906 16.2086C14.6729 16.2122 14.268 16.3529 13.9381 16.6091C13.6082 16.8653 13.3715 17.2227 13.2645 17.6265H8.42255C8.31464 17.2199 8.07536 16.8604 7.74196 16.604C7.40856 16.3475 6.99973 16.2085 6.5791 16.2085C6.15848 16.2085 5.74965 16.3475 5.41625 16.604C5.08285 16.8604 4.84357 17.2199 4.73566 17.6265H4.10986C3.8157 17.6261 3.53369 17.5091 3.32564 17.3012C3.11759 17.0932 3.00049 16.8112 3 16.5171V14.7163C3.00021 14.6021 3.04572 14.4926 3.12654 14.4118C3.20737 14.3311 3.31691 14.2857 3.43115 14.2856H4.20508L15.8481 14.2173H18.0269C18.3989 14.2177 18.7556 14.3657 19.0187 14.6288C19.2817 14.8919 19.4297 15.2486 19.4302 15.6206V16.1909ZM18.0835 5.20654C17.1172 5.19514 16.1729 5.49516 15.3903 6.06219C15.1806 5.41189 14.7586 4.85081 14.1921 4.46884C13.6255 4.08688 12.9471 3.90613 12.2656 3.95557C10.5132 3.95557 9.0874 5.08936 9.0874 6.48291C9.15636 7.14019 9.45805 7.75116 9.938 8.20549C10.4179 8.65983 11.0445 8.9276 11.7046 8.96045L12.7397 9.83252C12.8127 9.89375 12.9016 9.9329 12.996 9.94537C13.0904 9.95784 13.1864 9.94311 13.2728 9.90292C13.3591 9.86272 13.4322 9.79873 13.4834 9.71845C13.5346 9.63817 13.5619 9.54494 13.562 9.44971V8.78171C13.7791 8.70395 13.9877 8.6044 14.1847 8.48459C14.2746 9.11178 14.5492 9.698 14.9736 10.1685C15.3979 10.639 15.9528 10.9725 16.5674 11.1264V12.0776C16.5674 12.1728 16.5946 12.2661 16.6458 12.3463C16.697 12.4266 16.77 12.4906 16.8563 12.5308C16.9426 12.571 17.0386 12.5858 17.133 12.5733C17.2274 12.5608 17.3163 12.5217 17.3892 12.4604L18.7412 11.3227C20.6099 11.0728 22 9.7915 22 8.2915C22 6.59033 20.2432 5.20654 18.0835 5.20654ZM18.2124 10.4605L17.5674 11.0035V10.7486C17.5673 10.636 17.5293 10.5268 17.4595 10.4386C17.3897 10.3503 17.2921 10.2882 17.1826 10.2622C15.9766 9.97607 15.1665 9.18408 15.1665 8.2915C15.1665 7.14209 16.4751 6.2065 18.0835 6.2065C19.6919 6.2065 21 7.14209 21 8.2915C21 9.31787 19.9185 10.2007 18.4839 10.3462C18.3839 10.356 18.2893 10.3958 18.2124 10.4605ZM12.563 8.37549L12.2349 8.09912C12.1576 8.03447 12.0627 7.99465 11.9624 7.98486C10.8936 7.87646 10.0874 7.23096 10.0874 6.48291C10.0874 5.65479 11.085 4.95557 12.2656 4.95557C13.4463 4.95557 14.4439 5.65479 14.4439 6.48291C14.4439 7.12061 13.8281 7.7124 12.9468 7.92139C12.8426 7.94592 12.749 8.0033 12.6799 8.08506C12.6108 8.16683 12.5698 8.26865 12.563 8.37549ZM17.2446 8.22217C17.244 8.37275 17.1837 8.51695 17.077 8.62321C16.9703 8.72947 16.8259 8.78912 16.6753 8.78912C16.5247 8.78912 16.3803 8.72947 16.2736 8.62321C16.1669 8.51695 16.1066 8.37275 16.106 8.22217C16.1066 8.07159 16.1669 7.92739 16.2736 7.82113C16.3803 7.71487 16.5247 7.65522 16.6753 7.65522C16.8259 7.65522 16.9703 7.71487 17.077 7.82113C17.1837 7.92739 17.244 8.07159 17.2446 8.22217ZM18.791 8.22217C18.7913 8.29711 18.7769 8.37137 18.7484 8.44069C18.7199 8.51001 18.6781 8.57303 18.6252 8.62613C18.5723 8.67922 18.5095 8.72136 18.4403 8.75011C18.3711 8.77886 18.2969 8.79366 18.2219 8.79366C18.147 8.79366 18.0728 8.77886 18.0036 8.75011C17.9344 8.72136 17.8716 8.67922 17.8187 8.62613C17.7658 8.57303 17.7239 8.51001 17.6955 8.44069C17.667 8.37137 17.6525 8.29711 17.6528 8.22217C17.6535 8.07165 17.7137 7.92751 17.8204 7.8213C17.927 7.71509 18.0714 7.65546 18.2219 7.65546C18.3725 7.65546 18.5168 7.71509 18.6235 7.8213C18.7302 7.92751 18.7904 8.07165 18.791 8.22217ZM20.3379 8.22217C20.3373 8.37275 20.277 8.51695 20.1703 8.62321C20.0636 8.72947 19.9191 8.78912 19.7686 8.78912C19.618 8.78912 19.4735 8.72947 19.3668 8.62321C19.2601 8.51695 19.1999 8.37275 19.1992 8.22217C19.1999 8.07159 19.2601 7.92739 19.3668 7.82113C19.4735 7.71487 19.618 7.65522 19.7686 7.65522C19.9191 7.65522 20.0636 7.71487 20.1703 7.82113C20.277 7.92739 20.3373 8.07159 20.3379 8.22217Z" fill="#000000ff"/>
</svg>
