<?xml version="1.0" ?>
<svg xmlns="http://www.w3.org/2000/svg" width="69.0" height="24.0" viewBox="0 0 69.0 24.0">
  <path d="M36.5763 11.8782C35.6665 11.6435 35.494 11.6087 35.494 11.3286C35.494 11.0228 35.7891 10.9169 36.0434 10.9169C36.4249 10.9169 36.7352 11.0289 36.7609 11.4664H37.5345C37.5345 10.6278 36.8382 10.2978 36.0798 10.2978C35.4243 10.2978 34.7219 10.6535 34.7219 11.3967C34.7219 12.0779 35.2654 12.2869 35.8057 12.4292C36.3401 12.5714 36.8836 12.638 36.8836 13.0286C36.8836 13.4192 36.4567 13.4812 36.1766 13.4812C35.7498 13.4812 35.3728 13.292 35.3728 12.8091H34.5993C34.5887 13.7037 35.3411 14.1003 36.1449 14.1003C37.1318 14.1003 37.6556 13.6023 37.6556 12.9363C37.6556 12.1128 36.8412 11.9447 36.5778 11.8796L36.5763 11.8782Z" fill="#000000ff"/>
  <path d="M40.5196 12.0431C40.836 11.8902 41.0131 11.642 41.0131 11.2863C41.0131 10.6096 40.5453 10.3871 39.8536 10.3871H38.146V14.0171H39.905C40.5605 14.0171 41.1872 13.7022 41.1872 12.965C41.1872 12.5124 40.9631 12.1718 40.5211 12.0447L40.5196 12.0431ZM38.9438 11.0062H39.6916C39.9762 11.0062 40.2411 11.0773 40.2411 11.4225C40.2411 11.7283 40.0321 11.8554 39.7536 11.8554H38.9453V11.0062H38.9438ZM39.7975 13.3964H38.9438V12.4004H39.8127C40.1533 12.4004 40.3879 12.5488 40.3879 12.9196C40.3879 13.2905 40.1139 13.3979 39.7975 13.3979V13.3964Z" fill="#000000ff"/>
  <path d="M44.092 12.0431C44.4069 11.8902 44.5855 11.642 44.5855 11.2863C44.5855 10.6096 44.1178 10.3871 43.426 10.3871H41.717V14.0171H43.4759C44.1314 14.0171 44.7566 13.7022 44.7566 12.965C44.7566 12.5124 44.5326 12.1718 44.0905 12.0447L44.092 12.0431ZM42.5162 11.0062H43.264C43.5486 11.0062 43.8136 11.0773 43.8136 11.4225C43.8136 11.7283 43.6046 11.8554 43.3261 11.8554H42.5178V11.0062H42.5162ZM43.37 13.3964H42.5162V12.4004H43.3852C43.7257 12.4004 43.9604 12.5488 43.9604 12.9196C43.9604 13.2905 43.6864 13.3979 43.37 13.3979V13.3964Z" fill="#000000ff"/>
  <path d="M48.2655 13.4312C47.548 13.4312 47.2785 12.8212 47.2785 12.2157C47.2785 11.5799 47.548 10.9699 48.2655 10.9699C48.6621 10.9699 49.0072 11.2439 49.0587 11.6057H49.8307C49.7338 10.767 49.0632 10.2993 48.2655 10.2993C47.1423 10.2993 46.4807 11.1379 46.4807 12.2157C46.4807 13.2935 47.1407 14.1018 48.2655 14.1018C49.1555 14.1018 49.7807 13.5221 49.8625 12.6169H49.089C49.0284 13.0952 48.7529 13.4312 48.2655 13.4312Z" fill="#000000ff"/>
  <path d="M50.3529 14.0156H51.1507V12.5154H52.672V11.8948H51.1507V11.0562H52.9051V10.3856H50.3529V14.0156Z" fill="#000000ff"/>
  <path d="M53.3941 14.0156H54.1903V12.5154H55.7086V11.8948H54.1903V11.0562H55.9432V10.3856H53.3941V14.0156Z" fill="#000000ff"/>
  <path d="M57.6493 14.0156H58.45V12.5154H59.9683V11.8948H58.45V11.0562H60.2014V10.3856H57.6493V14.0156Z" fill="#000000ff"/>
  <path d="M60.8054 14.0156H61.6017V12.5154H63.1199V11.8948H61.6017V11.0562H63.3576V10.3856H60.8054V14.0156Z" fill="#000000ff"/>
  <path d="M65.6222 11.8782C64.7124 11.6435 64.5383 11.6087 64.5383 11.3286C64.5383 11.0228 64.8305 10.9169 65.0878 10.9169C65.4678 10.9169 65.7781 11.0289 65.8053 11.4664H66.5743C66.5743 10.6278 65.8795 10.2978 65.1241 10.2978C64.4657 10.2978 63.7663 10.6535 63.7663 11.3967C63.7663 12.0779 64.3112 12.2869 64.8502 12.4292C65.3815 12.5714 65.9249 12.638 65.9249 13.0286C65.9249 13.4192 65.4995 13.4812 65.2211 13.4812C64.7911 13.4812 64.4157 13.292 64.4157 12.8091H63.6422C63.6331 13.7037 64.3839 14.1003 65.1877 14.1003C66.1762 14.1003 66.6969 13.6023 66.6969 12.9363C66.6969 12.1128 65.8825 11.9447 65.6222 11.8796V11.8782Z" fill="#000000ff"/>
  <path d="M1.41177 6.35294V17.6471H32.9781V6.35294H1.41177ZM27.3348 15.764H25.1474L28.0947 12.8636H24.4314V15.764H22.7073V12.8636H19.044L21.9913 15.764H19.8054L16.0407 11.9992L19.8054 8.23454H21.9913L19.044 11.1349H22.7073V8.23454H24.4314V11.1349H28.0947L25.1474 8.23454H27.3348L31.0995 11.9992L27.3348 15.764Z" fill="#000000ff"/>
</svg>
