<?xml version="1.0" ?>
<svg xmlns="http://www.w3.org/2000/svg" width="28.0" height="34.0" viewBox="0 0 28.0 34.0">
  <path d="M9.50222 12.1644L5.37778 21.8355H2L6.19556 12.1644H9.50222ZM26 12.1644L23.5822 17.8889L23.3689 18.3511C23.3156 18.4489 23.28 18.5289 23.2622 18.6C23.2356 18.6533 23.2089 18.6889 23.1911 18.7067C23.1644 18.7333 23.0844 18.7955 22.9422 18.8844C22.8 18.9555 22.5156 18.9911 22.0889 18.9911H20.1333C20.56 19.3289 20.9156 19.6133 21.2 19.8444C21.5022 20.0578 21.7422 20.2267 21.9111 20.3422C22.0711 20.4666 22.3022 20.6533 22.5867 20.9111C22.8889 21.1511 23.2711 21.4622 23.7244 21.8355H19.4222C18.9244 21.3378 18.4444 20.8933 18 20.4844C17.5733 20.0844 17.1911 19.72 16.8622 19.3822C16.5244 19.0533 16.1511 18.6889 15.7244 18.28C15.2978 17.8533 14.8444 17.3911 14.3733 16.8933L20.5956 16.9289L21.5911 14.5822H14.1244L11.1378 21.8355H7.61778L11.7778 12.1644H26Z" fill="#000000ff"/>
</svg>
