<?xml version="1.0" ?>
<svg xmlns="http://www.w3.org/2000/svg" width="24.0" height="34.0" viewBox="0 0 24.0 34.0">
  <path d="M2 23H5.2026V18.246H5.89714C7.09329 18.246 7.47914 18.7827 8.13509 20.853L8.82963 23H12.1866L11.029 19.7412C10.4116 18.2843 10.3345 17.3642 9.29266 17.0958V17.0575C10.8747 16.7125 11.6078 15.639 11.6078 14.0288C11.6078 11.9585 9.87144 11 7.74924 11H2V23ZM5.2026 13.262H6.05148C7.28621 13.262 8.40519 13.492 8.40519 14.6038C8.40519 15.9457 7.09329 15.984 6.05148 15.984H5.2026V13.262Z" fill="#000000ff"/>
  <path d="M13.3183 23H22V20.738H16.5209V18.016H21.537V15.754H16.5209V13.262H21.8071V11H13.3183V23Z" fill="#000000ff"/>
</svg>
