<?xml version="1.0" ?>
<svg xmlns="http://www.w3.org/2000/svg" width="32.0" height="24.0" viewBox="0 0 32.0 24.0">
  <path d="M21.2989 10.6479H13.9626L10.6391 15.8959H13.6445L15.9492 12.2813H18.4023C19.5728 12.2813 20.6642 11.6658 21.2989 10.6479Z" fill="#000000ff"/>
  <path d="M22.771 14.2625L26.6122 8.10402H23.6086L18.7485 15.8959H27.4563C28.6268 15.8959 29.7182 15.2804 30.3529 14.2625H22.771Z" fill="#000000ff"/>
  <path d="M4.50635 14.2625L7.32876 9.73743H19.9372C21.1093 9.73743 22.199 9.1219 22.8354 8.10402H6.54071C5.79391 8.10402 5.09819 8.49621 4.69264 9.14576L1.59164 14.121C1.11355 14.8866 1.64439 15.8959 2.52639 15.8959H9.87912L10.8979 14.2625H4.50635Z" fill="#000000ff"/>
</svg>
