<?xml version="1.0" ?>
<svg xmlns="http://www.w3.org/2000/svg" width="25.0" height="24.0" viewBox="0 0 25.0 24.0">
  <path d="M21.1189 4.23529H3.60991C2.4078 4.23529 1.41176 5.20055 1.41176 6.4488V17.528C1.41176 18.7762 2.4078 19.7647 3.60991 19.7647H21.1189C22.298 19.7647 23.2941 18.7762 23.2941 17.528V6.44491C23.2979 5.20055 22.3019 4.23529 21.1189 4.23529ZM21.6989 17.528C21.6989 17.8807 21.4661 18.1637 21.1189 18.1637H3.60991C3.26264 18.1637 3.00695 17.8807 3.00695 17.528V6.44491C3.00695 6.09215 3.26264 5.80917 3.60991 5.80917H21.1189C21.4661 5.80917 21.6989 6.09215 21.6989 6.44491V17.528ZM8.10536 6.918H4.42269V17.0823H8.10536C11.1622 17.059 12.0895 14.8921 12.0895 11.9536C12.0857 8.56553 10.6966 6.918 8.10536 6.918ZM7.68557 15.4347H6.83074V8.51513H7.31922C9.49446 8.51513 9.70439 10.1161 9.70439 12.163C9.70058 14.3997 8.96018 15.4347 7.68557 15.4347ZM20.1954 9.62378C20.1954 10.6123 19.3863 11.3178 18.5048 11.7637C19.7298 12.1165 20.5655 12.8685 20.5655 14.14C20.5655 16.2101 18.8521 17.0823 17.0431 17.0823H13.1544V6.918H17.2302C19.1535 6.918 20.1954 7.72044 20.1954 9.62378ZM16.2112 8.4919H15.5434V10.9418H16.3753C17.1614 10.9418 17.7415 10.5852 17.7415 9.71682C17.7415 8.7516 17.0012 8.4919 16.2112 8.4919ZM15.5357 15.4347H16.3944C17.253 15.4347 18.0163 15.1518 18.0125 14.0935C18.0125 13.0585 17.3637 12.822 16.4135 12.822H15.5357V15.4347Z" fill="#000000ff"/>
</svg>
