<?xml version="1.0" ?>
<svg xmlns="http://www.w3.org/2000/svg" width="39.0" height="24.0" viewBox="0 0 39.0 24.0">
  <path d="M21.6381 12.4223H21.9858L22.3274 13.3244H22.331L22.6787 12.4223H23.0049L22.4346 13.7987H22.1905L21.6381 12.4223Z" fill="#000000ff"/>
  <path d="M23.3156 13.1102C23.3156 13.0004 23.3341 12.9003 23.3711 12.8107C23.4081 12.7211 23.4599 12.645 23.5265 12.5825C23.5931 12.5199 23.6713 12.4714 23.7626 12.4376C23.8538 12.4039 23.9531 12.3873 24.0616 12.3873C24.1701 12.3873 24.2694 12.4039 24.36 12.4376C24.4513 12.4714 24.5302 12.5199 24.5961 12.5825C24.6628 12.645 24.7145 12.7211 24.7515 12.8107C24.7885 12.9003 24.807 12.9997 24.807 13.1102C24.807 13.2207 24.7885 13.3201 24.7515 13.4096C24.7145 13.4992 24.6628 13.5753 24.5961 13.6379C24.5296 13.7005 24.4513 13.749 24.36 13.7828C24.2687 13.8165 24.1695 13.833 24.0616 13.833C23.9537 13.833 23.8538 13.8165 23.7626 13.7828C23.6713 13.749 23.5924 13.7005 23.5265 13.6379C23.4599 13.5753 23.4081 13.4992 23.3711 13.4096C23.3341 13.3201 23.3156 13.2207 23.3156 13.1102ZM23.6319 13.1102C23.6319 13.1752 23.6418 13.2342 23.6621 13.2882C23.6824 13.3422 23.7114 13.3887 23.7491 13.4281C23.7866 13.4679 23.8323 13.4987 23.8847 13.5207C23.9377 13.5428 23.9963 13.5539 24.0616 13.5539C24.127 13.5539 24.1855 13.5428 24.2386 13.5207C24.2916 13.4987 24.3366 13.4679 24.3742 13.4281C24.4118 13.3887 24.4408 13.3422 24.4612 13.2882C24.4815 13.2342 24.4913 13.1752 24.4913 13.1102C24.4913 13.0451 24.4815 12.9875 24.4612 12.9335C24.4408 12.8788 24.4118 12.8322 24.3742 12.7923C24.3366 12.753 24.291 12.7224 24.2386 12.7003C24.1861 12.6782 24.127 12.6671 24.0616 12.6671C23.9963 12.6671 23.9377 12.6782 23.8847 12.7003C23.8323 12.7224 23.7866 12.753 23.7491 12.7923C23.7114 12.8316 23.6824 12.8788 23.6621 12.9335C23.6418 12.9881 23.6319 13.047 23.6319 13.1102Z" fill="#000000ff"/>
  <path d="M25.5943 13.2114L25.0752 12.4223H25.4537L25.7466 12.9371L26.0573 12.4223H26.4186L25.8988 13.2114V13.7987H25.5943V13.2114Z" fill="#000000ff"/>
  <path d="M27.0709 12.4223H27.323L27.9248 13.7987H27.5814L27.4624 13.5072H26.9254L26.8101 13.7987H26.4741L27.0709 12.4223ZM27.188 12.8224L27.0203 13.2501H27.3582L27.188 12.8224Z" fill="#000000ff"/>
  <path d="M29.5549 13.7011C29.4648 13.7478 29.3711 13.7815 29.2737 13.8024C29.1763 13.8232 29.0764 13.8337 28.9747 13.8337C28.8668 13.8337 28.7669 13.8171 28.6757 13.7833C28.5844 13.7496 28.5055 13.7011 28.4396 13.6386C28.3729 13.576 28.3212 13.4999 28.2842 13.4103C28.2472 13.3207 28.2287 13.2212 28.2287 13.1108C28.2287 13.0004 28.2472 12.9009 28.2842 12.8113C28.3212 12.7218 28.3729 12.6457 28.4396 12.5831C28.5061 12.5205 28.5844 12.472 28.6757 12.4383C28.7669 12.4045 28.8662 12.388 28.9747 12.388C29.0832 12.388 29.1874 12.4014 29.2805 12.4278C29.3736 12.4542 29.455 12.5003 29.5252 12.5646L29.3107 12.7979C29.2688 12.7549 29.2219 12.723 29.1702 12.7009C29.1184 12.6788 29.053 12.6678 28.9747 12.6678C28.9093 12.6678 28.8508 12.6788 28.7977 12.7009C28.7454 12.723 28.6997 12.7537 28.6621 12.7929C28.6245 12.8322 28.5955 12.8795 28.5752 12.9341C28.5548 12.9887 28.545 13.0476 28.545 13.1108C28.545 13.174 28.5548 13.2347 28.5752 13.2887C28.5955 13.3427 28.6245 13.3894 28.6621 13.4287C28.6997 13.468 28.7454 13.4992 28.7977 13.5213C28.8508 13.5434 28.9093 13.5545 28.9747 13.5545C29.0401 13.5545 29.0986 13.5471 29.1467 13.5324C29.1948 13.5176 29.233 13.5023 29.262 13.4869V13.2636H29.0142V12.9838H29.5549V13.7029V13.7011Z" fill="#000000ff"/>
  <path d="M30.074 12.4223H31.0136V12.7021H30.3791V12.9587H30.9784V13.2385H30.3791V13.5183H31.0487V13.7987H30.074V12.4223Z" fill="#000000ff"/>
  <path d="M32.6985 13.2679C32.6985 13.3495 32.6862 13.425 32.6615 13.4931C32.6368 13.5618 32.5998 13.6213 32.5511 13.6717C32.5024 13.722 32.4414 13.7619 32.3687 13.7901C32.2959 13.8184 32.2121 13.833 32.1165 13.833C32.0209 13.833 31.9359 13.8189 31.8625 13.7901C31.7898 13.7619 31.7287 13.722 31.68 13.6717C31.6313 13.6213 31.5943 13.5618 31.5697 13.4931C31.545 13.4244 31.5327 13.3495 31.5327 13.2679V12.4223H31.8372V13.2563C31.8372 13.2992 31.844 13.3385 31.8576 13.3747C31.8712 13.4108 31.8902 13.4422 31.9149 13.4692C31.9396 13.4956 31.9691 13.5164 32.0037 13.5311C32.0382 13.5459 32.0758 13.5532 32.1159 13.5532C32.156 13.5532 32.1936 13.5459 32.2269 13.5311C32.2608 13.5164 32.2904 13.4956 32.315 13.4692C32.3397 13.4428 32.3588 13.4108 32.3723 13.3747C32.386 13.3385 32.3927 13.2992 32.3927 13.2563V12.4223H32.6972V13.2679H32.6985Z" fill="#000000ff"/>
  <path d="M33.2201 12.4223H33.7552C33.8255 12.4223 33.8921 12.429 33.9556 12.4426C34.0185 12.4561 34.074 12.4787 34.1214 12.5106C34.1689 12.5426 34.2065 12.5849 34.2349 12.6389C34.2632 12.6929 34.2768 12.7598 34.2768 12.8402C34.2768 12.9371 34.2515 13.02 34.201 13.0881C34.1504 13.1562 34.0758 13.1992 33.9784 13.2176L34.3298 13.7987H33.9649L33.6757 13.2488H33.5252V13.7987H33.2207L33.2201 12.4223ZM33.5247 12.9918H33.704C33.7312 12.9918 33.7602 12.9906 33.791 12.9887C33.8218 12.9868 33.849 12.9808 33.8742 12.9709C33.8989 12.9611 33.9192 12.9457 33.9359 12.9255C33.9519 12.9047 33.9606 12.8758 33.9606 12.8384C33.9606 12.8034 33.9532 12.7758 33.939 12.7549C33.9248 12.7341 33.9063 12.7181 33.8841 12.7077C33.8619 12.6966 33.8366 12.6892 33.8082 12.6856C33.7799 12.6819 33.7516 12.68 33.7244 12.68H33.5252V12.993L33.5247 12.9918Z" fill="#000000ff"/>
  <path d="M35.4094 12.7585C35.3847 12.7273 35.3508 12.7045 35.3089 12.6899C35.2663 12.6751 35.2263 12.6678 35.1887 12.6678C35.1664 12.6678 35.1436 12.6702 35.1202 12.6757C35.0968 12.6806 35.0746 12.6892 35.0536 12.7003C35.0327 12.7113 35.016 12.7261 35.0031 12.7439C34.9902 12.7623 34.9833 12.7837 34.9833 12.8101C34.9833 12.8519 34.9988 12.8831 35.0302 12.9052C35.0617 12.9273 35.1011 12.9464 35.1486 12.9617C35.1961 12.977 35.2472 12.993 35.3021 13.0083C35.3569 13.0237 35.4075 13.0458 35.4556 13.0746C35.5031 13.1028 35.5425 13.1415 35.574 13.1893C35.6054 13.2372 35.6208 13.3016 35.6208 13.382C35.6208 13.4624 35.6067 13.525 35.5777 13.5821C35.5487 13.6391 35.5105 13.6864 35.4618 13.7238C35.4131 13.7612 35.3564 13.7895 35.2916 13.8073C35.2275 13.8257 35.1591 13.8343 35.0875 13.8343C34.9975 13.8343 34.9143 13.8208 34.8378 13.7931C34.7608 13.7662 34.6893 13.722 34.6233 13.6612L34.8403 13.4238C34.8718 13.4655 34.9112 13.4974 34.9587 13.5201C35.0062 13.5428 35.0555 13.5539 35.1061 13.5539C35.1307 13.5539 35.156 13.5507 35.1812 13.5452C35.2065 13.5391 35.2293 13.5306 35.2497 13.5188C35.27 13.5072 35.2861 13.4925 35.2984 13.4741C35.3107 13.4563 35.3169 13.4348 35.3169 13.4103C35.3169 13.3686 35.3008 13.336 35.2694 13.3121C35.2374 13.2882 35.1973 13.2679 35.1492 13.2507C35.1011 13.2342 35.0487 13.2169 34.9926 13.2004C34.9365 13.1838 34.8847 13.1611 34.8366 13.1323C34.7885 13.1041 34.7485 13.066 34.7164 13.0194C34.6843 12.9727 34.6683 12.9114 34.6683 12.8346C34.6683 12.758 34.6831 12.696 34.712 12.6402C34.7411 12.5843 34.7805 12.5377 34.8292 12.5003C34.8779 12.4628 34.9346 12.4345 34.9981 12.4155C35.0617 12.3965 35.1276 12.3873 35.1954 12.3873C35.2737 12.3873 35.349 12.3984 35.4217 12.4205C35.4944 12.4425 35.5605 12.4794 35.619 12.5315L35.41 12.7592L35.4094 12.7585Z" fill="#000000ff"/>
  <path d="M22.9736 3.17647C25.9739 3.17647 32.5777 3.56885 36.9954 6.26796C37.1351 6.35177 37.1671 6.42987 37.1172 6.58606C37.0932 6.66034 35.7178 10.7633 35.7178 10.7633C35.6599 10.9176 35.5641 10.9271 35.4423 10.9271H21.8796C21.7339 10.9271 21.6381 10.8128 21.6381 10.6871V3.44124C21.6381 3.27933 21.7499 3.20314 21.9215 3.19551C22.1891 3.18408 22.5443 3.17647 22.9736 3.17647ZM24.7283 7.82802C24.6733 7.80275 24.6203 7.77875 24.5696 7.75588C24.1613 7.5715 23.9008 7.4539 23.9737 7.24892C24.0715 6.97464 24.5706 6.87178 25.0237 6.88131C25.2533 6.88702 25.417 6.91368 25.6027 6.95559L25.7683 6.46034C25.5308 6.41844 25.3631 6.39749 25.0796 6.39177C24.1693 6.37082 23.3488 6.61082 23.1372 7.11748C22.8857 7.71939 23.5964 8.05659 24.2132 8.33463C24.7023 8.55564 25.0876 8.76515 24.9518 9.04136C24.846 9.25468 24.5007 9.35562 23.9976 9.34419C23.5624 9.33466 23.0195 9.21466 22.5902 9.00896L22.3347 9.5347C22.6502 9.67376 23.2989 9.86421 23.8519 9.87564C24.892 9.89852 25.5667 9.64899 25.8362 9.108C26.1488 8.48357 25.3965 8.13635 24.7692 7.84687L24.7283 7.82802ZM26.1676 8.74595C26.1536 8.74595 26.1436 8.74404 26.1396 8.7307C26.0637 8.51731 25.9699 8.3688 25.6785 8.15922L26.2593 6.4354H27.0359C27.6688 7.18397 28.1878 8.10402 28.4393 8.80306L29.2298 6.4354H29.9525L29.705 7.17635C29.7009 7.18969 29.711 7.1916 29.7269 7.1916C29.7369 7.1916 29.7528 7.1916 29.7688 7.17635C30.2639 6.66969 31.0245 6.38206 31.9008 6.38206C32.1823 6.38206 32.4718 6.3973 32.7093 6.43159L32.5137 6.97827C32.32 6.9535 32.1064 6.94208 31.8988 6.94208C30.9107 6.94208 30.172 7.3992 30.0603 8.12308C30.0124 8.4259 30.0882 8.6983 30.2778 8.90972C30.5314 9.19164 30.9765 9.31736 31.5315 9.31736C31.7891 9.31736 32.0366 9.29259 32.2362 9.24501L33.1765 6.4373H35.9513L35.7796 6.95732H33.8053L33.5198 7.80875H35.1767L35.009 8.31162H33.3521L32.921 9.60882C32.7552 9.69452 32.0905 9.87734 31.3538 9.87734C30.214 9.87734 29.4115 9.3612 29.2857 8.58974C29.2838 8.5783 29.2737 8.57449 29.2598 8.57449C29.2458 8.57449 29.2358 8.5764 29.2318 8.58974L28.8206 9.81642H27.9881C27.7166 8.84689 27.2096 7.92875 26.6985 7.23162C26.6985 7.23162 26.1975 8.71355 26.1915 8.7307C26.1875 8.74214 26.1815 8.74595 26.1676 8.74595Z" fill="#000000ff"/>
  <path d="M14.791 3.48293H2.90411C2.08799 3.48293 1.41177 4.12939 1.41177 4.9654V12.3856C1.41177 13.2215 2.08799 13.8836 2.90411 13.8836H14.791C15.5916 13.8836 16.2678 13.2215 16.2678 12.3856V4.9628C16.2704 4.12939 15.5942 3.48293 14.791 3.48293ZM15.1848 12.3856C15.1848 12.6218 15.0268 12.8113 14.791 12.8113H2.90411C2.66834 12.8113 2.49476 12.6218 2.49476 12.3856V4.9628C2.49476 4.72653 2.66834 4.53701 2.90411 4.53701H14.791C15.0268 4.53701 15.1848 4.72653 15.1848 4.9628V12.3856Z" fill="#000000ff"/>
  <path d="M5.95609 5.27966H3.4559V12.0871H5.95609C8.0314 12.0715 8.66097 10.6202 8.66097 8.65221C8.65836 6.38308 7.7153 5.27966 5.95609 5.27966ZM5.6711 10.9837H5.09074V6.34932H5.42237C6.89917 6.34932 7.04166 7.42158 7.04166 8.7924C7.03907 10.2904 6.53644 10.9837 5.6711 10.9837Z" fill="#000000ff"/>
  <path d="M13.0162 8.52501C13.6147 8.22643 14.164 7.75391 14.164 7.09186C14.164 5.81709 13.4567 5.27966 12.1508 5.27966H9.38379V12.0871H12.0239C13.252 12.0871 14.4152 11.5029 14.4152 10.1165C14.4152 9.26492 13.8479 8.76127 13.0162 8.52501ZM11.0031 6.33375H11.4591C11.9954 6.33375 12.498 6.50769 12.498 7.15419C12.498 7.73577 12.1042 7.97457 11.5705 7.97457H11.0057V6.33375H11.0031ZM11.5835 10.9837H11.0005V9.23379H11.5964C12.2416 9.23379 12.682 9.39212 12.682 10.0854C12.6846 10.7941 12.1664 10.9837 11.5835 10.9837Z" fill="#000000ff"/>
  <path d="M36.8269 16.4384H1.41177V16.1581H36.8269V16.4384ZM2.08079 18.5622V18.3597H1.88389V18.5622H2.08079ZM2.06266 20.2914V18.9413H1.90202V20.2914H2.06266ZM2.62747 19.4423C2.62747 19.1412 2.77515 19.0425 2.91765 19.0425C3.10419 19.0425 3.16637 19.1905 3.16637 19.3463V20.2914H3.327V19.3385C3.327 19.162 3.29332 18.9127 2.9591 18.9127C2.81401 18.9127 2.71038 18.9932 2.63265 19.1049H2.62747V18.9387H2.46683V20.2888H2.62747V19.4423ZM4.51362 20.2914V19.3021H4.51881L5.21575 20.2914H5.4282L4.68721 19.2606L5.40747 18.3597H5.20279L4.51881 19.245H4.51362V18.3597H4.34263V20.2914H4.51362ZM6.08887 20.3173C6.40496 20.3173 6.55264 20.1122 6.55264 19.7617V19.4709C6.55264 19.1204 6.40237 18.9153 6.08887 18.9153C5.77279 18.9153 5.62511 19.1204 5.62511 19.4709V19.7617C5.62511 20.1122 5.77538 20.3173 6.08887 20.3173ZM6.08887 19.0425C6.35314 19.0425 6.39201 19.2633 6.39201 19.6137C6.39201 19.9668 6.35314 20.1875 6.08887 20.1875C5.8246 20.1875 5.78574 19.9668 5.78574 19.6137C5.78574 19.2633 5.8246 19.0425 6.08887 19.0425ZM7.30137 20.3173C7.61747 20.3173 7.76514 20.1122 7.76514 19.7617V19.4709C7.76514 19.1204 7.61493 18.9153 7.30137 18.9153C6.98531 18.9153 6.83763 19.1204 6.83763 19.4709V19.7617C6.83763 20.1122 6.98531 20.3173 7.30137 20.3173ZM7.30137 19.0425C7.56566 19.0425 7.60455 19.2633 7.60455 19.6137C7.60455 19.9668 7.56566 20.1875 7.30137 20.1875C7.03713 20.1875 6.99827 19.9668 6.99827 19.6137C6.99827 19.2633 7.03713 19.0425 7.30137 19.0425ZM8.2445 18.9413H8.089V20.8028H8.24966V20.1407L8.25481 20.1433C8.33775 20.2732 8.43622 20.3199 8.53462 20.3199C8.87923 20.3199 8.99838 20.1148 8.99838 19.7643V19.4632C8.99838 19.2866 8.99584 18.9179 8.57351 18.9179C8.46728 18.9179 8.3326 18.975 8.24704 19.1049L8.24189 19.1075V18.9413H8.2445ZM8.24966 19.4943C8.24966 19.1593 8.431 19.0425 8.53462 19.0425C8.7989 19.0425 8.8378 19.2633 8.8378 19.6137C8.8378 19.9668 8.7989 20.1875 8.53462 20.1875C8.38695 20.1875 8.24966 20.0395 8.24966 19.7332V19.4943ZM10.1902 19.6501C10.1902 19.2503 10.1902 18.9153 9.72643 18.9153C9.42594 18.9153 9.26267 19.0945 9.26267 19.4839V19.8162C9.26267 20.2264 9.49589 20.3199 9.72643 20.3199C9.99594 20.3199 10.1721 20.2083 10.1902 19.8811H10.0218C10.0244 20.0629 9.92599 20.1901 9.72643 20.1901C9.47253 20.1901 9.42333 19.9408 9.42333 19.7539V19.6501H10.1902ZM9.42071 19.5203C9.42071 19.2217 9.46999 19.0425 9.72389 19.0425C9.98034 19.0425 10.027 19.2217 10.027 19.5203H9.42071ZM10.6773 18.9413H10.5167V20.2914H10.6773V19.4216C10.6773 19.1931 10.8276 19.0581 11.053 19.0763V18.9127C10.8897 18.9127 10.7498 18.9932 10.6825 19.1204H10.6773V18.9413ZM11.9728 20.2914H12.1386C12.123 20.133 12.123 20.0473 12.123 19.9512V19.271C12.123 18.9257 11.8406 18.9127 11.7033 18.9127C11.4675 18.9127 11.268 19.014 11.2551 19.2736H11.4261C11.4261 19.1126 11.5427 19.0399 11.6903 19.0399C11.9028 19.0399 11.9624 19.1593 11.9624 19.3592V19.4709C11.6903 19.4917 11.2162 19.4449 11.2162 19.9175C11.2162 20.1537 11.3457 20.3147 11.5867 20.3147C11.7525 20.3147 11.8821 20.2498 11.9675 20.1226H11.9728V20.2914ZM11.9624 19.8474C11.9624 20.0239 11.8121 20.1901 11.6281 20.1901C11.4623 20.1901 11.3846 20.0655 11.3846 19.9123C11.3846 19.5826 11.7318 19.6111 11.9598 19.6033V19.8474H11.9624ZM12.5842 20.0343C12.5842 20.2005 12.6489 20.2965 12.864 20.2965C12.9158 20.2965 12.9676 20.2939 13.0168 20.2888V20.1486C12.9832 20.1537 12.9443 20.1563 12.8925 20.1563C12.7655 20.1563 12.7448 20.1122 12.7448 19.9331V19.0659H13.0168V18.9387H12.7448V18.5908L12.5842 18.6608V18.9387H12.3666V19.0659H12.5842V20.0343ZM13.4884 18.5622V18.3597H13.2915V18.5622H13.4884ZM13.4703 20.2914V18.9413H13.3096V20.2914H13.4703ZM14.3045 20.3173C14.6206 20.3173 14.7683 20.1122 14.7683 19.7617V19.4709C14.7683 19.1204 14.618 18.9153 14.3045 18.9153C13.9884 18.9153 13.8407 19.1204 13.8407 19.4709V19.7617C13.8407 20.1122 13.9884 20.3173 14.3045 20.3173ZM14.3045 19.0425C14.5688 19.0425 14.6077 19.2633 14.6077 19.6137C14.6077 19.9668 14.5688 20.1875 14.3045 20.1875C14.0402 20.1875 14.0014 19.9668 14.0014 19.6137C14.0014 19.2633 14.0402 19.0425 14.3045 19.0425ZM15.2476 19.4423C15.2476 19.1412 15.3953 19.0425 15.5377 19.0425C15.7243 19.0425 15.7865 19.1905 15.7865 19.3463V20.2914H15.9472V19.3385C15.9472 19.162 15.9134 18.9127 15.5793 18.9127C15.4341 18.9127 15.3305 18.9932 15.2528 19.1049H15.2476V18.9387H15.087V20.2888H15.2476V19.4423ZM22.3129 19.6215C22.3129 19.2035 22.3129 18.8556 21.8284 18.8556C21.5149 18.8556 21.3439 19.0425 21.3439 19.4502V19.7955C21.3439 20.2212 21.5849 20.3199 21.8284 20.3199C22.1082 20.3199 22.2922 20.2031 22.3129 19.863H22.1367C22.1393 20.0525 22.0357 20.1875 21.8284 20.1875C21.5641 20.1875 21.5123 19.9278 21.5123 19.7332V19.6241H22.3129V19.6215ZM21.5097 19.4865C21.5097 19.1749 21.5589 18.988 21.8258 18.988C22.0926 18.988 22.1419 19.1749 22.1419 19.4865H21.5097ZM22.8441 19.406C22.8441 19.0919 22.9969 18.988 23.1472 18.988C23.3415 18.988 23.4062 19.1412 23.4062 19.3048V20.2888H23.572V19.297C23.572 19.1126 23.5358 18.853 23.1886 18.853C23.0383 18.853 22.9295 18.9361 22.8492 19.0529H22.8441V18.879H22.6782V20.2861H22.8441V19.406ZM25.4478 19.2866C25.4608 18.9906 25.2976 18.853 25.0566 18.853C24.8649 18.853 24.7069 18.9257 24.6343 19.1256C24.598 19.2321 24.5929 19.4527 24.5929 19.5904C24.5929 19.9382 24.5929 20.3147 25.0696 20.3147C25.1992 20.3147 25.4686 20.2498 25.4531 19.8707H25.2873C25.2794 20.0421 25.251 20.1797 25.0307 20.1797C24.7716 20.1797 24.7716 19.8422 24.7716 19.5877C24.7716 19.4008 24.7872 19.2087 24.8105 19.1438C24.8468 19.0399 24.9323 18.9828 25.0359 18.9828C25.2276 18.9828 25.2924 19.1048 25.2846 19.2814H25.4478V19.2866ZM26.2458 20.3199C26.5749 20.3199 26.7304 20.1044 26.7304 19.7409V19.4372C26.7304 19.0711 26.5749 18.8582 26.2458 18.8582C25.9168 18.8582 25.7613 19.0685 25.7613 19.4346V19.7383C25.7613 20.1044 25.9168 20.3199 26.2458 20.3199ZM26.2458 18.988C26.5205 18.988 26.5619 19.2191 26.5619 19.5851C26.5619 19.9538 26.5205 20.1849 26.2458 20.1849C25.9712 20.1849 25.9297 19.9538 25.9297 19.5851C25.9297 19.2191 25.9712 18.988 26.2458 18.988ZM27.5439 20.3199C27.8729 20.3199 28.0283 20.1044 28.0283 19.7409V19.4372C28.0283 19.0711 27.8729 18.8582 27.5439 18.8582C27.2148 18.8582 27.0594 19.0737 27.0594 19.4372V19.7409C27.0594 20.1044 27.2148 20.3199 27.5439 20.3199ZM27.5439 18.988C27.8185 18.988 27.86 19.2191 27.86 19.5851C27.86 19.9538 27.8185 20.1849 27.5439 20.1849C27.2692 20.1849 27.2278 19.9538 27.2278 19.5851C27.2252 19.2191 27.2666 18.988 27.5439 18.988ZM28.5595 18.8816H28.3989V20.8236H28.5647V20.133L28.5698 20.1356C28.6554 20.2705 28.759 20.3199 28.8626 20.3199C29.2228 20.3199 29.3471 20.1044 29.3471 19.7409V19.4268C29.3471 19.2424 29.3445 18.8582 28.9041 18.8582C28.7927 18.8582 28.6528 18.9179 28.5647 19.0529L28.5595 19.0555V18.8816ZM28.5647 19.4605C28.5647 19.1126 28.7538 18.988 28.8626 18.988C29.1373 18.988 29.1787 19.2191 29.1787 19.5851C29.1787 19.9538 29.1373 20.1849 28.8626 20.1849C28.7097 20.1849 28.5647 20.0317 28.5647 19.7098V19.4605ZM30.6218 19.6215C30.6218 19.2035 30.6218 18.8556 30.1373 18.8556C29.8238 18.8556 29.6529 19.0425 29.6529 19.4502V19.7955C29.6529 20.2212 29.8938 20.3199 30.1373 20.3199C30.4171 20.3199 30.6011 20.2031 30.6218 19.863H30.4456C30.4482 20.0525 30.3446 20.1875 30.1373 20.1875C29.8731 20.1875 29.8213 19.9278 29.8213 19.7332V19.6241H30.6218V19.6215ZM29.8213 19.4865C29.8213 19.1749 29.8705 18.988 30.1373 18.988C30.4042 18.988 30.4534 19.1749 30.4534 19.4865H29.8213ZM29.9612 18.7284H30.1011L30.5001 18.3467H30.2772L29.9612 18.7284ZM31.1659 18.8816H31.0001V20.2888H31.1659V19.3826C31.1659 19.1464 31.3213 19.0036 31.5571 19.0218V18.8504C31.3861 18.8504 31.241 18.9335 31.1711 19.0685H31.1659V18.8816ZM32.5494 20.2914H32.723C32.7075 20.1277 32.7075 20.0369 32.7075 19.9382V19.2294C32.7075 18.8686 32.4121 18.8556 32.2696 18.8556C32.0235 18.8556 31.8162 18.962 31.8033 19.232H31.9794C31.9794 19.0659 32.1012 18.9906 32.2541 18.9906C32.4769 18.9906 32.5391 19.1152 32.5391 19.3229V19.4398C32.2541 19.4632 31.7592 19.4112 31.7592 19.9045C31.7592 20.1511 31.8965 20.3199 32.1453 20.3199C32.3188 20.3199 32.4536 20.2524 32.5442 20.12H32.5494V20.2914ZM32.5365 19.8266C32.5365 20.0109 32.381 20.1849 32.1893 20.1849C32.0157 20.1849 31.9354 20.0551 31.9354 19.8941C31.9354 19.5514 32.2981 19.58 32.5365 19.5696V19.8266ZM33.2205 19.0165V20.0239C33.2205 20.1978 33.2878 20.2965 33.5133 20.2965C33.5651 20.2965 33.622 20.2939 33.6713 20.2888V20.1433C33.635 20.1486 33.5961 20.1511 33.5417 20.1511C33.407 20.1511 33.3889 20.107 33.3889 19.9201V19.0165H33.6738V18.8816H33.3889V18.518L33.2231 18.5908V18.8816H32.9977V19.0165H33.2205ZM34.1973 18.4895V18.2766H33.9925V18.4895H34.1973ZM34.1765 20.2914V18.8842H34.0107V20.2914H34.1765ZM35.0833 20.3199C35.4124 20.3199 35.5678 20.1044 35.5678 19.7409V19.4372C35.5678 19.0711 35.4124 18.8582 35.0833 18.8582C34.7543 18.8582 34.5988 19.0737 34.5988 19.4372V19.7409C34.5988 20.1044 34.7543 20.3199 35.0833 20.3199ZM35.0833 18.988C35.3579 18.988 35.3994 19.2191 35.3994 19.5851C35.3994 19.9538 35.3579 20.1849 35.0833 20.1849C34.8087 20.1849 34.7672 19.9538 34.7672 19.5851C34.7646 19.2191 34.8061 18.988 35.0833 18.988ZM36.0989 19.406C36.0989 19.0919 36.2518 18.988 36.4021 18.988C36.5964 18.988 36.6611 19.1412 36.6611 19.3048V20.2888H36.8269V19.297C36.8269 19.1126 36.7907 18.853 36.4435 18.853C36.2932 18.853 36.1845 18.9361 36.1041 19.0529H36.0989V18.879H35.9331V20.2861H36.0989V19.406ZM18.3748 20.5769L19.1365 18.352H18.9914L18.2349 20.5769H18.3748Z" fill="#000000ff"/>
</svg>
