<?xml version="1.0" ?>
<svg xmlns="http://www.w3.org/2000/svg" width="16.0" height="16.0" viewBox="0 0 16.0 16.0">
  <path d="M8,16C3.582,16 0,12.418 0,8C0,3.582 3.582,0 8,0C12.418,0 16,3.582 16,8C16,12.418 12.418,16 8,16ZM4,8.664H8C8.012,8.664 8.025,8.664 8.037,8.663C8.292,8.689 8.551,8.565 8.685,8.327L10.655,4.827C10.835,4.506 10.721,4.1 10.401,3.919C10.08,3.738 9.673,3.852 9.493,4.173L7.716,7.331H4C3.632,7.331 3.333,7.629 3.333,7.998C3.333,8.366 3.632,8.664 4,8.664Z" fill="#ed8744ff"/>
</svg>
