<?xml version="1.0" ?>
<svg xmlns="http://www.w3.org/2000/svg" width="15.0" height="15.0" viewBox="0 0 15.0 15.0">
  <path d="M7.626,14.005L3.056,14.005C1.951,14.005 1.056,13.11 1.056,12.005L1.056,11.366C1.056,10.261 1.951,9.366 3.056,9.366L4.025,9.366" fill="#00000000" stroke-linecap="round" stroke-width="2.0" stroke="#000000ff"/>
  <path d="M7.432,14.005L12.002,14.005C13.107,14.005 14.002,13.11 14.002,12.005L14.002,11.366C14.002,10.261 13.107,9.366 12.002,9.366L10.893,9.366" fill="#00000000" stroke-linecap="round" stroke-width="2.0" stroke="#000000ff"/>
  <path d="M7.5,4.335m-3.335,0a3.335,3.335 0,1 1,6.669 0a3.335,3.335 0,1 1,-6.669 0" fill="#00000000" stroke-width="2.0" stroke="#000000ff"/>
</svg>
