<?xml version="1.0" ?>
<svg xmlns="http://www.w3.org/2000/svg" width="16.0" height="25.0" viewBox="0 0 16.0 25.0">
  <g>
    <path d="M11.2421,0.0052H4.013H3.8309C2.7929,0.0052 1.8251,0.3924 1.1039,1.0949C0.7612,1.4304 0.4931,1.8175 0.3038,2.2477C0.1117,2.6878 0.0142,3.151 0.0142,3.6198V8.8961L0.0128,15.7811C0.0128,16.6356 0.3339,17.4787 0.9204,18.1526C1.438,18.749 2.1276,19.1677 2.8301,19.3211L-0.1865,24.0052H1.8523L2.5333,22.96L3.4581,21.5162L3.7965,20.99L4.1435,20.4495H11.1116L11.4601,20.9886L11.797,21.5162L12.7218,22.96L13.3913,24.0052H15.4417L12.425,19.3211C13.1275,19.1677 13.8172,18.749 14.3348,18.1526C14.9212,17.4787 15.2424,16.6356 15.2424,15.7811V8.8961V3.6198C15.2424,3.151 15.1434,2.6878 14.9513,2.2477C14.7635,1.8175 14.4939,1.4304 14.1498,1.0949C13.4301,0.3924 12.4637,0.0052 11.4228,0.0052H11.2421ZM1.8945,7.8465V4.7137C1.8945,4.0499 2.4451,3.5122 3.1276,3.5122H4.3133H12.1288C12.8113,3.5122 13.3619,4.0499 13.3619,4.7137V7.8465C13.3619,8.5089 12.8113,9.0495 12.1288,9.0495H3.1276C2.4451,9.0495 1.8945,8.5089 1.8945,7.8465ZM10.2711,15.7209C10.2711,15.0241 10.8504,14.4621 11.563,14.4621C12.2741,14.4621 12.8548,15.0241 12.8548,15.7209C12.8548,16.4149 12.2741,16.9784 11.563,16.9784C10.8504,16.9784 10.2711,16.4149 10.2711,15.7209ZM2.4015,15.7209C2.4015,15.0241 2.9807,14.4621 3.6933,14.4621C4.4059,14.4621 4.9851,15.0241 4.9851,15.7209C4.9851,16.4149 4.4059,16.9784 3.6933,16.9784C2.9807,16.9784 2.4015,16.4149 2.4015,15.7209Z" fill="#4d4f53ff"/>
  </g>
</svg>
