<?xml version="1.0" ?>
<svg xmlns="http://www.w3.org/2000/svg" width="296.0" height="140.0" viewBox="0 0 296.0 140.0">
  <path d="M142.29,48.48C142.29,35.19 153.13,24.41 166.5,24.41M199.14,50.11C200.06,31.43 185.09,15.99 166.5,15.99C147.91,15.99 133.82,30.54 133.82,48.48C133.82,56.09 137,62.68 140.84,68.61C141.95,70.32 140.77,71.99 139.01,70.21C138.16,69.36 136.79,69.28 135.9,70.11L109.28,94.74C108.67,95.35 107.76,96.16 106.61,97.09C90.94,109.71 66.33,111.34 53.07,96.24C41.06,82.58 30.17,83.12 21,87.77M278,67.39C249,67.39 234.97,86.99 221.14,101.77C207.31,116.55 177.68,135.31 121.88,115.29C118.06,113.77 114.59,112.25 111.35,111.31M111.35,111.31C107.75,110.27 104.41,109.96 101.13,111.17C94.91,113.46 97.52,117.18 101.36,116.89C105.27,116.6 108.2,114.33 111.35,111.31ZM111.35,111.31C112.01,110.68 112.68,110.01 113.37,109.33L145.53,79.52C147.12,77.98 145.83,77.18 144.89,76.36C143.22,74.89 144.89,73 146.41,74.11C153.09,78.98 161.4,81.89 170.61,80.69C186.2,78.68 198.37,65.71 199.13,50.09" fill="#00000000" stroke-linecap="round" stroke-width="3.0" stroke="@color/widget_info"/>
</svg>
