<?xml version="1.0" ?>
<svg xmlns="http://www.w3.org/2000/svg" width="45.0" height="34.0" viewBox="0 0 45.0 34.0">
  <path d="M6.27789 22.7603C6.12965 22.7603 6.02376 22.7392 5.93905 22.6756C5.82257 22.6756 5.7061 22.6333 5.60021 22.5486L5.21901 22.2097L2.67769 20.1767L2.21178 19.7955C2.06353 19.6896 2 19.5202 2 19.2872C2 19.0648 2.0953 18.8531 2.29649 18.6519L9.07335 11.8327L9.36983 11.6209L9.58161 11.4515C9.77221 11.3138 10.0581 11.2397 10.4287 11.2397H22.8812L20.1705 13.9928H12.2924L10.5134 15.7294H18.4339L16.655 17.5083H8.7345L6.95558 19.2872H14.7913L18.8574 22.7603H6.27789ZM21.4835 22.7603L21.1446 22.718C21.0599 22.6968 20.8693 22.5803 20.594 22.3791L20.2975 22.125L17.8833 20.0496L17.5444 19.7531C17.4279 19.6472 17.375 19.4884 17.375 19.2872C17.375 19.1813 17.3856 19.0966 17.4174 19.0331C17.4703 18.9484 17.5974 18.8107 17.7986 18.6095L25.0413 11.2397H43L40.3316 13.9928H27.6674L22.4153 19.2872H36.8585L33.3853 22.7603H21.4835Z" fill="#000000ff"/>
</svg>
