<?xml version="1.0" ?>
<svg xmlns="http://www.w3.org/2000/svg" width="48.0" height="12.0" viewBox="0 0 48.0 12.0">
  <path d="M38.606,7.099L38.572,7.074C38.55,7.059 38.539,7.062 38.516,7.086C38.338,7.282 37.97,7.576 37.635,7.576C37.379,7.576 37.234,7.405 37.234,7.148C37.234,7.013 37.256,6.878 37.3,6.719L37.981,4.172H39.153C39.175,4.172 39.197,4.172 39.208,4.135L39.286,3.819C39.298,3.77 39.264,3.77 39.253,3.77H38.07L38.427,2.519C38.438,2.482 38.416,2.47 38.394,2.47H38.316C38.293,2.47 38.271,2.47 38.249,2.507C37.724,3.364 37.066,3.793 36.04,3.976L35.973,3.988C35.883,4.001 35.883,4.013 35.872,4.05L35.861,4.111C35.85,4.172 35.895,4.172 35.906,4.172H36.609L35.939,6.695C35.861,6.988 35.817,7.233 35.817,7.442C35.817,8.091 36.274,8.45 36.865,8.45C37.825,8.45 38.461,7.405 38.617,7.16C38.633,7.135 38.631,7.117 38.606,7.099ZM42.069,5.901C41.026,6.104 40.283,6.466 40.283,7.055C40.283,7.397 40.561,7.58 40.843,7.58C41.417,7.58 41.797,6.981 42.11,5.952C42.123,5.911 42.096,5.896 42.069,5.901ZM43.543,5.09C43.543,5.29 43.523,5.488 43.46,5.76L42.871,8.283C42.861,8.323 42.834,8.323 42.825,8.323H41.486C41.467,8.323 41.458,8.293 41.467,8.273L42.123,7.08C42.14,7.051 42.138,7.03 42.114,7.02L42.087,7.01C42.058,7 42.036,7.006 42.014,7.04L41.832,7.31C41.358,7.97 40.798,8.45 40.023,8.45C39.367,8.45 38.93,7.99 38.93,7.37C38.93,6.43 39.782,5.96 40.556,5.84C41.144,5.749 41.83,5.633 42.121,5.591C42.167,5.584 42.205,5.549 42.219,5.5C42.303,5.205 42.388,4.905 42.388,4.63C42.388,4.24 42.224,3.95 41.686,3.95C41.249,3.95 40.902,4.23 40.902,4.84C40.902,4.95 40.911,5.08 40.939,5.22C40.939,5.24 40.93,5.26 40.902,5.26H39.59C39.581,5.26 39.565,5.253 39.563,5.23C39.482,4.367 40.228,3.65 41.741,3.65C43.112,3.65 43.543,4.401 43.543,5.09ZM33.804,3.65C32.538,3.65 31.854,4.31 31.854,5.13C31.854,5.68 32.155,6.06 32.784,6.37L33.44,6.71C33.987,6.98 34.123,7.18 34.123,7.45C34.123,7.85 33.804,8.15 33.176,8.15C32.684,8.15 32.374,7.88 32.374,7.48C32.374,7.24 32.493,7.029 32.665,6.8C32.683,6.777 32.675,6.75 32.648,6.75H31.449C31.422,6.75 31.414,6.766 31.403,6.79C31.372,6.864 31.335,7.036 31.335,7.18C31.335,7.92 31.927,8.45 33.112,8.45C34.47,8.45 35.271,7.72 35.271,6.86C35.271,6.35 35.016,6.02 34.287,5.65L33.622,5.32C33.203,5.11 33.039,4.9 33.039,4.62C33.039,4.24 33.331,3.95 33.823,3.95C34.269,3.95 34.561,4.28 34.561,4.69C34.561,4.849 34.509,5.041 34.425,5.201C34.412,5.226 34.415,5.26 34.456,5.26H35.563C35.599,5.26 35.609,5.24 35.609,5.2C35.663,4.54 35.144,3.65 33.804,3.65ZM47.163,3.65C46.505,3.65 46.081,4.074 45.534,4.858L45.133,5.433C45.099,5.482 45.088,5.482 45.066,5.47L45.043,5.458C45.021,5.446 45.01,5.433 45.032,5.397L45.981,3.819C45.992,3.794 45.981,3.77 45.958,3.77H44.586C44.575,3.77 44.553,3.77 44.541,3.807L43.526,8.274C43.515,8.323 43.537,8.323 43.56,8.323H44.809C44.82,8.323 44.843,8.323 44.854,8.286L45.3,6.291C45.545,5.176 45.992,4.625 46.472,4.625C46.706,4.625 46.873,4.76 46.873,5.029C46.873,5.348 46.695,5.788 46.326,6.254C46.304,6.278 46.326,6.303 46.338,6.315L46.36,6.339C46.371,6.352 46.393,6.352 46.427,6.327C47.42,5.678 48,5.054 48,4.454C48,3.988 47.688,3.65 47.163,3.65ZM29.941,4.81C29.941,4.2 29.695,3.94 29.349,3.94C28.848,3.94 28.465,4.44 28.219,5.45C28.046,6.17 27.918,6.8 27.918,7.29C27.918,7.9 28.164,8.16 28.51,8.16C29.012,8.16 29.394,7.65 29.64,6.65C29.823,5.93 29.941,5.3 29.941,4.81ZM31.244,5.55C31.244,7.18 30.078,8.45 28.456,8.45C27.499,8.45 26.615,7.79 26.615,6.55C26.615,4.92 27.791,3.65 29.403,3.65C30.369,3.65 31.244,4.31 31.244,5.55ZM22.573,3.77H21.335C21.313,3.77 21.29,3.77 21.279,3.807L20.777,6.07C20.554,7.074 20.018,7.625 19.449,7.625C19.148,7.625 19.003,7.478 19.003,7.197C19.003,7.074 19.014,6.976 19.048,6.805L19.728,3.819C19.739,3.77 19.706,3.77 19.695,3.77H18.445C18.434,3.77 18.412,3.77 18.4,3.807L17.742,6.707C17.698,6.891 17.642,7.135 17.642,7.393C17.642,7.993 17.999,8.45 18.724,8.45C19.505,8.45 20.085,7.98 20.554,7.319L20.743,7.05C20.777,7.001 20.788,7.001 20.81,7.013L20.833,7.025C20.855,7.037 20.866,7.05 20.844,7.086L20.186,8.274C20.174,8.299 20.186,8.323 20.208,8.323H21.547C21.558,8.323 21.58,8.323 21.591,8.286L22.607,3.819C22.618,3.77 22.584,3.77 22.573,3.77ZM10.661,6.88L10.469,6.98C10.424,7 10.422,7.041 10.415,7.07C10.369,7.25 10.323,7.43 10.26,7.63C9.595,9.77 7.781,11.34 5.595,11.34C2.888,11.34 0.711,8.96 0.711,6.02C0.711,3.09 2.888,0.67 5.595,0.67C7.781,0.67 9.358,2.24 10.005,3.81L6.077,5.38C6.032,5.39 5.986,5.36 5.986,5.3L5.686,1.84C5.686,1.8 5.667,1.78 5.631,1.78H5.54C5.503,1.78 5.485,1.8 5.485,1.84L5.185,5.3C5.185,5.36 5.139,5.39 5.093,5.38L2.269,4.52C2.241,4.51 2.214,4.52 2.205,4.56L2.169,4.65C2.159,4.69 2.169,4.71 2.196,4.73L4.51,6.01C4.547,6.02 4.547,6.07 4.51,6.09L2.214,7.36C2.196,7.37 2.187,7.4 2.196,7.43L2.223,7.53C2.241,7.57 2.26,7.58 2.296,7.57L5.093,6.72C5.139,6.71 5.185,6.73 5.185,6.8L5.485,10.26C5.485,10.3 5.503,10.32 5.54,10.32H5.631C5.667,10.32 5.686,10.3 5.686,10.26L5.986,6.8C5.986,6.73 6.032,6.71 6.077,6.72L8.902,7.58C8.929,7.59 8.957,7.58 8.966,7.54L9.002,7.44C9.011,7.41 9.002,7.38 8.975,7.37L6.67,6.09C6.633,6.07 6.633,6.02 6.67,6.01L10.36,4.04C10.406,4.02 10.415,3.97 10.406,3.91C9.923,1.9 8.037,0 5.476,0C2.36,0 0,2.67 0,6.01C0,9.36 2.36,12 5.476,12C8.073,12 9.941,10.15 10.561,7.74C10.624,7.48 10.706,7.08 10.706,6.91C10.706,6.88 10.688,6.87 10.661,6.88ZM15.818,3.65C14.196,3.65 13.048,5.014 13.048,6.465C13.048,7.725 13.829,8.45 14.916,8.45C15.617,8.45 16.518,8.12 17.171,6.838C17.184,6.814 17.168,6.794 17.158,6.787L17.12,6.759C17.095,6.739 17.08,6.741 17.068,6.758C16.818,7.095 16.301,7.58 15.526,7.58C14.734,7.58 14.442,6.9 14.497,6.08C14.551,5.23 15.098,3.93 15.772,3.93C16.155,3.93 16.264,4.34 16.264,4.78C16.264,5.013 16.235,5.247 16.203,5.415C16.196,5.449 16.173,5.476 16.143,5.485L14.779,5.914C14.749,5.922 14.734,5.935 14.731,5.967L14.726,6.017C14.722,6.055 14.738,6.07 14.774,6.07H17.282C17.364,6.07 17.408,6.03 17.417,5.99C17.481,5.76 17.517,5.52 17.517,5.29C17.517,4.4 16.993,3.65 15.818,3.65ZM26.779,4.454C26.779,5.054 26.199,5.678 25.206,6.327C25.173,6.352 25.15,6.352 25.139,6.339L25.117,6.315C25.106,6.303 25.084,6.278 25.106,6.254C25.474,5.788 25.653,5.348 25.653,5.029C25.653,4.76 25.485,4.625 25.251,4.625C24.771,4.625 24.325,5.176 24.08,6.291L23.633,8.286C23.622,8.323 23.6,8.323 23.588,8.323H22.339C22.317,8.323 22.294,8.323 22.306,8.274L23.321,3.807C23.332,3.77 23.354,3.77 23.365,3.77H24.738C24.76,3.77 24.771,3.794 24.76,3.819L23.812,5.397C23.789,5.433 23.801,5.446 23.823,5.458L23.845,5.47C23.867,5.482 23.879,5.482 23.912,5.433L24.314,4.858C24.861,4.074 25.284,3.65 25.943,3.65C26.467,3.65 26.779,3.988 26.779,4.454Z" fill="#000000ff"/>
</svg>
