<?xml version="1.0" ?>
<svg xmlns="http://www.w3.org/2000/svg" width="63.0" height="34.0" viewBox="0 0 63.0 34.0">
  <g>
    <path d="M30.2206 16.4981L28.7147 14.423L26.8331 11.821C26.4427 11.2841 25.6914 11.1642 25.1531 11.5528H25.1251C24.5878 11.9432 24.4679 12.6944 24.8569 13.2327L27.2093 16.4743L24.8569 19.7206C24.4665 20.2593 24.5844 21.0116 25.1204 21.4053H25.1484C25.6867 21.7938 26.438 21.674 26.8284 21.1371L28.2397 19.2266L30.2206 16.4981Z" fill="#000000ff"/>
    <path d="M32.3142 11.5717H32.2857C31.7479 11.1828 30.9966 11.3031 30.6062 11.8399L29.3218 13.5855L30.8511 15.6602L32.5776 13.2513C32.9662 12.7135 32.8463 11.9621 32.3094 11.5717H32.3142ZM32.5776 19.7444L30.8511 17.3353L29.3404 19.41L30.6252 21.1795C31.0151 21.7163 31.7664 21.8361 32.3047 21.4476H32.3328C32.8701 21.0572 32.9899 20.3059 32.601 19.7676L32.5776 19.7444ZM55.9942 13.5057H59.2548C59.7864 13.5028 60.2167 13.0724 60.2196 12.5408V11.4448H55.9851C54.307 11.478 52.9637 12.848 52.9642 14.5265C52.9723 16.1799 54.3175 17.5146 55.9709 17.5094H57.3024C57.8154 17.5451 58.2129 17.9716 58.2129 18.4857C58.2129 18.9996 57.8154 19.4262 57.3024 19.4618H53.0679V20.5584C53.0703 21.09 53.5006 21.5203 54.0322 21.5227H57.3256C59.0076 21.4946 60.3561 20.1228 60.3561 18.4409C60.3509 16.7957 59.0179 15.4634 57.3727 15.4581H56.018C55.5049 15.4225 55.1069 14.9959 55.1069 14.4818C55.1069 13.9673 55.5049 13.5412 56.018 13.5057H55.9942ZM51.9385 11.4543H50.8002C50.2804 11.4543 49.8591 11.8756 49.8591 12.3953V18.3797C49.8591 19.2408 49.2662 19.7914 48.2452 19.7914H47.7745C46.7535 19.7914 46.1611 19.2174 46.1611 18.3797V11.4543H45.0128C44.493 11.4543 44.0717 11.8756 44.0717 12.3953V18.7187C44.0717 20.4923 45.2904 21.6734 47.3983 21.6734H48.6171C50.7246 21.6734 51.9433 20.4923 51.9433 18.7187L51.9385 11.4543ZM39.3199 19.9041H37.5368C37.017 19.9041 36.5957 19.4828 36.5957 18.9631V17.2694H39.3199C40.0446 17.2694 40.6323 17.8571 40.6323 18.5822C40.6323 19.3074 40.0446 19.8946 39.3199 19.8946V19.9041ZM36.6052 13.0962H39.028C39.6779 13.0962 40.2044 13.6225 40.2044 14.2721C40.2044 14.9221 39.6779 15.4485 39.028 15.4485H37.4378C36.979 15.4462 36.6076 15.0748 36.6052 14.616V13.0962ZM42.0817 16.5732C42.0251 16.5213 41.8701 16.3991 41.8278 16.3664C42.3147 15.8276 42.5625 15.1147 42.5144 14.39C42.5144 12.5503 41.3242 11.4633 39.4845 11.4633H35.5087C34.9771 11.4662 34.5467 11.8965 34.5444 12.4281V20.5722C34.5467 21.1039 34.9771 21.5342 35.5087 21.537H39.9362C41.776 21.537 42.8863 20.4643 42.8863 18.6245C42.91 17.8584 42.6176 17.1167 42.0769 16.5732H42.0817ZM21.8126 14.3663H20.1987V12.4281C20.2015 11.8936 20.6338 11.4615 21.1678 11.4585H21.8126C22.3465 11.4615 22.7793 11.8936 22.7817 12.4281V13.3972C22.7793 13.9317 22.3465 14.3639 21.8126 14.3663ZM22.7817 21.5417H20.1987V16.2769C20.2015 15.7425 20.6338 15.3102 21.1678 15.3073H22.7817V21.5417ZM14.8962 19.4666C14.6362 19.4666 14.4255 19.256 14.4255 18.9963V12.4329C14.426 12.1727 14.3219 11.9235 14.1374 11.7406C13.9523 11.558 13.7023 11.4562 13.4426 11.4585H11.8192V20.5674C11.8192 21.1057 12.2553 21.5417 12.7931 21.5417H18.0907C18.629 21.5417 19.065 21.1057 19.065 20.5674V19.4666H14.8962ZM3.27958 11.4585C2.74604 11.4585 2.3128 11.8898 2.31049 12.4234V21.5417H4.88862V17.5798H8.54444C8.80166 17.5798 9.04792 17.478 9.23003 17.2959C9.41177 17.1143 9.5139 16.868 9.5139 16.6107V15.5194H4.88862V14.0039C4.88862 13.7443 5.09934 13.5337 5.35948 13.5337H9.73935C10.2747 13.5337 10.7089 13.0996 10.7089 12.5646V11.4585H3.27958Z" fill="#000000ff"/>
  </g>
</svg>
