<?xml version="1.0" ?>
<svg xmlns="http://www.w3.org/2000/svg" width="70.0" height="34.0" viewBox="0 0 70.0 34.0">
  <path d="M46.1859 9.43879L45.8988 10.2768C45.8198 10.4991 45.6929 10.725 45.3537 10.725H43.3669C43.3336 10.7345 43.2878 10.7458 43.2421 10.7439C42.6908 10.7269 42.2934 11.1299 41.9834 12.0132L40.9993 14.9134H42.6471C42.8281 14.9134 42.955 14.9322 43.0236 15.0132C43.0923 15.096 43.0673 15.209 43.0361 15.3089L42.7011 16.2674C42.6138 16.5217 42.4265 16.6403 42.1186 16.6403H40.4168L38.7524 21.5461H38.7462L38.43 22.4727C37.8786 24.1036 36.7552 24.9774 35.1844 24.9962C35.1699 24.9962 35.1574 25 35.1449 25H34.1193C33.9611 25 33.8218 24.9906 33.751 24.904C33.6844 24.823 33.7032 24.7081 33.751 24.5612L34.0381 23.7232C34.1172 23.5009 34.2441 23.275 34.5832 23.275H35.0638C35.1096 23.2599 35.147 23.2542 35.1824 23.2561C35.7316 23.2731 36.1311 22.8701 36.441 21.9868L38.1221 17.0301L39.6346 16.6441H38.2531V16.6403H37.6706C37.4813 16.6403 37.344 16.6328 37.2711 16.5443C37.2046 16.4633 37.2233 16.3484 37.2711 16.2015L37.5603 15.3635C37.6373 15.1431 37.7621 14.9153 38.1033 14.9153H38.8377L39.672 12.4557H39.6782L39.9945 11.5292C40.5479 9.89266 41.6692 9.0226 43.2442 9.00377C43.2587 9.00377 43.2691 9 43.2837 9H45.8198C45.9779 9 46.1173 9.00942 46.1859 9.09605C46.2525 9.17702 46.2359 9.2919 46.1859 9.43879Z" fill="#000000ff"/>
  <path d="M67.9558 14.9962C67.8872 14.9134 67.7603 14.8983 67.5793 14.8983L63.5245 14.8945C63.487 14.8889 63.4496 14.8832 63.41 14.8776H63.3601C63.2644 14.8663 63.1666 14.8531 63.0647 14.8456C62.4655 14.7966 61.8476 14.8456 61.3067 14.9831C61.2776 14.9887 61.2505 14.9944 61.2172 15.0038C59.5237 15.4614 58.2318 16.7702 57.5785 18.6949C57.3018 19.4991 57.1916 20.2241 57.2456 20.8531C57.256 20.9379 57.2748 21.0019 57.2873 21.0508L55.3566 21.3051H55.3254C55.2026 21.3051 55.1693 21.2655 55.1589 21.2524C55.1215 21.2072 55.0945 21.1036 55.1714 20.8625L57.0001 15.5085C57.0542 15.3371 57.075 15.2034 57.0001 15.1092C56.9232 15.0169 56.7796 15.0057 56.6486 15.0057H55.5251C55.1735 15.0057 55.0196 15.1205 54.9134 15.4595L53.79 18.7401C53.2012 20.4576 52.2629 21.3635 51.075 21.3635C50.7484 21.3635 50.5195 21.2863 50.3947 21.1356C50.2407 20.9492 50.2345 20.6384 50.3739 20.2203L51.9883 15.5085C52.0424 15.3371 52.0632 15.2034 51.9883 15.1092C51.9113 15.0169 51.7678 15.0057 51.6367 15.0057H50.5154C50.1575 15.0057 49.9932 15.1262 49.8891 15.4595L48.2102 20.3277C48.1457 20.484 48.1041 20.6685 48.0791 20.8588C46.8142 21.0433 44.8399 21.3089 44.6068 21.2825C44.4758 21.2166 44.5236 20.9642 44.5881 20.7646L47.507 12.1921C47.5694 12.0169 47.5965 11.8814 47.5216 11.7891C47.4488 11.6987 47.3094 11.6855 47.17 11.6855H46.0465C45.6887 11.6855 45.5431 11.791 45.4182 12.1394L42.3121 21.2825C41.9397 22.3823 42.3912 22.7834 42.8426 22.9266C42.9258 22.9774 43.0257 23.0075 43.1381 23.0132C43.1901 23.017 43.2546 23.0207 43.3294 23.0207C43.4272 23.0207 43.5437 23.0169 43.6769 23.0094C43.989 23.0038 44.2116 22.9868 44.3863 22.9529C45.1707 22.8757 47.4092 22.5669 48.3142 22.4388C48.3787 22.5424 48.437 22.6026 48.4682 22.6234L48.4848 22.6347C48.8447 22.9077 49.3898 23.0395 50.1471 23.0395C51.2331 23.0395 52.1215 22.7571 52.7893 22.1996C52.8205 22.4087 52.9058 22.5819 53.0494 22.7119C53.2657 22.9096 53.6048 23.0113 54.0563 23.0113H54.1146C54.1146 23.0113 54.1354 23.0151 54.1458 23.0151C54.5473 23.0452 55.3691 22.9284 56.1617 22.8154C56.3781 22.7853 56.5945 22.7533 56.7921 22.7288L58.1423 22.5537L58.159 22.5687C58.6812 22.9416 59.4093 23.1299 60.3289 23.1299C62.5238 23.1299 63.8365 21.904 64.5501 20.8776C64.5605 20.8625 64.5709 20.8475 64.5813 20.8305L64.6105 20.7853C64.9413 20.2957 65.2138 19.742 65.4177 19.145C65.7048 18.3013 65.8026 17.5537 65.711 16.919L64.3879 16.6121H67.2194C67.4316 16.5763 67.5626 16.4595 67.6355 16.2561L67.9683 15.2957C67.9995 15.1959 68.0245 15.081 67.9579 15.0019L67.9558 14.9962ZM63.2228 18.9548C62.6985 20.5028 61.831 21.2863 60.6514 21.2863C60.2082 21.2863 59.8899 21.1714 59.7047 20.9454C59.4135 20.5895 59.428 19.936 59.7443 19.0057C60.2748 17.4482 61.1319 16.6591 62.2908 16.6591C62.7401 16.6591 63.0647 16.7778 63.254 17.0075C63.5515 17.371 63.5411 18.0264 63.2228 18.9529V18.9548Z" fill="#000000ff"/>
  <path d="M12.3535 12.8738L12.4409 12.4463C12.4929 12.1996 12.4575 12.0056 12.3389 11.8757C12.2224 11.7476 12.0269 11.6836 11.7647 11.6836H3.07255C2.54204 11.6836 2.21124 11.9341 2.11138 12.4105L2.02192 12.8399C1.97199 13.0753 2.00736 13.2637 2.12802 13.3917C2.24661 13.5235 2.44842 13.5876 2.72304 13.5876H5.83956L4.0899 22.0716C4.03789 22.322 4.07325 22.5179 4.196 22.6497C4.31251 22.7778 4.50599 22.8418 4.76813 22.8418H5.53374C6.06425 22.8418 6.39713 22.5876 6.49699 22.1092L8.25498 13.5876H11.4131C11.9332 13.5876 12.2578 13.3409 12.3535 12.8757" fill="#000000ff"/>
  <path d="M21.0769 11.8776C20.9583 11.7476 20.7585 11.6817 20.486 11.6817H14.6586C14.1385 11.6817 13.8119 11.9341 13.7141 12.4143L11.7231 22.0697C11.6711 22.3202 11.7065 22.5141 11.8292 22.6478C11.9457 22.7759 12.1392 22.8399 12.4013 22.8399H18.5012C19.0318 22.8399 19.3646 22.5895 19.4624 22.113L19.5519 21.6836C19.6018 21.4463 19.5664 21.2599 19.4479 21.1299C19.3272 21 19.1275 20.9341 18.8528 20.9341H14.3736L14.9416 18.1808H18.2204C18.7509 18.1808 19.0838 17.9303 19.1816 17.4539L19.2689 17.0264C19.3189 16.7891 19.2835 16.6026 19.1649 16.4727C19.0442 16.3409 18.8445 16.2768 18.5699 16.2768H15.3327L15.8882 13.5857H20.1365C20.667 13.5857 20.9978 13.339 21.0935 12.8738L21.183 12.4463C21.2329 12.1996 21.1975 12.0094 21.0769 11.8795" fill="#000000ff"/>
  <path d="M31.009 13.1525C30.7343 12.6234 30.2975 12.2298 29.7108 11.9831C29.4611 11.8776 29.1636 11.7985 28.8307 11.7514C28.502 11.7043 28.0277 11.6798 27.4223 11.6798H24.1518C23.6317 11.6798 23.305 11.9341 23.2072 12.4124L21.2162 22.0659C21.1642 22.3164 21.1996 22.5122 21.3203 22.6441C21.4368 22.7721 21.6323 22.8362 21.8945 22.8362H22.6788C23.1989 22.8362 23.5256 22.5838 23.6233 22.1036L24.3161 18.7495H26.251L27.6053 22.322C27.7406 22.6591 28.036 22.8362 28.4562 22.8362H29.3737C29.6941 22.8362 29.9313 22.7514 30.079 22.5819C30.233 22.4068 30.2517 22.1846 30.1352 21.9266L28.8245 18.6309C28.787 18.5217 28.7475 18.4331 28.7101 18.3597C28.6747 18.2957 28.6456 18.2392 28.6206 18.1846L28.5873 18.1243C28.8994 18.0113 29.1969 17.855 29.4694 17.6648C29.769 17.4539 30.0374 17.2128 30.2662 16.9454C30.4951 16.678 30.6907 16.3842 30.8488 16.0678C31.0069 15.7533 31.1213 15.4237 31.19 15.0885C31.346 14.3296 31.2877 13.678 31.0131 13.1525M28.7059 15.1507C28.5998 15.6704 28.3501 16.0829 27.9694 16.3766C27.5887 16.6686 27.1102 16.8173 26.5505 16.8173H24.7135L25.3792 13.5876H26.9021C27.2225 13.5876 27.4805 13.6026 27.6636 13.6328C27.8446 13.6629 28.0006 13.7062 28.1275 13.7646C28.4042 13.8776 28.5811 14.0471 28.6705 14.2844C28.7621 14.5292 28.7746 14.8211 28.7059 15.1525" fill="#000000ff"/>
</svg>
