<?xml version="1.0" ?>
<svg xmlns="http://www.w3.org/2000/svg" width="92.0" height="34.0" viewBox="0 0 92.0 34.0">
  <path d="M55.8812 9.53571H71.7502C73.7286 9.57164 75.7607 9.69802 77.6615 10.149C80.1722 10.745 82.5112 12.0787 84.4806 13.6904C86.0051 14.938 87.2275 15.8152 88.6053 16.8744C89.1173 17.2681 89.8309 17.8056 90 18.3653V18.5758C89.9137 18.7656 89.7497 18.8982 89.508 18.9735C88.8133 19.1899 88.1169 19.2322 87.4104 19.2306C85.5104 19.227 83.8199 18.4502 82.2464 17.449C80.8243 16.5442 79.235 15.3488 78.1056 14.549C76.1978 13.1979 74.1605 11.9851 71.9447 11.2225C70.456 10.7104 68.9544 10.4059 67.4398 10.309C67.1644 10.2913 66.5237 10.2645 65.5175 10.2284C62.2702 10.1118 59.0303 9.88917 55.7977 9.56059C55.7916 9.5598 55.7897 9.55651 55.7918 9.55071C55.7933 9.5465 55.7961 9.54479 55.8 9.54558C55.833 9.55084 55.86 9.54755 55.8812 9.53571Z" fill="#000000ff"/>
  <path d="M49.06 14.0948C49.9341 13.1276 51.2526 12.8579 52.5143 13.0305C53.5061 13.1659 53.9521 13.782 53.6752 14.7749C53.0694 16.9451 51.47 18.383 49.1106 18.0813C46.7478 17.7792 48.2283 15.0146 49.06 14.0948ZM51.7489 14.1181C50.4359 13.974 49.6924 15.0932 49.3676 16.1967C49.2236 16.686 49.3397 16.966 49.8764 16.9996C51.1098 17.077 51.7701 16.0794 52.1071 15.0462C52.2319 14.6643 52.3005 14.1789 51.7489 14.1181Z" fill="#000000ff"/>
  <path d="M8.97823 15.0055H11.8213C11.8365 15.0055 11.8409 15.0125 11.8346 15.0265L11.3478 16.0983C11.3446 16.1052 11.3396 16.1109 11.3334 16.115C11.3271 16.1191 11.3199 16.1212 11.3125 16.1212H8.43958C8.42572 16.1212 8.41592 16.1277 8.41016 16.1406L7.56826 17.9972C7.56225 18.0103 7.55205 18.0169 7.53766 18.0169H6.17243C6.15333 18.0169 6.14771 18.0081 6.15556 17.9905C6.5361 17.1458 6.91991 16.3012 7.30699 15.4566C7.7907 14.4013 8.32032 13.5494 9.50784 13.2382C9.90041 13.1353 10.3131 13.0816 10.746 13.0771C11.3967 13.0702 12.049 13.0683 12.7028 13.0712L12.7089 13.0728L12.7135 13.0771L12.7156 13.0831L12.7146 13.0893L12.2207 14.1789C12.2184 14.1838 12.2149 14.1879 12.2104 14.1908C12.206 14.1936 12.2008 14.1952 12.1956 14.1951C11.6019 14.1967 11.0104 14.1971 10.4211 14.1963C9.80574 14.1953 9.32189 14.4596 8.96959 14.9894C8.96253 15.0001 8.96541 15.0055 8.97823 15.0055Z" fill="#000000ff"/>
  <path d="M13.6439 13.0874C13.6461 13.0824 13.6497 13.0782 13.6542 13.0753C13.6586 13.0724 13.6638 13.0708 13.669 13.0708C14.5475 13.0694 15.4293 13.0698 16.3144 13.0719C17.3128 13.0743 18.0158 13.4112 17.5756 14.5684C17.2989 15.2958 16.784 15.7862 16.0307 16.0395C16.0153 16.0445 16.0089 16.0552 16.0115 16.0715L16.3148 17.9901C16.3153 17.9934 16.3151 17.9968 16.3141 18C16.3132 18.0032 16.3116 18.0062 16.3095 18.0088C16.3073 18.0113 16.3046 18.0134 16.3016 18.0148C16.2986 18.0162 16.2953 18.0169 16.292 18.0169H14.8636C14.8548 18.0169 14.8462 18.0138 14.8395 18.008C14.8328 18.0022 14.8284 17.9941 14.8271 17.9853L14.5698 16.2287C14.569 16.2235 14.5664 16.2188 14.5625 16.2154C14.5585 16.212 14.5534 16.2101 14.5482 16.2101H13.6478C13.6374 16.2101 13.63 16.2148 13.6259 16.2243L12.8208 17.998C12.8151 18.0106 12.8054 18.0169 12.7918 18.0169H11.4395C11.436 18.0169 11.4326 18.016 11.4296 18.0143C11.4265 18.0127 11.424 18.0102 11.4221 18.0073C11.4202 18.0043 11.4191 18.001 11.4189 17.9975C11.4186 17.994 11.4192 17.9905 11.4207 17.9873L13.6439 13.0874ZM14.5176 14.2757L14.17 15.0375C14.1627 15.0539 14.1679 15.0622 14.1857 15.0624C14.5968 15.0687 15.0081 15.0677 15.4195 15.0593C15.8272 15.0508 16.0884 14.8572 16.2029 14.4783C16.2194 14.4235 16.2281 14.3931 16.2288 14.3871C16.2441 14.252 15.8852 14.2358 15.8044 14.2354C15.3838 14.2352 14.9632 14.2353 14.5427 14.2358C14.532 14.2358 14.5246 14.2408 14.5207 14.2508C14.5191 14.2545 14.5188 14.2586 14.5195 14.2631C14.5201 14.2675 14.5194 14.2718 14.5176 14.2757Z" fill="#000000ff"/>
  <path d="M19.7075 14.9562H22.4258C22.4295 14.9562 22.4331 14.9571 22.4364 14.9589C22.4396 14.9606 22.4423 14.9632 22.4443 14.9664C22.4463 14.9695 22.4475 14.9731 22.4477 14.9768C22.448 14.9806 22.4474 14.9843 22.4459 14.9878L21.9531 16.0727C21.9474 16.0853 21.9374 16.0916 21.9233 16.0916H19.1308C19.1204 16.0916 19.1132 16.0965 19.1093 16.1062C18.9186 16.5967 18.9512 16.8914 19.5624 16.891C20.228 16.8902 20.8936 16.8906 21.5592 16.8922C21.5739 16.8922 21.5781 16.8989 21.5718 16.9123L21.0802 17.9952C21.0774 18.0012 21.0729 18.0063 21.0674 18.0099C21.0618 18.0135 21.0554 18.0154 21.0488 18.0154C20.4136 18.0188 19.7804 18.0188 19.1493 18.0154C17.6569 18.0071 17.1552 17.111 17.7272 15.7449C18.3957 14.1474 19.4031 13.1035 21.2207 13.081C21.9119 13.0723 22.6013 13.0687 23.2889 13.07L23.2974 13.0722L23.3039 13.0781L23.3066 13.0864L23.305 13.0949L22.815 14.1746C22.8122 14.1806 22.8077 14.1857 22.8022 14.1893C22.7966 14.1929 22.7902 14.1948 22.7836 14.1947C22.31 14.1971 21.8378 14.1974 21.367 14.1955C21.0027 14.1942 20.7482 14.2128 20.6036 14.2512C20.2251 14.3515 19.9217 14.5778 19.6934 14.9301C19.6824 14.9475 19.6871 14.9562 19.7075 14.9562Z" fill="#000000ff"/>
  <path d="M23.0719 16.235C23.556 14.5064 24.8255 13.1111 26.7192 13.0767C27.2773 13.0667 27.9708 13.0656 28.7996 13.0735C28.814 13.0738 28.8181 13.0804 28.8121 13.0933L28.3229 14.1683C28.3179 14.1794 28.3093 14.185 28.297 14.1853C27.8048 14.1871 27.3136 14.1874 26.8235 14.1861C26.4668 14.1853 26.2167 14.2044 26.0734 14.2433C25.2947 14.455 24.9035 15.3255 24.6062 15.9965C24.4861 16.2678 24.3433 16.6528 24.7019 16.8199C24.801 16.866 24.8992 16.8893 24.9965 16.8898C25.687 16.8919 26.3733 16.8923 27.0554 16.891C27.0588 16.891 27.0623 16.8919 27.0653 16.8936C27.0683 16.8953 27.0709 16.8977 27.0728 16.9006C27.0747 16.9035 27.0758 16.9068 27.076 16.9102C27.0763 16.9137 27.0756 16.9171 27.0742 16.9202L26.5846 17.9996C26.5796 18.0104 26.5713 18.0159 26.5595 18.0162C25.914 18.0183 25.268 18.0181 24.6215 18.0158C23.5309 18.0114 22.7364 17.4336 23.0719 16.235Z" fill="#000000ff"/>
  <path d="M28.1834 16.122C28.7067 14.4317 29.9543 13.1083 31.8189 13.0794C32.5047 13.0689 33.1919 13.0664 33.8805 13.0719L33.8886 13.0742L33.8947 13.0801L33.8973 13.0881L33.8958 13.0964L33.4086 14.1659C33.4059 14.1719 33.4015 14.177 33.396 14.1806C33.3905 14.1841 33.3841 14.186 33.3776 14.1861C32.8783 14.1863 32.3768 14.1863 31.8731 14.1861C31.5412 14.1858 31.3051 14.2055 31.1649 14.2453C30.3403 14.4787 29.93 15.4088 29.6404 16.1355C29.4721 16.5576 29.5902 16.887 30.0873 16.889C30.7722 16.8921 31.4576 16.8927 32.1434 16.8906C32.1465 16.8905 32.1497 16.8913 32.1524 16.8928C32.1552 16.8944 32.1576 16.8966 32.1593 16.8992C32.161 16.9019 32.1621 16.905 32.1623 16.9082C32.1625 16.9113 32.1619 16.9145 32.1606 16.9174L31.6687 17.9999C31.6634 18.0115 31.6545 18.0173 31.642 18.0173C31.3117 18.0173 30.6749 18.0167 29.7318 18.0153C28.5471 18.0142 27.7926 17.3831 28.1834 16.122Z" fill="#000000ff"/>
  <path d="M35.4222 13.0704H36.8447L36.8517 13.0721L36.857 13.077L36.8593 13.0838L36.8581 13.0909L34.6254 18.0083L34.6201 18.0146L34.6121 18.017H33.1912L33.1842 18.0152L33.1789 18.0103L33.1766 18.0035L33.1778 17.9964L35.4089 13.0791L35.4143 13.0727L35.4222 13.0704Z" fill="#000000ff"/>
  <path d="M39.7728 13.0704H41.0886C41.0921 13.0704 41.0954 13.0718 41.0978 13.0742C41.1002 13.0767 41.1016 13.08 41.1016 13.0834L41.0867 18.0039C41.0867 18.0074 41.0853 18.0107 41.0829 18.0131C41.0805 18.0156 41.0772 18.017 41.0737 18.017H39.6194L39.6144 18.0159L39.6102 18.013L39.6074 18.0086L39.6065 18.0035L39.6516 16.9246L39.6507 16.9195L39.648 16.9151L39.6437 16.9122L39.6387 16.9111H37.8031L37.7976 16.9124L37.7933 16.9159L36.8701 18.0122L36.8658 18.0157L36.8603 18.017H35.3558L35.3489 18.0148L35.3442 18.0091L35.3433 18.0019L35.3464 17.9952L39.763 13.0747L39.7675 13.0715L39.7728 13.0704ZM39.7034 14.6873C39.4097 15.0361 39.1127 15.3842 38.8125 15.7315C38.7983 15.7478 38.802 15.756 38.8235 15.756H39.674C39.692 15.756 39.7014 15.7469 39.7022 15.7287L39.7477 14.679C39.7479 14.6757 39.7472 14.6725 39.7457 14.6697C39.7442 14.6668 39.742 14.6644 39.7393 14.6626C39.7366 14.6608 39.7335 14.6598 39.7303 14.6596C39.7271 14.6595 39.7239 14.6601 39.7211 14.6616C39.7106 14.6669 39.7047 14.6754 39.7034 14.6873Z" fill="#000000ff"/>
  <path d="M44.8765 16.2101H43.9899C43.9823 16.2101 43.9748 16.2123 43.9684 16.2164C43.962 16.2205 43.9569 16.2264 43.9538 16.2334L43.1515 18.0015C43.1468 18.0118 43.1388 18.0169 43.1276 18.0169H41.7663L41.7577 18.0148L41.7513 18.0087L41.7486 18.0003L41.7502 17.9917L43.9703 13.0996C43.9789 13.0809 43.9934 13.0715 44.0138 13.0715C44.9017 13.0692 45.7966 13.069 46.6984 13.0712C47.3418 13.0723 48.2076 13.2757 48.0338 14.1474C47.8584 15.0269 47.239 15.7709 46.3684 16.0328C46.3601 16.0353 46.3531 16.0408 46.3484 16.0482C46.3438 16.0556 46.342 16.0644 46.3433 16.0731L46.6486 18.0043L46.6482 18.009L46.646 18.0131L46.6422 18.016L46.6376 18.0169H45.1809C45.1761 18.0169 45.1714 18.0151 45.1678 18.0119C45.1641 18.0088 45.1617 18.0044 45.1609 17.9995L44.9016 16.2322C44.9008 16.2261 44.8978 16.2205 44.8931 16.2164C44.8885 16.2124 44.8826 16.2101 44.8765 16.2101ZM44.8573 14.2575L44.503 15.0363C44.4946 15.0543 44.5003 15.0633 44.5199 15.0636C44.7827 15.0662 45.0457 15.0669 45.3088 15.0656C45.9581 15.0624 46.4045 15.0731 46.5619 14.38C46.5648 14.3672 46.5634 14.3539 46.5579 14.3421C46.5524 14.3304 46.5431 14.3209 46.5317 14.3152C46.4247 14.2618 46.3038 14.235 46.1692 14.235C45.7376 14.2345 45.3114 14.2349 44.8906 14.2362C44.8836 14.2362 44.8767 14.2382 44.8708 14.242C44.8649 14.2458 44.8602 14.2512 44.8573 14.2575Z" fill="#000000ff"/>
  <path d="M55.5943 16.1303C54.9804 16.1311 54.1498 15.9111 54.337 15.0751C54.6179 13.8196 55.6175 13.0767 56.8815 13.0728C57.8973 13.0696 58.9134 13.0691 59.9297 13.0712C59.933 13.0711 59.9362 13.0719 59.9391 13.0735C59.942 13.075 59.9444 13.0773 59.9462 13.0801C59.9479 13.0828 59.949 13.086 59.9492 13.0893C59.9494 13.0926 59.9488 13.0958 59.9474 13.0988L59.4425 14.2086C59.4372 14.2199 59.4285 14.2256 59.4162 14.2256C58.5105 14.2253 57.6063 14.226 56.7038 14.2275C56.3007 14.2281 56.0177 14.4088 55.8548 14.7698C55.7948 14.9029 55.8654 15.0008 56.0039 15.002C56.6457 15.0079 57.3111 14.9712 57.9486 15.0332C59.2546 15.1604 58.8277 16.3314 58.3546 17.015C57.8156 17.7938 57.0019 18.0142 56.102 18.0158C55.1199 18.0176 54.1428 18.0179 53.1706 18.0166C53.1487 18.0163 53.1422 18.0061 53.1514 17.9861L53.6516 16.8823C53.6544 16.8762 53.6589 16.871 53.6646 16.8674C53.6703 16.8637 53.6769 16.8618 53.6838 16.8618C54.6266 16.8636 55.5738 16.8608 56.5253 16.8535C56.9014 16.8503 57.1471 16.6727 57.2624 16.3207C57.275 16.2828 57.2763 16.2455 57.2663 16.2089C57.2647 16.203 57.2618 16.1976 57.2578 16.1931C57.2538 16.1886 57.2488 16.1851 57.2432 16.1829C57.1637 16.1521 57.0808 16.1363 56.9945 16.1355C56.5276 16.1315 56.0609 16.1298 55.5943 16.1303Z" fill="#000000ff"/>
  <path d="M60.5939 13.8579C61.1808 13.224 61.9282 13.0743 62.756 13.0719C63.6946 13.069 64.6333 13.0689 65.572 13.0715C65.585 13.0715 65.5888 13.0775 65.5833 13.0893L65.0757 14.2054C65.0699 14.2186 65.0599 14.2252 65.0455 14.2252C64.1604 14.2262 63.2756 14.2262 62.3911 14.2252C61.9651 14.2248 61.583 14.4246 61.4586 14.8582C61.4549 14.8706 61.4561 14.8825 61.4621 14.8938C61.5021 14.9688 61.5577 15.0061 61.6289 15.0055C62.4017 15.0008 62.9827 15.0033 63.3719 15.013C63.5348 15.017 63.7183 15.0458 63.9223 15.0995C64.9604 15.3724 64.2216 16.7508 63.8254 17.216C63.2977 17.8364 62.5461 18.0134 61.7689 18.0157C60.7772 18.0184 59.7853 18.0184 58.7932 18.0157L58.7863 18.014L58.781 18.0091L58.7787 18.0021L58.7799 17.9948L59.2832 16.8831C59.2898 16.8688 59.3008 16.8617 59.3162 16.8617C60.1678 16.862 61.0183 16.8615 61.8678 16.8602C62.395 16.8594 62.7952 16.8132 62.9046 16.2484C62.9079 16.2314 62.9045 16.2139 62.8952 16.1993C62.8859 16.1848 62.8715 16.1743 62.8548 16.1702C62.7771 16.1507 62.7001 16.1405 62.6238 16.1394C62.1572 16.1331 61.6906 16.1302 61.224 16.1307C60.7536 16.1311 60.1134 16.0178 59.9796 15.4968C59.8466 14.9787 60.2369 14.2433 60.5939 13.8579Z" fill="#000000ff"/>
  <path d="M68.2939 13.0704H69.6066C69.6106 13.0704 69.6145 13.072 69.6174 13.0749C69.6202 13.0778 69.6218 13.0817 69.6218 13.0858L69.6069 18.0016C69.6069 18.0056 69.6053 18.0096 69.6025 18.0124C69.5996 18.0153 69.5957 18.017 69.5916 18.017H68.1417L68.1356 18.0157L68.1306 18.0122L68.1273 18.0069L68.1264 18.0008L68.1715 16.9273L68.1705 16.9212L68.1673 16.9159L68.1622 16.9124L68.1562 16.9111H66.3249L66.3184 16.9126L66.3131 16.9167L65.3904 18.0114L65.3851 18.0155L65.3786 18.017H63.8812L63.8729 18.0145L63.8672 18.0078L63.8661 17.9992L63.8698 17.9913L68.2825 13.0755L68.2877 13.0717L68.2939 13.0704ZM68.2244 14.6873C67.9284 15.0351 67.6317 15.3837 67.3343 15.733C67.321 15.7483 67.3244 15.7559 67.3445 15.7559H68.1946C68.2124 15.7559 68.2217 15.747 68.2225 15.7291L68.2676 14.6786L68.2657 14.6695C68.2657 14.6695 68.2621 14.6644 68.2594 14.6627C68.2567 14.661 68.2537 14.66 68.2505 14.6599C68.2473 14.6598 68.2441 14.6605 68.2413 14.662C68.2314 14.6672 68.2257 14.6757 68.2244 14.6873Z" fill="#000000ff"/>
  <path d="M84.7684 24.4643H83.1811C82.7229 24.429 82.217 24.3699 81.6633 24.287C69.4954 22.4612 57.1608 21.7815 44.867 21.8257C33.965 21.8649 23.0898 22.4268 12.2413 23.5113C9.70258 23.7651 7.16839 24.0588 4.63878 24.3924C4.42876 24.42 4.22162 24.4341 4.01736 24.4347C3.37502 24.436 2.72012 24.4314 2.05267 24.4208C1.9831 24.4195 1.98245 24.4124 2.05071 24.3995C9.97458 22.8798 18.0154 21.9643 26.0561 21.3715C34.8287 20.7249 43.613 20.4325 52.4091 20.4944C58.2989 20.5359 64.2 20.7464 70.0733 21.1978C73.1215 21.4318 76.1581 21.7707 79.1831 22.2143C80.0888 22.3473 80.9971 22.4564 81.9081 22.5417C83.7288 22.7119 85.5828 22.7866 87.4004 22.5492C88.1344 22.4533 89.6911 22.1318 89.9744 21.3068C89.978 21.296 89.9834 21.2951 89.9904 21.304C89.9952 21.3103 89.9958 21.3176 89.9924 21.3257C89.0826 23.4331 86.9041 24.3142 84.7684 24.4643Z" fill="#000000ff"/>
</svg>
