<?xml version="1.0" ?>
<svg xmlns="http://www.w3.org/2000/svg" width="24.0" height="24.0" viewBox="0 0 24.0 24.0">
  <path d="M19.3351 14.9281L4.71509 19.0223C4.45509 19.0936 4.30509 19.3686 4.37509 19.6334C4.43509 19.8574 4.63509 20 4.84509 20C4.88509 20 4.93509 20 4.97509 19.9796L19.5951 15.8854C19.8551 15.8141 20.0051 15.5392 19.9351 15.2744C19.8651 15.0096 19.5951 14.8568 19.3351 14.9281Z" fill="#000000ff"/>
  <path d="M4.63503 13.8281C4.63503 14.6531 5.29503 15.3253 6.10503 15.3253H6.34503V16.7511C6.34503 16.9039 6.41503 17.0567 6.53503 17.1483C6.62503 17.2196 6.72503 17.2502 6.83503 17.2502C6.87503 17.2502 6.91503 17.2502 6.96503 17.2298L13.955 15.3253C13.955 15.3253 13.975 15.3151 13.985 15.3151H16.345C17.015 15.3151 17.575 14.8466 17.755 14.2151L17.845 14.1948C18.075 14.154 18.245 13.9504 18.245 13.7059V12.9421L19.635 12.5652C19.895 12.494 20.055 12.219 19.985 11.9542C19.915 11.6894 19.655 11.5264 19.385 11.5977L18.245 11.9134V11.4144C18.245 11.17 18.075 10.9663 17.845 10.9255H17.815V6.89242L18.245 6.56652C18.295 6.52578 18.335 6.47486 18.375 6.42393C18.425 6.34246 18.645 5.88415 18.025 5.40547C16.905 4.53978 14.305 4 11.235 4C8.16503 4 5.36503 4.61108 4.26503 5.54806C4.19503 5.60917 4.14503 5.69064 4.11503 5.77212L4.02503 6.05729C3.95503 6.27116 4.03503 6.50541 4.22503 6.62763L4.65503 6.91279V13.8383L4.63503 13.8281ZM7.31503 16.0993V15.3151H10.195L7.31503 16.0993ZM11.215 4.98791C13.875 4.98791 16.185 5.40547 17.235 6.06747L17.015 6.23043C16.895 6.32209 16.815 6.47486 16.815 6.62763V13.8078C16.815 14.0827 16.595 14.3068 16.325 14.3068H6.09503C5.82503 14.317 5.60503 14.0929 5.60503 13.8179V6.62763C5.60503 6.45449 5.52503 6.30172 5.38503 6.21006L5.18503 6.07766C6.14503 5.5175 8.28503 4.98791 11.215 4.98791Z" fill="#000000ff"/>
  <path d="M6.82501 10.508H8.345C8.525 10.508 8.66501 10.3654 8.66501 10.1821V6.44432C8.66501 6.261 8.515 6.11841 8.345 6.11841C8.335 6.11841 8.325 6.11841 8.305 6.11841C7.715 6.18971 7.195 6.261 6.755 6.35266C6.605 6.38321 6.505 6.51561 6.505 6.66838V10.1719C6.505 10.3552 6.645 10.4978 6.82501 10.4978V10.508ZM7.24501 7.02484C7.44501 6.99429 7.665 6.95355 7.925 6.923V9.7645H7.24501V7.02484Z" fill="#000000ff"/>
  <path d="M9.66509 10.5792H12.6451C12.8251 10.5792 12.9651 10.4366 12.9651 10.2533V6.32207C12.9651 6.14893 12.8451 6.00635 12.6751 5.99616C12.1951 5.96561 11.6851 5.95543 11.1551 5.95543C10.6251 5.95543 10.1251 5.96561 9.64509 5.99616C9.47509 5.99616 9.34509 6.14893 9.34509 6.32207V10.2533C9.34509 10.4366 9.48509 10.5792 9.66509 10.5792ZM10.0851 6.72945C10.4351 6.71927 10.7951 6.70908 11.1551 6.70908C11.5151 6.70908 11.8751 6.70908 12.2351 6.72945V9.83576H10.0851V6.72945Z" fill="#000000ff"/>
  <path d="M14.0251 10.508H15.5451C15.7251 10.508 15.8651 10.3654 15.8651 10.1821V6.66838C15.8651 6.5258 15.7751 6.3934 15.6351 6.35266C15.2051 6.24063 14.6651 6.17952 14.0651 6.11841C14.0551 6.11841 14.0451 6.11841 14.0351 6.11841C13.8651 6.11841 13.7151 6.261 13.7151 6.44432V10.1821C13.7151 10.3654 13.8551 10.508 14.0351 10.508H14.0251ZM14.4451 6.91281C14.6951 6.94337 14.9251 6.97392 15.1251 7.00447V9.75431H14.4451V6.91281Z" fill="#000000ff"/>
</svg>
