<?xml version="1.0" ?>
<svg xmlns="http://www.w3.org/2000/svg" width="17.0" height="24.0" viewBox="0 0 17.0 24.0">
  <path d="M3.04344 4.59728C2.80339 4.86958 2.59184 5.16579 2.41209 5.48127C1.8504 6.38978 1.51229 7.41889 1.4256 8.48386C1.39589 8.99964 1.41405 9.51713 1.47986 10.0296C1.56019 10.8187 1.77367 11.5885 2.11121 12.3062C2.29431 12.7165 2.5104 13.1112 2.75736 13.4865C3.22876 14.1899 3.73753 14.8674 4.28148 15.5162C4.60701 15.9211 4.93749 16.3359 5.26795 16.736L6.04235 17.8126C6.53564 18.4799 6.94329 19.2066 7.2557 19.9756C7.40859 20.3707 7.5221 20.7805 7.65523 21.1855C7.69151 21.2999 7.73436 21.4119 7.78348 21.5214C7.82443 21.6303 7.89643 21.7247 7.99066 21.7929C8.09273 21.8559 8.21125 21.8868 8.33097 21.8819C8.44977 21.8859 8.56687 21.8531 8.6664 21.788C8.76784 21.7271 8.84732 21.6354 8.89327 21.5262C8.99718 21.3144 9.07984 21.0927 9.13991 20.8645C9.39565 19.9921 9.77436 19.1607 10.2645 18.3953C10.837 17.5213 11.456 16.6789 12.1191 15.8718C12.7664 15.0915 13.3739 14.2789 13.9391 13.4371C15.0405 11.7801 15.4692 9.76489 15.1377 7.80233C15.022 7.11056 14.792 6.44297 14.457 5.82696C13.5958 4.20108 12.1279 2.98168 10.373 2.43425C9.83894 2.26299 9.28546 2.1601 8.72556 2.12806C7.92572 2.08381 7.12433 2.18076 6.35802 2.41449C5.45052 2.68306 4.61005 3.14084 3.89181 3.75775C3.57734 4.00357 3.29263 4.28532 3.04344 4.59728ZM6.28896 7.31837C6.42379 7.18997 6.55203 7.06157 6.6737 6.93317C6.67089 6.92014 6.67089 6.90667 6.6737 6.89366C6.67115 6.90504 6.67115 6.91685 6.6737 6.92823C6.99998 6.68842 7.37309 6.52014 7.76866 6.43438C8.2637 6.33536 8.77659 6.37815 9.2484 6.55784C9.72551 6.74415 10.1384 7.06496 10.4371 7.48136C10.7377 7.89459 10.9094 8.38779 10.9304 8.89863C10.9599 9.41731 10.8345 9.9331 10.5703 10.3802C10.5703 10.4099 10.5358 10.4493 10.516 10.4839C10.389 10.6589 10.2488 10.824 10.0968 10.9777C10.0968 10.9777 10.0968 11.0074 10.0721 11.0074H10.0475L10.0228 11.0321C9.93141 11.0798 9.84678 11.1396 9.77125 11.2098C9.27939 11.537 8.69308 11.6916 8.1041 11.6494C7.51687 11.6035 6.96189 11.3622 6.52749 10.964C6.09308 10.5657 5.80424 10.0334 5.70694 9.45176C5.61175 8.86934 5.71788 8.27174 6.00782 7.75786C6.00782 7.7184 6.04235 7.67393 6.06208 7.62946C6.06208 7.62946 6.06208 7.62946 6.09167 7.62946L6.24458 7.41219L6.28896 7.31837ZM10.0475 11.0173V10.9926C10.0475 10.9926 10.0573 11.0173 10.0475 11.0173Z" fill="#000000ff"/>
</svg>
