<?xml version="1.0" ?>
<svg xmlns="http://www.w3.org/2000/svg" width="81.0" height="24.0" viewBox="0 0 81.0 24.0">
  <path d="M7.53247 14.7714C6.73106 15.1996 5.83483 15.4137 4.84377 15.4137C4.34212 15.4137 3.88024 15.3342 3.45812 15.1751C3.04212 15.01 2.68118 14.7805 2.3753 14.4869C2.07553 14.1871 1.84 13.8292 1.66871 13.4132C1.49741 12.9972 1.41177 12.5353 1.41177 12.0276C1.41177 11.5076 1.49741 11.0365 1.66871 10.6144C1.84 10.1862 2.07553 9.82214 2.3753 9.52243C2.68118 9.22264 3.04212 8.99323 3.45812 8.83419C3.88024 8.66901 4.34212 8.58643 4.84377 8.58643C5.3393 8.58643 5.80424 8.64756 6.23859 8.76996C6.67294 8.88614 7.06144 9.0972 7.404 9.40313L6.55059 10.2657C6.34259 10.0638 6.08871 9.90784 5.78894 9.79772C5.4953 9.6876 5.1833 9.63254 4.85294 9.63254C4.51647 9.63254 4.21059 9.69367 3.9353 9.81607C3.66612 9.93226 3.43365 10.0974 3.23788 10.3116C3.04212 10.5196 2.88918 10.7643 2.77906 11.0457C2.67506 11.3271 2.62306 11.6299 2.62306 11.9542C2.62306 12.3029 2.67506 12.6241 2.77906 12.9177C2.88918 13.2114 3.04212 13.4652 3.23788 13.6794C3.43365 13.8935 3.66612 14.0617 3.9353 14.1841C4.21059 14.3064 4.51647 14.3676 4.85294 14.3676C5.14659 14.3676 5.42188 14.3401 5.67883 14.285C5.94189 14.23 6.17435 14.1443 6.37624 14.0281V12.4956H5.04565V11.4495H7.53247V14.7714Z" fill="#000000ff"/>
  <path d="M8.90273 8.7516H11.1601C11.4721 8.7516 11.7719 8.78217 12.0594 8.84337C12.3531 8.89843 12.6131 8.99626 12.8394 9.13701C13.0657 9.2777 13.2462 9.46737 13.3808 9.70596C13.5154 9.94454 13.5827 10.2474 13.5827 10.6144C13.5827 11.0855 13.4511 11.48 13.1881 11.7982C12.9312 12.1163 12.561 12.309 12.0778 12.3763L13.803 15.2485H12.4081L10.9032 12.4956H10.059V15.2485H8.90273V8.7516ZM10.9583 11.5045C11.1234 11.5045 11.2886 11.4984 11.4538 11.4862C11.619 11.4678 11.7688 11.4311 11.9034 11.3761C12.0441 11.3149 12.1573 11.2261 12.243 11.11C12.3286 10.9876 12.3714 10.8193 12.3714 10.6052C12.3714 10.4156 12.3316 10.2626 12.2521 10.1464C12.1726 10.0302 12.0686 9.94454 11.9401 9.88948C11.8117 9.82828 11.6679 9.78854 11.5088 9.77019C11.3559 9.75184 11.206 9.74266 11.0592 9.74266H10.059V11.5045H10.9583Z" fill="#000000ff"/>
  <path d="M16.7842 8.7516H17.7844L20.5832 15.2485H19.2618L18.6562 13.762H15.839L15.2517 15.2485H13.9578L16.7842 8.7516ZM18.2524 12.7709L17.2522 10.1281L16.2336 12.7709H18.2524Z" fill="#000000ff"/>
  <path d="M21.3053 8.7516H22.8378L25.9853 13.5784H26.0037V8.7516H27.1599V15.2485H25.6916L22.4799 10.2657H22.4615V15.2485H21.3053V8.7516Z" fill="#000000ff"/>
  <path d="M28.6089 8.7516H31.1691C31.5973 8.7516 32.0102 8.81887 32.4079 8.95348C32.8055 9.08196 33.1573 9.28073 33.4632 9.54996C33.7691 9.81911 34.0138 10.1586 34.1973 10.5685C34.3809 10.9723 34.4726 11.4495 34.4726 12.0001C34.4726 12.5567 34.3655 13.04 34.1514 13.45C33.9434 13.8537 33.6712 14.1901 33.3347 14.4594C33.0044 14.7224 32.6342 14.9212 32.2244 15.0558C31.8206 15.1843 31.4229 15.2485 31.0314 15.2485H28.6089V8.7516ZM30.6277 14.2024C30.9886 14.2024 31.3281 14.1626 31.6463 14.0831C31.9705 13.9974 32.2519 13.869 32.4905 13.6977C32.7291 13.5203 32.9157 13.294 33.0503 13.0187C33.191 12.7372 33.2613 12.3977 33.2613 12.0001C33.2613 11.6085 33.2001 11.272 33.0778 10.9907C32.9554 10.7092 32.7841 10.4828 32.5639 10.3116C32.3497 10.1341 32.0928 10.0057 31.7931 9.92619C31.4994 9.8405 31.1752 9.79772 30.8204 9.79772H29.7651V14.2024H30.6277Z" fill="#000000ff"/>
  <path d="M35.5718 8.7516H39.8756V9.79772H36.728V11.3944H39.7104V12.4405H36.728V14.2024H40.0408V15.2485H35.5718V8.7516Z" fill="#000000ff"/>
  <path d="M43.1445 8.7516H44.4751L46.2462 13.661L48.0723 8.7516H49.3203L46.6958 15.2485H45.6956L43.1445 8.7516Z" fill="#000000ff"/>
  <path d="M49.9901 8.7516H51.1463V15.2485H49.9901V8.7516Z" fill="#000000ff"/>
  <path d="M53.9022 9.79772H51.9109V8.7516H57.0497V9.79772H55.0584V15.2485H53.9022V9.79772Z" fill="#000000ff"/>
  <path d="M57.8409 8.7516H62.1447V9.79772H58.9971V11.3944H61.9795V12.4405H58.9971V14.2024H62.3099V15.2485H57.8409V8.7516Z" fill="#000000ff"/>
  <path d="M66.6349 10.1464C66.5126 9.96897 66.3474 9.8405 66.1394 9.76101C65.9375 9.67532 65.7234 9.63254 65.4971 9.63254C65.3625 9.63254 65.2309 9.64779 65.1025 9.67843C64.9801 9.70899 64.867 9.75791 64.7629 9.82525C64.6651 9.89252 64.5856 9.98125 64.5244 10.0914C64.4632 10.1953 64.4326 10.3208 64.4326 10.4676C64.4326 10.6878 64.5091 10.856 64.662 10.9723C64.815 11.0885 65.0046 11.1894 65.2309 11.2751C65.4573 11.3608 65.7051 11.4433 65.9742 11.5229C66.2435 11.6024 66.4912 11.7125 66.7175 11.8532C66.9439 11.9939 67.1336 12.1805 67.2865 12.413C67.4394 12.6455 67.5159 12.9544 67.5159 13.3398C67.5159 13.6885 67.4516 13.9944 67.3232 14.2575C67.1947 14.5144 67.0204 14.7285 66.8001 14.8998C66.586 15.0711 66.3352 15.1996 66.0476 15.2852C65.7601 15.3709 65.4573 15.4137 65.1392 15.4137C64.7354 15.4137 64.347 15.3464 63.9738 15.2118C63.6006 15.0772 63.2795 14.8508 63.0102 14.5328L63.882 13.6885C64.0228 13.9026 64.2063 14.0708 64.4326 14.1932C64.6651 14.3094 64.9098 14.3676 65.1667 14.3676C65.3013 14.3676 65.4359 14.3492 65.5705 14.3125C65.7051 14.2758 65.8274 14.2208 65.9375 14.1474C66.0476 14.074 66.1364 13.9822 66.2036 13.8721C66.271 13.7558 66.3046 13.6243 66.3046 13.4775C66.3046 13.2389 66.2281 13.0554 66.0752 12.9269C65.9223 12.7984 65.7326 12.6913 65.5062 12.6057C65.2799 12.514 65.0322 12.4283 64.7629 12.3488C64.4938 12.2692 64.246 12.1621 64.0197 12.0276C63.7933 11.8868 63.6037 11.7033 63.4507 11.477C63.2978 11.2445 63.2213 10.9356 63.2213 10.5502C63.2213 10.2137 63.2886 9.92308 63.4232 9.67843C63.5639 9.4337 63.7444 9.23181 63.9646 9.07278C64.191 8.9076 64.4479 8.7852 64.7354 8.70572C65.023 8.62617 65.3166 8.58643 65.6164 8.58643C65.959 8.58643 66.2893 8.63838 66.6074 8.74243C66.9317 8.8464 67.2222 9.01772 67.4792 9.25631L66.6349 10.1464Z" fill="#000000ff"/>
  <path d="M71.904 10.1464C71.7819 9.96897 71.6167 9.8405 71.4085 9.76101C71.2066 9.67532 70.9927 9.63254 70.7661 9.63254C70.632 9.63254 70.5003 9.64779 70.3718 9.67843C70.2494 9.70899 70.1363 9.75791 70.0323 9.82525C69.9344 9.89252 69.8548 9.98125 69.7937 10.0914C69.7325 10.1953 69.7019 10.3208 69.7019 10.4676C69.7019 10.6878 69.7784 10.856 69.9313 10.9723C70.0842 11.0885 70.2739 11.1894 70.5003 11.2751C70.7266 11.3608 70.9743 11.4433 71.2433 11.5229C71.5129 11.6024 71.7607 11.7125 71.9866 11.8532C72.2132 11.9939 72.4031 12.1805 72.5555 12.413C72.7087 12.6455 72.7849 12.9544 72.7849 13.3398C72.7849 13.6885 72.7207 13.9944 72.5922 14.2575C72.4638 14.5144 72.2894 14.7285 72.0692 14.8998C71.8553 15.0711 71.6047 15.1996 71.3167 15.2852C71.0294 15.3709 70.7266 15.4137 70.4085 15.4137C70.0047 15.4137 69.6162 15.3464 69.2431 15.2118C68.8699 15.0772 68.5487 14.8508 68.2796 14.5328L69.1513 13.6885C69.292 13.9026 69.4755 14.0708 69.7019 14.1932C69.9344 14.3094 70.1791 14.3676 70.436 14.3676C70.5706 14.3676 70.7054 14.3492 70.8395 14.3125C70.9743 14.2758 71.0965 14.2208 71.2066 14.1474C71.3167 14.074 71.4056 13.9822 71.4727 13.8721C71.5405 13.7558 71.5736 13.6243 71.5736 13.4775C71.5736 13.2389 71.4974 13.0554 71.3442 12.9269C71.1918 12.7984 71.0019 12.6913 70.7753 12.6057C70.5492 12.514 70.3014 12.4283 70.0323 12.3488C69.7631 12.2692 69.5153 12.1621 69.289 12.0276C69.0626 11.8868 68.8729 11.7033 68.72 11.477C68.5671 11.2445 68.4906 10.9356 68.4906 10.5502C68.4906 10.2137 68.5579 9.92308 68.6925 9.67843C68.8332 9.4337 69.0137 9.23181 69.2339 9.07278C69.4602 8.9076 69.7172 8.7852 70.0047 8.70572C70.2923 8.62617 70.5859 8.58643 70.8854 8.58643C71.2285 8.58643 71.5588 8.63838 71.8765 8.74243C72.2012 8.8464 72.4913 9.01772 72.7482 9.25631L71.904 10.1464Z" fill="#000000ff"/>
  <path d="M73.9892 8.7516H78.2929V9.79772H75.1454V11.3944H78.1278V12.4405H75.1454V14.2024H78.4581V15.2485H73.9892V8.7516Z" fill="#000000ff"/>
</svg>
