<?xml version="1.0" ?>
<svg xmlns="http://www.w3.org/2000/svg" width="19.0" height="19.0" viewBox="0 0 19.0 19.0">
  <path d="M13.641,1C12.5547,1 11.4989,1.4397 10.7192,2.2446C10.7192,2.2446 1.7787,11.1989 1.7764,11.2011C1.2412,11.7626 1,12.5043 1,13.3057C1,15.0001 2.3403,16.438 4.0036,16.4381C4.7912,16.4381 5.5416,16.2105 6.1014,15.634C6.1014,15.634 14.8285,6.6751 14.8329,6.6704C15.0761,6.4033 15.3846,6.0176 15.3846,5.4748C15.3846,4.5372 14.6636,3.6849 13.641,3.6849C13.0613,3.6849 12.6891,4.0472 12.4764,4.2442C12.4741,4.2466 7.0208,9.621 7.0208,9.621C6.855,9.7821 6.8469,10.0835 7.0038,10.2538C7.1607,10.424 7.4544,10.4323 7.6202,10.2712L13.0689,4.9014C13.304,4.6827 13.3834,4.5798 13.641,4.5798C14.2306,4.5798 14.5128,4.9603 14.5128,5.4748C14.5128,5.6251 14.3772,5.8595 14.1927,6.0621L5.4884,14.9977C5.1188,15.3785 4.6378,15.5431 4.0036,15.5431C2.8328,15.5431 1.8718,14.5156 1.8718,13.3057C1.8718,12.6813 2.0327,12.2154 2.3962,11.8304L11.3321,2.8808C11.9469,2.2464 12.7876,1.895 13.641,1.895C15.6226,1.895 17.1282,3.5364 17.1282,5.4748C17.1282,6.4704 16.8076,7.1935 16.1679,7.8381L7.014,17.2352C6.8464,17.3987 6.8418,17.7056 7.0044,17.8743C7.1669,18.0431 7.4659,18.0417 7.627,17.8714L16.7808,8.4743C17.5614,7.6879 18,6.6816 18,5.4748C18,3.0568 16.0946,1 13.641,1Z" fill="#ffffffff" stroke-width="1.0" stroke="#6b6b6bff"/>
</svg>
