<?xml version="1.0" ?>
<svg xmlns="http://www.w3.org/2000/svg" width="14.0" height="20.0" viewBox="0 0 14.0 20.0">
  <path d="M0.127,19.5V18.177C0.127,17.275 0.305,16.381 0.65,15.547C0.996,14.713 1.502,13.955 2.14,13.317C2.778,12.679 3.536,12.172 4.37,11.827C5.204,11.481 6.098,11.304 7,11.304C7.903,11.304 8.797,11.481 9.631,11.827C10.465,12.172 11.223,12.679 11.861,13.317C12.499,13.955 13.005,14.713 13.351,15.547C13.696,16.381 13.874,17.275 13.874,18.177V19.5C13.874,19.633 13.821,19.76 13.728,19.854C13.634,19.947 13.507,20 13.374,20C13.241,20 13.114,19.947 13.021,19.854C12.927,19.76 12.874,19.633 12.874,19.5V18.177C12.874,16.619 12.255,15.125 11.154,14.024C10.052,12.922 8.558,12.304 7,12.304C5.443,12.304 3.949,12.922 2.847,14.024C1.746,15.125 1.127,16.619 1.127,18.177V19.5C1.127,19.633 1.074,19.76 0.981,19.854C0.887,19.947 0.76,20 0.627,20C0.494,20 0.367,19.947 0.273,19.854C0.18,19.76 0.127,19.633 0.127,19.5ZM2.652,4.348C2.652,3.488 2.907,2.647 3.385,1.932C3.863,1.217 4.542,0.66 5.336,0.331C6.131,0.001 7.005,-0.085 7.848,0.083C8.692,0.251 9.467,0.665 10.075,1.273C10.683,1.881 11.097,2.655 11.265,3.499C11.433,4.342 11.347,5.217 11.018,6.011C10.689,6.806 10.132,7.485 9.417,7.963C8.702,8.441 7.861,8.696 7.001,8.696C5.848,8.694 4.743,8.236 3.928,7.421C3.113,6.606 2.654,5.501 2.652,4.348ZM3.652,4.348C3.652,5.01 3.849,5.658 4.217,6.208C4.584,6.759 5.107,7.188 5.719,7.441C6.331,7.695 7.004,7.761 7.654,7.632C8.303,7.503 8.9,7.184 9.368,6.716C9.836,6.248 10.155,5.651 10.284,5.002C10.413,4.352 10.347,3.679 10.094,3.067C9.841,2.455 9.412,1.932 8.861,1.564C8.31,1.197 7.663,1 7.001,1C6.113,1.001 5.262,1.354 4.634,1.982C4.006,2.609 3.653,3.46 3.652,4.348Z" fill="#0c131fff"/>
</svg>
