<?xml version="1.0" ?>
<svg xmlns="http://www.w3.org/2000/svg" width="16.0" height="15.0" viewBox="0 0 16.0 15.0">
  <path d="M13.1859,7.6709V11.4011C13.1853,11.7785 13.0215,12.1402 12.7303,12.407C12.4392,12.6738 12.0445,12.8238 11.6328,12.8242H3.5531C3.1415,12.8238 2.7468,12.6738 2.4556,12.407C2.1644,12.1402 2.0006,11.7785 2,11.4011V3.9414C2.0004,3.5639 2.1642,3.202 2.4554,2.9351C2.7466,2.6682 3.1414,2.518 3.5531,2.5176H7.5059C7.5648,2.5174 7.6231,2.5279 7.6776,2.5484C7.7321,2.5689 7.7816,2.5991 7.8233,2.6372C7.865,2.6753 7.8981,2.7206 7.9207,2.7704C7.9433,2.8202 7.9549,2.8737 7.9549,2.9277C7.9549,2.9816 7.9433,3.0351 7.9207,3.0849C7.8981,3.1348 7.865,3.1801 7.8233,3.2181C7.7816,3.2562 7.7321,3.2864 7.6776,3.3069C7.6231,3.3274 7.5648,3.3379 7.5059,3.3377H3.5531C3.3786,3.338 3.2114,3.4017 3.0881,3.5149C2.9648,3.628 2.8955,3.7814 2.8953,3.9414V11.4011C2.8955,11.561 2.9648,11.7143 3.0882,11.8273C3.2115,11.9404 3.3787,12.004 3.5531,12.0041H11.6328C11.8072,12.004 11.9744,11.9404 12.0977,11.8273C12.2211,11.7143 12.2904,11.561 12.2906,11.4011V7.6709C12.2906,7.5621 12.3378,7.4577 12.4217,7.3807C12.5057,7.3038 12.6195,7.2605 12.7383,7.2605C12.857,7.2605 12.9709,7.3038 13.0548,7.3807C13.1388,7.4577 13.1859,7.5621 13.1859,7.6709L13.1859,7.6709ZM13.9654,2.0957C13.9314,2.021 13.874,1.9571 13.8005,1.9121C13.7271,1.867 13.6407,1.8428 13.5523,1.8425H10.2192C10.1603,1.8423 10.1019,1.8528 10.0475,1.8733C9.993,1.8938 9.9435,1.924 9.9017,1.9621C9.86,2.0002 9.8269,2.0454 9.8043,2.0953C9.7818,2.1451 9.7701,2.1986 9.7701,2.2525C9.7701,2.3065 9.7818,2.36 9.8043,2.4098C9.8269,2.4597 9.86,2.5049 9.9017,2.543C9.9435,2.5811 9.993,2.6113 10.0475,2.6318C10.1019,2.6523 10.1603,2.6628 10.2192,2.6626H12.4724L7.703,7.0345C7.6193,7.1115 7.5724,7.2158 7.5726,7.3244C7.5728,7.4331 7.6199,7.5372 7.7038,7.614C7.7877,7.6908 7.9014,7.734 8.0199,7.734C8.1384,7.734 8.2521,7.6909 8.336,7.6142L13.1047,3.2429V5.3083C13.1047,5.4171 13.1518,5.5215 13.2358,5.5985C13.3198,5.6754 13.4336,5.7187 13.5523,5.7187C13.6711,5.7187 13.7849,5.6754 13.8689,5.5985C13.9528,5.5215 14,5.4171 14,5.3083V2.2526C13.9998,2.1987 13.9881,2.1454 13.9654,2.0957V2.0957Z" fill="#0088cfff"/>
</svg>
