<?xml version="1.0" ?>
<svg xmlns="http://www.w3.org/2000/svg" width="30.0" height="30.0" viewBox="0 0 30.0 30.0">
  <path d="M6,0L24,0A6,6 0,0 1,30 6L30,24A6,6 0,0 1,24 30L6,30A6,6 0,0 1,0 24L0,6A6,6 0,0 1,6 0z" fill="#0790d8ff"/>
  <path d="M14.6944,12.4231L12.5158,10.0272V16.9015C12.5158,17.3472 12.1545,17.7085 11.7089,17.7085C11.2632,17.7085 10.9019,17.3472 10.9019,16.9015V10.0146L8.3775,12.7907C8.0624,13.1373 7.5515,13.1373 7.2364,12.7907C6.9212,12.4442 6.9212,11.8823 7.2364,11.5358L11.1244,7.2599C11.3034,7.063 11.5456,6.978 11.7792,7.0048C11.9631,7.0214 12.1428,7.107 12.2835,7.2618L15.8356,11.1681C16.1507,11.5146 16.1507,12.0765 15.8356,12.4231C15.5205,12.7696 15.0095,12.7696 14.6944,12.4231ZM15.3056,17.577L17.4842,19.9729V13.0988C17.4842,12.6532 17.8455,12.2919 18.2911,12.2919C18.7368,12.2919 19.0981,12.6532 19.0981,13.0988V19.9854L21.6225,17.2093C21.9376,16.8627 22.4485,16.8627 22.7636,17.2093C23.0788,17.5558 23.0788,18.1177 22.7636,18.4642L18.8756,22.7401C18.6972,22.9363 18.4561,23.0214 18.2233,22.9955C18.0385,22.9795 17.8578,22.8937 17.7164,22.7383L14.1644,18.832C13.8493,18.4854 13.8493,17.9235 14.1644,17.577C14.4795,17.2304 14.9904,17.2304 15.3056,17.577Z" fill="#ffffffff"/>
</svg>
