<?xml version="1.0" ?>
<svg xmlns="http://www.w3.org/2000/svg" width="34.0" height="34.0" viewBox="0 0 34.0 34.0">
  <path d="M34,17C34,26.3888 26.3888,34 17,34C7.6112,34 0,26.3888 0,17C0,7.6112 7.6112,0 17,0C26.3888,0 34,7.6112 34,17Z" fill="#0088cfff"/>
  <path d="M21.641,9C20.5547,9 19.4989,9.4397 18.7192,10.2446C18.7192,10.2446 9.7787,19.1989 9.7764,19.2011C9.2412,19.7626 9,20.5043 9,21.3057C9,23.0001 10.3403,24.438 12.0036,24.4381C12.7912,24.4381 13.5416,24.2105 14.1014,23.634C14.1014,23.634 22.8285,14.6751 22.8329,14.6704C23.0761,14.4033 23.3846,14.0176 23.3846,13.4748C23.3846,12.5372 22.6636,11.6849 21.641,11.6849C21.0613,11.6849 20.6891,12.0472 20.4764,12.2442C20.4741,12.2465 15.0208,17.621 15.0208,17.621C14.855,17.7821 14.8469,18.0835 15.0038,18.2538C15.1607,18.424 15.4544,18.4323 15.6202,18.2712L21.0689,12.9014C21.304,12.6827 21.3834,12.5798 21.641,12.5798C22.2306,12.5798 22.5128,12.9603 22.5128,13.4748C22.5128,13.6251 22.3772,13.8595 22.1927,14.0621L13.4884,22.9977C13.1187,23.3785 12.6378,23.5431 12.0036,23.5431C10.8328,23.5431 9.8718,22.5156 9.8718,21.3057C9.8718,20.6813 10.0327,20.2154 10.3962,19.8304L19.3321,10.8808C19.9469,10.2464 20.7876,9.895 21.641,9.895C23.6226,9.895 25.1282,11.5364 25.1282,13.4748C25.1282,14.4704 24.8076,15.1935 24.1679,15.8381L15.014,25.2352C14.8464,25.3987 14.8418,25.7056 15.0044,25.8743C15.1669,26.0431 15.4659,26.0417 15.627,25.8714L24.7808,16.4743C25.5614,15.6879 26,14.6815 26,13.4748C26,11.0568 24.0946,9 21.641,9Z" fill="#ffffffff" stroke-width="1.0" stroke="#ffffffff"/>
</svg>
