<?xml version="1.0" ?>
<svg xmlns="http://www.w3.org/2000/svg" width="25.0" height="32.0" viewBox="0 0 25.0 32.0">
  <path d="M24.7203,11.4591C24.205,8.1293 23.214,4.9184 21.7076,1.985C21.3509,1.2318 20.8752,0.5183 20.7166,0.3597C20.2806,-0.0763 19.3292,-0.1159 18.7743,0.2408C18.3778,0.4787 17.9814,1.1525 17.9814,1.5886C17.9814,1.7075 18.3382,2.54 18.8139,3.4517C20.9148,7.6932 21.7473,11.2212 21.7473,15.7799C21.7473,20.4971 20.7959,24.3818 18.6157,28.5837C18.0607,29.6144 17.9814,29.8919 18.0607,30.2486C18.1796,30.8432 18.695,31.4378 19.2103,31.5964C19.4481,31.6757 19.686,31.6757 19.7653,31.6757C19.8445,31.636 20.0031,31.636 20.122,31.636C20.5977,31.636 21.1527,30.8829 22.0248,29.0198C23.4915,25.9675 24.4032,22.8359 24.8789,19.3475C25.0771,17.4448 25.0374,13.5204 24.7203,11.4591Z" fill="#000000ff"/>
  <path d="M17.0299,8.486C16.475,6.8211 15.0875,3.9274 14.6515,3.531C14.0173,2.9363 12.7884,3.0553 12.2731,3.7292C11.7578,4.4823 11.7974,4.7598 12.6695,6.5833C14.0173,9.2788 14.5326,11.1419 14.8101,14.1149C15.1668,17.6826 14.4533,21.3295 12.7884,24.7386C12.392,25.5314 12.0352,26.3242 11.956,26.5224C11.7181,27.2359 12.3127,28.1873 13.0659,28.4251C14.2155,28.7819 15.0479,27.9098 16.1975,25.1746C18.5363,19.7835 18.7741,13.9564 17.0299,8.486Z" fill="#000000ff"/>
  <path d="M7.4369,6.3058C6.9216,6.3058 6.763,6.3851 6.3666,6.7418C5.6135,7.4554 5.6135,7.8121 6.5252,9.6356C8.5865,13.7978 8.5468,17.8808 6.4459,22.1223C5.8909,23.2719 5.772,23.6286 5.8116,23.9458C5.9306,24.4611 6.327,24.9764 6.8027,25.1746C7.0009,25.2539 7.3973,25.3332 7.5955,25.2935C8.3486,25.1746 8.7054,24.7782 9.4586,23.2719C10.7667,20.616 11.2424,18.6736 11.2424,15.8195C11.2424,13.0447 10.7667,10.8644 9.5379,8.3671C8.7847,6.7418 8.309,6.3058 7.4369,6.3058Z" fill="#000000ff"/>
  <path d="M1.3721,9.2788C0.4603,9.4374 -0.1739,10.4284 0.0639,11.2212C0.1036,11.4194 0.381,11.8951 0.6189,12.3311C1.3721,13.56 1.5306,14.1942 1.5306,15.7799C1.5306,17.3655 1.3721,17.9997 0.6189,19.2286C0.0243,20.1799 -0.0946,20.5763 0.0639,21.052C0.1828,21.4881 0.6189,22.0034 1.0153,22.162C1.8477,22.5187 2.6405,22.1223 3.3541,21.0124C5.3757,17.8808 5.3757,13.6789 3.3541,10.5473C2.6405,9.477 2.1252,9.1599 1.3721,9.2788Z" fill="#000000ff"/>
</svg>
