<?xml version="1.0" ?>
<svg xmlns="http://www.w3.org/2000/svg" width="104.0" height="104.0" viewBox="0 0 104.0 104.0">
  <path d="M102.6,79.57c0,12.66 -10.36,23.02 -23.02,23.02H24.43C11.76,102.6 1.4,92.24 1.4,79.57V24.43C1.4,11.76 11.76,1.4 24.43,1.4h55.15c12.66,0 23.02,10.36 23.02,23.02V79.57z" fill="#65b4e5ff"/>
  <path d="M58.18,27.29c-2.4,5.18 -7.66,7.85 -11.74,5.96c-4.08,-1.89 -5.44,-7.63 -3.04,-12.81c2.4,-5.19 7.66,-7.85 11.74,-5.96C59.22,16.37 60.58,22.11 58.18,27.29" fill="#ffffffff"/>
  <path d="M64.87,61.77c-8.71,-12.09 -19.34,-5.92 -26.51,3.78c-5.65,7.64 -10.45,14.3 -16.37,22.4c-1.38,1.88 -0.32,2.55 1.6,1.4s3.77,-2.84 5.57,-5.31c2.45,-3.35 8.56,-11.67 12.39,-16.95c3.43,-4.73 8.56,-4.25 12.1,0.64c4.1,5.66 9.15,12.76 13.63,18.9c3.1,4.25 12.5,3.6 16.59,3.31c0.74,-0.06 0.96,-0.59 0.61,-1.07C81.92,85.33 72.96,73 64.87,61.77z" fill="#ffffffff"/>
  <path d="M76.51,32.24c-12.23,6.16 -16.03,5.57 -26.32,7.11c-10.29,1.54 -18.01,3.89 -26.57,13.04c-2.14,2.28 -3.09,4.3 0.26,2.61c12.23,-6.16 16.03,-5.57 26.32,-7.11s18.01,-3.89 26.57,-13.04C78.91,32.56 79.86,30.55 76.51,32.24z" fill="#ffffffff"/>
</svg>
