<?xml version="1.0" ?>
<svg xmlns="http://www.w3.org/2000/svg" width="72.0" height="72.0" viewBox="0 0 72.0 72.0">
  <path d="M71.28,36.217C71.28,55.5778 55.4887,71.2802 36,71.2802C16.5113,71.2802 0.72,55.5778 0.72,36.217C0.72,16.8563 16.5113,1.1538 36,1.1538C55.4887,1.1538 71.28,16.8563 71.28,36.217Z" fill="#0088cfff" stroke-width="1.44" stroke="#ffffffff"/>
  <path d="M36,47C28,47 18,57.6667 14,63C15.3333,65.6667 21.4,71 35,71C48.6,71 56.6667,65 59,62C54.6667,57 44,47 36,47Z" fill="#ffffffff"/>
  <path d="M36.4367,46.8434C46.9971,46.8434 51.4044,55.9874 58.9094,62.241C66.0003,55.1927 71.7822,43.3497 71.7822,35.1326C71.7822,15.7277 55.9592,0 36.4367,0C16.9142,0 1.0912,15.7277 1.0912,35.1326C1.0912,43.3497 6.0003,55.7349 13.0912,63.3253C20.5963,57.0717 25.8763,46.8434 36.4367,46.8434Z" fill="#ffffffff"/>
  <path d="M26.1818,30.7953a9.8182,9.7591 0,1 0,19.6364 0a9.8182,9.7591 0,1 0,-19.6364 0z" fill="#ffffffff"/>
  <path d="M71.28,36.217C71.28,55.5778 55.4887,71.2802 36,71.2802C16.5113,71.2802 0.72,55.5778 0.72,36.217C0.72,16.8563 16.5113,1.1538 36,1.1538C55.4887,1.1538 71.28,16.8563 71.28,36.217Z" fill="#00000000" stroke-width="1.44" stroke="#ffffffff"/>
  <path d="M45.0982,30.7953C45.0982,35.7833 41.0289,39.8344 36,39.8344C30.9711,39.8344 26.9018,35.7833 26.9018,30.7953C26.9018,25.8073 30.9711,21.7563 36,21.7563C41.0289,21.7563 45.0982,25.8073 45.0982,30.7953Z" fill="#00000000" stroke-width="1.44" stroke="#0088cfff"/>
  <path d="M19.6364,56.8189C35.6727,35.2071 52.3636,56.2347 52.3636,56.2347" fill="#00000000" stroke-width="1.44" stroke="#0088cfff"/>
</svg>
