<?xml version="1.0" ?>
<svg xmlns="http://www.w3.org/2000/svg" width="24.0" height="24.0" viewBox="0 0 24.0 24.0">
  <path d="M12,2C10.0222,2 8.0888,2.5865 6.4443,3.6853C4.7998,4.7841 3.5181,6.3459 2.7612,8.1732C2.0043,10.0004 1.8063,12.0111 2.1922,13.9509C2.578,15.8907 3.5304,17.6725 4.9289,19.0711C6.3275,20.4696 8.1093,21.422 10.0491,21.8079C11.9889,22.1937 13.9996,21.9957 15.8268,21.2388C17.6541,20.4819 19.2159,19.2002 20.3147,17.5557C21.4135,15.9112 22,13.9778 22,12C22,9.3478 20.9464,6.8043 19.071,4.929C17.1957,3.0536 14.6522,2 12,2V2ZM13.0916,17.3917C13.0907,17.6806 12.9753,17.9573 12.7708,18.1613C12.5662,18.3652 12.2891,18.4797 12.0002,18.4797C11.7114,18.4797 11.4343,18.3652 11.2297,18.1613C11.0252,17.9573 10.9098,17.6806 10.9089,17.3917V11.9562C10.9098,11.6673 11.0252,11.3906 11.2297,11.1866C11.4343,10.9827 11.7114,10.8682 12.0002,10.8682C12.2891,10.8682 12.5662,10.9827 12.7708,11.1866C12.9753,11.3906 13.0907,11.6673 13.0916,11.9562V17.3917ZM12.0002,9.171C11.7374,9.1711 11.4803,9.0932 11.2617,8.9472C11.0431,8.8013 10.8726,8.5937 10.772,8.3509C10.6713,8.108 10.6449,7.8408 10.6961,7.5829C10.7474,7.325 10.8739,7.0882 11.0598,6.9022C11.2456,6.7163 11.4825,6.5897 11.7403,6.5384C11.9981,6.4871 12.2654,6.5133 12.5083,6.6139C12.7512,6.7145 12.9588,6.8849 13.1048,7.1034C13.2509,7.322 13.3289,7.579 13.3289,7.8419C13.3284,8.1942 13.1883,8.5319 12.9392,8.781C12.6902,9.0302 12.3525,9.1704 12.0002,9.171V9.171Z" fill="#7bbffdff"/>
</svg>
