<?xml version="1.0" ?>
<svg xmlns="http://www.w3.org/2000/svg" width="24.0" height="24.0" viewBox="0 0 24.0 24.0">
  <path d="M16.6464,15.2365C16.6929,15.2829 16.7297,15.338 16.7548,15.3987C16.78,15.4593 16.7929,15.5244 16.7929,15.59C16.7929,15.6557 16.78,15.7207 16.7548,15.7814C16.7297,15.842 16.6929,15.8971 16.6464,15.9436L15.9435,16.6465C15.8971,16.6929 15.842,16.7297 15.7813,16.7548C15.7207,16.78 15.6557,16.7929 15.59,16.7929C15.5243,16.7929 15.4593,16.78 15.3986,16.7548C15.338,16.7297 15.2829,16.6929 15.2364,16.6465L12.3536,13.7636C12.3071,13.7172 12.252,13.6803 12.1913,13.6552C12.1307,13.6301 12.0657,13.6171 12,13.6171C11.9343,13.6171 11.8693,13.6301 11.8087,13.6552C11.748,13.6803 11.6929,13.7172 11.6464,13.7636L8.7635,16.6465C8.7171,16.6929 8.662,16.7297 8.6013,16.7548C8.5407,16.78 8.4757,16.7929 8.41,16.7929C8.3443,16.7929 8.2793,16.78 8.2187,16.7548C8.158,16.7297 8.1029,16.6929 8.0564,16.6465L7.3535,15.9436C7.3071,15.8971 7.2703,15.842 7.2452,15.7814C7.22,15.7207 7.2071,15.6557 7.2071,15.59C7.2071,15.5244 7.22,15.4593 7.2452,15.3987C7.2703,15.338 7.3071,15.2829 7.3535,15.2365L10.2364,12.3536C10.2829,12.3072 10.3197,12.252 10.3448,12.1914C10.37,12.1307 10.3829,12.0657 10.3829,12C10.3829,11.9344 10.37,11.8693 10.3448,11.8087C10.3197,11.748 10.2829,11.6929 10.2364,11.6465L7.3535,8.7636C7.3071,8.7171 7.2703,8.662 7.2452,8.6014C7.22,8.5407 7.2071,8.4757 7.2071,8.41C7.2071,8.3444 7.22,8.2793 7.2452,8.2187C7.2703,8.158 7.3071,8.1029 7.3535,8.0565L8.0564,7.3536C8.1029,7.3071 8.158,7.2703 8.2187,7.2452C8.2793,7.2201 8.3443,7.2071 8.41,7.2071C8.4757,7.2071 8.5407,7.2201 8.6013,7.2452C8.662,7.2703 8.7171,7.3071 8.7635,7.3536L11.6464,10.2365C11.6929,10.2829 11.748,10.3197 11.8087,10.3448C11.8693,10.37 11.9343,10.3829 12,10.3829C12.0657,10.3829 12.1307,10.37 12.1913,10.3448C12.252,10.3197 12.3071,10.2829 12.3536,10.2365L15.2364,7.3536C15.2829,7.3071 15.338,7.2703 15.3986,7.2452C15.4593,7.2201 15.5243,7.2071 15.59,7.2071C15.6557,7.2071 15.7207,7.2201 15.7813,7.2452C15.842,7.2703 15.8971,7.3071 15.9435,7.3536L16.6464,8.0565C16.6929,8.1029 16.7297,8.158 16.7548,8.2187C16.78,8.2793 16.7929,8.3444 16.7929,8.41C16.7929,8.4757 16.78,8.5407 16.7548,8.6014C16.7297,8.662 16.6929,8.7171 16.6464,8.7636L13.7636,11.6465C13.7171,11.6929 13.6803,11.748 13.6552,11.8087C13.63,11.8693 13.6171,11.9344 13.6171,12C13.6171,12.0657 13.63,12.1307 13.6552,12.1914C13.6803,12.252 13.7171,12.3072 13.7636,12.3536L16.6464,15.2365ZM12,2C10.0222,2 8.0888,2.5865 6.4443,3.6853C4.7998,4.7841 3.5181,6.3459 2.7612,8.1732C2.0043,10.0004 1.8063,12.0111 2.1922,13.9509C2.578,15.8907 3.5304,17.6725 4.9289,19.0711C6.3275,20.4696 8.1093,21.422 10.0491,21.8079C11.9889,22.1937 13.9996,21.9957 15.8268,21.2388C17.6541,20.4819 19.2159,19.2002 20.3147,17.5557C21.4135,15.9112 22,13.9778 22,12C22.0012,10.6864 21.7434,9.3855 21.2413,8.1718C20.7391,6.958 20.0026,5.8551 19.0738,4.9262C18.1449,3.9974 17.0421,3.2609 15.8283,2.7588C14.6145,2.2566 13.3136,1.9988 12,2Z" fill="#ff5072ff"/>
</svg>
