<?xml version="1.0" ?>
<svg xmlns="http://www.w3.org/2000/svg" width="24.0" height="24.0" viewBox="0 0 24.0 24.0">
  <path d="M13.5,17C13.5,17.2967 13.412,17.5867 13.2472,17.8334C13.0824,18.08 12.8481,18.2723 12.574,18.3858C12.2999,18.4994 11.9983,18.5291 11.7074,18.4712C11.4164,18.4133 11.1491,18.2704 10.9393,18.0607C10.7296,17.8509 10.5867,17.5836 10.5288,17.2926C10.4709,17.0017 10.5006,16.7001 10.6142,16.426C10.7277,16.1519 10.92,15.9176 11.1666,15.7528C11.4133,15.588 11.7033,15.5 12,15.5C12.3978,15.5 12.7794,15.658 13.0607,15.9393C13.342,16.2206 13.5,16.6022 13.5,17ZM11,6C11,5.7348 11.1054,5.4804 11.2929,5.2929C11.4804,5.1054 11.7348,5 12,5C12.2652,5 12.5196,5.1054 12.7071,5.2929C12.8946,5.4804 13,5.7348 13,6V13C13,13.2652 12.8946,13.5196 12.7071,13.7071C12.5196,13.8946 12.2652,14 12,14C11.7348,14 11.4804,13.8946 11.2929,13.7071C11.1054,13.5196 11,13.2652 11,13V6ZM12,22C13.9778,22 15.9112,21.4135 17.5557,20.3147C19.2002,19.2159 20.4819,17.6541 21.2388,15.8268C21.9957,13.9996 22.1937,11.9889 21.8079,10.0491C21.422,8.1093 20.4696,6.3275 19.0711,4.9289C17.6725,3.5304 15.8907,2.578 13.9509,2.1922C12.0111,1.8063 10.0004,2.0043 8.1732,2.7612C6.3459,3.5181 4.7841,4.7998 3.6853,6.4443C2.5865,8.0888 2,10.0222 2,12C2,14.6522 3.0536,17.1957 4.9289,19.0711C5.8575,19.9997 6.9599,20.7363 8.1732,21.2388C9.3864,21.7413 10.6868,22 12,22Z" fill="#ed8744ff"/>
</svg>
