<?xml version="1.0" ?>
<svg xmlns="http://www.w3.org/2000/svg" width="45.0" height="45.0" viewBox="0 0 45.0 45.0">
  <g>
    <path d="M34.188,0H9.518C8.395,0 7.306,0.709 7.306,1.843V41.567C8.012,42.273 7.986,42.568 7.986,37.56V1.843C7.986,1.205 8.769,0.709 9.381,0.709H22.278V39.599H35.515L35.889,39.563V1.843C35.889,0.709 35.277,0 34.188,0Z" fill="#ffffffff"/>
    <path d="M13.258,19.939C13.974,20.229 14.88,19.815 15.31,19.027C15.74,18.239 15.501,17.41 14.785,17.12C14.069,16.83 13.163,17.244 12.733,18.032C12.304,18.82 12.542,19.649 13.258,19.939Z" fill="#ffffffff"/>
    <path d="M9.675,23.011C10.837,22.468 12.171,22.162 13.548,22.128C14.882,22.094 16.044,21.653 17.206,21.178C17.637,20.974 17.981,20.737 18.282,20.431C18.325,20.363 18.756,19.922 18.368,20.058C17.163,20.601 15.872,20.906 14.495,20.94C13.161,20.974 11.999,21.416 10.837,21.891C10.406,22.061 10.062,22.332 9.761,22.638C9.718,22.706 9.287,23.147 9.675,23.011Z" fill="#ffffffff"/>
    <path d="M20.532,27.18L20.532,28.045C19.243,28.045 18.17,28.045 17.955,28.045C17.611,28.045 17.225,27.966 16.967,27.77C16.022,27.219 14.518,23.642 12.929,24.664C12.499,24.978 12.07,25.332 11.769,25.765L10.867,26.983C10.566,27.337 10.223,27.652 9.836,27.927C9.535,28.084 9.406,28.006 9.621,27.73C10.48,26.59 11.297,25.293 12.413,24.31C13.101,23.681 14.304,22.62 15.377,23.209C16.279,23.72 16.709,24.546 17.31,25.293C17.267,25.332 18.384,27.18 20.532,27.18Z" fill="#ffffffff"/>
    <path d="M34.188,45H9.518C8.429,45 7.306,44.398 7.306,43.264V34.016C7.51,34.087 7.748,34.122 7.986,34.158V43.264C7.986,43.902 8.769,44.291 9.381,44.291H22.278V34.087L35.515,34.016H35.889V43.264C35.889,44.398 35.277,45 34.188,45Z" fill="#ffffffff"/>
  </g>
</svg>
