<?xml version="1.0" ?>
<svg xmlns="http://www.w3.org/2000/svg" width="47.0" height="46.0" viewBox="0 0 47.0 46.0">
  <path d="M35.8475,0H9.5955C8.4006,0 7.2419,0.7244 7.2419,1.8835V11.337C7.4592,11.2646 7.7126,11.2283 7.9661,11.2283V1.8835C7.9661,1.2315 8.7989,0.7244 9.4507,0.7244H23.1741V11.2646L37.2596,11.2283H37.6579V1.8835C37.6579,0.7244 37.0062,0 35.8475,0Z" fill="#64b5f6ff"/>
  <path d="M36.4992,33.4677H10.3559C4.6348,33.4677 0,28.8315 0,23.1087C0,17.3859 4.6348,12.7496 10.3559,12.7496H36.6441C42.3652,12.7496 47,17.3859 47,23.1087C46.8552,28.8315 42.2203,33.4315 36.4992,33.4677ZM10.3559,13.8C5.2504,13.7638 1.0863,17.8567 1.0501,23V23.1449C1.0139,28.252 5.1055,32.4174 10.2111,32.4536H36.6079C41.822,32.4536 46.0223,28.252 46.0586,23.0725C46.0586,23.0363 46.0586,23.0362 46.0586,23C46.0586,17.9292 41.9307,13.8 36.8613,13.8C36.7889,13.8 36.7165,13.8 36.6079,13.8H10.3559Z" fill="#64b5f6ff"/>
  <path d="M14.0493,41.1465C14.3028,40.6032 13.9407,39.915 13.2527,39.589C12.5647,39.263 11.8405,39.4441 11.5871,39.9874C11.3336,40.5307 11.6957,41.2189 12.3837,41.5449C13.0716,41.8709 13.7958,41.6898 14.0493,41.1465Z" fill="#64b5f6ff"/>
  <path d="M16.9823,44.2976C16.4029,43.3196 16.077,42.1968 16.0408,41.0378C16.0046,39.9149 15.5339,38.937 15.027,37.959C14.8097,37.5968 14.5562,37.307 14.2304,37.0535C14.1579,37.0173 13.6872,36.6551 13.832,36.9811C14.4114,37.9952 14.7373,39.0819 14.7735,40.2409C14.8097,41.3637 15.2804,42.3417 15.7874,43.3196C15.9684,43.6819 16.2581,43.9716 16.584,44.2252C16.6564,44.2614 17.1271,44.6236 16.9823,44.2976Z" fill="#64b5f6ff"/>
  <path d="M20.7119,35.1339H21.5085C21.5085,36.2205 21.5085,37.126 21.5085,37.3071C21.5085,37.5969 21.4361,37.9229 21.255,38.1402C20.7481,38.9371 17.453,40.2048 18.3945,41.5449C18.6841,41.9071 19.01,42.2693 19.4083,42.5229L20.5308,43.2835C20.8567,43.5371 21.1464,43.8268 21.3998,44.1528C21.5447,44.4064 21.4723,44.515 21.2188,44.3339C20.1687,43.6095 18.9738,42.9213 18.0686,41.9796C17.4892,41.4001 16.5116,40.3859 17.0547,39.4804C17.5254,38.7197 18.2858,38.3575 18.9738,37.8504C19.01,37.8867 20.7119,36.9449 20.7119,35.1339Z" fill="#64b5f6ff"/>
  <path d="M35.8475,46H9.5955C8.4368,46 7.2419,45.3842 7.2419,44.2252V34.7716C7.4592,34.844 7.7126,34.8803 7.9661,34.9165V44.2252C7.9661,44.8771 8.7989,45.2755 9.4507,45.2755H23.1741V34.844L37.2596,34.7716H37.6579V44.2252C37.6579,45.3842 37.0062,46 35.8475,46Z" fill="#64b5f6ff"/>
  <path d="M11.6029,17.2811H13.4553V25.1735C13.4553,26.2105 13.125,27.0315 12.4643,27.6365C11.8036,28.2415 10.9549,28.5439 9.9181,28.5439C8.8052,28.5439 7.9234,28.2669 7.2729,27.7128C6.6224,27.1586 6.3099,26.3478 6.3353,25.2802L6.3505,25.2345H8.1419C8.1419,25.8649 8.297,26.3275 8.607,26.6223C8.9221,26.9172 9.3591,27.0646 9.9181,27.0646C10.406,27.0646 10.8075,26.8943 11.1226,26.5537C11.4428,26.2131 11.6029,25.753 11.6029,25.1735V17.2811Z" fill="#64b5f6ff"/>
  <path d="M15.3779,24.1822C15.3779,22.957 15.7133,21.9504 16.3841,21.1625C17.0651,20.3745 17.9875,19.9805 19.1513,19.9805C20.3354,19.9805 21.2629,20.3745 21.9338,21.1625C22.6097,21.9454 22.9476,22.9519 22.9476,24.1822V24.3423C22.9476,25.5827 22.6097,26.5944 21.9338,27.3772C21.2629,28.155 20.3405,28.5439 19.1666,28.5439C17.9875,28.5439 17.06,28.1525 16.3841,27.3696C15.7133,26.5867 15.3779,25.5776 15.3779,24.3423V24.1822ZM17.2303,24.3423C17.2303,25.1455 17.3878,25.8013 17.7029,26.3097C18.0129,26.8129 18.5008,27.0646 19.1666,27.0646C19.812,27.0646 20.2948,26.8129 20.615,26.3097C20.9402,25.8013 21.1028,25.1455 21.1028,24.3423V24.1822C21.1028,23.3942 20.9402,22.746 20.615,22.2377C20.2948,21.7242 19.8069,21.4675 19.1513,21.4675C18.5059,21.4675 18.0231,21.7242 17.7029,22.2377C17.3878,22.7511 17.2303,23.3993 17.2303,24.1822V24.3423Z" fill="#64b5f6ff"/>
  <path d="M29.8481,27.179C29.5889,27.6162 29.2611,27.9542 28.8647,28.1932C28.4683,28.427 28.0109,28.5439 27.4926,28.5439C26.6083,28.5439 25.9171,28.2618 25.4191,27.6975C24.921,27.1332 24.672,26.2563 24.672,25.0667V20.133H26.5168V25.082C26.5168,25.8038 26.6337,26.3097 26.8675,26.5994C27.1012,26.8892 27.4545,27.0341 27.9271,27.0341C28.3743,27.0341 28.7479,26.9553 29.0477,26.7977C29.3526,26.635 29.5915,26.4012 29.7643,26.0962V20.133H31.6167V28.3838H30.0006L29.8481,27.179Z" fill="#64b5f6ff"/>
  <path d="M37.8082,21.803L37.0154,21.7725C36.6546,21.7725 36.3522,21.8488 36.1083,22.0013C35.8694,22.1538 35.6839,22.3698 35.5518,22.6494V28.3838H33.6993V20.133H35.3917L35.5137,21.3302C35.722,20.9083 35.9888,20.5779 36.3141,20.3389C36.6444,20.1 37.023,19.9805 37.4499,19.9805C37.5617,19.9805 37.6659,19.9907 37.7625,20.011C37.859,20.0263 37.948,20.0466 38.0293,20.072L37.8082,21.803Z" fill="#64b5f6ff"/>
</svg>
