<?xml version="1.0" ?>
<svg xmlns="http://www.w3.org/2000/svg" width="45.0" height="26.0" viewBox="0 0 45.0 26.0">
  <path d="M0,2V24H45V2H0ZM1.47,22.57V3.49H43.53V11.69H26.46V15H43.53V22.53L1.47,22.57Z" fill="#64b5f6ff"/>
  <path d="M5.62,14.8199L6.18,14.4799L7.09,14.8499L8.63,13.6299L6.18,12.1699C7.4578,11.8392 8.8083,11.9304 10.03,12.4299L12.29,10.9399H13.49C13.49,10.9399 13.91,11.1699 12.85,12.0599L6.85,15.8199L5.62,14.8199Z" fill="#64b5f6ff"/>
  <path d="M18.43,7C16.8424,6.994 15.3134,7.5991 14.16,8.69C13.4374,7.924 12.5354,7.35 11.5354,7.0199C10.5354,6.6898 9.4689,6.6139 8.4323,6.7993C7.3957,6.9846 6.4215,7.4252 5.5978,8.0813C4.7741,8.7374 4.1269,9.5884 3.7144,10.5574C3.302,11.5263 3.1375,12.5827 3.2356,13.6312C3.3338,14.6797 3.6915,15.6872 4.2766,16.5628C4.8617,17.4384 5.6557,18.1544 6.5868,18.6463C7.518,19.1381 8.557,19.3903 9.61,19.38C10.458,19.3807 11.2976,19.2131 12.0804,18.8869C12.8631,18.5608 13.5734,18.0826 14.17,17.48C14.8863,18.1967 15.7689,18.725 16.739,19.0177C17.7091,19.3104 18.7365,19.3585 19.7297,19.1576C20.7229,18.9568 21.651,18.5133 22.4311,17.8666C23.2112,17.22 23.8192,16.3903 24.2007,15.4516C24.5823,14.5129 24.7256,13.4943 24.6179,12.4868C24.5102,11.4792 24.1548,10.514 23.5834,9.6772C23.012,8.8403 22.2424,8.1579 21.3432,7.6908C20.444,7.2237 19.4432,6.9864 18.43,7ZM18.24,9C18.24,9 18.24,8.92 18.24,8.89L18.35,8.44L18.46,8.89C18.4747,8.9389 18.4747,8.9911 18.46,9.04C18.5415,10.3716 18.722,11.6952 19,13H17.8C18.0711,11.6833 18.2184,10.3442 18.24,9ZM9.61,18.53C8.5332,18.5162 7.4845,18.1843 6.5959,17.576C5.7073,16.9677 5.0183,16.1102 4.6158,15.1114C4.2133,14.1126 4.1151,13.017 4.3336,11.9626C4.5521,10.9081 5.0776,9.9418 5.8439,9.1852C6.6102,8.4285 7.5831,7.9154 8.6403,7.7104C9.6975,7.5053 10.7917,7.6174 11.7853,8.0327C12.7789,8.4479 13.6275,9.1477 14.2245,10.044C14.8214,10.9403 15.1399,11.9931 15.14,13.07C15.1294,14.527 14.5412,15.9202 13.5044,16.9439C12.4676,17.9675 11.067,18.538 9.61,18.53ZM19.9,16.68H19.71V16.53C19.6467,16.2477 19.4897,15.9952 19.2645,15.8136C19.0393,15.632 18.7593,15.5321 18.47,15.53C18.1781,15.5261 17.8938,15.6236 17.6658,15.806C17.4378,15.9884 17.2802,16.2443 17.22,16.53V16.72H16.43C16.7604,16.1742 17.0383,15.5983 17.26,15C17.4948,14.4221 17.6723,13.8226 17.79,13.21H19.07C19.2755,14.4699 19.7645,15.6667 20.5,16.71L19.9,16.68Z" fill="#64b5f6ff"/>
  <path d="M17.7889,14.8549L17.7513,14.9667V15.004H19.108L18.6935,13.6998H18.1658V13.7371L17.7889,14.8549Z" fill="#64b5f6ff"/>
</svg>
