<?xml version="1.0" ?>
<svg xmlns="http://www.w3.org/2000/svg" width="22.0" height="24.0" viewBox="0 0 22.0 24.0">
  <path d="M5.30814 11.9505C4.80287 14.9178 5.96122 16.3953 8.59483 16.4231C9.5285 16.4328 10.5837 16.1101 10.7099 16.0352L10.9523 14.7189C10.3647 14.9272 9.84064 15.0933 9.13984 15.0802C8.25474 15.0635 7.36504 14.8297 7.34182 13.2419C7.3085 10.9705 8.16432 9.07609 10.2309 9.03769C10.9382 9.02442 11.2734 9.14866 11.9129 9.40136L12.1681 8.01635C11.6399 7.79633 11.2262 7.59988 10.0018 7.57757C7.39201 7.53 5.73675 9.43292 5.30814 11.9505ZM1.41177 16.3129L3.43508 16.3117L5.00881 7.76866H2.95776L1.41177 16.3129ZM13.3667 7.76866L11.7348 16.3129L17.6824 16.3122L17.936 14.9354H14.001L14.3578 12.7792L17.2695 12.7796L17.5329 11.3494L14.6549 11.3475L15.0867 9.24529L18.7996 9.24508L19.0715 7.7688L13.3667 7.76866Z" fill="#000000ff"/>
</svg>
