<?xml version="1.0" ?>
<svg xmlns="http://www.w3.org/2000/svg" width="296.0" height="140.0" viewBox="0 0 296.0 140.0">
  <path d="M9.5,111.57C20.25,111.61 27.59,107.96 31.12,101.54C38.07,88.9 59.55,94.55 69.44,98.23L82.16,103.14C88.82,105.89 97.68,106.7 104.92,106.7L170.58,106.95C175.74,106.95 179.98,102.79 179.98,97.63V18.57C179.98,14.41 176.57,11 172.41,11H122.48C118.32,11 114.9,14.41 114.9,18.57V120.35C114.9,125.51 119.22,130 124.38,130H173.91C177.74,130 180.9,126.84 180.9,123.01V120.01V114.27C180.9,108.11 185.14,102.79 191.13,101.54C196.13,100.54 199.85,100.44 207.07,103.43C234.8,114.87 246.53,100.96 251.61,97.63C254.13,96 261.08,91.39 264.24,95.19C267.83,99.51 260.45,102.89 257.29,106.95C254.13,111.01 253.56,117.23 261.08,116.07C265.59,115.38 275.19,108.95 287,104.04" fill="#00000000" stroke-linecap="round" stroke-width="3.0" stroke="#ff5072ff"/>
  <path d="M152,112.1C152,114.79 149.74,117 147,117C144.26,117 142,114.79 142,112.1C142,109.42 144.26,107 147,107C149.81,107 152,109.42 152,112.1Z" fill="#00000000" stroke-linecap="round" stroke-width="3.0" stroke="#ff5072ff"/>
  <path d="M134.33,45.04C133.75,44.46 132.8,44.45 132.21,45.04C131.62,45.62 131.62,46.57 132.21,47.16L134.33,45.04ZM160.96,76.03C161.54,76.62 162.49,76.62 163.08,76.04C163.66,75.45 163.67,74.5 163.08,73.92L160.96,76.03ZM132.21,73.92C131.62,74.5 131.62,75.45 132.21,76.04C132.8,76.62 133.75,76.62 134.33,76.03L132.21,73.92ZM163.08,47.16C163.67,46.57 163.66,45.62 163.08,45.04C162.49,44.45 161.54,44.46 160.96,45.04L163.08,47.16ZM132.21,47.16L160.96,76.03L163.08,73.92L134.33,45.04L132.21,47.16ZM134.33,76.03L163.08,47.16L160.96,45.04L132.21,73.92L134.33,76.03Z" fill="#ff5072ff"/>
</svg>
