<?xml version="1.0" ?>
<svg xmlns="http://www.w3.org/2000/svg" width="296.0" height="140.0" viewBox="0 0 296.0 140.0">
  <path d="M9.5,73.81C18.32,77.69 23.54,74.71 28.83,66.59C34.12,58.57 39.5,58.5 47,62.5L55.14,67.04C60.08,69.12 63.16,69.03 68.09,69.21C69.94,69.3 71.53,67.95 71.88,66.14C73.38,56.31 81.93,50 92.25,50H115.43C115.96,50 116.4,50.45 116.4,50.99V55.77C116.4,56.31 116.84,56.76 117.37,56.76H133.33C135.88,56.76 138,58.93 138,61.54C138,64.16 135.88,66.32 133.33,66.32H118.17C117.19,66.32 116.31,67.13 116.31,68.22V73.99C116.31,74.98 117.11,75.88 118.17,75.88H133.33C135.88,75.88 138,78.05 138,80.66C138,83.28 135.88,85.44 133.33,85.44H116.4V92.93C116.4,94.1 115.52,95 114.37,95L92.25,94.82C81.93,94.82 73.47,87.06 71.97,76.96C71.79,75.97 71.71,74.89 71.71,73.81" fill="#00000000" stroke-linecap="round" stroke-width="3.0" stroke="#64b5f6ff"/>
  <path d="M286.5,80.59C281.98,80.59 280.21,80.59 271.22,80.59C259.99,80.59 250.94,87.07 249.42,88C247.77,89.02 243.47,92.33 240.83,89.69C238.85,87.71 239.73,85.53 240.17,84.63L245.45,75.53C245.89,74.41 246.77,72.5 245.45,70.48C244.26,68.65 241.27,68.57 240.17,68.79L226.4,71H211.82C211.82,82.63 202.62,92 191.22,92H169.12C167.97,92 167,91.01 167,89.84V52.16C167,50.99 167.97,50 169.12,50H191.22C200.57,50 208.5,56.38 211,65.1" fill="#00000000" stroke-linecap="round" stroke-width="3.0" stroke="#64b5f6ff"/>
</svg>
