<?xml version="1.0" ?>
<svg xmlns="http://www.w3.org/2000/svg" width="296.0" height="140.0" viewBox="0 0 296.0 140.0">
  <path d="M9.91,101.79C34.55,75.93 56.03,88.59 74.98,98.63C90.14,106.66 111.76,108.19 120.68,107.95H172.13C177.24,107.95 181.44,103.79 181.44,98.63V19.57C181.44,15.41 178.06,12 173.94,12H124.51C120.39,12 117.01,15.41 117.01,19.57V121.35C117.01,126.51 120.62,131 125.73,131H175.42C179.21,131 182.34,127.84 182.34,124.01V121.01V110.11C181.98,105.91 185.43,99.17 202.11,105.77C218.79,112.37 235.92,105.86 242.4,101.79C247.66,98.26 260.09,87.96 265.14,93.65C270.2,99.35 251.24,117.42 263.25,119.61C268.51,120.57 276.37,117.03 286.5,112" fill="#00000000" stroke-linecap="round" stroke-width="3.0" stroke="#64b5f6ff"/>
  <path d="M154,113.1C154,115.79 151.74,118 149,118C146.26,118 144,115.79 144,113.1C144,110.42 146.26,108 149,108C151.81,108 154,110.42 154,113.1Z" fill="#00000000" stroke-linecap="round" stroke-width="3.0" stroke="#64b5f6ff"/>
</svg>
