<?xml version="1.0" ?>
<svg xmlns="http://www.w3.org/2000/svg" width="111.0" height="34.0" viewBox="0 0 111.0 34.0">
  <path d="M2 12.2424H3.69346V21.7581H2V12.2424Z" fill="#000000ff"/>
  <path d="M5.781 12.2424H8.02551L12.6355 19.312H12.6624V12.2424H14.3558V21.7581H12.2054L7.50134 14.4601H7.47446V21.7581H5.781V12.2424Z" fill="#000000ff"/>
  <path d="M18.4269 13.7746H15.5103V12.2424H23.0368V13.7746H20.1203V21.7581H18.4269V13.7746Z" fill="#000000ff"/>
  <path d="M24.1956 12.2424H30.4991V13.7746H25.8891V16.1132H30.2572V17.6454H25.8891V20.2259H30.741V21.7581H24.1956V12.2424Z" fill="#000000ff"/>
  <path d="M32.412 12.2424H35.7183C36.1753 12.2424 36.6143 12.2872 37.0354 12.3768C37.4655 12.4575 37.8463 12.6008 38.1778 12.8069C38.5094 13.013 38.7737 13.2908 38.9708 13.6402C39.1679 13.9896 39.2665 14.4332 39.2665 14.9708C39.2665 15.6607 39.0739 16.2386 38.6886 16.7046C38.3122 17.1705 37.7702 17.4527 37.0623 17.5513L39.5891 21.7581H37.5462L35.342 17.726H34.1055V21.7581H32.412V12.2424ZM35.4226 16.2745C35.6645 16.2745 35.9064 16.2655 36.1484 16.2476C36.3903 16.2207 36.6098 16.167 36.8069 16.0863C37.013 15.9967 37.1788 15.8668 37.3042 15.6965C37.4297 15.5173 37.4924 15.2709 37.4924 14.9573C37.4924 14.6796 37.4342 14.4556 37.3177 14.2853C37.2012 14.1151 37.0489 13.9896 36.8607 13.909C36.6725 13.8194 36.462 13.7612 36.229 13.7343C36.005 13.7074 35.7855 13.694 35.5704 13.694H34.1055V16.2745H35.4226Z" fill="#000000ff"/>
  <path d="M40.8777 12.2424H43.1223L47.7322 19.312H47.7591V12.2424H49.4526V21.7581H47.3022L42.5981 14.4601H42.5712V21.7581H40.8777V12.2424Z" fill="#000000ff"/>
  <path d="M54.6526 12.2424H56.1176L60.2168 21.7581H58.2814L57.3944 19.5808H53.2682L52.4081 21.7581H50.513L54.6526 12.2424ZM56.803 18.1292L55.338 14.2584L53.8462 18.1292H56.803Z" fill="#000000ff"/>
  <path d="M61.9893 13.7746H59.0728V12.2424H66.5993V13.7746H63.6828V21.7581H61.9893V13.7746Z" fill="#000000ff"/>
  <path d="M67.7178 12.2424H69.4113V21.7581H67.7178V12.2424Z" fill="#000000ff"/>
  <path d="M70.9881 17.0406C70.9881 16.279 71.1135 15.589 71.3644 14.9708C71.6153 14.3436 71.9603 13.8104 72.3993 13.3714C72.8473 12.9324 73.376 12.5963 73.9852 12.3634C74.6035 12.1215 75.28 12.0005 76.0147 12.0005C76.7584 11.9915 77.4394 12.1035 78.0576 12.3365C78.6759 12.5605 79.209 12.892 79.657 13.3311C80.105 13.7701 80.4545 14.2988 80.7053 14.917C80.9562 15.5353 81.0817 16.2252 81.0817 16.9868C81.0817 17.7305 80.9562 18.407 80.7053 19.0163C80.4545 19.6256 80.105 20.1497 79.657 20.5888C79.209 21.0278 78.6759 21.3728 78.0576 21.6237C77.4394 21.8656 76.7584 21.991 76.0147 22C75.28 22 74.6035 21.8835 73.9852 21.6506C73.376 21.4086 72.8473 21.0726 72.3993 20.6425C71.9603 20.2035 71.6153 19.6793 71.3644 19.07C71.1135 18.4607 70.9881 17.7843 70.9881 17.0406ZM72.7622 16.933C72.7622 17.4438 72.8383 17.9142 72.9907 18.3443C73.1519 18.7744 73.376 19.1462 73.6627 19.4598C73.9494 19.7734 74.2899 20.0198 74.6841 20.199C75.0873 20.3782 75.5353 20.4678 76.0281 20.4678C76.521 20.4678 76.969 20.3782 77.3722 20.199C77.7754 20.0198 78.1203 19.7734 78.4071 19.4598C78.6938 19.1462 78.9133 18.7744 79.0656 18.3443C79.2269 17.9142 79.3076 17.4438 79.3076 16.933C79.3076 16.4582 79.2269 16.0146 79.0656 15.6025C78.9133 15.1903 78.6938 14.8319 78.4071 14.5273C78.1203 14.2136 77.7754 13.9717 77.3722 13.8015C76.969 13.6223 76.521 13.5327 76.0281 13.5327C75.5353 13.5327 75.0873 13.6223 74.6841 13.8015C74.2899 13.9717 73.9494 14.2136 73.6627 14.5273C73.376 14.8319 73.1519 15.1903 72.9907 15.6025C72.8383 16.0146 72.7622 16.4582 72.7622 16.933Z" fill="#000000ff"/>
  <path d="M82.6946 12.2424H84.9391L89.5491 19.312H89.576V12.2424H91.2694V21.7581H89.119L84.4149 14.4601H84.3881V21.7581H82.6946V12.2424Z" fill="#000000ff"/>
  <path d="M96.4694 12.2424H97.9344L102.034 21.7581H100.098L99.2112 19.5808H95.0851L94.2249 21.7581H92.3298L96.4694 12.2424ZM98.6199 18.1292L97.1549 14.2584L95.663 18.1292H98.6199Z" fill="#000000ff"/>
  <path d="M103.091 12.2424H104.785V20.2259H108.83V21.7581H103.091V12.2424Z" fill="#000000ff"/>
</svg>
