<?xml version="1.0" ?>
<svg xmlns="http://www.w3.org/2000/svg" width="51.0" height="24.0" viewBox="0 0 51.0 24.0">
  <path d="M1.41176 9.36332H2.59935V15.3582H1.41176V9.36332ZM8.22995 13.6453L5.3378 9.34906H3.82886V15.3438H5.01645V10.9048L7.95049 15.3153L7.96446 15.3438H9.41752V9.34906H8.22995V13.6453ZM10.0602 10.4053H11.9324V15.3438H13.12V10.4053H14.9922V9.36332H10.0742V10.4053H10.0602ZM16.8085 12.8032H19.6029V11.7613H16.8085V10.4195H19.7566V9.37758H15.621V15.3724H19.9103V14.3019H16.8085V12.8032ZM23.99 12.7319L25.6107 15.3438H24.1856L22.7744 12.846H22.0619V15.3438H20.8743V9.34906H23.0399C23.6547 9.3348 24.1856 9.44894 24.6327 9.70588C25.0938 9.96282 25.3313 10.4195 25.3592 11.0904C25.3592 11.5328 25.2335 11.904 24.9819 12.1895C24.7584 12.4749 24.4231 12.6605 23.99 12.7319ZM23.7664 10.4766C23.515 10.3768 23.2495 10.3339 22.9561 10.3482H22.0619V11.8469H22.8583C23.1796 11.8612 23.4731 11.8183 23.7385 11.7327C23.99 11.6471 24.1297 11.433 24.1436 11.0761C24.1158 10.7764 24.0039 10.5766 23.7664 10.4766ZM30.5846 13.7595C30.389 14.0022 30.1794 14.1734 29.9419 14.2876C29.7183 14.4018 29.4948 14.4589 29.2434 14.4589C28.6286 14.4446 28.1256 14.2448 27.7623 13.8452C27.3991 13.4598 27.2034 12.9317 27.2034 12.3179C27.2174 11.7327 27.3991 11.2474 27.7623 10.862C28.1256 10.4766 28.6286 10.2768 29.2434 10.2625C29.4529 10.2625 29.6485 10.2911 29.8581 10.3768C30.0677 10.4624 30.2773 10.6051 30.4868 10.8335L30.5147 10.862L31.4369 10.2054L31.395 10.1627C31.0876 9.82009 30.7523 9.57741 30.389 9.43468C30.0258 9.29195 29.6346 9.22059 29.2154 9.22059C28.2513 9.23485 27.4689 9.52031 26.8681 10.0913C26.2674 10.648 25.96 11.433 25.946 12.4036C25.96 13.3456 26.2674 14.102 26.8681 14.6587C27.4549 15.2154 28.2513 15.5009 29.2154 15.5152H29.2294C29.6764 15.5152 30.1095 15.4295 30.5007 15.2582C30.892 15.087 31.2413 14.8158 31.5207 14.4446L31.5486 14.4018L30.5706 13.731L30.5846 13.7595ZM32.1774 15.3438H33.365V9.34906H32.1774V15.3438ZM33.9798 10.4053H35.8519V15.3438H37.0395V10.4053H38.8978V9.36332H33.9798V10.4053ZM40.7141 12.8032H43.5084V11.7613H40.7141V10.4195H43.6621V9.37758H39.5265V15.3724H43.8158V14.3019H40.7141V12.8032ZM43.2709 7.76471H41.9576L41.0354 9.0636H41.9576L43.2709 7.76471ZM48.2308 12.4036C47.9375 12.1609 47.6021 11.9896 47.2249 11.8754C46.8476 11.7613 46.5263 11.6471 46.2329 11.5328C45.9674 11.4187 45.8277 11.2331 45.8137 10.9762C45.8277 10.7193 45.9116 10.548 46.1072 10.4338C46.2888 10.3196 46.5123 10.2625 46.7499 10.2625H46.7638C46.9734 10.2625 47.169 10.3054 47.3507 10.3768C47.5323 10.4481 47.672 10.5623 47.7977 10.7193L47.8256 10.7621L48.6919 9.87713L48.65 9.84861C48.4124 9.63452 48.1331 9.4632 47.8256 9.37758C47.5323 9.27769 47.2109 9.23485 46.8896 9.23485C46.8756 9.23485 46.8756 9.23485 46.8616 9.23485C46.2748 9.23485 45.7439 9.37758 45.2968 9.67736C44.8357 9.97708 44.5982 10.4481 44.5703 11.0619C44.5842 11.59 44.7379 11.9754 45.0453 12.218C45.3387 12.4607 45.674 12.6319 46.0513 12.7319C46.4285 12.8317 46.7498 12.9602 47.0432 13.0887C47.3087 13.2172 47.4484 13.4169 47.4624 13.7024C47.4484 13.9593 47.3507 14.1449 47.1411 14.2734C46.9315 14.4018 46.7079 14.4732 46.4425 14.4732C46.2049 14.4732 45.9814 14.4161 45.7858 14.3161C45.5762 14.2163 45.4086 14.0735 45.2828 13.8737L45.2549 13.8309L44.3607 14.673L44.3886 14.7158C44.6401 15.0013 44.9615 15.2154 45.3108 15.3438C45.6601 15.4723 46.0233 15.5294 46.4005 15.5294C46.4145 15.5294 46.4145 15.5294 46.4285 15.5294C47.0432 15.5294 47.5881 15.3724 48.0212 15.0584C48.4544 14.7444 48.6919 14.2448 48.7059 13.6025C48.6919 13.0458 48.5243 12.6462 48.2308 12.4036Z" fill="#000000ff"/>
</svg>
