<?xml version="1.0" ?>
<svg xmlns="http://www.w3.org/2000/svg" width="46.0" height="24.0" viewBox="0 0 46.0 24.0">
  <path d="M1.41177 5.90898H2.47639V10.8678H1.41177V5.90898ZM7.52281 9.44986L4.93255 5.90087H3.57453V10.8516H4.63915V7.1892L7.2797 10.8273H8.58742V5.90087H7.52281V9.44986ZM10.876 6.77596V10.8273H11.9406V6.77596H13.6171V5.90898H9.17422V6.77596H10.876ZM15.2518 8.75301H17.7666V7.89416H15.2518V6.78406H17.8924V5.92518H14.1453V10.876H17.9846V9.99275H15.2099L15.2518 8.75301ZM21.6898 8.69633L23.14 10.8516H21.8155L20.5581 8.79353H19.9126V10.8516H18.848V5.90087H20.7928C21.2865 5.87045 21.7794 5.97133 22.2179 6.19257C22.4267 6.30463 22.5987 6.47116 22.7143 6.67317C22.8299 6.87517 22.8845 7.10449 22.8717 7.33503C22.8842 7.66962 22.7648 7.9963 22.5376 8.24901C22.3104 8.50172 21.9923 8.6616 21.6479 8.69633H21.6898ZM21.5305 6.83268C21.2645 6.73065 20.9764 6.69445 20.6922 6.72735H19.8539V7.96708H20.5749C20.8412 7.9752 21.1072 7.94238 21.3628 7.86981C21.4758 7.82958 21.5723 7.75482 21.6373 7.65685C21.7024 7.55887 21.7326 7.44303 21.7233 7.32692C21.7312 7.2276 21.7094 7.12814 21.6603 7.04046C21.6112 6.9528 21.537 6.88066 21.4467 6.83268H21.5305ZM27.6332 9.54706C27.4786 9.7315 27.2841 9.88087 27.0632 9.98463C26.8667 10.0751 26.652 10.1221 26.4345 10.1224C25.9587 10.1224 25.5024 9.93967 25.1659 9.61454C24.8295 9.28934 24.6405 8.8483 24.6405 8.38842C24.6405 7.92854 24.8295 7.4875 25.1659 7.1623C25.5024 6.83711 25.9587 6.65442 26.4345 6.65442C26.6441 6.65218 26.8518 6.69289 27.044 6.7739C27.2362 6.85491 27.4084 6.97436 27.5493 7.1244L28.3876 6.5815H28.3457C28.0843 6.30917 27.7596 6.10087 27.3985 5.9738C27.0614 5.84994 26.7028 5.78943 26.3422 5.79553C25.5713 5.76711 24.8183 6.02516 24.2382 6.51668C23.9621 6.7549 23.7438 7.04907 23.5989 7.37823C23.454 7.70739 23.386 8.06336 23.3999 8.42082C23.3922 8.7715 23.4632 9.11965 23.6079 9.44139C23.7526 9.76306 23.9676 10.0506 24.2382 10.2844C24.8242 10.7653 25.5738 11.0193 26.3422 10.9975C26.7326 10.9972 27.1194 10.9257 27.4823 10.7868C27.8365 10.6338 28.1492 10.4036 28.396 10.1143L27.5577 9.56329L27.6332 9.54706ZM29.0666 10.8516H30.1312V5.90087H28.9828L29.0666 10.8516ZM30.6762 6.80027H32.3527V10.8516H33.4089V6.80027H35.0855V5.90898H30.5923L30.6762 6.80027ZM36.6196 8.75301H39.1344V7.89416H36.6196V6.78406H39.2601V5.92518H35.5634V10.876H39.411V9.99275H36.6196V8.75301ZM38.9164 4.58823H37.7428L36.9213 5.63348H37.7596L38.9164 4.58823ZM43.3258 8.42082C43.076 8.22917 42.7918 8.08355 42.4875 7.99136C42.1522 7.89416 41.8672 7.79689 41.5989 7.70774C41.4922 7.68042 41.3966 7.6224 41.3247 7.54143C41.2528 7.4604 41.2082 7.36016 41.1966 7.254C41.1954 7.16322 41.2198 7.07386 41.267 6.9954C41.3142 6.91693 41.3826 6.8523 41.4648 6.80838C41.6383 6.71228 41.8349 6.66198 42.0348 6.66253C42.2157 6.66185 42.395 6.69487 42.563 6.75976C42.7206 6.81414 42.8579 6.91291 42.957 7.04335L43.7365 6.31411C43.5201 6.13346 43.2655 6.00071 42.9905 5.92518C42.7189 5.84415 42.4364 5.80317 42.1522 5.80364C41.6595 5.79654 41.1746 5.92285 40.7523 6.16826C40.5513 6.29065 40.3857 6.46049 40.2713 6.66178C40.157 6.86307 40.0974 7.08917 40.0984 7.31887C40.0882 7.49816 40.1215 7.67725 40.1958 7.84193C40.27 8.00654 40.3831 8.15202 40.5259 8.26687C40.7946 8.46762 41.1026 8.61374 41.4313 8.69633C41.7354 8.7691 42.0327 8.86666 42.3198 8.988C42.4271 9.02866 42.5198 9.09854 42.5868 9.18917C42.6537 9.27981 42.6921 9.38725 42.6971 9.49849C42.695 9.59477 42.6667 9.6888 42.6153 9.77125C42.5637 9.85376 42.4908 9.92174 42.4037 9.9684C42.2178 10.0808 42.0026 10.1399 41.7834 10.1386C41.5772 10.1411 41.3733 10.0966 41.1882 10.0089C41.0063 9.92823 40.8521 9.79892 40.7439 9.63621L39.9056 10.3331C40.1385 10.5678 40.4259 10.7455 40.7439 10.8516C41.0568 10.9551 41.3855 11.0072 41.7163 11.0056C42.2214 11.0207 42.719 10.8849 43.1414 10.6166C43.3396 10.4822 43.5002 10.3022 43.6084 10.0928C43.7167 9.88355 43.7694 9.65139 43.7617 9.41746C43.7746 9.23365 43.746 9.04934 43.678 8.87725C43.61 8.70522 43.5041 8.54943 43.3677 8.42082H43.3258Z" fill="#000000ff"/>
  <path d="M1.41177 13.4364H1.99857V18.0387H1.41177V13.4364Z" fill="#000000ff"/>
  <path d="M3.63319 14.0198C3.64183 14.0667 3.64066 14.1148 3.62973 14.1613C3.61881 14.2077 3.59835 14.2516 3.56958 14.2903C3.54081 14.329 3.5043 14.3617 3.46221 14.3866C3.42014 14.4114 3.37333 14.4278 3.32457 14.4349C3.27581 14.4419 3.22608 14.4395 3.17833 14.4276C3.13058 14.4157 3.08577 14.3948 3.04655 14.3658C3.00734 14.337 2.9745 14.3008 2.95 14.2595C2.9255 14.2181 2.90982 14.1724 2.90389 14.1251C2.89564 14.0905 2.89564 14.0545 2.90389 14.0198C2.90278 13.974 2.911 13.9285 2.92809 13.8858C2.94519 13.8431 2.97081 13.8041 3.00351 13.771C3.03621 13.7379 3.07533 13.7113 3.11865 13.6928C3.16197 13.6744 3.20863 13.6643 3.25597 13.6633C3.30221 13.6622 3.34821 13.6699 3.39136 13.6861C3.4345 13.7022 3.47394 13.7263 3.50741 13.7572C3.54088 13.788 3.56774 13.8249 3.58645 13.8659C3.60515 13.9067 3.61534 13.9508 3.61643 13.9955L3.63319 14.0198ZM2.97933 18.0712V14.9029H3.56613V18.0387L2.97933 18.0712Z" fill="#000000ff"/>
  <path d="M7.33844 14.9029V17.5849C7.37189 17.842 7.34811 18.1029 7.26855 18.3503C7.189 18.5977 7.05564 18.8257 6.87737 19.0192C6.5435 19.2971 6.10985 19.4368 5.67024 19.4081C5.29227 19.4167 4.91882 19.3272 4.58886 19.1488L4.76489 18.7031C5.05447 18.867 5.38499 18.9511 5.72054 18.9462C6.3241 18.9462 6.76001 18.6383 6.76001 17.8523V17.5039C6.6518 17.6721 6.49931 17.8095 6.31815 17.902C6.13698 17.9946 5.93364 18.039 5.72892 18.0306C5.53767 18.0223 5.35 17.9775 5.17676 17.8988C5.00351 17.82 4.84812 17.7089 4.71953 17.5717C4.59094 17.4347 4.49171 17.2744 4.42756 17.1C4.36341 16.9256 4.3356 16.7407 4.34576 16.5559V16.4992C4.30101 16.1029 4.42056 15.7055 4.67823 15.3942C4.93589 15.0829 5.31068 14.883 5.72054 14.8381H5.77083C5.97293 14.8258 6.17463 14.8676 6.35364 14.9592C6.53265 15.0507 6.68199 15.1883 6.78515 15.3568V14.8787L7.33844 14.9029ZM6.73486 16.167C6.75164 16.0813 6.75164 15.9934 6.73486 15.9077C6.68573 15.7309 6.57614 15.5754 6.42391 15.4666C6.2717 15.3577 6.08583 15.3018 5.89658 15.3081C5.33493 15.3081 4.93256 15.7619 4.93256 16.4911C4.93256 17.2204 5.2511 17.6174 5.88819 17.6174C6.07525 17.6245 6.25942 17.571 6.41134 17.4653C6.56326 17.3596 6.67421 17.2077 6.72647 17.034C6.76012 16.9346 6.7771 16.8306 6.77677 16.7261L6.73486 16.167Z" fill="#000000ff"/>
  <path d="M8.25211 14.9435H8.77185V15.4621C8.879 15.2792 9.03528 15.1277 9.22418 15.0236C9.413 14.9195 9.62745 14.8666 9.84486 14.8705C10.2891 14.8705 10.9933 15.1299 10.9933 16.2075V18.0792H10.3981V16.2318C10.3981 15.7295 10.2053 15.3081 9.65208 15.3081C9.47208 15.3099 9.29752 15.3675 9.15408 15.4726C9.01072 15.5776 8.90603 15.7245 8.85571 15.8915C8.83891 15.9772 8.83891 16.0651 8.85571 16.1508V18.0387H8.25211V14.9435Z" fill="#000000ff"/>
  <path d="M12.3094 16.5721C12.2862 16.8397 12.3738 17.1052 12.553 17.3102C12.7322 17.5153 12.9883 17.6433 13.2651 17.666H13.4243C13.7317 17.6735 14.0374 17.6183 14.3213 17.5039L14.4219 17.9091C14.0823 18.0459 13.7167 18.1122 13.3489 18.1036C12.9499 18.128 12.5571 17.9983 12.2569 17.7431C11.9567 17.4879 11.7736 17.128 11.7478 16.7423C11.7394 16.6696 11.7394 16.5962 11.7478 16.5235C11.7245 16.3239 11.7423 16.1218 11.8002 15.9289C11.858 15.7359 11.9548 15.556 12.0849 15.3992C12.215 15.2426 12.3759 15.1124 12.5583 15.0161C12.7407 14.9198 12.941 14.8593 13.1477 14.8381H13.2818C13.6413 14.8446 13.9837 14.9876 14.2347 15.2363C14.4858 15.4851 14.6253 15.8195 14.6231 16.167C14.6272 16.2101 14.6272 16.2535 14.6231 16.2966C14.6315 16.3829 14.6315 16.4697 14.6231 16.5559L12.3094 16.5721ZM14.0447 16.167C14.0757 15.9543 14.0181 15.7383 13.8845 15.5666C13.7509 15.3949 13.5522 15.2815 13.3321 15.2514H13.2063C12.9661 15.2694 12.7412 15.3731 12.5755 15.5423C12.4098 15.7114 12.3149 15.9341 12.3094 16.167H14.0447Z" fill="#000000ff"/>
  <path d="M15.2518 17.4553C15.4854 17.5982 15.755 17.6766 16.0314 17.6822C16.4589 17.6822 16.6601 17.4796 16.6601 17.2204C16.6601 16.9611 16.4924 16.799 16.0565 16.6369C15.4781 16.4425 15.2182 16.1264 15.2182 15.7537C15.2236 15.626 15.255 15.5006 15.3106 15.3846C15.3662 15.2687 15.4449 15.1644 15.5422 15.0779C15.6396 14.9912 15.7536 14.9241 15.8778 14.8802C16.002 14.8363 16.1339 14.8165 16.2661 14.822H16.3415C16.6337 14.8151 16.9227 14.882 17.1798 15.0164L17.0289 15.4377C16.8308 15.3164 16.6012 15.2518 16.3666 15.2514C16.0146 15.2514 15.8218 15.4458 15.8218 15.6808C15.8218 15.9158 16.0146 16.0535 16.4421 16.2075C17.0038 16.4182 17.2804 16.6937 17.2804 17.1556C17.2669 17.2946 17.2247 17.4296 17.1563 17.5526C17.0879 17.6756 16.9947 17.7842 16.8822 17.8718C16.7696 17.9594 16.64 18.0244 16.5011 18.0628C16.3622 18.1012 16.2167 18.1123 16.0733 18.0954C15.7549 18.1038 15.4398 18.0311 15.1595 17.8848L15.2518 17.4553Z" fill="#000000ff"/>
  <path d="M22.2179 13.4364V18.0387H21.6898V17.4959C21.5826 17.6876 21.4223 17.8468 21.2269 17.9555C21.0315 18.0642 20.8086 18.1183 20.5833 18.1117C20.3886 18.1024 20.1979 18.0558 20.022 17.9749C19.8461 17.894 19.6885 17.7802 19.5584 17.6401C19.4282 17.5 19.3281 17.3363 19.2637 17.1585C19.1993 16.9808 19.172 16.7925 19.1833 16.6045C19.1792 16.5668 19.1792 16.5288 19.1833 16.4911C19.1361 16.0926 19.2543 15.6922 19.512 15.3778C19.7697 15.0634 20.1459 14.8606 20.5581 14.8139H20.6922C20.8859 14.8016 21.0794 14.8403 21.2521 14.9259C21.4249 15.0115 21.5703 15.1408 21.673 15.3V13.4364H22.2179ZM21.6227 16.167C21.6311 16.0861 21.6311 16.0048 21.6227 15.9239C21.5853 15.7367 21.4806 15.5682 21.3273 15.4481C21.1739 15.328 20.9817 15.2641 20.7844 15.2676C20.1809 15.2676 19.8204 15.7781 19.8204 16.4749C19.8204 17.1717 20.139 17.6336 20.776 17.6336C20.9743 17.6269 21.1646 17.5562 21.3165 17.4329C21.4684 17.3095 21.5733 17.1406 21.6143 16.953C21.6227 16.8721 21.6227 16.7907 21.6143 16.7099L21.6227 16.167Z" fill="#000000ff"/>
  <path d="M23.5256 16.5721C23.5117 16.7025 23.5245 16.8342 23.5633 16.9598C23.6022 17.0854 23.6663 17.2024 23.7519 17.3039C23.8376 17.4056 23.9431 17.4899 24.0625 17.552C24.1819 17.6141 24.3128 17.6528 24.4477 17.666H24.6321C24.9423 17.6735 25.2506 17.6183 25.5375 17.5039L25.6381 17.9091C25.2955 18.0459 24.9272 18.1121 24.5567 18.1036C24.36 18.1168 24.1625 18.0921 23.9757 18.0311C23.7889 17.9701 23.6165 17.8739 23.4684 17.748C23.3202 17.6222 23.1995 17.4692 23.1128 17.298C23.0263 17.1268 22.9757 16.9406 22.964 16.7504C22.9556 16.675 22.9556 16.5989 22.964 16.5235C22.9394 16.3256 22.9555 16.1248 23.0113 15.9329C23.0672 15.741 23.1617 15.5616 23.2894 15.405C23.4172 15.2484 23.5756 15.1177 23.7556 15.0205C23.9357 14.9232 24.1338 14.8612 24.3388 14.8381H24.4813C24.8422 14.8424 25.1867 14.9845 25.4396 15.2336C25.6924 15.4825 25.8331 15.8181 25.8308 16.167C25.835 16.2101 25.835 16.2535 25.8308 16.2966V16.5559L23.5256 16.5721ZM25.2524 16.167C25.2836 15.9543 25.226 15.7383 25.0924 15.5666C24.9587 15.3949 24.76 15.2815 24.5399 15.2514H24.4142C24.1767 15.2747 23.956 15.3802 23.7926 15.5485C23.6293 15.7168 23.5345 15.9364 23.5256 16.167H25.2524Z" fill="#000000ff"/>
  <path d="M27.9769 15.7537V14.9435H28.4966V15.4621C28.6038 15.2792 28.76 15.1277 28.9489 15.0236C29.1378 14.9195 29.3522 14.8666 29.5696 14.8705C30.0139 14.8705 30.7097 15.1299 30.7097 16.2075V18.0792H30.1229V16.2318C30.1229 15.7295 29.93 15.3081 29.3684 15.3081C29.1899 15.3116 29.0172 15.37 28.8755 15.475C28.7338 15.5799 28.6304 15.7259 28.5804 15.8915C28.5637 15.9772 28.5637 16.0651 28.5804 16.1508V18.0387H27.9936L27.9769 15.7537Z" fill="#000000ff"/>
  <path d="M34.4149 17.188V17.9982H33.8951V17.4877C33.7862 17.6685 33.6293 17.8179 33.4407 17.9204C33.2521 18.023 33.0385 18.075 32.8221 18.0712C32.3108 18.0712 31.6989 17.7956 31.6989 16.6937V14.9029H32.2941V16.6369C32.2941 17.2365 32.4784 17.6417 33.015 17.6417C33.1838 17.6412 33.3486 17.5914 33.4877 17.4989C33.6268 17.4064 33.7338 17.2754 33.7945 17.1231C33.8276 17.0291 33.8445 16.9307 33.8448 16.8314V14.9029H34.44L34.4149 17.188Z" fill="#000000ff"/>
  <path d="M36.0495 14.0198C36.061 14.1119 36.0349 14.2048 35.9768 14.2787C35.9185 14.3525 35.8328 14.4015 35.7378 14.4153C35.6429 14.4289 35.546 14.4064 35.4681 14.3521C35.3901 14.2979 35.337 14.2165 35.3202 14.1251C35.312 14.0905 35.312 14.0545 35.3202 14.0198C35.3191 13.974 35.3273 13.9285 35.3444 13.8858C35.3615 13.8431 35.3871 13.8041 35.4198 13.771C35.4525 13.7379 35.4916 13.7113 35.535 13.6928C35.5783 13.6744 35.625 13.6643 35.6722 13.6633C35.7185 13.6622 35.7645 13.6699 35.8076 13.6861C35.8508 13.7022 35.8902 13.7263 35.9237 13.7572C35.9572 13.788 35.984 13.8249 36.0027 13.8659C36.0214 13.9067 36.0316 13.9508 36.0327 13.9955L36.0495 14.0198ZM35.3956 18.0712V14.9029H35.9824V18.0387L35.3956 18.0712Z" fill="#000000ff"/>
  <path d="M37.6758 14.0036V14.9029H38.5141V15.3568H37.6758V17.0421C37.6758 17.431 37.7848 17.6579 38.1117 17.6579C38.2275 17.6569 38.3428 17.6433 38.4554 17.6174V18.0468C38.2886 18.1032 38.1122 18.128 37.9357 18.1197C37.8184 18.1259 37.701 18.1082 37.5913 18.0677C37.4815 18.0272 37.3818 17.9649 37.2986 17.8848C37.121 17.6515 37.0403 17.3624 37.0723 17.0745V15.3568H36.6196V14.9192H37.1225V14.1656L37.6758 14.0036Z" fill="#000000ff"/>
</svg>
