<?xml version="1.0" ?>
<svg xmlns="http://www.w3.org/2000/svg" width="52.0" height="16.0" viewBox="0 0 52.0 16.0">
  <path d="M26.47,0.002H8.351C3.932,0.002 0.352,3.582 0.352,8.001C0.352,12.419 3.932,16 8.351,16H26.47C30.888,16 34.469,12.419 34.469,8.001C34.471,3.582 30.888,0.002 26.47,0.002ZM26.145,13.819C22.931,13.819 20.324,11.215 20.324,7.999C20.324,4.785 22.929,2.178 26.145,2.178C29.359,2.178 31.966,4.783 31.966,7.999C31.966,11.215 29.359,13.819 26.145,13.819Z" fill="#8de8feff"/>
  <path d="M26.145,13.82C22.931,13.82 20.325,11.215 20.325,7.999C20.325,4.786 22.93,2.179 26.145,2.179C29.359,2.179 31.966,4.784 31.966,7.999C31.966,11.215 29.359,13.82 26.145,13.82Z" fill="#0c131fff"/>
  <path d="M44.001,0C39.583,0 36.002,3.581 36.002,7.999C36.002,12.417 39.583,15.998 44.001,15.998C48.419,15.998 52,12.417 52,7.999C52,3.581 48.419,0 44.001,0Z" fill="#ffffffff"/>
</svg>
