<?xml version="1.0" ?>
<svg xmlns="http://www.w3.org/2000/svg" width="32.0" height="32.0" viewBox="0 0 32.0 32.0">
  <g>
    <path d="M4,0L28,0A4,4 0,0 1,32 4L32,28A4,4 0,0 1,28 32L4,32A4,4 0,0 1,0 28L0,4A4,4 0,0 1,4 0z" fill="#ffffffff"/>
    <path d="M12.929,7.298H0V24.702H12.929C15.237,24.702 17.45,23.785 19.082,22.153C20.714,20.521 21.631,18.308 21.631,16C21.631,13.692 20.714,11.479 19.082,9.847C17.45,8.215 15.237,7.298 12.929,7.298ZM12.575,22.331C11.323,22.331 10.099,21.96 9.058,21.264C8.016,20.569 7.205,19.58 6.726,18.423C6.246,17.266 6.121,15.993 6.365,14.765C6.61,13.537 7.213,12.409 8.098,11.523C8.984,10.638 10.112,10.035 11.34,9.791C12.568,9.546 13.841,9.672 14.998,10.151C16.155,10.63 17.144,11.442 17.839,12.483C18.535,13.524 18.906,14.748 18.906,16C18.906,16.832 18.743,17.655 18.424,18.423C18.106,19.191 17.64,19.889 17.052,20.477C16.464,21.065 15.766,21.531 14.998,21.85C14.23,22.168 13.406,22.331 12.575,22.331Z" fill="#0088ceff"/>
    <path d="M32,7.298C29.692,7.298 27.479,8.215 25.847,9.847C24.215,11.479 23.298,13.692 23.298,16C23.298,18.308 24.215,20.521 25.847,22.153C27.479,23.785 29.692,24.702 32,24.702V7.298Z" fill="#0c131fff"/>
  </g>
</svg>
