<?xml version="1.0" ?>
<svg xmlns="http://www.w3.org/2000/svg" width="94.0" height="34.0" viewBox="0 0 94.0 34.0">
  <path d="M8.13895 20.8402C7.94578 20.8402 7.80627 20.7006 7.80627 20.5075C7.80627 20.325 7.94578 20.1748 8.13895 20.1748H8.56822V15.27L6.31434 19.0372C6.22849 19.1768 6.12118 19.2411 5.9924 19.2411C5.88508 19.2411 5.7563 19.1768 5.67045 19.0372L3.42731 15.27V20.1748H3.85658C4.04974 20.1748 4.18926 20.325 4.18926 20.5075C4.18926 20.7006 4.04974 20.8402 3.85658 20.8402H2.33268C2.13951 20.8402 2 20.7006 2 20.5075C2 20.325 2.13951 20.1748 2.33268 20.1748H2.71902V14.2827H2.33268C2.13951 14.2827 2 14.1432 2 13.95C2 13.7676 2.13951 13.6173 2.33268 13.6173H3.13755C3.2556 13.6173 3.36292 13.6817 3.41658 13.7783L5.9924 18.1894L8.56822 13.7783C8.62187 13.6817 8.71846 13.6173 8.85797 13.6173H9.66284C9.85601 13.6173 9.99553 13.7676 9.99553 13.95C9.99553 14.1432 9.85601 14.2827 9.66284 14.2827H9.2765V20.1748H9.66284C9.85601 20.1748 9.99553 20.325 9.99553 20.5075C9.99553 20.7006 9.85601 20.8402 9.66284 20.8402H8.13895Z" fill="#000000ff"/>
  <path d="M15.1037 20.841C14.9427 20.841 14.8569 20.6908 14.8569 20.562V20.2079C14.5886 20.7122 13.9123 20.9805 13.2686 20.9805C12.1308 20.9805 11.4118 20.4332 11.4118 19.4457C11.4118 18.5013 12.1308 17.9323 13.2898 17.9323H14.8032V17.6426C14.8032 16.9128 14.3203 16.4618 13.5367 16.4618C12.9679 16.4618 12.6245 16.6338 12.2918 17.0092C12.1845 17.1272 12.1094 17.1594 12.0128 17.1594C11.8411 17.1594 11.7016 17.0199 11.7016 16.8482C11.7016 16.7731 11.723 16.7194 11.7552 16.6657C12.0557 16.1936 12.6352 15.8179 13.5367 15.8179C14.7818 15.8179 15.4686 16.5477 15.4686 17.6426V20.1969H15.9193C16.1018 20.1969 16.2413 20.3364 16.2413 20.5189C16.2413 20.7013 16.1018 20.8408 15.9193 20.8408L15.1037 20.841ZM13.3328 20.3581C14.084 20.3581 14.803 19.8966 14.803 18.9842V18.5335H13.2896C12.5921 18.5335 12.1091 18.8233 12.1091 19.4457C12.1094 20.004 12.4957 20.3581 13.3328 20.3581Z" fill="#000000ff"/>
  <path d="M25.148 20.5401C25.148 20.7118 25.0192 20.8406 24.8475 20.8406H20.7478C20.5546 20.8406 20.4151 20.701 20.4151 20.5079C20.4151 20.3254 20.5546 20.1752 20.7478 20.1752H21.1341V14.2831H20.7478C20.5546 14.2831 20.4151 14.1436 20.4151 13.9504C20.4151 13.768 20.5546 13.6177 20.7478 13.6177H22.3361C22.5293 13.6177 22.6688 13.768 22.6688 13.9504C22.6688 14.1436 22.5293 14.2831 22.3361 14.2831H21.8639V20.1537H24.4826V19.4776C24.4826 19.2845 24.6329 19.145 24.8153 19.145C25.0085 19.145 25.148 19.2845 25.148 19.4776V20.5401Z" fill="#000000ff"/>
  <path d="M28.6788 20.9803C27.2944 20.9803 26.425 20.154 26.425 18.3938C26.425 16.6336 27.2944 15.8179 28.6788 15.8179C30.0742 15.8179 30.9327 16.6336 30.9327 18.3938C30.9327 20.154 30.0742 20.9803 28.6788 20.9803ZM30.2351 18.3938C30.2351 17.0414 29.6664 16.4404 28.6791 16.4404C27.6917 16.4404 27.123 17.0414 27.123 18.3938C27.123 19.7676 27.6917 20.3579 28.6791 20.3579C29.6664 20.3579 30.2351 19.7676 30.2351 18.3938Z" fill="#000000ff"/>
  <path d="M34.5599 15.8179C35.515 15.8179 36.0411 16.3223 36.2126 16.5584C36.2662 16.6336 36.2877 16.6872 36.2877 16.7623C36.2877 16.9448 36.1482 17.0736 35.9765 17.0736C35.8692 17.0736 35.794 17.0306 35.7189 16.9448C35.5579 16.7623 35.268 16.4404 34.5599 16.4404C33.5724 16.4404 33.0465 17.0736 33.0465 18.3938C33.0465 19.7352 33.5724 20.3579 34.5599 20.3579C35.1823 20.3579 35.5579 20.0789 35.8048 19.8964C35.8799 19.8428 35.9338 19.8213 36.0087 19.8213C36.1806 19.8213 36.3199 19.9608 36.3199 20.1325C36.3199 20.2291 36.2877 20.3042 36.1806 20.4008C35.9443 20.594 35.4294 20.9803 34.5599 20.9803C33.1753 20.9803 32.349 20.154 32.349 18.3938C32.349 16.6336 33.1753 15.8179 34.5599 15.8179Z" fill="#000000ff"/>
  <path d="M41.1813 20.841C41.0201 20.841 40.9345 20.6908 40.9345 20.562V20.2079C40.6662 20.7122 39.9899 20.9805 39.3462 20.9805C38.2084 20.9805 37.4894 20.4332 37.4894 19.4457C37.4894 18.5013 38.2084 17.9323 39.3674 17.9323H40.8808V17.6426C40.8808 16.9128 40.3979 16.4618 39.6145 16.4618C39.0455 16.4618 38.7021 16.6338 38.3696 17.0092C38.2623 17.1272 38.1872 17.1594 38.0906 17.1594C37.9187 17.1594 37.7794 17.0199 37.7794 16.8482C37.7794 16.7731 37.8008 16.7194 37.8328 16.6657C38.1333 16.1936 38.713 15.8179 39.6145 15.8179C40.8594 15.8179 41.5466 16.5477 41.5466 17.6426V20.1969H41.9971C42.1796 20.1969 42.3191 20.3364 42.3191 20.5189C42.3191 20.7013 42.1796 20.8408 41.9971 20.8408L41.1813 20.841ZM39.4104 20.3581C40.1616 20.3581 40.8806 19.8966 40.8806 18.9842V18.5335H39.3672C38.6696 18.5335 38.1867 18.8233 38.1867 19.4457C38.1867 20.004 38.5735 20.3581 39.4104 20.3581Z" fill="#000000ff"/>
  <path d="M43.9598 14.841C43.9598 14.6586 44.1208 14.4976 44.3032 14.4976C44.4964 14.4976 44.6469 14.6586 44.6469 14.841V15.9681H45.3442C45.5267 15.9681 45.6662 16.1076 45.6662 16.29C45.6662 16.4724 45.5267 16.612 45.3442 16.612H44.6469V19.5741C44.6469 20.0356 44.9471 20.2824 45.3549 20.2824C45.5374 20.2824 45.6876 20.4219 45.6876 20.6043C45.6876 20.7868 45.5374 20.9263 45.3549 20.9263C44.4644 20.9263 43.9598 20.3575 43.9598 19.5741V16.612H43.5413C43.3589 16.612 43.2193 16.4724 43.2193 16.29C43.2193 16.1076 43.3589 15.9681 43.5413 15.9681H43.9598V14.841Z" fill="#000000ff"/>
  <path d="M47.1904 20.8404C47.0079 20.8404 46.8684 20.7009 46.8684 20.5185C46.8684 20.336 47.0079 20.1965 47.1904 20.1965H47.6411V16.6119H47.1904C47.0079 16.6119 46.8684 16.4724 46.8684 16.29C46.8684 16.1076 47.0079 15.968 47.1904 15.968H47.9845C48.1777 15.968 48.3279 16.1183 48.3279 16.3115V20.1965H48.7789C48.9613 20.1965 49.1008 20.336 49.1008 20.5185C49.1008 20.7009 48.9613 20.8404 48.7789 20.8404H47.1904ZM47.5658 14.4547C47.5658 14.1434 47.727 14.0147 47.9843 14.0147C48.2418 14.0147 48.4028 14.1434 48.4028 14.4547C48.4028 14.723 48.2418 14.8732 47.9843 14.8732C47.727 14.8732 47.5658 14.723 47.5658 14.4547Z" fill="#000000ff"/>
  <path d="M52.6096 20.9803C51.2252 20.9803 50.3557 20.154 50.3557 18.3938C50.3557 16.6336 51.2252 15.8179 52.6096 15.8179C54.0047 15.8179 54.8634 16.6336 54.8634 18.3938C54.8634 20.154 54.0047 20.9803 52.6096 20.9803ZM54.1659 18.3938C54.1659 17.0414 53.5969 16.4404 52.6096 16.4404C51.6222 16.4404 51.0532 17.0414 51.0532 18.3938C51.0532 19.7676 51.6222 20.3579 52.6096 20.3579C53.5969 20.3579 54.1659 19.7676 54.1659 18.3938Z" fill="#000000ff"/>
  <path d="M56.5049 20.8408C56.3227 20.8408 56.1832 20.7013 56.1832 20.5189C56.1832 20.3365 56.3227 20.1969 56.5049 20.1969H56.9558V16.6123H56.5049C56.3227 16.6123 56.1832 16.4728 56.1832 16.2904C56.1832 16.108 56.3227 15.9684 56.5049 15.9684H57.3205C57.5029 15.9684 57.6424 16.108 57.6424 16.2904V16.5694C57.8464 16.1616 58.3724 15.8182 59.07 15.8182C60.7229 15.8182 61.0448 16.8055 61.0448 17.7179V20.1972H61.4956C61.678 20.1972 61.8175 20.3367 61.8175 20.5191C61.8175 20.7016 61.678 20.8411 61.4956 20.8411H59.9073C59.7248 20.8411 59.5853 20.7016 59.5853 20.5191C59.5853 20.3367 59.7248 20.1972 59.9073 20.1972H60.3582V17.8574C60.3582 17.0096 60.1114 16.4301 59.0702 16.4301C58.0827 16.4301 57.6427 17.074 57.6427 17.9326V20.1972H58.0936C58.2758 20.1972 58.4154 20.3367 58.4154 20.5191C58.4154 20.7016 58.2758 20.8411 58.0936 20.8411L56.5049 20.8408Z" fill="#000000ff"/>
  <path d="M79.7243 20.8172H81.4673V13.64H79.7243V20.8172ZM79.0294 13.64H77.1138L75.4518 18.8265L73.7593 13.64H71.8133L74.5291 20.8172H76.2631L79.0294 13.64ZM72.8706 20.8172L69.9357 13.64H68.2086L65.1657 20.8172H67.0833L67.6096 19.4087H70.3887L70.9458 20.8172H72.8706ZM69.9111 18.0198H68.1075L69.0188 15.5567L69.9111 18.0198ZM86.8758 15.4313C86.4202 15.0219 86.0028 14.8869 85.557 14.8869C85.1107 14.8869 84.5535 15.0398 84.5535 15.6075C84.5535 16.0828 84.9797 16.244 85.6596 16.4577C86.6319 16.7725 87.8893 17.1783 87.8893 18.6072C87.8893 20.2596 86.5608 20.9999 85.1418 20.9999C84.1176 20.9999 83.0835 20.6249 82.4551 19.9658L83.5184 18.8748C83.9416 19.3313 84.5741 19.5706 85.1418 19.5706C85.6688 19.5706 86.1349 19.3671 86.1349 18.7898C86.1349 18.2423 85.5867 18.0592 84.6448 17.7536C83.7332 17.4605 82.8108 17.0055 82.8108 15.7085C82.8108 14.1167 84.2502 13.4582 85.5867 13.4582C86.3992 13.4582 87.3107 13.7623 87.9389 14.3387L86.8758 15.4313Z" fill="#000000ff"/>
  <path d="M89.9968 14.2742V13.8309H90.2474C90.3918 13.8309 90.5555 13.8722 90.5555 14.0436C90.5555 14.2313 90.3746 14.2736 90.2125 14.2736L89.9968 14.2742ZM89.7195 15.1489H89.9974V14.5001H90.1994L90.556 15.1489H90.8919L90.4767 14.4685C90.6939 14.42 90.8322 14.2736 90.8322 14.0492C90.8322 13.7151 90.5484 13.5927 90.2539 13.5927H89.719L89.7195 15.1489ZM89.1003 14.3777C89.1003 13.733 89.617 13.2112 90.2504 13.2112C90.8919 13.2112 91.4106 13.7325 91.4106 14.3777C91.4106 15.0158 90.8919 15.5458 90.2504 15.5458C89.617 15.5458 89.1003 15.0158 89.1003 14.3777ZM88.8826 14.3777C88.8826 15.1443 89.4963 15.7437 90.2504 15.7437C91.0131 15.7437 91.6263 15.1443 91.6263 14.3777C91.6263 13.6121 91.0131 13 90.2504 13C89.4963 13 88.8826 13.6121 88.8826 14.3777Z" fill="#000000ff"/>
</svg>
