<?xml version="1.0" ?>
<svg xmlns="http://www.w3.org/2000/svg" width="24.0" height="24.0" viewBox="0 0 24.0 24.0">
  <path d="M2 12C2 6.475 6.475 2 12 2C17.525 2 22 6.475 22 12C22 17.525 17.525 22 12 22C6.475 22 2 17.525 2 12Z" fill="#ceacd1ff"/>
  <path d="M15.7834 14.35C15.7834 12.95 14.925 12.05 13.95 11.5917C14.9417 10.9917 15.45 10.15 15.45 9.15838C15.45 7.34172 13.9 6.42505 12.0417 6.42505C10.225 6.42505 8.63338 7.64172 8.63338 9.40005C8.63338 10.5 9.20838 11.2167 10.1167 11.7834C9.09172 12.3084 8.30005 13.1917 8.30005 14.6084C8.30005 16.2167 9.63338 17.625 11.9917 17.625C14.175 17.625 15.7834 16.3584 15.7834 14.35ZM13.425 9.29172C13.425 9.95005 12.825 10.6417 12.2667 10.9C11.5917 10.6167 10.725 10.075 10.725 9.20005C10.725 8.46672 11.25 7.95838 12.075 7.95838C12.95 7.95005 13.425 8.55005 13.425 9.29172ZM13.5917 14.5167C13.5917 15.3584 13.0334 16.0667 12.0334 16.0667C11.0167 16.0667 10.4417 15.2417 10.4417 14.3667C10.4417 13.5417 11.1334 12.7917 11.825 12.5167C12.725 12.9667 13.5917 13.55 13.5917 14.5167Z" fill="#24303bff"/>
</svg>
