<?xml version="1.0" ?>
<svg xmlns="http://www.w3.org/2000/svg" width="24.0" height="24.0" viewBox="0 0 24.0 24.0">
  <path d="M2 12C2 6.475 6.475 2 12 2C17.525 2 22 6.475 22 12C22 17.525 17.525 22 12 22C6.475 22 2 17.525 2 12Z" fill="#8c5d2bff"/>
  <path d="M8.34167 17.2835V8.95014C7.7 9.45847 6.675 9.92514 5.96667 10.2751L5.25 8.65014C6.35833 8.18347 7.7 7.47514 8.75 6.68347H10.6V17.2835H8.34167ZM17.2 17.2835V6.68347H15.35C14.3 7.47514 12.9667 8.18347 11.85 8.65014L12.575 10.2751C13.2833 9.93347 14.3 9.46681 14.95 8.95014V17.2835H17.2Z" fill="#ffffffff"/>
</svg>
