<?xml version="1.0" ?>
<svg xmlns="http://www.w3.org/2000/svg" width="24.0" height="24.0" viewBox="0 0 24.0 24.0">
  <path d="M12 2C6.475 2 2 6.475 2 12C2 17.525 6.475 22 12 22C17.525 22 22 17.525 22 12C22 6.475 17.525 2 12 2ZM12 20.7C7.19167 20.7 3.3 16.8083 3.3 12C3.3 7.19167 7.19167 3.3 12 3.3C16.8083 3.3 20.7 7.19167 20.7 12C20.7 16.8083 16.8083 20.7 12 20.7ZM16.975 16.475C16.975 16.95 16.6 17.225 16.15 17.225C15.75 17.225 15.3 16.95 15.3 16.475V9.975H15.275L12.8 15.025C12.625 15.375 12.4 15.575 12 15.575C11.6 15.575 11.375 15.375 11.2 15.025L8.725 9.975H8.7V16.475C8.7 16.95 8.25 17.225 7.85 17.225C7.4 17.225 7.025 16.95 7.025 16.475V7.75C7.025 7.25 7.3 6.725 8.125 6.725C8.75 6.725 9 7 9.275 7.55L12 13.175H12.025L14.725 7.55C15 7 15.25 6.725 15.875 6.725C16.7 6.725 16.975 7.25 16.975 7.75V16.475Z" fill="#000000ff"/>
</svg>
