<?xml version="1.0" ?>
<svg xmlns="http://www.w3.org/2000/svg" width="24.0" height="24.0" viewBox="0 0 24.0 24.0">
  <path d="M2 12C2 6.475 6.475 2 12 2C17.525 2 22 6.475 22 12C22 17.525 17.525 22 12 22C6.475 22 2 17.525 2 12Z" fill="#662482ff"/>
  <path d="M7.52505 17.3001V8.96674C6.88338 9.47507 5.85838 9.94174 5.15005 10.2917L4.42505 8.66674C5.53338 8.20007 6.87505 7.49174 7.92505 6.70007H9.77505V17.3001H7.52505ZM17.8334 15.0917V17.3001H15.7334V15.0917H10.9584V13.1251L15.075 6.70007H17.8334V13.4417H19.0834V15.0917H17.8334ZM15.7334 8.55841H15.7001C15.6584 8.73341 15.3584 9.38341 14.9334 10.0417L12.7751 13.4334H15.7334V8.55841Z" fill="#ffffffff"/>
</svg>
