<?xml version="1.0" ?>
<svg xmlns="http://www.w3.org/2000/svg" width="24.0" height="24.0" viewBox="0 0 24.0 24.0">
  <path d="M22 12C22 17.525 17.525 22 12 22C6.475 22 2 17.525 2 12C2 6.475 6.475 2 12 2C17.525 2 22 6.475 22 12Z" fill="#d4c900ff"/>
  <path d="M7.32482 17.2832V8.9582C6.68315 9.46653 5.65815 9.96653 4.94982 10.2749L4.23315 8.65819C5.34149 8.19153 6.67482 7.49153 7.73315 6.69153H9.58315V17.2832H7.32482ZM14.7832 17.2832H12.3665C12.3665 15.8915 12.7415 14.9915 13.6748 13.2582L16.2582 8.4582H11.1082V6.69153H18.5165V8.41653C16.1915 12.4582 14.7832 15.6249 14.7832 17.2832Z" fill="#24303bff"/>
</svg>
