<?xml version="1.0" ?>
<svg xmlns="http://www.w3.org/2000/svg" width="24.0" height="24.0" viewBox="0 0 24.0 24.0">
  <path d="M2 12C2 6.475 6.475 2 12 2C17.525 2 22 6.475 22 12C22 17.525 17.525 22 12 22C6.475 22 2 17.525 2 12Z" fill="#81c290ff"/>
  <path d="M15.6084 13.9167C15.6084 11.9334 14.2 10.7834 12.4417 10.7834C11.3 10.7834 10.6084 11.1917 10.25 11.5C10.4 9.36671 11.4834 8.18337 12.9667 8.18337C13.5834 8.18337 14.1417 8.31671 14.425 8.44171L14.7584 6.64171C14.3084 6.54171 13.7667 6.45837 13.1667 6.45837C9.77505 6.45837 8.05005 9.10004 8.05005 12.7834C8.05005 15.5917 9.08338 17.6 11.9834 17.6C14.2 17.5917 15.6084 16.0334 15.6084 13.9167ZM13.475 14.1584C13.475 15.075 12.9334 15.9334 11.8834 15.9334C10.8 15.9334 10.2167 14.9584 10.2167 13.95C10.2167 13.6334 10.2167 13.2167 10.3334 13.0334C10.5417 12.7 11.0834 12.45 11.7584 12.45C12.8167 12.4417 13.475 13.1667 13.475 14.1584Z" fill="#24303bff"/>
</svg>
