<?xml version="1.0" ?>
<svg xmlns="http://www.w3.org/2000/svg" width="24.0" height="24.0" viewBox="0 0 24.0 24.0">
  <path d="M2 12C2 6.475 6.475 2 12 2C17.525 2 22 6.475 22 12C22 17.525 17.525 22 12 22C6.475 22 2 17.525 2 12Z" fill="#9e9724ff"/>
  <path d="M15.7084 14.1084C15.7084 12.625 14.8251 11.725 13.6501 11.5V11.4667C14.7751 11.05 15.3584 10.175 15.3584 9.08336C15.3584 7.67503 14.1251 6.38336 11.9667 6.38336C10.6334 6.38336 9.65839 6.72503 8.75006 7.32503L9.51672 8.88336C9.85839 8.58336 10.5084 8.1167 11.4834 8.1167C12.5917 8.1167 13.1084 8.73336 13.1084 9.40836C13.1084 10.2167 12.4667 10.7584 11.4251 10.7584H10.3251V12.5167H11.4251C12.5084 12.5167 13.4334 12.9334 13.4334 14.15C13.4334 15.05 12.6667 15.775 11.4334 15.775C10.5334 15.775 9.80006 15.4 9.34172 15.0834L8.51672 16.7167C9.22506 17.1334 10.0667 17.5084 11.5834 17.5084C14.0417 17.5167 15.7084 15.9667 15.7084 14.1084Z" fill="#ffffffff"/>
</svg>
