<?xml version="1.0" ?>
<svg xmlns="http://www.w3.org/2000/svg" width="24.0" height="24.0" viewBox="0 0 24.0 24.0">
  <path d="M22 12C22 17.525 17.525 22 12 22C6.475 22 2 17.525 2 12C2 6.475 6.475 2 12 2C17.525 2 22 6.475 22 12Z" fill="#00a78eff"/>
  <path d="M7.83337 17.2916V8.95827C7.1917 9.4666 6.1667 9.9666 5.4667 10.2833L4.7417 8.65827C5.85003 8.1916 7.18337 7.4916 8.2417 6.6916H10.0834V17.2833H7.83337V17.2916ZM15.2584 17.5749C12.9 17.5749 11.5667 16.1666 11.5667 14.5583C11.5667 13.1499 12.3584 12.2666 13.3834 11.7416C12.4667 11.1749 11.9 10.4499 11.9 9.35827C11.9 7.59993 13.4917 6.3916 15.3084 6.3916C17.1667 6.3916 18.7167 7.30827 18.7167 9.12493C18.7167 10.1166 18.2084 10.9583 17.2167 11.5583C18.1917 12.0249 19.05 12.9249 19.05 14.3166C19.0417 16.3083 17.4334 17.5749 15.2584 17.5749ZM15.0834 12.4749C14.3917 12.7416 13.7 13.4916 13.7 14.3166C13.7 15.1833 14.2667 16.0166 15.2917 16.0166C16.3 16.0166 16.85 15.3083 16.85 14.4666C16.85 13.5083 15.9834 12.9249 15.0834 12.4749ZM15.3334 7.90827C14.5084 7.90827 13.9834 8.4166 13.9834 9.14993C13.9834 10.0166 14.85 10.5583 15.525 10.8416C16.0834 10.5833 16.6834 9.89993 16.6834 9.23327C16.6834 8.50827 16.2084 7.90827 15.3334 7.90827Z" fill="#ffffffff"/>
</svg>
