<?xml version="1.0" ?>
<svg xmlns="http://www.w3.org/2000/svg" width="24.0" height="24.0" viewBox="0 0 24.0 24.0">
  <path d="M2 12C2 6.475 6.475 2 12 2C17.525 2 22 6.475 22 12C22 17.525 17.525 22 12 22C6.475 22 2 17.525 2 12Z" fill="#81c290ff"/>
  <path d="M12.6334 8.42507C10.3084 12.4667 8.9001 15.6334 8.9001 17.2917H6.48343C6.48343 15.8917 6.85843 15.0001 7.79176 13.2667L10.3751 8.46674H5.2251V6.70007H12.6418V8.42507H12.6334ZM15.6918 13.5251C15.6918 14.2167 15.3334 15.1917 14.3501 15.1917C14.1168 15.1917 13.8501 15.1001 13.6918 14.9584V15.1001H12.9084V10.8501H13.7168V12.4334C13.9251 12.1334 14.1584 11.9334 14.5501 11.9334C15.3584 11.9334 15.6918 12.7834 15.6918 13.5251ZM14.8501 13.6501C14.8501 13.2334 14.7501 12.6334 14.2418 12.6334C14.0834 12.6334 13.9584 12.7001 13.8668 12.7917C13.7251 12.9251 13.7084 13.0084 13.7084 13.1917V14.2334C13.7084 14.4501 13.8334 14.6334 14.2001 14.6334C14.7251 14.6251 14.8501 14.0667 14.8501 13.6501ZM17.2001 11.2167C17.2001 11.4667 17.0251 11.6417 16.7501 11.6417C16.4751 11.6417 16.2918 11.4667 16.2918 11.2167C16.2918 10.9667 16.4668 10.7917 16.7501 10.7917C17.0251 10.7917 17.2001 10.9667 17.2001 11.2167ZM17.1501 15.0917H16.3418V12.0251H17.1501V15.0917ZM20.0168 14.1751C20.0168 13.6667 19.7084 13.4251 19.2668 13.2667L19.0001 13.1667C18.8501 13.1167 18.6418 13.0251 18.6418 12.8417C18.6418 12.7001 18.7418 12.5417 19.0668 12.5417C19.2668 12.5417 19.5084 12.6084 19.6834 12.7251L19.9334 12.1334C19.7751 12.0501 19.4918 11.9334 19.1084 11.9334C18.3918 11.9334 17.9001 12.3917 17.9001 12.9751C17.9001 13.4251 18.1668 13.6584 18.5584 13.8167L18.8084 13.9167C18.9751 13.9834 19.2584 14.0584 19.2584 14.2917C19.2584 14.5334 19.0001 14.6084 18.7834 14.6084C18.5418 14.6084 18.2584 14.5167 18.0668 14.3751L17.8334 14.9584C18.0084 15.0584 18.3501 15.1917 18.7334 15.1917C19.5334 15.1917 20.0168 14.7751 20.0168 14.1751Z" fill="#24303bff"/>
</svg>
