<?xml version="1.0" ?>
<svg xmlns="http://www.w3.org/2000/svg" width="24.0" height="24.0" viewBox="0 0 24.0 24.0">
  <path d="M2 12C2 6.475 6.475 2 12 2C17.525 2 22 6.475 22 12C22 17.525 17.525 22 12 22C6.475 22 2 17.525 2 12Z" fill="#97d3e2ff"/>
  <path d="M7.77502 17.2832V8.94987C7.13335 9.4582 6.10835 9.92487 5.40002 10.2749L4.68335 8.64987C5.79168 8.1832 7.13335 7.4832 8.18335 6.6832H10.0333V17.2832H7.77502ZM18.7 14.1332C18.7 12.6499 17.8167 11.7415 16.6417 11.5249V11.4915C17.7667 11.0749 18.35 10.1999 18.35 9.1082C18.35 7.69987 17.1167 6.4082 14.9583 6.4082C13.625 6.4082 12.6417 6.74987 11.7417 7.34987L12.5083 8.9082C12.85 8.6082 13.5 8.14154 14.475 8.14154C15.5833 8.14154 16.1 8.7582 16.1 9.4332C16.1 10.2415 15.4583 10.7832 14.4167 10.7832H13.3083V12.5415H14.4C15.4833 12.5415 16.4083 12.9582 16.4083 14.1749C16.4083 15.0749 15.6417 15.7999 14.4083 15.7999C13.5083 15.7999 12.7667 15.4249 12.325 15.1082L11.5 16.7415C12.2083 17.1582 13.05 17.5332 14.5667 17.5332C17.0333 17.5415 18.7 15.9915 18.7 14.1332Z" fill="#24303bff"/>
</svg>
