<?xml version="1.0" ?>
<svg xmlns="http://www.w3.org/2000/svg" width="24.0" height="24.0" viewBox="0 0 24.0 24.0">
  <path d="M22 12C22 17.525 17.525 22 12 22C6.475 22 2 17.525 2 12C2 6.475 6.475 2 12 2C17.525 2 22 6.475 22 12Z" fill="#f2a3b9ff"/>
  <path d="M7.59167 17.2915V8.9582C6.95 9.46654 5.925 9.96654 5.21667 10.2749L4.5 8.6582C5.60833 8.19154 6.94167 7.49154 8 6.69154H9.85V17.2832H7.59167V17.2915ZM15.3 17.5415C12.4 17.5415 11.3667 15.5332 11.3667 12.7249C11.3667 9.04987 13.0917 6.4082 16.4833 6.4082C17.0833 6.4082 17.625 6.4832 18.075 6.59154L17.7417 8.39154C17.4583 8.27487 16.9 8.1332 16.2833 8.1332C14.8 8.1332 13.7167 9.31654 13.5667 11.4499C13.925 11.1332 14.6167 10.7332 15.7583 10.7332C17.5167 10.7332 18.925 11.8915 18.925 13.8665C18.9333 15.9832 17.5167 17.5415 15.3 17.5415ZM15.0917 12.3999C14.4167 12.3999 13.875 12.6582 13.6667 12.9832C13.55 13.1665 13.55 13.5832 13.55 13.8999C13.55 14.9082 14.1333 15.8832 15.2167 15.8832C16.2667 15.8832 16.8083 15.0249 16.8083 14.1082C16.8 13.1165 16.1417 12.3999 15.0917 12.3999Z" fill="#24303bff"/>
</svg>
