<?xml version="1.0" ?>
<svg xmlns="http://www.w3.org/2000/svg" width="24.0" height="24.0" viewBox="0 0 24.0 24.0">
  <path d="M2 12C2 6.475 6.475 2 12 2C17.525 2 22 6.475 22 12C22 17.525 17.525 22 12 22C6.475 22 2 17.525 2 12Z" fill="#d4c900ff"/>
  <path d="M15.875 11.2666C15.875 8.45828 14.8417 6.44995 11.9417 6.44995C9.72502 6.44995 8.30835 8.00828 8.30835 10.125C8.30835 12.1083 9.71668 13.2666 11.475 13.2666C12.6167 13.2666 13.3083 12.8583 13.6667 12.55C13.5167 14.6833 12.4333 15.8666 10.95 15.8666C10.3333 15.8666 9.78335 15.7333 9.49168 15.6083L9.15835 17.4083C9.60835 17.5166 10.15 17.5916 10.75 17.5916C14.15 17.5916 15.875 14.95 15.875 11.2666ZM13.7 10.1C13.7 10.4166 13.7 10.8333 13.5833 11.0166C13.375 11.35 12.8333 11.6 12.1583 11.6C11.1083 11.6 10.45 10.875 10.45 9.89162C10.45 8.97495 10.9917 8.11662 12.0417 8.11662C13.1167 8.11662 13.7 9.09162 13.7 10.1Z" fill="#24303bff"/>
</svg>
