<?xml version="1.0" ?>
<svg xmlns="http://www.w3.org/2000/svg" width="24.0" height="24.0" viewBox="0 0 24.0 24.0">
  <path d="M2 12C2 6.475 6.475 2 12 2C17.525 2 22 6.475 22 12C22 17.525 17.525 22 12 22C6.475 22 2 17.525 2 12Z" fill="#97d3e2ff"/>
  <path d="M16.1666 12.1084C16.1666 11.3667 15.8333 10.5084 15.025 10.5084C14.6333 10.5084 14.4 10.7084 14.1916 11.0084V9.42504H13.3833V13.675H14.1666V13.5334C14.325 13.675 14.5916 13.7667 14.825 13.7667C15.8083 13.775 16.1666 12.8 16.1666 12.1084ZM15.3333 12.225C15.3333 12.6417 15.2083 13.2 14.6916 13.2C14.325 13.2 14.2 13.0084 14.2 12.8V11.7584C14.2 11.5834 14.2166 11.4917 14.3583 11.3584C14.4416 11.275 14.575 11.2 14.7333 11.2C15.2333 11.2167 15.3333 11.8167 15.3333 12.225ZM17.6749 9.79171C17.6749 9.54171 17.5 9.36671 17.225 9.36671C16.95 9.36671 16.775 9.54171 16.775 9.79171C16.775 10.0417 16.95 10.2167 17.225 10.2167C17.5083 10.2167 17.6749 10.0417 17.6749 9.79171ZM17.625 10.6084H16.825V13.675H17.625V10.6084ZM20.5 12.7584C20.5 13.3584 20.0166 13.775 19.2166 13.775C18.8333 13.775 18.4833 13.6417 18.3166 13.5417L18.5666 12.95C18.7583 13.0917 19.0416 13.1834 19.2833 13.1834C19.5 13.1834 19.7499 13.1084 19.7499 12.8667C19.7499 12.6334 19.4666 12.5584 19.3 12.4917L19.0499 12.3917C18.65 12.2334 18.3916 12 18.3916 11.55C18.3916 10.9667 18.8833 10.5084 19.6 10.5084C19.9833 10.5084 20.2666 10.625 20.425 10.7084L20.1749 11.3C19.9999 11.1834 19.75 11.1167 19.5583 11.1167C19.2333 11.1167 19.1333 11.2834 19.1333 11.4167C19.1333 11.6 19.3499 11.6917 19.4916 11.7417L19.7583 11.8417C20.1833 12.0084 20.5 12.25 20.5 12.7584ZM12.2583 14.0584C12.2583 15.9167 10.5916 17.4667 8.13328 17.4667C6.61662 17.4667 5.77495 17.0917 5.07495 16.675L5.89995 15.0417C6.34995 15.3584 7.08328 15.7334 7.98328 15.7334C9.21662 15.7334 9.98328 15.0167 9.98328 14.1084C9.98328 12.8917 9.04995 12.475 7.97495 12.475H6.87495V10.7167H7.98328C9.01662 10.7167 9.66662 10.175 9.66662 9.36671C9.66662 8.69171 9.15828 8.07504 8.04995 8.07504C7.07495 8.07504 6.42495 8.54171 6.08328 8.84171L5.30828 7.27504C6.20828 6.67504 7.18328 6.33337 8.52495 6.33337C10.6833 6.33337 11.9166 7.62504 11.9166 9.03337C11.9166 10.125 11.3333 11 10.2083 11.4167V11.45C11.375 11.675 12.2583 12.575 12.2583 14.0584Z" fill="#24303bff"/>
</svg>
