<?xml version="1.0" ?>
<svg xmlns="http://www.w3.org/2000/svg" width="24.0" height="24.0" viewBox="0 0 24.0 24.0">
  <path d="M2 12C2 6.475 6.475 2 12 2C17.525 2 22 6.475 22 12C22 17.525 17.525 22 12 22C6.475 22 2 17.525 2 12Z" fill="#b90845ff"/>
  <path d="M7.70812 17.2832V8.9582C7.06646 9.46653 6.04146 9.96653 5.34146 10.2749L4.61646 8.65819C5.72479 8.19153 7.06646 7.49153 8.11646 6.69153H9.96646V17.2832H7.70812ZM14.6081 17.5415C13.3748 17.5415 12.4331 17.2749 11.6248 16.7749L12.4831 15.1249C13.0665 15.5332 13.6665 15.7999 14.4915 15.7999C15.3165 15.7999 16.3498 15.3082 16.3498 14.0582C16.3498 13.2915 15.8415 12.2415 13.8915 12.2165C13.2915 12.2165 12.5831 12.1999 12.2415 12.1999L12.6581 6.69153H18.2248V8.46653H14.4165L14.2665 10.4749C14.3248 10.4749 14.4581 10.4915 14.5665 10.4915C17.4581 10.6249 18.6331 12.2665 18.6331 13.8499C18.6331 15.8749 17.0248 17.5415 14.6081 17.5415Z" fill="#ffffffff"/>
</svg>
