<?xml version="1.0" ?>
<svg xmlns="http://www.w3.org/2000/svg" width="24.0" height="24.0" viewBox="0 0 24.0 24.0">
  <path d="M2 12C2 6.475 6.475 2 12 2C17.525 2 22 6.475 22 12C22 17.525 17.525 22 12 22C6.475 22 2 17.525 2 12Z" fill="#f18d42ff"/>
  <path d="M15.5916 13.8749C15.5916 12.2833 14.4249 10.6499 11.5249 10.5083C11.4166 10.5083 11.2833 10.4916 11.2249 10.4916L11.3749 8.47495H15.1916V6.71661H9.61659L9.19992 12.2249C9.54159 12.2249 10.2499 12.2416 10.8499 12.2416C12.7999 12.2749 13.3083 13.3249 13.3083 14.0916C13.3083 15.3416 12.2749 15.8333 11.4499 15.8333C10.6249 15.8333 10.0249 15.5666 9.43325 15.1583L8.58325 16.7999C9.39159 17.2999 10.3416 17.5666 11.5666 17.5666C13.9833 17.5666 15.5916 15.8999 15.5916 13.8749Z" fill="#24303bff"/>
</svg>
