<?xml version="1.0" ?>
<svg xmlns="http://www.w3.org/2000/svg" width="24.0" height="24.0" viewBox="0 0 24.0 24.0">
  <path d="M2 12C2 6.475 6.475 2 12 2C17.525 2 22 6.475 22 12C22 17.525 17.525 22 12 22C6.475 22 2 17.525 2 12Z" fill="#00804fff"/>
  <path d="M7.64172 17.3001V8.96675C7.00005 9.48341 5.97505 9.95008 5.27505 10.2917L4.55005 8.67508C5.66672 8.20841 7.00005 7.50008 8.05005 6.70841H9.90005V17.3084H7.64172V17.3001ZM18.55 17.3001V15.5251H14.1834C14.3167 14.9084 15.3834 13.9751 15.925 13.4834C17.2 12.3251 18.3584 11.4751 18.3584 9.65841C18.3584 7.50008 16.6 6.41675 14.7417 6.41675C13.3167 6.41675 12.3667 6.83341 11.35 7.72508L12.4584 9.19175C12.7167 8.90841 13.3584 8.23341 14.2917 8.23341C15.45 8.23341 16.05 9.00008 16.05 9.91675C16.05 10.9417 15.2834 11.7001 14.5834 12.3167C13.175 13.5501 11.9584 14.6751 11.6834 15.9001V17.3001H18.55Z" fill="#ffffffff"/>
</svg>
