<?xml version="1.0" ?>
<svg xmlns="http://www.w3.org/2000/svg" width="24.0" height="24.0" viewBox="0 0 24.0 24.0">
  <path d="M2 12C2 6.475 6.475 2 12 2C17.525 2 22 6.475 22 12C22 17.525 17.525 22 12 22C6.475 22 2 17.525 2 12Z" fill="#0064afff"/>
  <path d="M15.6833 17.3V15.525H11.3166C11.45 14.9083 12.5166 13.975 13.0583 13.4833C14.3333 12.325 15.4916 11.475 15.4916 9.65829C15.4916 7.49996 13.7333 6.41663 11.875 6.41663C10.4416 6.41663 9.49998 6.83329 8.47498 7.71663L9.58331 9.18329C9.84164 8.89996 10.4833 8.22496 11.4166 8.22496C12.575 8.22496 13.175 8.99163 13.175 9.90829C13.175 10.9333 12.4083 11.7 11.7083 12.3083C10.3 13.5416 9.08331 14.6666 8.80831 15.8916V17.2916H15.6833V17.3Z" fill="#ffffffff"/>
</svg>
