<?xml version="1.0" ?>
<svg xmlns="http://www.w3.org/2000/svg" width="24.0" height="24.0" viewBox="0 0 24.0 24.0">
  <path d="M2 4.85516C2 3.27763 3.27914 2 4.85813 2H19.1436C20.7209 2 22 3.27763 22 4.85516V19.1431C22 20.7224 20.7209 22 19.1436 22H4.85813C3.27914 22 2 20.7224 2 19.1431V4.85516Z" fill="#ff0000ff"/>
  <path d="M11.6897 14.318C11.2133 14.318 10.8956 14.0774 10.8956 13.6924C10.8956 13.3267 11.194 13.0908 11.7186 13.0523L12.8062 12.985V13.3603C12.8062 13.9186 12.3009 14.318 11.6897 14.318ZM11.2277 15.3335C11.8726 15.3335 12.5127 15.0111 12.8014 14.4624H12.8303V15.2517H14.1874V11.7048C14.1874 10.6653 13.326 9.98193 12.0025 9.98193C10.6358 9.98193 9.78394 10.6701 9.731 11.6711H11.016C11.0833 11.2909 11.4154 11.0311 11.94 11.0311C12.4693 11.0311 12.8062 11.3102 12.8062 11.7915V12.1331L11.5068 12.2101C10.2219 12.2871 9.5 12.831 9.5 13.7694C9.5 14.6982 10.2459 15.3335 11.2277 15.3335Z" fill="#0c131fff"/>
</svg>
