<?xml version="1.0" ?>
<svg xmlns="http://www.w3.org/2000/svg" width="24.0" height="24.0" viewBox="0 0 24.0 24.0">
  <path d="M2 12C2 6.475 6.475 2 12 2C17.525 2 22 6.475 22 12C22 17.525 17.525 22 12 22C6.475 22 2 17.525 2 12Z" fill="#e2b229ff"/>
  <path d="M7.76647 17.3083V8.97493C7.1248 9.48327 6.0998 9.94993 5.39147 10.2999L4.6748 8.67494C5.78314 8.20827 7.1248 7.49993 8.1748 6.70827H10.0248V17.3083H7.76647ZM19.2498 11.9916C19.2498 14.4416 18.5581 17.5916 15.3581 17.5916C12.1581 17.5916 11.5331 14.4416 11.5331 11.9916C11.5331 9.5416 12.2248 6.3916 15.4248 6.3916C18.6165 6.3916 19.2498 9.5416 19.2498 11.9916ZM16.9498 11.9916C16.9498 10.8833 16.9081 8.17493 15.3915 8.17493C13.8581 8.17493 13.8165 10.9083 13.8165 11.9916C13.8165 13.0583 13.8915 15.8166 15.3915 15.8166C16.8915 15.8166 16.9498 13.0416 16.9498 11.9916Z" fill="#24303bff"/>
</svg>
