<?xml version="1.0" ?>
<svg xmlns="http://www.w3.org/2000/svg" width="44.0" height="24.0" viewBox="0 0 44.0 24.0">
  <path d="M1.41176 8.75146H2.94424L6.09176 13.5783H6.11012V8.75146H7.26635V15.2484H5.79812L2.58635 10.2656H2.568V15.2484H1.41176V8.75146Z" fill="#000000ff"/>
  <path d="M10.8167 8.75146H11.817L14.6158 15.2484H13.2944L12.6887 13.7618H9.87155L9.28426 15.2484H7.99038L10.8167 8.75146ZM12.285 12.7708L11.2847 10.1279L10.2661 12.7708H12.285Z" fill="#000000ff"/>
  <path d="M14.0207 8.75146H15.3513L17.1224 13.6609L18.9485 8.75146H20.1965L17.572 15.2484H16.5718L14.0207 8.75146Z" fill="#000000ff"/>
  <path d="M20.8938 8.75146H25.1976V9.79758H22.0501V11.3943H25.0324V12.4404H22.0501V14.2023H25.3628V15.2484H20.8938V8.75146Z" fill="#000000ff"/>
  <path d="M27.8343 9.79758H25.843V8.75146H30.9818V9.79758H28.9905V15.2484H27.8343V9.79758Z" fill="#000000ff"/>
  <path d="M33.1036 9.79758H31.1123V8.75146H36.2511V9.79758H34.2598V15.2484H33.1036V9.79758Z" fill="#000000ff"/>
  <path d="M37.0423 8.75146H41.3461V9.79758H38.1985V11.3943H41.1809V12.4404H38.1985V14.2023H41.5112V15.2484H37.0423V8.75146Z" fill="#000000ff"/>
</svg>
