<?xml version="1.0" ?>
<svg xmlns="http://www.w3.org/2000/svg" width="23.0" height="24.0" viewBox="0 0 23.0 24.0">
  <path d="M10.0517 11.8501C9.66021 11.4684 9.12339 11.2306 8.53546 11.2306H4.37022L5.91066 9.68781H9.8297C9.99515 9.69049 10.1499 9.76306 10.2589 9.87191L12.5339 12.1511C12.9253 12.5314 13.4608 12.7706 14.0528 12.7706H18.2221L16.6789 14.3134H12.7639C12.5958 14.308 12.4437 14.2368 12.3334 14.1239L10.0517 11.8501ZM11.2423 15.2178C11.6298 15.6089 12.1679 15.8548 12.7639 15.8548H17.314L21.1765 12.0006L17.314 8.14503H15.1331L18.2221 11.2306H14.0528C13.8887 11.2306 13.7353 11.1647 13.6276 11.0599L11.35 8.7847C10.9598 8.38962 10.423 8.14638 9.8297 8.14503H5.27296L1.41177 12.0006L5.27296 15.8548H7.45511L4.37022 12.7706H8.53546C8.70092 12.7706 8.85028 12.8365 8.96061 12.944L11.2423 15.2178Z" fill="#000000ff"/>
</svg>
