<?xml version="1.0" ?>
<svg xmlns="http://www.w3.org/2000/svg" width="48.0" height="24.0" viewBox="0 0 48.0 24.0">
  <path d="M11.1003 10.1238H10.0795C9.86582 10.1233 9.71145 10.1884 9.69662 10.2418L8.85147 13.9138C8.83665 13.9719 8.95764 14.0378 9.16996 14.0392H10.1986C10.3313 14.0401 10.5742 14.0025 10.5946 13.9138L11.4411 10.2418C11.4531 10.1884 11.3262 10.1233 11.1003 10.1238Z" fill="#000000ff"/>
  <path d="M10.214 9.51205H11.2422C11.3744 9.51296 11.6173 9.47584 11.6377 9.38661L11.7893 8.72979C11.8018 8.67593 11.6743 8.61226 11.4616 8.61226H10.4277C10.214 8.61226 10.0596 8.67635 10.0448 8.72979L9.89366 9.38661C9.88067 9.44329 10.0002 9.51113 10.214 9.51205Z" fill="#000000ff"/>
  <path d="M7.39582 10.0272H2.67267C2.45293 10.0272 2.29531 10.0936 2.28 10.1484L1.41308 13.9124C1.40474 13.9436 1.43672 13.9775 1.49931 14.0025C1.55587 14.0244 1.63746 14.0401 1.73992 14.0406H2.80665C2.91328 14.0406 3.00368 14.0253 3.07183 14.0025C3.146 13.9775 3.19329 13.9436 3.20071 13.9124L3.80477 11.2902L3.88266 10.9497H6.41204C6.61602 10.9497 6.80563 11.0111 6.78106 11.1165L6.13713 13.9124C6.13017 13.9436 6.16031 13.9775 6.22382 14.0025C6.28038 14.0244 6.36197 14.0401 6.46442 14.0406H7.53206C7.63688 14.0406 7.72822 14.0253 7.79634 14.0025C7.87095 13.9775 7.91733 13.9436 7.92474 13.9124L8.66839 10.6849C8.74999 10.3314 8.19876 10.0272 7.39582 10.0272Z" fill="#000000ff"/>
  <path d="M39.8164 10.0337H35.6376C34.811 10.0337 34.0785 10.3343 34.003 10.6696L33.3887 13.3977C33.3113 13.7368 33.8792 14.0416 34.7007 14.0416H40.0126C40.2448 14.0416 40.4094 13.9733 40.4219 13.9157L40.5948 13.1473C40.6069 13.0949 40.4841 13.028 40.2416 13.0242H35.773C35.5583 13.0242 35.3599 12.9625 35.3863 12.8468L35.486 12.4023H40.3816C40.6129 12.4018 40.778 12.334 40.7937 12.2629L41.1534 10.6696C41.2318 10.3208 40.6366 10.0369 39.8164 10.0337ZM39.1716 11.142L39.0626 11.627H35.6603L35.7753 11.1193C35.798 11.0152 36.0251 10.9553 36.2454 10.9553H38.7984C39.007 10.9567 39.2003 11.0152 39.1716 11.142Z" fill="#000000ff"/>
  <path d="M17.2986 10.029H13.8013C13.0336 10.029 12.3734 10.3199 12.2956 10.6566L12.1625 11.2359L12.124 11.4008L12.118 11.411L11.8185 12.707L11.6567 13.4108C11.5955 13.6774 11.9103 13.9143 12.423 14.0025C12.5598 14.0267 12.7114 14.0392 12.8736 14.0392H16.0266L15.9213 14.494C15.8995 14.5892 15.6891 14.6459 15.4957 14.6459H11.7174C11.5139 14.6464 11.3661 14.7077 11.347 14.7592L11.3173 14.8832C11.2395 15.2238 11.7657 15.5141 12.5338 15.5141H16.0474C16.8059 15.5141 17.4609 15.2275 17.5384 14.8944L17.5703 14.7592L17.7437 14.0025L17.9213 13.2324L17.9217 13.231L18.5147 10.6566C18.5926 10.3199 18.0659 10.029 17.2986 10.029ZM16.7118 11.0654L16.6728 11.2359L16.3274 12.7344C16.3057 12.8282 16.0966 12.891 15.9 12.891H13.8815C13.6854 12.891 13.5046 12.8282 13.5264 12.7344L13.5727 12.5314L13.9107 11.0668C13.932 10.9734 14.142 10.9098 14.3353 10.9098H16.3585C16.5518 10.9098 16.7317 10.9734 16.7118 11.0654Z" fill="#000000ff"/>
  <path d="M44.9656 10.0276H44.0783L44.3982 8.60626C44.4102 8.55423 44.2739 8.48591 44.032 8.48591H42.9351C42.7051 8.48591 42.5382 8.55233 42.5257 8.60626L41.3315 13.911C41.3175 13.971 41.4479 14.0388 41.6768 14.0397H42.7946C43.0259 14.0397 43.19 13.9714 43.2035 13.911L43.8321 11.1221C43.8558 11.0171 44.0806 10.9562 44.3175 10.9553H44.7699C45.0013 10.9553 45.1655 10.887 45.1789 10.8271L45.3323 10.1484C45.3448 10.0927 45.2072 10.0276 44.9656 10.0276Z" fill="#000000ff"/>
  <path d="M32.8532 8.55191H31.761C31.5352 8.55191 31.3739 8.61692 31.3591 8.67035L31.2098 9.33184C31.1972 9.38894 31.3252 9.45678 31.5496 9.45769H32.6358C32.7763 9.45861 33.0317 9.42148 33.0526 9.33184L33.201 8.67035C33.213 8.616 33.0776 8.55191 32.8532 8.55191Z" fill="#000000ff"/>
  <path d="M25.2132 10.0778C25.0704 10.0528 24.9123 10.0393 24.7431 10.0393C24.7431 10.0393 22.4678 10.0295 21.5294 10.0263C21.5294 10.0225 21.5313 10.0184 21.5313 10.0184L21.8512 8.5932C21.8637 8.53984 21.7278 8.47151 21.484 8.47151H20.3839C20.1526 8.47151 19.9857 8.53793 19.9727 8.5932L19.6241 10.1442L19.6231 10.1452L18.7752 13.9148C18.7613 13.9742 18.8837 14.0416 19.1016 14.043H20.243C20.2458 14.043 20.2481 14.0425 20.2504 14.0425C20.2866 14.042 20.3269 14.0392 20.3695 14.0336C20.3927 14.0313 20.4145 14.0276 20.4349 14.0244C20.4641 14.0188 20.491 14.0123 20.5174 14.0048C20.523 14.003 20.5285 14.0012 20.5345 13.9993C20.5967 13.9789 20.6435 13.9519 20.6528 13.9161V13.9148L21.2838 11.1169C21.286 11.1058 21.2907 11.0831 21.2977 11.0543H23.7408C23.9443 11.0543 24.1326 11.1169 24.1079 11.2215L23.4877 13.9148C23.4747 13.9742 23.5976 14.0416 23.8145 14.043H24.8789C25.0996 14.043 25.2573 13.9746 25.2712 13.9148L26.0133 10.6952C26.0774 10.4174 25.7486 10.1698 25.2132 10.0778Z" fill="#000000ff"/>
  <path d="M32.4972 10.0736H31.4189C31.1931 10.0732 31.0309 10.1382 31.0165 10.1921L29.8403 15.4119C29.8264 15.4751 29.9631 15.5289 30.1857 15.5294C31.0118 15.5294 31.7248 15.2256 31.7995 14.8916L32.8583 10.1921C32.8699 10.1387 32.7355 10.0732 32.4972 10.0736Z" fill="#000000ff"/>
  <path d="M30.0716 10.8201L30.2256 10.1392C30.2386 10.0834 30.1009 10.0179 29.857 10.0179H28.9678L29.2887 8.59228C29.3002 8.53934 29.1634 8.47059 28.9206 8.47059H27.8209C27.5895 8.47059 27.4218 8.53751 27.4092 8.59228L26.2113 13.9148C26.1969 13.9746 26.3286 14.0425 26.5576 14.0439H27.679C27.9113 14.0439 28.0763 13.9751 28.0893 13.9148L28.7203 11.1165C28.7439 11.0111 28.9697 10.9497 29.2071 10.9483H29.6614C29.8936 10.9488 30.0586 10.88 30.0716 10.8201Z" fill="#000000ff"/>
</svg>
