<?xml version="1.0" ?>
<svg xmlns="http://www.w3.org/2000/svg" width="24.0" height="24.0" viewBox="0 0 24.0 24.0">
  <path d="M21.35 3.36364H2.65C2.2875 3.36364 2 3.06206 2 2.68182C2 2.30157 2.2875 2 2.65 2H21.35C21.7125 2 22 2.30157 22 2.68182C22 3.06206 21.7125 3.36364 21.35 3.36364ZM18.4997 9.20035C18.5127 9.24378 18.5518 9.27273 18.5909 9.27273C18.63 9.27273 18.6691 9.24378 18.6821 9.20035L19.0208 8.15808L19.9198 8.63578C19.9589 8.65026 20.011 8.63578 20.0371 8.60683C20.0761 8.5634 20.0761 8.51998 20.0631 8.47655L19.6332 7.47771L20.5712 7.10133C20.6103 7.08686 20.6364 7.04343 20.6364 7C20.6364 6.95657 20.6103 6.91314 20.5712 6.89867L19.6332 6.52229L20.0631 5.52345C20.0761 5.48002 20.0631 5.42212 20.0371 5.39317C19.998 5.34974 19.9589 5.34974 19.9198 5.36422L19.0208 5.84192L18.6821 4.79965C18.6691 4.75622 18.63 4.72727 18.5909 4.72727C18.5518 4.72727 18.5127 4.75622 18.4997 4.79965L18.161 5.84192L17.262 5.36422C17.2229 5.34974 17.1708 5.36422 17.1448 5.39317C17.1057 5.4366 17.1057 5.48002 17.1187 5.52345L17.5486 6.52229L16.6106 6.89867C16.5715 6.91314 16.5455 6.95657 16.5455 7C16.5455 7.04343 16.5715 7.08686 16.6106 7.10133L17.5486 7.47771L17.1187 8.47655C17.1057 8.51998 17.1187 8.57788 17.1448 8.60683C17.1838 8.65026 17.2229 8.65026 17.262 8.63578L18.161 8.15808L18.4997 9.20035ZM14.3779 17.1363L14.6039 17.4545L16.079 16.6781V16.3853C16.079 16.3344 16.079 15.9652 16.0671 15.0996C16.0552 14.3104 16.0552 13.2157 16.0552 11.8663C16.0552 11.4463 16.0552 10.7462 16.0671 9.77872C16.0727 9.32688 16.0756 8.89724 16.0784 8.49242C16.0816 8.03049 16.0846 7.60086 16.0909 7.20738V6.72367H14.1519V7.20738C14.1519 7.82237 14.1583 8.68972 14.1663 9.78947L14.1663 9.78969V9.7898L14.1664 9.78997C14.1693 10.1925 14.1725 10.6261 14.1757 11.0898L14.1819 11.5796L14.1819 11.5798C14.1914 12.3183 14.1995 12.9461 14.1995 13.4702L14.0399 13.2568L14.0399 13.2568C13.1824 12.11 12.2753 10.8969 11.3683 9.6387C10.6763 8.70026 10.1263 7.95606 9.76846 7.47177L9.76805 7.47121C9.50481 7.11499 9.34558 6.89952 9.31029 6.85096L9.08427 6.54545L7.47834 7.36014V7.66564L7.47979 7.78176L7.47979 7.78185C7.49118 8.69476 7.50213 9.57204 7.50213 10.4025C7.51402 11.2808 7.51402 11.9682 7.51402 12.4774C7.51402 13.763 7.51402 14.7941 7.50213 15.5197C7.49562 15.9166 7.48911 16.2221 7.48455 16.4361L7.48455 16.4362C7.48078 16.6134 7.47834 16.728 7.47834 16.7799L7.45455 17.2763H9.42925L9.41736 16.7926C9.40546 16.5126 9.39356 15.4306 9.38167 13.5721L9.37804 13.1941C9.36747 12.0971 9.35788 11.1018 9.35788 10.1988C9.67906 10.6316 10.0954 11.1917 10.6069 11.8663C11.7727 13.4321 13.0337 15.2014 14.3779 17.1363ZM2.65 22H21.35C21.7125 22 22 21.6984 22 21.3182C22 20.9379 21.7125 20.6364 21.35 20.6364H2.65C2.2875 20.6364 2 20.9379 2 21.3182C2 21.6984 2.2875 22 2.65 22Z" fill="#000000ff"/>
</svg>
