<?xml version="1.0" ?>
<svg xmlns="http://www.w3.org/2000/svg" width="43.0" height="24.0" viewBox="0 0 43.0 24.0">
  <path d="M6.57997 8.79431C6.5048 8.79402 6.43031 8.80864 6.36078 8.83737C6.29125 8.86609 6.22804 8.90838 6.17479 8.96167C6.12154 9.01504 6.07929 9.07842 6.05045 9.14824C6.02162 9.21805 6.00678 9.29287 6.00678 9.36847V13.217L2.4138 8.94261C2.33767 8.85367 2.236 8.79064 2.1228 8.76219C2.00959 8.73374 1.8904 8.74129 1.78161 8.78372C1.67289 8.82501 1.57927 8.89864 1.5132 8.99478C1.44714 9.09092 1.41176 9.20499 1.41177 9.32181V14.6323C1.41177 14.7848 1.47205 14.9312 1.57935 15.039C1.68664 15.1469 1.83217 15.2075 1.98391 15.2075C2.13565 15.2075 2.28117 15.1469 2.38847 15.039C2.49577 14.9312 2.55604 14.7848 2.55604 14.6323V10.7826L6.15324 15.0571C6.20566 15.1179 6.27035 15.1669 6.34301 15.2006C6.41567 15.2344 6.49465 15.2523 6.5747 15.2531H6.58313C6.65777 15.2533 6.73173 15.2387 6.80066 15.2099C6.8696 15.1811 6.93213 15.1388 6.98462 15.0855C7.0371 15.0321 7.07846 14.9687 7.10634 14.8991C7.13422 14.8295 7.14798 14.755 7.14686 14.68V9.36847C7.14686 9.21692 7.08728 9.07151 6.98106 8.96393C6.87488 8.85635 6.7307 8.79537 6.57997 8.79431Z" fill="#000000ff"/>
  <path d="M11.4911 8.60464C10.608 8.61099 9.76363 8.96972 9.14365 9.60198C8.52367 10.2342 8.17892 11.0882 8.1852 11.976C8.19149 12.8638 8.54831 13.7128 9.17718 14.336C9.80605 14.9593 10.6554 15.306 11.5385 15.2996H11.5859C12.4689 15.287 13.3108 14.9222 13.9264 14.2855C14.5419 13.6488 14.8806 12.7923 14.8681 11.9045C14.8554 11.0167 14.4926 10.1703 13.8593 9.55144C13.226 8.93259 12.3741 8.592 11.4911 8.60464ZM11.5385 14.1969C11.1063 14.1969 10.6837 14.068 10.3244 13.8266C9.96502 13.5852 9.68492 13.2421 9.51953 12.8406C9.35414 12.4391 9.31087 11.9974 9.39516 11.5712C9.47951 11.145 9.6876 10.7536 9.99325 10.4463C10.2989 10.139 10.6883 9.92979 11.1121 9.84501C11.536 9.76024 11.9754 9.80372 12.3748 9.97002C12.7741 10.1363 13.1154 10.4179 13.3555 10.7792C13.5956 11.1405 13.7238 11.5653 13.7238 11.9999C13.7235 12.5824 13.4932 13.1411 13.0834 13.5531C12.6736 13.965 12.118 14.1966 11.5385 14.1969Z" fill="#000000ff"/>
  <path d="M24.7324 8.8356C24.6753 8.78675 24.6091 8.74969 24.5377 8.72661C24.4663 8.70346 24.3911 8.69471 24.3164 8.70078C24.2416 8.70692 24.1688 8.72774 24.1021 8.76212C24.0353 8.79656 23.976 8.84379 23.9274 8.90125L21.6978 11.5242L19.4694 8.90125C19.3936 8.81167 19.2923 8.74758 19.1792 8.71772C19.066 8.68786 18.9465 8.69365 18.8367 8.73438C18.7269 8.77503 18.6323 8.84859 18.5654 8.94515C18.4986 9.04172 18.4629 9.15656 18.4631 9.27416V14.6323C18.4631 14.7848 18.5234 14.9312 18.6307 15.039C18.738 15.1469 18.8836 15.2075 19.0353 15.2075C19.187 15.2075 19.3326 15.1469 19.4399 15.039C19.5472 14.9312 19.6074 14.7848 19.6074 14.6323V10.7392L21.2638 12.6884C21.2839 12.7119 21.3057 12.7338 21.3291 12.7541C21.3861 12.8029 21.4522 12.8399 21.5235 12.863C21.5948 12.8861 21.67 12.8948 21.7446 12.8888C21.8193 12.8827 21.892 12.8618 21.9587 12.8274C22.0253 12.7931 22.0845 12.7458 22.133 12.6884L23.7894 10.7392V14.6302C23.7894 14.7827 23.8497 14.9291 23.9569 15.0369C24.0642 15.1448 24.2098 15.2054 24.3615 15.2054C24.5133 15.2054 24.6588 15.1448 24.7661 15.0369C24.8734 14.9291 24.9337 14.7827 24.9337 14.6302V9.27416C24.9336 9.1908 24.9156 9.10842 24.8808 9.03268C24.8461 8.95701 24.7955 8.88974 24.7324 8.8356Z" fill="#000000ff"/>
  <path d="M28.8796 9.04955C28.8358 8.94551 28.7624 8.85678 28.6688 8.79438C28.575 8.73198 28.4651 8.69873 28.3527 8.69873C28.2404 8.69873 28.1305 8.73198 28.0368 8.79438C27.9431 8.85678 27.8698 8.94551 27.8259 9.04955L25.5627 14.4088C25.5034 14.5492 25.5021 14.7076 25.559 14.8491C25.616 14.9905 25.7264 15.1035 25.8661 15.163C26.0058 15.2226 26.1634 15.2239 26.3041 15.1667C26.4447 15.1095 26.5571 14.9984 26.6163 14.8579L27.1074 13.6926H29.5929L30.0839 14.8579C30.1438 14.9979 30.2562 15.1084 30.3966 15.1655C30.5371 15.2226 30.6943 15.2217 30.8341 15.163H30.8394C30.9084 15.1335 30.9709 15.0905 31.0233 15.0366C31.0757 14.9828 31.1171 14.919 31.1449 14.8491C31.1729 14.7791 31.1867 14.7043 31.1859 14.6289C31.185 14.5535 31.1693 14.4791 31.1397 14.4098L28.8796 9.04955ZM27.571 12.592L28.3496 10.7477L29.123 12.592H27.571Z" fill="#000000ff"/>
  <path d="M37.6924 8.79325H35.6809C35.5296 8.79431 35.3847 8.85529 35.2776 8.96294C35.1706 9.07059 35.11 9.21621 35.1088 9.36847V14.6302C35.1088 14.7827 35.1691 14.9291 35.2764 15.0369C35.3837 15.1448 35.5292 15.2054 35.6809 15.2054H37.8083C38.2272 15.1979 38.6405 15.1076 39.0247 14.9394C39.4088 14.7713 39.7563 14.5288 40.0471 14.2256C40.338 13.9225 40.5666 13.5647 40.72 13.1727C40.8733 12.7807 40.9482 12.3622 40.9407 11.941C40.9331 11.5199 40.843 11.1044 40.6756 10.7182C40.5082 10.3321 40.2668 9.98287 39.9652 9.69056C39.6635 9.39826 39.3076 9.16849 38.9176 9.01454C38.5276 8.86059 38.1113 8.78541 37.6924 8.79325ZM36.2531 14.0973V9.89174H37.6945C38.2492 9.89174 38.7812 10.1133 39.1734 10.5076C39.5657 10.902 39.786 11.4368 39.786 11.9946C39.786 12.5522 39.5657 13.0871 39.1734 13.4814C38.7812 13.8758 38.2492 14.0973 37.6945 14.0973H36.2531Z" fill="#000000ff"/>
  <path d="M34.8928 7.52944C34.2533 6.89382 33.325 6.52941 32.344 6.52941C31.3631 6.52941 30.4338 6.89382 29.7952 7.52944C29.7424 7.58245 29.7126 7.65438 29.7123 7.72948C29.7121 7.80452 29.7415 7.87666 29.794 7.93002C29.8465 7.98339 29.918 8.01367 29.9926 8.01424C30.0673 8.0148 30.1391 7.98558 30.1925 7.93306C30.7266 7.40336 31.5116 7.09722 32.344 7.09722C33.1424 7.08395 33.9145 7.38374 34.4967 7.93306C34.5229 7.95946 34.5542 7.98042 34.5886 7.99461C34.623 8.00887 34.6598 8.01614 34.697 8.01607C34.7342 8.01593 34.771 8.00845 34.8054 7.99398C34.8396 7.97951 34.8707 7.9584 34.8969 7.93186C34.9231 7.90525 34.9437 7.87376 34.9578 7.83911C34.9717 7.80445 34.9789 7.76739 34.9786 7.72998C34.9783 7.69263 34.9707 7.65565 34.9561 7.6212C34.9416 7.58682 34.9204 7.55562 34.8939 7.52944H34.8928Z" fill="#000000ff"/>
  <path d="M17.8688 16.0635C17.3346 16.5931 16.5497 16.8971 15.7173 16.8971C14.9196 16.9108 14.148 16.6117 13.5657 16.0635C13.5392 16.0374 13.5079 16.0168 13.4734 16.0028C13.4391 15.989 13.4022 15.982 13.3652 15.9824C13.3281 15.9828 13.2915 15.9906 13.2573 16.0052C13.2232 16.0198 13.1923 16.041 13.1664 16.0677C13.1404 16.0943 13.1199 16.1258 13.1061 16.1605C13.0923 16.1951 13.0853 16.232 13.0858 16.2693C13.0862 16.3066 13.0938 16.3434 13.1084 16.3777C13.123 16.412 13.1441 16.4431 13.1705 16.4692C13.858 17.124 14.7725 17.4832 15.7193 17.4702C16.7003 17.4702 17.6297 17.1048 18.2682 16.4692C18.3217 16.4159 18.352 16.3435 18.3524 16.2678C18.3528 16.1921 18.3233 16.1194 18.2703 16.0656C18.2173 16.0117 18.1453 15.9813 18.07 15.9809C17.9947 15.9805 17.9223 16.0102 17.8688 16.0635Z" fill="#000000ff"/>
</svg>
