<?xml version="1.0" ?>
<svg xmlns="http://www.w3.org/2000/svg" width="30.0" height="24.0" viewBox="0 0 30.0 24.0">
  <path d="M8.01084 7.70259V7.69694L4.80469 11.1704H6.9538L10.1496 7.70464H8.01056" fill="#000000ff"/>
  <path d="M26.8053 11.7627C27.4614 11.2383 27.6593 10.4989 27.6593 9.97433C27.6593 9.61666 27.486 7.69694 24.4038 7.69694H20.6763V16.3885L20.6776 16.389H24.7501C25.3195 16.389 26.3226 16.3057 26.9415 15.7926C27.7462 15.1253 27.8824 14.4099 27.8824 13.9568C27.8824 12.9193 27.3376 12.1562 26.8053 11.7627ZM22.5346 9.18642H24.7382C25.382 9.18642 25.8896 9.42487 25.8896 10.1761C25.8896 10.8675 25.4318 11.1658 24.6394 11.1658H22.5346V9.18642ZM24.7138 14.8987H22.5349V12.6574H25.0606C25.4072 12.6574 26.113 12.7052 26.113 13.6827C26.113 14.8749 25.271 14.8987 24.7138 14.8987Z" fill="#000000ff"/>
  <path d="M18.227 11.7627C18.8833 11.2383 19.081 10.4989 19.081 9.97433C19.081 9.61666 18.9079 7.69694 15.8255 7.69694H12.098V16.3885L12.0992 16.389H16.1718C16.7412 16.389 17.744 16.3057 18.3632 15.7926C19.1679 15.1253 19.304 14.4099 19.304 13.9568C19.304 12.9193 18.7593 12.1562 18.227 11.7627ZM16.1601 9.18642C16.804 9.18642 17.3116 9.42487 17.3116 10.1761C17.3116 10.8675 16.8535 11.1658 16.0613 11.1658H13.9566V9.18642H16.1601ZM16.1352 14.8987H13.9563V12.6574H16.4818C16.8289 12.6574 17.5342 12.7052 17.5342 13.6827C17.5342 14.8749 16.6924 14.8987 16.1352 14.8987Z" fill="#000000ff"/>
  <path d="M8.30738 10.389C8.64324 10.8572 8.82719 11.4146 8.82719 12.0011C8.82719 12.7459 8.53588 13.4461 8.00646 13.9727C7.47698 14.4995 6.77327 14.7898 6.0249 14.7898C5.27654 14.7898 4.57253 14.4995 4.0431 13.9727C3.51366 13.4461 3.2221 12.7459 3.2221 12.0011C3.2221 10.4807 4.45269 9.23986 5.97432 9.21409L7.43082 7.63398C6.98157 7.49075 6.5092 7.41176 6.02387 7.41176C3.48046 7.41176 1.41176 9.47033 1.41176 12.0001C1.41176 13.2262 1.89165 14.3785 2.7627 15.244C3.63402 16.1108 4.7925 16.5882 6.02334 16.5882C7.25421 16.5882 8.41369 16.1108 9.28397 15.244C10.1553 14.3774 10.6352 13.2251 10.6352 12.0001C10.6352 10.906 10.2484 9.87191 9.54621 9.04482L8.30738 10.389Z" fill="#000000ff"/>
  <path d="M9.54445 9.04271L9.54695 9.04571L9.54445 9.04271Z" fill="#000000ff"/>
</svg>
