<?xml version="1.0" ?>
<svg xmlns="http://www.w3.org/2000/svg" width="16.0" height="16.0" viewBox="0 0 16.0 16.0">
  <path d="M6.16,6.237L6.059,6.458L5.818,6.429C4.721,6.3 3.667,7.131 3.667,8.333C3.667,9.414 4.545,10.333 5.6,10.333L6.425,10.333C7.129,10.334 7.832,10.334 8.536,10.333L6.46,5.804C6.333,5.94 6.235,6.073 6.16,6.237Z" fill="@color/widget_error_gray"/>
  <path d="M8,16C12.418,16 16,12.418 16,8C16,3.582 12.418,0 8,0C3.582,0 0,3.582 0,8C0,12.418 3.582,16 8,16ZM6.425,11L5.6,11C4.152,11 3,9.757 3,8.333C3,6.789 4.284,5.714 5.664,5.751C5.806,5.515 5.981,5.331 6.164,5.159L5.697,4.139C5.62,3.972 5.694,3.774 5.861,3.697C6.029,3.62 6.226,3.694 6.303,3.861L9.97,11.861C10.047,12.028 9.973,12.226 9.806,12.303C9.638,12.38 9.44,12.306 9.364,12.139L8.842,11C8.036,11 7.23,11 6.425,11ZM8.053,4.856C7.871,4.885 7.7,4.762 7.671,4.58C7.642,4.398 7.765,4.227 7.947,4.198C8.609,4.091 10.273,4.354 11.023,6.211C12.107,6.433 12.859,7.389 12.859,8.545C12.859,9.208 12.652,9.824 12.244,10.279C11.832,10.738 11.237,11.008 10.516,11.008C10.332,11.008 10.183,10.859 10.183,10.675C10.183,10.49 10.332,10.341 10.516,10.341C11.061,10.341 11.471,10.142 11.748,9.834C12.028,9.521 12.193,9.072 12.193,8.545C12.193,7.634 11.577,6.936 10.741,6.84L10.534,6.816L10.465,6.619C9.885,4.966 8.496,4.785 8.053,4.856Z" fill="@color/widget_error_gray"/>
</svg>
