<?xml version="1.0" ?>
<svg xmlns="http://www.w3.org/2000/svg" width="23.0" height="24.0" viewBox="0 0 23.0 24.0">
  <path d="M21.1185 10.1778C20.8495 7.7976 19.6995 5.60632 17.8971 4.03977C16.0622 2.44561 13.7182 1.56841 11.2933 1.56841C8.86835 1.56841 6.52434 2.44561 4.68945 4.03977C2.88164 5.59616 1.73018 7.78567 1.46859 10.1643C1.207 12.5428 1.85485 14.9324 3.28077 16.8484C4.72437 18.7926 6.82582 20.1382 9.18846 20.6312L11.0066 22.3221C11.0856 22.3927 11.1876 22.4317 11.2933 22.4317C11.3989 22.4317 11.5009 22.3927 11.5799 22.3221L13.4254 20.6312C15.788 20.1382 17.8895 18.7926 19.3331 16.8484C20.7437 14.931 21.3815 12.5482 21.1185 10.1778ZM6.51307 9.25546C6.90836 8.34007 7.56606 7.56402 8.40225 7.02644C9.10863 6.5702 9.91326 6.29031 10.749 6.21009C11.5848 6.12987 12.4275 6.25164 13.207 6.56526C13.8187 6.82082 14.3751 7.19379 14.845 7.66327C15.6817 8.46706 16.2052 9.54487 16.3213 10.7025C16.4375 11.8602 16.1385 13.0215 15.4784 13.977C14.9086 14.804 14.109 15.4437 13.1797 15.8162C12.2426 16.195 11.2165 16.2928 10.2254 16.0979C9.23428 15.9031 8.32037 15.4239 7.59416 14.7182C6.89063 14.0235 6.41121 13.1321 6.21824 12.1597C6.02024 11.1841 6.1231 10.1708 6.51307 9.25546Z" fill="#000000ff"/>
</svg>
