<?xml version="1.0" ?>
<svg xmlns="http://www.w3.org/2000/svg" width="53.0" height="24.0" viewBox="0 0 53.0 24.0">
  <path d="M8.47059 19.0588C12.369 19.0588 15.5294 15.8984 15.5294 12C15.5294 8.10155 12.369 4.94118 8.47059 4.94118C4.57211 4.94118 1.41177 8.10155 1.41177 12C1.41177 15.8984 4.57211 19.0588 8.47059 19.0588ZM2.04057 12.116V12.1081C2.04057 11.3238 2.66673 10.6813 3.5284 10.6813C4.39008 10.6813 5.0086 11.3158 5.0086 12.1004V12.1081C5.0086 12.8924 4.3821 13.5348 3.52043 13.5348C2.65876 13.5348 2.04057 12.9 2.04057 12.116ZM4.36583 12.116V12.1081C4.36583 11.6351 4.01471 11.2411 3.5201 11.2411C3.02548 11.2411 2.68234 11.6274 2.68234 12.1004V12.1081C2.68234 12.5811 3.03346 12.9754 3.52807 12.9754C4.02269 12.9754 4.36583 12.5887 4.36583 12.116ZM5.25576 11.0097C5.25576 10.9283 5.28813 10.85 5.34575 10.7924C5.40338 10.7348 5.48154 10.7024 5.56302 10.7024C5.64452 10.7024 5.72267 10.7348 5.7803 10.7924C5.83792 10.85 5.8703 10.9283 5.8703 11.0097V12.2906C5.8703 12.74 6.09751 12.9726 6.47253 12.9726C6.84757 12.9726 7.07478 12.7477 7.07478 12.3102V11.0087C7.07478 10.9272 7.10718 10.8491 7.16478 10.7915C7.22238 10.7339 7.30052 10.7015 7.38205 10.7015C7.46351 10.7015 7.54172 10.7339 7.59932 10.7915C7.65692 10.8491 7.68932 10.9272 7.68932 11.0087V12.2856C7.68932 13.1214 7.21461 13.5313 6.46456 13.5313C5.7145 13.5313 5.25576 13.1174 5.25576 12.3052V11.0097ZM8.08857 11.0084C8.09118 10.9287 8.12471 10.8532 8.18202 10.7977C8.23934 10.7423 8.31593 10.7112 8.3957 10.7112C8.47539 10.7112 8.55205 10.7423 8.60937 10.7977C8.66668 10.8532 8.70014 10.9287 8.70275 11.0084V13.2078C8.70014 13.2875 8.66668 13.363 8.60937 13.4185C8.55205 13.4739 8.47539 13.5049 8.3957 13.5049C8.31593 13.5049 8.23934 13.4739 8.18202 13.4185C8.12471 13.363 8.09118 13.2875 8.08857 13.2078V11.0084ZM9.02167 12.1081C9.02167 11.3238 9.63988 10.6813 10.4856 10.6813C10.9085 10.6813 11.1878 10.776 11.4393 10.9494C11.472 10.9728 11.4997 11.0026 11.5207 11.0368C11.5417 11.0711 11.5557 11.1092 11.5617 11.149C11.5678 11.1887 11.5658 11.2293 11.556 11.2683C11.5461 11.3072 11.5285 11.3439 11.5043 11.376C11.48 11.408 11.4496 11.435 11.4148 11.4551C11.38 11.4752 11.3416 11.4882 11.3017 11.4933C11.2618 11.4983 11.2213 11.4954 11.1826 11.4845C11.1438 11.4736 11.1077 11.4551 11.0762 11.4301C10.8993 11.3011 10.6845 11.2346 10.4657 11.2411C10.0189 11.2411 9.66381 11.6314 9.66381 12.1004V12.1081C9.66381 12.6126 10.0149 12.983 10.5095 12.983C10.7331 12.983 10.9324 12.9279 11.0882 12.8169V12.423H10.6733C10.6386 12.4236 10.6041 12.4174 10.5719 12.4047C10.5396 12.3919 10.5102 12.3729 10.4853 12.3487C10.4605 12.3245 10.4406 12.2956 10.427 12.2637C10.4134 12.2319 10.4062 12.1976 10.4059 12.1628C10.4061 12.128 10.4132 12.0935 10.4267 12.0613C10.4403 12.0292 10.46 12 10.4849 11.9754C10.5097 11.9509 10.5392 11.9315 10.5715 11.9184C10.6038 11.9052 10.6384 11.8986 10.6733 11.8988H11.3752C11.4154 11.8982 11.4553 11.9056 11.4926 11.9207C11.5299 11.9357 11.5638 11.9579 11.5924 11.9862C11.621 12.0145 11.6437 12.0481 11.6592 12.0853C11.6747 12.1224 11.6826 12.1622 11.6825 12.2024V12.8724C11.6825 13.0498 11.616 13.1713 11.4672 13.2587C11.1729 13.4388 10.8346 13.5342 10.4896 13.5344C9.61998 13.5344 9.02167 12.9316 9.02167 12.116V12.1081ZM11.894 12.116V12.1081C11.894 11.3238 12.5202 10.6813 13.3818 10.6813C14.2435 10.6813 14.8621 11.3158 14.8621 12.1004V12.1081C14.8621 12.8924 14.2355 13.5348 13.3739 13.5348C12.5122 13.5348 11.894 12.9 11.894 12.116ZM14.2193 12.116V12.1081C14.2193 11.6351 13.8682 11.2411 13.3736 11.2411C12.8789 11.2411 12.5358 11.6274 12.5358 12.1004V12.1081C12.5358 12.5811 12.8869 12.9754 13.3815 12.9754C13.8762 12.9754 14.2193 12.5887 14.2193 12.116ZM8.76628 9.97214C8.76628 10.1771 8.60012 10.3432 8.3952 10.3432C8.19028 10.3432 8.02419 10.1771 8.02419 9.97214C8.02419 9.76722 8.19028 9.60113 8.3952 9.60113C8.60012 9.60113 8.76628 9.76722 8.76628 9.97214Z" fill="#000000ff"/>
  <path d="M19.1238 8.82635H22.9948V9.58871H19.9369V11.376H22.7831V12.1384H19.9369V14.0612H23.1473V14.8235H19.1238V8.82635ZM26.2418 11.8165C26.1515 11.7035 26.0385 11.6104 25.903 11.5369C25.7731 11.4579 25.6122 11.4184 25.4202 11.4184C25.2395 11.4184 25.0813 11.4579 24.9458 11.5369C24.8159 11.6104 24.751 11.7205 24.751 11.8673C24.751 11.9859 24.7877 12.0819 24.8611 12.1553C24.9402 12.2287 25.0305 12.288 25.1322 12.3332C25.2395 12.3784 25.3524 12.4122 25.471 12.4348C25.5896 12.4574 25.6912 12.4772 25.7759 12.4941C25.9397 12.5336 26.0922 12.5816 26.2333 12.6381C26.3802 12.6946 26.5044 12.768 26.606 12.8584C26.7133 12.9487 26.7952 13.0588 26.8517 13.1887C26.9138 13.3186 26.9449 13.4767 26.9449 13.6631C26.9449 13.8889 26.8969 14.0838 26.8009 14.2475C26.7049 14.4056 26.5806 14.5355 26.4282 14.6372C26.2757 14.7388 26.1006 14.8122 25.903 14.8574C25.711 14.9026 25.5162 14.9252 25.3185 14.9252C24.9853 14.9252 24.6917 14.8744 24.4376 14.7727C24.1891 14.6711 23.966 14.4847 23.7684 14.2136L24.3444 13.7393C24.4686 13.8635 24.607 13.9736 24.7595 14.0696C24.9119 14.1656 25.0983 14.2136 25.3185 14.2136C25.4145 14.2136 25.5105 14.2052 25.6065 14.1882C25.7082 14.1656 25.7957 14.1346 25.8691 14.0951C25.9482 14.0499 26.0103 13.9962 26.0555 13.9341C26.1063 13.8664 26.1317 13.7901 26.1317 13.7054C26.1317 13.5925 26.095 13.4993 26.0216 13.4259C25.9538 13.3525 25.8691 13.296 25.7675 13.2565C25.6715 13.2113 25.567 13.1774 25.454 13.1548C25.3468 13.1266 25.2508 13.104 25.166 13.0871C25.0023 13.0475 24.847 13.0024 24.7002 12.9515C24.5533 12.9007 24.4235 12.8329 24.3105 12.7482C24.1976 12.6635 24.1072 12.5562 24.0395 12.4264C23.9717 12.2965 23.9378 12.1355 23.9378 11.9435C23.9378 11.7346 23.9802 11.5539 24.0649 11.4014C24.1552 11.2433 24.271 11.1134 24.4122 11.0118C24.559 10.9101 24.7228 10.8339 24.9035 10.7831C25.0898 10.7322 25.2762 10.7068 25.4625 10.7068C25.7336 10.7068 25.9933 10.7576 26.2418 10.8593C26.4903 10.9609 26.6879 11.1304 26.8348 11.3675L26.2418 11.8165ZM27.8711 10.8085H28.6334V11.3845H28.6504C28.7972 11.1699 28.9976 11.0033 29.2518 10.8847C29.5115 10.7661 29.7769 10.7068 30.048 10.7068C30.3586 10.7068 30.6381 10.7605 30.8866 10.8678C31.1407 10.9751 31.3553 11.1247 31.5304 11.3167C31.7111 11.5087 31.8494 11.7346 31.9454 11.9944C32.0414 12.2485 32.0894 12.5224 32.0894 12.816C32.0894 13.1153 32.0414 13.3948 31.9454 13.6546C31.8494 13.9087 31.7111 14.1318 31.5304 14.3238C31.3553 14.5101 31.1407 14.6569 30.8866 14.7642C30.6381 14.8715 30.3586 14.9252 30.048 14.9252C29.76 14.9252 29.4889 14.8659 29.2348 14.7473C28.9807 14.6231 28.7859 14.4565 28.6504 14.2475H28.6334V17.2122H27.8711V10.8085ZM29.9548 11.4184C29.7515 11.4184 29.568 11.4551 29.4042 11.5285C29.2405 11.5962 29.1021 11.6922 28.9892 11.8165C28.8762 11.9351 28.7887 12.0819 28.7266 12.2569C28.6645 12.4264 28.6334 12.6127 28.6334 12.816C28.6334 13.0193 28.6645 13.2085 28.7266 13.3835C28.7887 13.5529 28.8762 13.6998 28.9892 13.824C29.1021 13.9426 29.2405 14.0386 29.4042 14.112C29.568 14.1798 29.7515 14.2136 29.9548 14.2136C30.1581 14.2136 30.3416 14.1798 30.5054 14.112C30.6692 14.0386 30.8075 13.9426 30.9205 13.824C31.0334 13.6998 31.1209 13.5529 31.1831 13.3835C31.2452 13.2085 31.2762 13.0193 31.2762 12.816C31.2762 12.6127 31.2452 12.4264 31.1831 12.2569C31.1209 12.0819 31.0334 11.9351 30.9205 11.8165C30.8075 11.6922 30.6692 11.5962 30.5054 11.5285C30.3416 11.4551 30.1581 11.4184 29.9548 11.4184ZM33.0663 11.2998C33.2809 11.1021 33.5293 10.9553 33.8117 10.8593C34.094 10.7576 34.3764 10.7068 34.6588 10.7068C34.9524 10.7068 35.2037 10.7435 35.4126 10.8169C35.6272 10.8904 35.8023 10.9892 35.9378 11.1134C36.0733 11.2376 36.1722 11.3816 36.2343 11.5454C36.302 11.7035 36.3359 11.8701 36.3359 12.0452V14.0951C36.3359 14.2362 36.3388 14.3661 36.3444 14.4847C36.35 14.6033 36.3585 14.7162 36.3698 14.8235H35.6922C35.6752 14.6202 35.6668 14.4169 35.6668 14.2136H35.6498C35.4804 14.4734 35.2799 14.6569 35.0484 14.7642C34.8169 14.8715 34.5486 14.9252 34.2437 14.9252C34.0573 14.9252 33.8795 14.8998 33.71 14.8489C33.5406 14.7981 33.391 14.7219 33.2611 14.6202C33.1369 14.5186 33.038 14.3944 32.9646 14.2475C32.8912 14.0951 32.8545 13.92 32.8545 13.7224C32.8545 13.4626 32.911 13.2452 33.0239 13.0701C33.1425 12.8951 33.3006 12.7539 33.4983 12.6466C33.7016 12.5336 33.9359 12.4546 34.2013 12.4094C34.4724 12.3586 34.7604 12.3332 35.0653 12.3332H35.6244V12.1638C35.6244 12.0621 35.6046 11.9605 35.5651 11.8588C35.5256 11.7572 35.4663 11.6668 35.3872 11.5878C35.3082 11.5031 35.2093 11.4381 35.0908 11.3929C34.9722 11.3421 34.831 11.3167 34.6672 11.3167C34.5204 11.3167 34.3905 11.3308 34.2776 11.3591C34.1703 11.3873 34.0715 11.424 33.9811 11.4692C33.8908 11.5087 33.8089 11.5567 33.7355 11.6132C33.662 11.6696 33.5915 11.7233 33.5237 11.7741L33.0663 11.2998ZM35.2178 12.8922C35.0371 12.8922 34.8508 12.9035 34.6588 12.9261C34.4724 12.9431 34.3002 12.9798 34.142 13.0362C33.9896 13.0927 33.8625 13.1718 33.7609 13.2734C33.6649 13.3751 33.6169 13.5049 33.6169 13.6631C33.6169 13.8946 33.6931 14.0612 33.8456 14.1628C34.0037 14.2645 34.2155 14.3153 34.4809 14.3153C34.6898 14.3153 34.8677 14.2814 35.0145 14.2136C35.1613 14.1402 35.2799 14.0471 35.3703 13.9341C35.4606 13.8212 35.5256 13.6969 35.5651 13.5614C35.6046 13.4202 35.6244 13.2819 35.6244 13.1464V12.8922H35.2178ZM41.4654 14.7896C41.4654 15.0946 41.4117 15.3713 41.3044 15.6198C41.2028 15.8739 41.056 16.0913 40.864 16.272C40.672 16.4584 40.4404 16.6024 40.1694 16.704C39.8983 16.8056 39.599 16.8565 39.2715 16.8565C38.8875 16.8565 38.5345 16.8028 38.2127 16.6955C37.8964 16.5882 37.5943 16.4019 37.3063 16.1365L37.823 15.4927C38.0207 15.7073 38.2352 15.8682 38.4668 15.9755C38.6983 16.0885 38.9609 16.1449 39.2545 16.1449C39.5369 16.1449 39.7712 16.1026 39.9576 16.0179C40.144 15.9388 40.2908 15.8344 40.3981 15.7045C40.511 15.5746 40.5901 15.4249 40.6352 15.2555C40.6804 15.0918 40.703 14.9252 40.703 14.7558V14.1628H40.6776C40.5308 14.4056 40.3303 14.5864 40.0762 14.7049C39.8277 14.8179 39.5651 14.8744 39.2884 14.8744C38.9948 14.8744 38.7209 14.8235 38.4668 14.7219C38.2183 14.6146 38.0037 14.4706 37.823 14.2899C37.6423 14.1035 37.5011 13.8861 37.3995 13.6376C37.2978 13.3835 37.247 13.1096 37.247 12.816C37.247 12.5224 37.295 12.2485 37.391 11.9944C37.487 11.7346 37.6225 11.5087 37.7976 11.3167C37.9783 11.1247 38.1929 10.9751 38.4414 10.8678C38.6955 10.7605 38.9778 10.7068 39.2884 10.7068C39.5595 10.7068 39.8221 10.7661 40.0762 10.8847C40.336 11.0033 40.5392 11.1699 40.6861 11.3845H40.703V10.8085H41.4654V14.7896ZM39.3816 11.4184C39.1783 11.4184 38.9948 11.4551 38.831 11.5285C38.6672 11.5962 38.5289 11.6922 38.416 11.8165C38.303 11.9351 38.2155 12.0819 38.1534 12.2569C38.0912 12.4264 38.0602 12.6127 38.0602 12.816C38.0602 13.2226 38.1788 13.5501 38.416 13.7986C38.6531 14.0414 38.975 14.1628 39.3816 14.1628C39.7882 14.1628 40.1101 14.0414 40.3472 13.7986C40.5844 13.5501 40.703 13.2226 40.703 12.816C40.703 12.6127 40.672 12.4264 40.6098 12.2569C40.5477 12.0819 40.4602 11.9351 40.3472 11.8165C40.2343 11.6922 40.096 11.5962 39.9322 11.5285C39.7684 11.4551 39.5849 11.4184 39.3816 11.4184ZM42.6201 10.8085H43.3825V11.4268H43.3994C43.4954 11.2122 43.662 11.04 43.8992 10.9101C44.1364 10.7746 44.4102 10.7068 44.7208 10.7068C44.9128 10.7068 45.0964 10.7379 45.2714 10.8C45.4521 10.8565 45.6074 10.9468 45.7373 11.0711C45.8728 11.1953 45.9801 11.3562 46.0592 11.5539C46.1382 11.7459 46.1778 11.9746 46.1778 12.24V14.8235H45.4154V12.4518C45.4154 12.2654 45.39 12.1073 45.3392 11.9774C45.2884 11.8419 45.2206 11.7346 45.1359 11.6555C45.0512 11.5708 44.9524 11.5115 44.8394 11.4776C44.7321 11.4381 44.6192 11.4184 44.5006 11.4184C44.3425 11.4184 44.1956 11.4438 44.0601 11.4946C43.9246 11.5454 43.806 11.6273 43.7044 11.7402C43.6027 11.8475 43.5236 11.9859 43.4672 12.1553C43.4107 12.3247 43.3825 12.5252 43.3825 12.7567V14.8235H42.6201V10.8085ZM47.9029 13.0955C47.9029 13.2706 47.9396 13.4315 48.0131 13.5784C48.0921 13.7195 48.1938 13.8409 48.318 13.9426C48.4422 14.0442 48.5862 14.1233 48.75 14.1798C48.9138 14.2362 49.0832 14.2645 49.2582 14.2645C49.4954 14.2645 49.7015 14.2108 49.8766 14.1035C50.0516 13.9906 50.2126 13.8438 50.3594 13.6631L50.9354 14.1035C50.5119 14.6513 49.9189 14.9252 49.1566 14.9252C48.8404 14.9252 48.5524 14.8715 48.2926 14.7642C48.0385 14.6569 47.8211 14.5101 47.6404 14.3238C47.4653 14.1318 47.3298 13.9087 47.2338 13.6546C47.1378 13.3948 47.0898 13.1153 47.0898 12.816C47.0898 12.5167 47.1406 12.24 47.2422 11.9859C47.3495 11.7261 47.4935 11.5031 47.6742 11.3167C47.8606 11.1247 48.0808 10.9751 48.3349 10.8678C48.5891 10.7605 48.8658 10.7068 49.1651 10.7068C49.5208 10.7068 49.8201 10.7689 50.0629 10.8932C50.3114 11.0174 50.5147 11.1812 50.6728 11.3845C50.8309 11.5821 50.9439 11.808 51.0116 12.0621C51.0851 12.3106 51.1218 12.5647 51.1218 12.8245V13.0955H47.9029ZM50.3086 12.4856C50.3029 12.3162 50.2747 12.1609 50.2239 12.0198C50.1787 11.8786 50.1081 11.7572 50.0121 11.6555C49.9161 11.5482 49.7947 11.4664 49.6479 11.4099C49.5067 11.3478 49.3401 11.3167 49.1481 11.3167C48.9618 11.3167 48.7895 11.3534 48.6314 11.4268C48.4789 11.4946 48.3491 11.5849 48.2418 11.6979C48.1345 11.8108 48.0498 11.9379 47.9876 12.0791C47.9312 12.2146 47.9029 12.3501 47.9029 12.4856H50.3086Z" fill="#000000ff"/>
</svg>
