<?xml version="1.0" ?>
<svg xmlns="http://www.w3.org/2000/svg" width="79.0" height="24.0" viewBox="0 0 79.0 24.0">
  <path d="M8.47059 19.0588C12.369 19.0588 15.5294 15.8984 15.5294 12C15.5294 8.10155 12.369 4.94118 8.47059 4.94118C4.57211 4.94118 1.41177 8.10155 1.41177 12C1.41177 15.8984 4.57211 19.0588 8.47059 19.0588ZM2.04057 12.116V12.1081C2.04057 11.3238 2.66673 10.6813 3.5284 10.6813C4.39008 10.6813 5.0086 11.3158 5.0086 12.1004V12.1081C5.0086 12.8924 4.3821 13.5348 3.52043 13.5348C2.65876 13.5348 2.04057 12.9 2.04057 12.116ZM4.36583 12.116V12.1081C4.36583 11.6351 4.01471 11.2411 3.5201 11.2411C3.02548 11.2411 2.68234 11.6274 2.68234 12.1004V12.1081C2.68234 12.5811 3.03346 12.9754 3.52807 12.9754C4.02269 12.9754 4.36583 12.5887 4.36583 12.116ZM5.25576 11.0097C5.25576 10.9283 5.28813 10.85 5.34575 10.7924C5.40338 10.7348 5.48154 10.7024 5.56302 10.7024C5.64452 10.7024 5.72267 10.7348 5.7803 10.7924C5.83792 10.85 5.8703 10.9283 5.8703 11.0097V12.2906C5.8703 12.74 6.09751 12.9726 6.47253 12.9726C6.84757 12.9726 7.07478 12.7477 7.07478 12.3102V11.0087C7.07478 10.9272 7.10718 10.8491 7.16478 10.7915C7.22238 10.7339 7.30052 10.7015 7.38205 10.7015C7.46351 10.7015 7.54172 10.7339 7.59932 10.7915C7.65692 10.8491 7.68932 10.9272 7.68932 11.0087V12.2856C7.68932 13.1214 7.21461 13.5313 6.46456 13.5313C5.7145 13.5313 5.25576 13.1174 5.25576 12.3052V11.0097ZM8.08857 11.0084C8.09118 10.9287 8.12471 10.8532 8.18202 10.7977C8.23934 10.7423 8.31593 10.7112 8.3957 10.7112C8.47539 10.7112 8.55205 10.7423 8.60937 10.7977C8.66668 10.8532 8.70014 10.9287 8.70275 11.0084V13.2078C8.70014 13.2875 8.66668 13.363 8.60937 13.4185C8.55205 13.4739 8.47539 13.5049 8.3957 13.5049C8.31593 13.5049 8.23934 13.4739 8.18202 13.4185C8.12471 13.363 8.09118 13.2875 8.08857 13.2078V11.0084ZM9.02167 12.1081C9.02167 11.3238 9.63988 10.6813 10.4856 10.6813C10.9085 10.6813 11.1878 10.776 11.4393 10.9494C11.472 10.9728 11.4997 11.0026 11.5207 11.0368C11.5417 11.0711 11.5557 11.1092 11.5617 11.149C11.5678 11.1887 11.5658 11.2293 11.556 11.2683C11.5461 11.3072 11.5285 11.3439 11.5043 11.376C11.48 11.408 11.4496 11.435 11.4148 11.4551C11.38 11.4752 11.3416 11.4882 11.3017 11.4933C11.2618 11.4983 11.2213 11.4954 11.1826 11.4845C11.1438 11.4736 11.1077 11.4551 11.0762 11.4301C10.8993 11.3011 10.6845 11.2346 10.4657 11.2411C10.0189 11.2411 9.66381 11.6314 9.66381 12.1004V12.1081C9.66381 12.6126 10.0149 12.983 10.5095 12.983C10.7331 12.983 10.9324 12.9279 11.0882 12.8169V12.423H10.6733C10.6386 12.4236 10.6041 12.4174 10.5719 12.4047C10.5396 12.3919 10.5102 12.3729 10.4853 12.3487C10.4605 12.3245 10.4406 12.2956 10.427 12.2637C10.4134 12.2319 10.4062 12.1976 10.4059 12.1628C10.4061 12.128 10.4132 12.0935 10.4267 12.0613C10.4403 12.0292 10.46 12 10.4849 11.9754C10.5097 11.9509 10.5392 11.9315 10.5715 11.9184C10.6038 11.9052 10.6384 11.8986 10.6733 11.8988H11.3752C11.4154 11.8982 11.4553 11.9056 11.4926 11.9207C11.5299 11.9357 11.5638 11.9579 11.5924 11.9862C11.621 12.0145 11.6437 12.0481 11.6592 12.0853C11.6747 12.1224 11.6826 12.1622 11.6825 12.2024V12.8724C11.6825 13.0498 11.616 13.1713 11.4672 13.2587C11.1729 13.4388 10.8346 13.5342 10.4896 13.5344C9.61998 13.5344 9.02167 12.9316 9.02167 12.116V12.1081ZM11.894 12.116V12.1081C11.894 11.3238 12.5202 10.6813 13.3818 10.6813C14.2435 10.6813 14.8621 11.3158 14.8621 12.1004V12.1081C14.8621 12.8924 14.2355 13.5348 13.3739 13.5348C12.5122 13.5348 11.894 12.9 11.894 12.116ZM14.2193 12.116V12.1081C14.2193 11.6351 13.8682 11.2411 13.3736 11.2411C12.8789 11.2411 12.5358 11.6274 12.5358 12.1004V12.1081C12.5358 12.5811 12.8869 12.9754 13.3815 12.9754C13.8762 12.9754 14.2193 12.5887 14.2193 12.116ZM8.76628 9.97214C8.76628 10.1771 8.60012 10.3432 8.3952 10.3432C8.19028 10.3432 8.02419 10.1771 8.02419 9.97214C8.02419 9.76722 8.19028 9.60113 8.3952 9.60113C8.60012 9.60113 8.76628 9.76722 8.76628 9.97214Z" fill="#000000ff"/>
  <path d="M24.2315 11.4692V14.4254C24.0847 14.5158 23.9181 14.5948 23.7318 14.6626C23.5454 14.7304 23.3506 14.7868 23.1473 14.832C22.9496 14.8828 22.7464 14.9195 22.5374 14.9421C22.3341 14.9647 22.1421 14.976 21.9614 14.976C21.4532 14.976 20.9986 14.8913 20.5976 14.7219C20.2024 14.5525 19.8664 14.3238 19.5896 14.0358C19.3186 13.7478 19.1096 13.4146 18.9628 13.0362C18.8216 12.6522 18.7511 12.2485 18.7511 11.8249C18.7511 11.3788 18.8273 10.9638 18.9798 10.5798C19.1379 10.1958 19.3525 9.86259 19.6235 9.58024C19.9002 9.29788 20.2306 9.07765 20.6146 8.91953C20.9986 8.75576 21.4193 8.67388 21.8767 8.67388C22.4301 8.67388 22.8819 8.74447 23.232 8.88565C23.5821 9.02118 23.8758 9.21035 24.1129 9.45318L23.5369 10.0715C23.2885 9.83435 23.0259 9.67059 22.7492 9.58024C22.4725 9.48424 22.1816 9.43624 21.8767 9.43624C21.5322 9.43624 21.2216 9.50118 20.9449 9.63106C20.6682 9.75529 20.4311 9.92471 20.2334 10.1393C20.0358 10.3539 19.8833 10.608 19.776 10.9016C19.6687 11.1896 19.6151 11.4974 19.6151 11.8249C19.6151 12.1638 19.6744 12.48 19.7929 12.7736C19.9115 13.0616 20.0753 13.3129 20.2842 13.5275C20.4932 13.7421 20.7388 13.9115 21.0212 14.0358C21.3035 14.1544 21.6113 14.2136 21.9445 14.2136C22.2325 14.2136 22.5035 14.1882 22.7577 14.1374C23.0174 14.0809 23.2376 14.0019 23.4184 13.9002V12.2315H22.0885V11.4692H24.2315ZM25.5217 10.8085H26.2841V11.4268H26.301C26.3519 11.3195 26.4196 11.2235 26.5043 11.1388C26.589 11.0485 26.6822 10.9722 26.7839 10.9101C26.8912 10.848 27.0069 10.8 27.1312 10.7661C27.2554 10.7266 27.3796 10.7068 27.5039 10.7068C27.6281 10.7068 27.741 10.7238 27.8427 10.7576L27.8088 11.5793C27.7467 11.5624 27.6846 11.5482 27.6225 11.5369C27.5603 11.5256 27.4982 11.52 27.4361 11.52C27.0634 11.52 26.7782 11.6245 26.5806 11.8334C26.3829 12.0424 26.2841 12.3671 26.2841 12.8075V14.8235H25.5217V10.8085ZM28.6739 11.2998C28.8884 11.1021 29.1369 10.9553 29.4193 10.8593C29.7016 10.7576 29.984 10.7068 30.2663 10.7068C30.56 10.7068 30.8113 10.7435 31.0202 10.8169C31.2348 10.8904 31.4099 10.9892 31.5454 11.1134C31.6809 11.2376 31.7797 11.3816 31.8419 11.5454C31.9096 11.7035 31.9435 11.8701 31.9435 12.0452V14.0951C31.9435 14.2362 31.9463 14.3661 31.952 14.4847C31.9576 14.6033 31.9661 14.7162 31.9774 14.8235H31.2997C31.2828 14.6202 31.2743 14.4169 31.2743 14.2136H31.2574C31.088 14.4734 30.8875 14.6569 30.656 14.7642C30.4244 14.8715 30.1562 14.9252 29.8513 14.9252C29.6649 14.9252 29.487 14.8998 29.3176 14.8489C29.1482 14.7981 28.9986 14.7219 28.8687 14.6202C28.7445 14.5186 28.6456 14.3944 28.5722 14.2475C28.4988 14.0951 28.4621 13.92 28.4621 13.7224C28.4621 13.4626 28.5186 13.2452 28.6315 13.0701C28.7501 12.8951 28.9082 12.7539 29.1059 12.6466C29.3092 12.5336 29.5435 12.4546 29.8089 12.4094C30.08 12.3586 30.368 12.3332 30.6729 12.3332H31.232V12.1638C31.232 12.0621 31.2122 11.9605 31.1727 11.8588C31.1332 11.7572 31.0739 11.6668 30.9948 11.5878C30.9157 11.5031 30.8169 11.4381 30.6983 11.3929C30.5797 11.3421 30.4386 11.3167 30.2748 11.3167C30.128 11.3167 29.9981 11.3308 29.8852 11.3591C29.7779 11.3873 29.679 11.424 29.5887 11.4692C29.4983 11.5087 29.4165 11.5567 29.343 11.6132C29.2696 11.6696 29.199 11.7233 29.1313 11.7741L28.6739 11.2998ZM30.8254 12.8922C30.6447 12.8922 30.4583 12.9035 30.2663 12.9261C30.08 12.9431 29.9077 12.9798 29.7496 13.0362C29.5972 13.0927 29.4701 13.1718 29.3685 13.2734C29.2725 13.3751 29.2244 13.5049 29.2244 13.6631C29.2244 13.8946 29.3007 14.0612 29.4532 14.1628C29.6113 14.2645 29.823 14.3153 30.0885 14.3153C30.2974 14.3153 30.4753 14.2814 30.6221 14.2136C30.7689 14.1402 30.8875 14.0471 30.9779 13.9341C31.0682 13.8212 31.1332 13.6969 31.1727 13.5614C31.2122 13.4202 31.232 13.2819 31.232 13.1464V12.8922H30.8254ZM33.0493 10.8085H33.8117V11.4268H33.8286C33.9246 11.2122 34.0912 11.04 34.3284 10.9101C34.5656 10.7746 34.8395 10.7068 35.15 10.7068C35.342 10.7068 35.5256 10.7379 35.7006 10.8C35.8813 10.8565 36.0366 10.9468 36.1665 11.0711C36.3021 11.1953 36.4093 11.3562 36.4884 11.5539C36.5675 11.7459 36.607 11.9746 36.607 12.24V14.8235H35.8446V12.4518C35.8446 12.2654 35.8192 12.1073 35.7684 11.9774C35.7176 11.8419 35.6498 11.7346 35.5651 11.6555C35.4804 11.5708 35.3816 11.5115 35.2686 11.4776C35.1613 11.4381 35.0484 11.4184 34.9298 11.4184C34.7717 11.4184 34.6249 11.4438 34.4893 11.4946C34.3538 11.5454 34.2352 11.6273 34.1336 11.7402C34.0319 11.8475 33.9529 11.9859 33.8964 12.1553C33.8399 12.3247 33.8117 12.5252 33.8117 12.7567V14.8235H33.0493V10.8085ZM41.7797 14.8235H41.0173V14.2475H41.0004C40.8536 14.4621 40.6503 14.6287 40.3905 14.7473C40.1364 14.8659 39.8738 14.9252 39.6028 14.9252C39.2922 14.9252 39.0098 14.8715 38.7557 14.7642C38.5072 14.6569 38.2926 14.5073 38.1119 14.3153C37.9369 14.1233 37.8013 13.9002 37.7053 13.6461C37.6093 13.392 37.5613 13.1153 37.5613 12.816C37.5613 12.5167 37.6093 12.24 37.7053 11.9859C37.8013 11.7261 37.9369 11.5031 38.1119 11.3167C38.2926 11.1247 38.5072 10.9751 38.7557 10.8678C39.0098 10.7605 39.2922 10.7068 39.6028 10.7068C39.8908 10.7068 40.1618 10.7689 40.4159 10.8932C40.6701 11.0118 40.8649 11.1755 41.0004 11.3845H41.0173V8.41977H41.7797V14.8235ZM39.6959 14.2136C39.8992 14.2136 40.0828 14.1798 40.2465 14.112C40.4103 14.0386 40.5486 13.9426 40.6616 13.824C40.7745 13.6998 40.862 13.5529 40.9242 13.3835C40.9863 13.2085 41.0173 13.0193 41.0173 12.816C41.0173 12.6127 40.9863 12.4264 40.9242 12.2569C40.862 12.0819 40.7745 11.9351 40.6616 11.8165C40.5486 11.6922 40.4103 11.5962 40.2465 11.5285C40.0828 11.4551 39.8992 11.4184 39.6959 11.4184C39.4926 11.4184 39.3091 11.4551 39.1453 11.5285C38.9816 11.5962 38.8432 11.6922 38.7303 11.8165C38.6173 11.9351 38.5298 12.0819 38.4677 12.2569C38.4056 12.4264 38.3745 12.6127 38.3745 12.816C38.3745 13.0193 38.4056 13.2085 38.4677 13.3835C38.5298 13.5529 38.6173 13.6998 38.7303 13.824C38.8432 13.9426 38.9816 14.0386 39.1453 14.112C39.3091 14.1798 39.4926 14.2136 39.6959 14.2136ZM43.5105 13.0955C43.5105 13.2706 43.5472 13.4315 43.6206 13.5784C43.6996 13.7195 43.8013 13.8409 43.9255 13.9426C44.0497 14.0442 44.1937 14.1233 44.3575 14.1798C44.5213 14.2362 44.6907 14.2645 44.8657 14.2645C45.1029 14.2645 45.309 14.2108 45.4841 14.1035C45.6592 13.9906 45.8201 13.8438 45.9669 13.6631L46.5429 14.1035C46.1194 14.6513 45.5264 14.9252 44.7641 14.9252C44.4479 14.9252 44.1599 14.8715 43.9001 14.7642C43.646 14.6569 43.4286 14.5101 43.2479 14.3238C43.0728 14.1318 42.9373 13.9087 42.8413 13.6546C42.7453 13.3948 42.6973 13.1153 42.6973 12.816C42.6973 12.5167 42.7481 12.24 42.8497 11.9859C42.957 11.7261 43.101 11.5031 43.2817 11.3167C43.4681 11.1247 43.6883 10.9751 43.9425 10.8678C44.1966 10.7605 44.4733 10.7068 44.7726 10.7068C45.1283 10.7068 45.4276 10.7689 45.6704 10.8932C45.9189 11.0174 46.1222 11.1812 46.2803 11.3845C46.4384 11.5821 46.5514 11.808 46.6192 12.0621C46.6926 12.3106 46.7293 12.5647 46.7293 12.8245V13.0955H43.5105ZM45.9161 12.4856C45.9104 12.3162 45.8822 12.1609 45.8314 12.0198C45.7862 11.8786 45.7156 11.7572 45.6196 11.6555C45.5236 11.5482 45.4022 11.4664 45.2554 11.4099C45.1142 11.3478 44.9476 11.3167 44.7556 11.3167C44.5693 11.3167 44.397 11.3534 44.2389 11.4268C44.0864 11.4946 43.9566 11.5849 43.8493 11.6979C43.742 11.8108 43.6573 11.9379 43.5952 12.0791C43.5387 12.2146 43.5105 12.3501 43.5105 12.4856H45.9161ZM49.372 8.82635H50.3122L52.0741 13.7054H52.091L53.9207 8.82635H54.8101L52.4468 14.8235H51.6844L49.372 8.82635ZM55.2447 10.8085H56.007V14.8235H55.2447V10.8085ZM55.0668 9.36847C55.0668 9.216 55.1205 9.08612 55.2277 8.97882C55.3407 8.86588 55.4734 8.80941 55.6259 8.80941C55.7783 8.80941 55.9082 8.86588 56.0155 8.97882C56.1285 9.08612 56.1849 9.216 56.1849 9.36847C56.1849 9.52094 56.1285 9.65365 56.0155 9.76659C55.9082 9.87388 55.7783 9.92753 55.6259 9.92753C55.4734 9.92753 55.3407 9.87388 55.2277 9.76659C55.1205 9.65365 55.0668 9.52094 55.0668 9.36847ZM59.3718 11.4692H58.2791V13.2904C58.2791 13.4033 58.282 13.5162 58.2876 13.6292C58.2932 13.7365 58.313 13.8353 58.3469 13.9256C58.3864 14.0104 58.4429 14.0809 58.5163 14.1374C58.5954 14.1882 58.7083 14.2136 58.8551 14.2136C58.9455 14.2136 59.0387 14.2052 59.1347 14.1882C59.2307 14.1713 59.3182 14.1402 59.3973 14.0951V14.7896C59.3069 14.8405 59.1883 14.8744 59.0415 14.8913C58.9003 14.9139 58.7902 14.9252 58.7111 14.9252C58.4175 14.9252 58.1888 14.8856 58.025 14.8066C57.8669 14.7219 57.7483 14.6146 57.6692 14.4847C57.5958 14.3548 57.5507 14.2108 57.5337 14.0527C57.5224 13.8889 57.5168 13.7252 57.5168 13.5614V11.4692H56.6358V10.8085H57.5168V9.68188H58.2791V10.8085H59.3718V11.4692ZM60.9314 13.0955C60.9314 13.2706 60.9681 13.4315 61.0415 13.5784C61.1206 13.7195 61.2222 13.8409 61.3465 13.9426C61.4707 14.0442 61.6147 14.1233 61.7785 14.1798C61.9422 14.2362 62.1117 14.2645 62.2867 14.2645C62.5239 14.2645 62.73 14.2108 62.9051 14.1035C63.0801 13.9906 63.2411 13.8438 63.3879 13.6631L63.9639 14.1035C63.5404 14.6513 62.9474 14.9252 62.1851 14.9252C61.8688 14.9252 61.5808 14.8715 61.3211 14.7642C61.0669 14.6569 60.8495 14.5101 60.6688 14.3238C60.4938 14.1318 60.3582 13.9087 60.2622 13.6546C60.1662 13.3948 60.1182 13.1153 60.1182 12.816C60.1182 12.5167 60.1691 12.24 60.2707 11.9859C60.378 11.7261 60.522 11.5031 60.7027 11.3167C60.8891 11.1247 61.1093 10.9751 61.3634 10.8678C61.6175 10.7605 61.8942 10.7068 62.1935 10.7068C62.5493 10.7068 62.8486 10.7689 63.0914 10.8932C63.3399 11.0174 63.5432 11.1812 63.7013 11.3845C63.8594 11.5821 63.9724 11.808 64.0401 12.0621C64.1135 12.3106 64.1502 12.5647 64.1502 12.8245V13.0955H60.9314ZM63.3371 12.4856C63.3314 12.3162 63.3032 12.1609 63.2524 12.0198C63.2072 11.8786 63.1366 11.7572 63.0406 11.6555C62.9446 11.5482 62.8232 11.4664 62.6764 11.4099C62.5352 11.3478 62.3686 11.3167 62.1766 11.3167C61.9902 11.3167 61.818 11.3534 61.6599 11.4268C61.5074 11.4946 61.3775 11.5849 61.2702 11.6979C61.1629 11.8108 61.0782 11.9379 61.0161 12.0791C60.9596 12.2146 60.9314 12.3501 60.9314 12.4856H63.3371ZM67.1968 11.8165C67.1065 11.7035 66.9935 11.6104 66.858 11.5369C66.7281 11.4579 66.5672 11.4184 66.3752 11.4184C66.1945 11.4184 66.0364 11.4579 65.9008 11.5369C65.7709 11.6104 65.706 11.7205 65.706 11.8673C65.706 11.9859 65.7427 12.0819 65.8161 12.1553C65.8952 12.2287 65.9855 12.288 66.0872 12.3332C66.1945 12.3784 66.3074 12.4122 66.426 12.4348C66.5446 12.4574 66.6462 12.4772 66.7309 12.4941C66.8947 12.5336 67.0472 12.5816 67.1884 12.6381C67.3352 12.6946 67.4594 12.768 67.5611 12.8584C67.6684 12.9487 67.7502 13.0588 67.8067 13.1887C67.8688 13.3186 67.8999 13.4767 67.8999 13.6631C67.8999 13.8889 67.8519 14.0838 67.7559 14.2475C67.6599 14.4056 67.5357 14.5355 67.3832 14.6372C67.2307 14.7388 67.0557 14.8122 66.858 14.8574C66.666 14.9026 66.4712 14.9252 66.2735 14.9252C65.9404 14.9252 65.6467 14.8744 65.3926 14.7727C65.1441 14.6711 64.9211 14.4847 64.7234 14.2136L65.2994 13.7393C65.4236 13.8635 65.562 13.9736 65.7145 14.0696C65.8669 14.1656 66.0533 14.2136 66.2735 14.2136C66.3695 14.2136 66.4655 14.2052 66.5615 14.1882C66.6632 14.1656 66.7507 14.1346 66.8241 14.0951C66.9032 14.0499 66.9653 13.9962 67.0105 13.9341C67.0613 13.8664 67.0867 13.7901 67.0867 13.7054C67.0867 13.5925 67.05 13.4993 66.9766 13.4259C66.9088 13.3525 66.8241 13.296 66.7225 13.2565C66.6265 13.2113 66.522 13.1774 66.4091 13.1548C66.3018 13.1266 66.2058 13.104 66.1211 13.0871C65.9573 13.0475 65.802 13.0024 65.6552 12.9515C65.5084 12.9007 65.3785 12.8329 65.2655 12.7482C65.1526 12.6635 65.0622 12.5562 64.9945 12.4264C64.9267 12.2965 64.8928 12.1355 64.8928 11.9435C64.8928 11.7346 64.9352 11.5539 65.0199 11.4014C65.1102 11.2433 65.226 11.1134 65.3672 11.0118C65.514 10.9101 65.6778 10.8339 65.8585 10.7831C66.0448 10.7322 66.2312 10.7068 66.4175 10.7068C66.6886 10.7068 66.9484 10.7576 67.1968 10.8593C67.4453 10.9609 67.6429 11.1304 67.7898 11.3675L67.1968 11.8165ZM70.9609 11.8165C70.8706 11.7035 70.7576 11.6104 70.6221 11.5369C70.4919 11.4579 70.3309 11.4184 70.1389 11.4184C69.9582 11.4184 69.8001 11.4579 69.6646 11.5369C69.5347 11.6104 69.4698 11.7205 69.4698 11.8673C69.4698 11.9859 69.5065 12.0819 69.5799 12.1553C69.6589 12.2287 69.7493 12.288 69.8509 12.3332C69.9582 12.3784 70.0712 12.4122 70.1898 12.4348C70.3084 12.4574 70.41 12.4772 70.4947 12.4941C70.6588 12.5336 70.8113 12.5816 70.9525 12.6381C71.0993 12.6946 71.2235 12.768 71.3252 12.8584C71.4325 12.9487 71.5144 13.0588 71.5708 13.1887C71.6329 13.3186 71.664 13.4767 71.664 13.6631C71.664 13.8889 71.616 14.0838 71.52 14.2475C71.424 14.4056 71.2998 14.5355 71.1473 14.6372C70.9948 14.7388 70.8198 14.8122 70.6221 14.8574C70.4298 14.9026 70.2349 14.9252 70.0373 14.9252C69.7041 14.9252 69.4105 14.8744 69.1564 14.7727C68.9079 14.6711 68.6848 14.4847 68.4872 14.2136L69.0632 13.7393C69.1874 13.8635 69.3258 13.9736 69.4782 14.0696C69.6307 14.1656 69.8171 14.2136 70.0373 14.2136C70.1333 14.2136 70.2293 14.2052 70.3253 14.1882C70.4269 14.1656 70.5145 14.1346 70.5879 14.0951C70.6673 14.0499 70.7294 13.9962 70.7746 13.9341C70.8254 13.8664 70.8508 13.7901 70.8508 13.7054C70.8508 13.5925 70.8141 13.4993 70.74 13.4259C70.6729 13.3525 70.5879 13.296 70.4862 13.2565C70.3902 13.2113 70.2858 13.1774 70.1728 13.1548C70.0655 13.1266 69.9695 13.104 69.8848 13.0871C69.7211 13.0475 69.5658 13.0024 69.4189 12.9515C69.2721 12.9007 69.1422 12.8329 69.0293 12.7482C68.9164 12.6635 68.826 12.5562 68.7582 12.4264C68.6905 12.2965 68.6566 12.1355 68.6566 11.9435C68.6566 11.7346 68.6989 11.5539 68.7837 11.4014C68.874 11.2433 68.9898 11.1134 69.1309 11.0118C69.2778 10.9101 69.4415 10.8339 69.6222 10.7831C69.8086 10.7322 69.9949 10.7068 70.1813 10.7068C70.4524 10.7068 70.7125 10.7576 70.9609 10.8593C71.2094 10.9609 71.4071 11.1304 71.5539 11.3675L70.9609 11.8165ZM73.1661 13.0955C73.1661 13.2706 73.2028 13.4315 73.2762 13.5784C73.3553 13.7195 73.4569 13.8409 73.5812 13.9426C73.7054 14.0442 73.8494 14.1233 74.0132 14.1798C74.1769 14.2362 74.3464 14.2645 74.5214 14.2645C74.7586 14.2645 74.9647 14.2108 75.1398 14.1035C75.3148 13.9906 75.4758 13.8438 75.6226 13.6631L76.1986 14.1035C75.7751 14.6513 75.1821 14.9252 74.4198 14.9252C74.1035 14.9252 73.8155 14.8715 73.5558 14.7642C73.3016 14.6569 73.0842 14.5101 72.9035 14.3238C72.7285 14.1318 72.5929 13.9087 72.4969 13.6546C72.4009 13.3948 72.3529 13.1153 72.3529 12.816C72.3529 12.5167 72.4038 12.24 72.5054 11.9859C72.6127 11.7261 72.7567 11.5031 72.9374 11.3167C73.1238 11.1247 73.344 10.9751 73.5981 10.8678C73.8522 10.7605 74.1289 10.7068 74.4282 10.7068C74.784 10.7068 75.0833 10.7689 75.3261 10.8932C75.5746 11.0174 75.7779 11.1812 75.936 11.3845C76.0941 11.5821 76.2071 11.808 76.2748 12.0621C76.3482 12.3106 76.3849 12.5647 76.3849 12.8245V13.0955H73.1661ZM75.5718 12.4856C75.5661 12.3162 75.5379 12.1609 75.4871 12.0198C75.4419 11.8786 75.3713 11.7572 75.2753 11.6555C75.1793 11.5482 75.0579 11.4664 74.9111 11.4099C74.7699 11.3478 74.6033 11.3167 74.4113 11.3167C74.2249 11.3167 74.0527 11.3534 73.8946 11.4268C73.7421 11.4946 73.6122 11.5849 73.505 11.6979C73.3977 11.8108 73.3129 11.9379 73.2508 12.0791C73.1944 12.2146 73.1661 12.3501 73.1661 12.4856H75.5718Z" fill="#000000ff"/>
</svg>
