<?xml version="1.0" ?>
<svg xmlns="http://www.w3.org/2000/svg" width="78.0" height="24.0" viewBox="0 0 78.0 24.0">
  <path d="M8.47058 19.0588C12.369 19.0588 15.5294 15.8984 15.5294 12C15.5294 8.10155 12.369 4.94118 8.47058 4.94118C4.5721 4.94118 1.41176 8.10155 1.41176 12C1.41176 15.8984 4.5721 19.0588 8.47058 19.0588ZM2.04057 12.116V12.1081C2.04057 11.3238 2.66673 10.6813 3.5284 10.6813C4.39007 10.6813 5.00859 11.3158 5.00859 12.1004V12.1081C5.00859 12.8924 4.3821 13.5348 3.52043 13.5348C2.65875 13.5348 2.04057 12.9 2.04057 12.116ZM4.36583 12.116V12.1081C4.36583 11.6351 4.01471 11.2411 3.52009 11.2411C3.02548 11.2411 2.68233 11.6274 2.68233 12.1004V12.1081C2.68233 12.5811 3.03345 12.9754 3.52806 12.9754C4.02268 12.9754 4.36583 12.5887 4.36583 12.116ZM5.25575 11.0097C5.25575 10.9283 5.28813 10.85 5.34575 10.7924C5.40337 10.7348 5.48153 10.7024 5.56302 10.7024C5.64451 10.7024 5.72267 10.7348 5.78029 10.7924C5.83792 10.85 5.87029 10.9283 5.87029 11.0097V12.2906C5.87029 12.74 6.0975 12.9726 6.47253 12.9726C6.84756 12.9726 7.07477 12.7477 7.07477 12.3102V11.0087C7.07477 10.9272 7.10717 10.8491 7.16477 10.7915C7.22237 10.7339 7.30051 10.7015 7.38204 10.7015C7.4635 10.7015 7.54171 10.7339 7.59931 10.7915C7.65691 10.8491 7.68931 10.9272 7.68931 11.0087V12.2856C7.68931 13.1214 7.2146 13.5313 6.46456 13.5313C5.71449 13.5313 5.25575 13.1174 5.25575 12.3052V11.0097ZM8.08856 11.0084C8.09117 10.9287 8.1247 10.8532 8.18202 10.7977C8.23933 10.7423 8.31592 10.7112 8.39569 10.7112C8.47538 10.7112 8.55204 10.7423 8.60936 10.7977C8.66668 10.8532 8.70013 10.9287 8.70275 11.0084V13.2078C8.70013 13.2875 8.66668 13.363 8.60936 13.4185C8.55204 13.4739 8.47538 13.5049 8.39569 13.5049C8.31592 13.5049 8.23933 13.4739 8.18202 13.4185C8.1247 13.363 8.09117 13.2875 8.08856 13.2078V11.0084ZM9.02166 12.1081C9.02166 11.3238 9.63988 10.6813 10.4856 10.6813C10.9085 10.6813 11.1878 10.776 11.4393 10.9494C11.472 10.9728 11.4997 11.0026 11.5207 11.0368C11.5417 11.0711 11.5557 11.1092 11.5617 11.149C11.5678 11.1887 11.5658 11.2293 11.556 11.2683C11.5461 11.3072 11.5285 11.3439 11.5043 11.376C11.48 11.408 11.4496 11.435 11.4148 11.4551C11.38 11.4752 11.3415 11.4882 11.3017 11.4933C11.2618 11.4983 11.2213 11.4954 11.1826 11.4845C11.1438 11.4736 11.1077 11.4551 11.0762 11.4301C10.8993 11.3011 10.6845 11.2346 10.4657 11.2411C10.0189 11.2411 9.66381 11.6314 9.66381 12.1004V12.1081C9.66381 12.6126 10.0149 12.983 10.5095 12.983C10.7331 12.983 10.9324 12.9279 11.0882 12.8169V12.423H10.6733C10.6386 12.4236 10.6041 12.4174 10.5719 12.4047C10.5396 12.3919 10.5102 12.3729 10.4853 12.3487C10.4605 12.3245 10.4406 12.2956 10.427 12.2637C10.4134 12.2319 10.4062 12.1976 10.4059 12.1628C10.4061 12.128 10.4132 12.0935 10.4267 12.0613C10.4403 12.0292 10.46 12 10.4849 11.9754C10.5097 11.9509 10.5392 11.9315 10.5715 11.9184C10.6038 11.9052 10.6384 11.8986 10.6733 11.8988H11.3752C11.4154 11.8982 11.4553 11.9056 11.4926 11.9207C11.5299 11.9357 11.5638 11.9579 11.5924 11.9862C11.621 12.0145 11.6437 12.0481 11.6592 12.0853C11.6747 12.1224 11.6826 12.1622 11.6825 12.2024V12.8724C11.6825 13.0498 11.616 13.1713 11.4672 13.2587C11.1729 13.4388 10.8346 13.5342 10.4896 13.5344C9.61997 13.5344 9.02166 12.9316 9.02166 12.116V12.1081ZM11.894 12.116V12.1081C11.894 11.3238 12.5202 10.6813 13.3818 10.6813C14.2435 10.6813 14.8621 11.3158 14.8621 12.1004V12.1081C14.8621 12.8924 14.2355 13.5348 13.3739 13.5348C12.5122 13.5348 11.894 12.9 11.894 12.116ZM14.2193 12.116V12.1081C14.2193 11.6351 13.8682 11.2411 13.3736 11.2411C12.8789 11.2411 12.5358 11.6274 12.5358 12.1004V12.1081C12.5358 12.5811 12.8869 12.9754 13.3815 12.9754C13.8762 12.9754 14.2193 12.5887 14.2193 12.116ZM8.76628 9.97214C8.76628 10.1771 8.60011 10.3432 8.39519 10.3432C8.19028 10.3432 8.02418 10.1771 8.02418 9.97214C8.02418 9.76722 8.19028 9.60113 8.39519 9.60113C8.60011 9.60113 8.76628 9.76722 8.76628 9.97214Z" fill="#000000ff"/>
  <path d="M20.3774 9.58871H18.4461V8.82635H23.1219V9.58871H21.1906V14.8235H20.3774V9.58871ZM23.0154 10.8085H23.7777V11.4268H23.7947C23.8455 11.3195 23.9133 11.2235 23.998 11.1388C24.0827 11.0485 24.1758 10.9722 24.2775 10.9101C24.3848 10.848 24.5005 10.8 24.6248 10.7661C24.749 10.7266 24.8733 10.7068 24.9975 10.7068C25.1217 10.7068 25.2347 10.7238 25.3363 10.7576L25.3024 11.5793C25.2403 11.5624 25.1782 11.5482 25.1161 11.5369C25.054 11.5256 24.9918 11.52 24.9297 11.52C24.557 11.52 24.2718 11.6245 24.0742 11.8334C23.8765 12.0424 23.7777 12.3671 23.7777 12.8075V14.8235H23.0154V10.8085ZM26.1674 11.2998C26.382 11.1021 26.6305 10.9553 26.9128 10.8593C27.1952 10.7576 27.4775 10.7068 27.7599 10.7068C28.0535 10.7068 28.3048 10.7435 28.5138 10.8169C28.7284 10.8904 28.9034 10.9892 29.0389 11.1134C29.1745 11.2376 29.2733 11.3816 29.3354 11.5454C29.4032 11.7035 29.4371 11.8701 29.4371 12.0452V14.0951C29.4371 14.2362 29.4399 14.3661 29.4455 14.4847C29.4512 14.6033 29.4597 14.7162 29.4709 14.8235H28.7933C28.7764 14.6202 28.7679 14.4169 28.7679 14.2136H28.7509C28.5815 14.4734 28.3811 14.6569 28.1495 14.7642C27.918 14.8715 27.6498 14.9252 27.3448 14.9252C27.1585 14.9252 26.9806 14.8998 26.8112 14.8489C26.6418 14.7981 26.4921 14.7219 26.3622 14.6202C26.238 14.5186 26.1392 14.3944 26.0658 14.2475C25.9924 14.0951 25.9557 13.92 25.9557 13.7224C25.9557 13.4626 26.0121 13.2452 26.1251 13.0701C26.2437 12.8951 26.4018 12.7539 26.5994 12.6466C26.8027 12.5336 27.0371 12.4546 27.3025 12.4094C27.5735 12.3586 27.8615 12.3332 28.1665 12.3332H28.7255V12.1638C28.7255 12.0621 28.7058 11.9605 28.6662 11.8588C28.6267 11.7572 28.5674 11.6668 28.4884 11.5878C28.4093 11.5031 28.3105 11.4381 28.1919 11.3929C28.0733 11.3421 27.9321 11.3167 27.7684 11.3167C27.6215 11.3167 27.4917 11.3308 27.3787 11.3591C27.2714 11.3873 27.1726 11.424 27.0822 11.4692C26.9919 11.5087 26.91 11.5567 26.8366 11.6132C26.7632 11.6696 26.6926 11.7233 26.6248 11.7741L26.1674 11.2998ZM28.3189 12.8922C28.1382 12.8922 27.9519 12.9035 27.7599 12.9261C27.5735 12.9431 27.4013 12.9798 27.2432 13.0362C27.0907 13.0927 26.9637 13.1718 26.862 13.2734C26.766 13.3751 26.718 13.5049 26.718 13.6631C26.718 13.8946 26.7942 14.0612 26.9467 14.1628C27.1048 14.2645 27.3166 14.3153 27.582 14.3153C27.7909 14.3153 27.9688 14.2814 28.1157 14.2136C28.2625 14.1402 28.3811 14.0471 28.4714 13.9341C28.5618 13.8212 28.6267 13.6969 28.6662 13.5614C28.7058 13.4202 28.7255 13.2819 28.7255 13.1464V12.8922H28.3189ZM30.6022 10.8085H31.3645V14.8235H30.6022V10.8085ZM30.4243 9.36847C30.4243 9.216 30.478 9.08612 30.5853 8.97882C30.6982 8.86588 30.8309 8.80941 30.9834 8.80941C31.1358 8.80941 31.2657 8.86588 31.373 8.97882C31.486 9.08612 31.5424 9.216 31.5424 9.36847C31.5424 9.52094 31.486 9.65365 31.373 9.76659C31.2657 9.87388 31.1358 9.92753 30.9834 9.92753C30.8309 9.92753 30.6982 9.87388 30.5853 9.76659C30.478 9.65365 30.4243 9.52094 30.4243 9.36847ZM32.5778 10.8085H33.3402V11.4268H33.3571C33.4531 11.2122 33.6197 11.04 33.8569 10.9101C34.0941 10.7746 34.3679 10.7068 34.6785 10.7068C34.8705 10.7068 35.0541 10.7379 35.2291 10.8C35.4098 10.8565 35.5651 10.9468 35.695 11.0711C35.8305 11.1953 35.9378 11.3562 36.0169 11.5539C36.0959 11.7459 36.1355 11.9746 36.1355 12.24V14.8235H35.3731V12.4518C35.3731 12.2654 35.3477 12.1073 35.2969 11.9774C35.2461 11.8419 35.1783 11.7346 35.0936 11.6555C35.0089 11.5708 34.91 11.5115 34.7971 11.4776C34.6898 11.4381 34.5769 11.4184 34.4583 11.4184C34.3002 11.4184 34.1533 11.4438 34.0178 11.4946C33.8823 11.5454 33.7637 11.6273 33.6621 11.7402C33.5604 11.8475 33.4813 11.9859 33.4249 12.1553C33.3684 12.3247 33.3402 12.5252 33.3402 12.7567V14.8235H32.5778V10.8085ZM44.013 10.1224C43.8436 9.90212 43.629 9.73271 43.3693 9.61412C43.1095 9.49553 42.8413 9.43624 42.5646 9.43624C42.2257 9.43624 41.918 9.50118 41.6413 9.63106C41.3702 9.75529 41.1359 9.92753 40.9382 10.1478C40.7462 10.368 40.5966 10.6278 40.4893 10.9271C40.382 11.2207 40.3283 11.5369 40.3283 11.8758C40.3283 12.192 40.3792 12.4913 40.4808 12.7736C40.5825 13.056 40.7293 13.3045 40.9213 13.5191C41.1133 13.7336 41.3476 13.9031 41.6243 14.0273C41.901 14.1515 42.2145 14.2136 42.5646 14.2136C42.909 14.2136 43.2112 14.1431 43.4709 14.0019C43.7307 13.8607 43.9509 13.6631 44.1316 13.4089L44.8177 13.9256C44.7726 13.9878 44.6935 14.0781 44.5806 14.1967C44.4676 14.3096 44.318 14.4254 44.1316 14.544C43.9453 14.6569 43.7194 14.7558 43.454 14.8405C43.1942 14.9308 42.8921 14.976 42.5476 14.976C42.0733 14.976 41.6441 14.8856 41.2601 14.7049C40.8817 14.5242 40.557 14.2871 40.286 13.9934C40.0206 13.6998 39.8173 13.3694 39.6761 13.0024C39.5349 12.6296 39.4643 12.2541 39.4643 11.8758C39.4643 11.4127 39.5406 10.9864 39.693 10.5967C39.8455 10.2014 40.0573 9.86259 40.3283 9.58024C40.605 9.29224 40.9354 9.06918 41.3194 8.91106C41.7034 8.75294 42.1269 8.67388 42.59 8.67388C42.9853 8.67388 43.3721 8.75012 43.7505 8.90259C44.1345 9.05506 44.4479 9.28941 44.6907 9.60565L44.013 10.1224ZM45.6657 8.41977H46.428V14.8235H45.6657V8.41977ZM47.6582 11.2998C47.8728 11.1021 48.1213 10.9553 48.4036 10.8593C48.686 10.7576 48.9683 10.7068 49.2507 10.7068C49.5443 10.7068 49.7956 10.7435 50.0046 10.8169C50.2192 10.8904 50.3942 10.9892 50.5297 11.1134C50.6653 11.2376 50.7641 11.3816 50.8262 11.5454C50.894 11.7035 50.9279 11.8701 50.9279 12.0452V14.0951C50.9279 14.2362 50.9307 14.3661 50.9363 14.4847C50.942 14.6033 50.9505 14.7162 50.9617 14.8235H50.2841C50.2672 14.6202 50.2587 14.4169 50.2587 14.2136H50.2417C50.0723 14.4734 49.8719 14.6569 49.6403 14.7642C49.4088 14.8715 49.1406 14.9252 48.8356 14.9252C48.6493 14.9252 48.4714 14.8998 48.302 14.8489C48.1326 14.7981 47.9829 14.7219 47.853 14.6202C47.7288 14.5186 47.63 14.3944 47.5566 14.2475C47.4832 14.0951 47.4464 13.92 47.4464 13.7224C47.4464 13.4626 47.5029 13.2452 47.6159 13.0701C47.7345 12.8951 47.8926 12.7539 48.0902 12.6466C48.2935 12.5336 48.5279 12.4546 48.7933 12.4094C49.0643 12.3586 49.3523 12.3332 49.6573 12.3332H50.2163V12.1638C50.2163 12.0621 50.1966 11.9605 50.157 11.8588C50.1175 11.7572 50.0582 11.6668 49.9792 11.5878C49.9001 11.5031 49.8013 11.4381 49.6827 11.3929C49.5641 11.3421 49.4229 11.3167 49.2592 11.3167C49.1123 11.3167 48.9824 11.3308 48.8695 11.3591C48.7622 11.3873 48.6634 11.424 48.573 11.4692C48.4827 11.5087 48.4008 11.5567 48.3274 11.6132C48.254 11.6696 48.1834 11.7233 48.1156 11.7741L47.6582 11.2998ZM49.8097 12.8922C49.629 12.8922 49.4427 12.9035 49.2507 12.9261C49.0643 12.9431 48.8921 12.9798 48.734 13.0362C48.5815 13.0927 48.4545 13.1718 48.3528 13.2734C48.2568 13.3751 48.2088 13.5049 48.2088 13.6631C48.2088 13.8946 48.285 14.0612 48.4375 14.1628C48.5956 14.2645 48.8074 14.3153 49.0728 14.3153C49.2817 14.3153 49.4596 14.2814 49.6065 14.2136C49.7533 14.1402 49.8719 14.0471 49.9622 13.9341C50.0526 13.8212 50.1175 13.6969 50.157 13.5614C50.1966 13.4202 50.2163 13.2819 50.2163 13.1464V12.8922H49.8097ZM54.1683 11.8165C54.0779 11.7035 53.965 11.6104 53.8295 11.5369C53.6996 11.4579 53.5386 11.4184 53.3466 11.4184C53.1659 11.4184 53.0078 11.4579 52.8723 11.5369C52.7424 11.6104 52.6775 11.7205 52.6775 11.8673C52.6775 11.9859 52.7142 12.0819 52.7876 12.1553C52.8666 12.2287 52.957 12.288 53.0586 12.3332C53.1659 12.3784 53.2789 12.4122 53.3975 12.4348C53.5161 12.4574 53.6177 12.4772 53.7024 12.4941C53.8662 12.5336 54.0186 12.5816 54.1598 12.6381C54.3066 12.6946 54.4309 12.768 54.5325 12.8584C54.6398 12.9487 54.7217 13.0588 54.7782 13.1887C54.8403 13.3186 54.8713 13.4767 54.8713 13.6631C54.8713 13.8889 54.8233 14.0838 54.7273 14.2475C54.6313 14.4056 54.5071 14.5355 54.3546 14.6372C54.2022 14.7388 54.0271 14.8122 53.8295 14.8574C53.6375 14.9026 53.4426 14.9252 53.245 14.9252C52.9118 14.9252 52.6182 14.8744 52.3641 14.7727C52.1156 14.6711 51.8925 14.4847 51.6949 14.2136L52.2709 13.7393C52.3951 13.8635 52.5335 13.9736 52.6859 14.0696C52.8384 14.1656 53.0248 14.2136 53.245 14.2136C53.341 14.2136 53.437 14.2052 53.533 14.1882C53.6346 14.1656 53.7222 14.1346 53.7956 14.0951C53.8746 14.0499 53.9368 13.9962 53.9819 13.9341C54.0328 13.8664 54.0582 13.7901 54.0582 13.7054C54.0582 13.5925 54.0215 13.4993 53.9481 13.4259C53.8803 13.3525 53.7956 13.296 53.6939 13.2565C53.5979 13.2113 53.4935 13.1774 53.3805 13.1548C53.2732 13.1266 53.1772 13.104 53.0925 13.0871C52.9288 13.0475 52.7735 13.0024 52.6266 12.9515C52.4798 12.9007 52.3499 12.8329 52.237 12.7482C52.1241 12.6635 52.0337 12.5562 51.9659 12.4264C51.8982 12.2965 51.8643 12.1355 51.8643 11.9435C51.8643 11.7346 51.9066 11.5539 51.9913 11.4014C52.0817 11.2433 52.1975 11.1134 52.3386 11.0118C52.4855 10.9101 52.6492 10.8339 52.8299 10.7831C53.0163 10.7322 53.2026 10.7068 53.389 10.7068C53.6601 10.7068 53.9198 10.7576 54.1683 10.8593C54.4168 10.9609 54.6144 11.1304 54.7612 11.3675L54.1683 11.8165ZM57.9321 11.8165C57.8418 11.7035 57.7288 11.6104 57.5933 11.5369C57.4634 11.4579 57.3025 11.4184 57.1105 11.4184C56.9298 11.4184 56.7716 11.4579 56.6361 11.5369C56.5062 11.6104 56.4413 11.7205 56.4413 11.8673C56.4413 11.9859 56.478 12.0819 56.5514 12.1553C56.6305 12.2287 56.7208 12.288 56.8225 12.3332C56.9298 12.3784 57.0427 12.4122 57.1613 12.4348C57.2799 12.4574 57.3815 12.4772 57.4662 12.4941C57.63 12.5336 57.7825 12.5816 57.9237 12.6381C58.0705 12.6946 58.1947 12.768 58.2964 12.8584C58.4037 12.9487 58.4855 13.0588 58.542 13.1887C58.6041 13.3186 58.6352 13.4767 58.6352 13.6631C58.6352 13.8889 58.5872 14.0838 58.4912 14.2475C58.3952 14.4056 58.2709 14.5355 58.1185 14.6372C57.966 14.7388 57.7909 14.8122 57.5933 14.8574C57.4013 14.9026 57.2065 14.9252 57.0088 14.9252C56.6756 14.9252 56.382 14.8744 56.1279 14.7727C55.8794 14.6711 55.6564 14.4847 55.4587 14.2136L56.0347 13.7393C56.1589 13.8635 56.2973 13.9736 56.4498 14.0696C56.6022 14.1656 56.7886 14.2136 57.0088 14.2136C57.1048 14.2136 57.2008 14.2052 57.2968 14.1882C57.3985 14.1656 57.486 14.1346 57.5594 14.0951C57.6385 14.0499 57.7006 13.9962 57.7458 13.9341C57.7966 13.8664 57.822 13.7901 57.822 13.7054C57.822 13.5925 57.7853 13.4993 57.7119 13.4259C57.6441 13.3525 57.5594 13.296 57.4578 13.2565C57.3618 13.2113 57.2573 13.1774 57.1444 13.1548C57.0371 13.1266 56.9411 13.104 56.8564 13.0871C56.6926 13.0475 56.5373 13.0024 56.3905 12.9515C56.2436 12.9007 56.1138 12.8329 56.0008 12.7482C55.8879 12.6635 55.7975 12.5562 55.7298 12.4264C55.662 12.2965 55.6281 12.1355 55.6281 11.9435C55.6281 11.7346 55.6705 11.5539 55.7552 11.4014C55.8455 11.2433 55.9613 11.1134 56.1025 11.0118C56.2493 10.9101 56.4131 10.8339 56.5938 10.7831C56.7801 10.7322 56.9665 10.7068 57.1528 10.7068C57.4239 10.7068 57.6837 10.7576 57.9321 10.8593C58.1806 10.9609 58.3782 11.1304 58.5251 11.3675L57.9321 11.8165ZM59.6206 10.8085H60.3829V14.8235H59.6206V10.8085ZM59.4427 9.36847C59.4427 9.216 59.4964 9.08612 59.6037 8.97882C59.7166 8.86588 59.8493 8.80941 60.0018 8.80941C60.1542 8.80941 60.2841 8.86588 60.3914 8.97882C60.5044 9.08612 60.5608 9.216 60.5608 9.36847C60.5608 9.52094 60.5044 9.65365 60.3914 9.76659C60.2841 9.87388 60.1542 9.92753 60.0018 9.92753C59.8493 9.92753 59.7166 9.87388 59.6037 9.76659C59.4964 9.65365 59.4427 9.52094 59.4427 9.36847ZM65.6197 16.7548H64.8574V14.2475H64.8404C64.7049 14.4565 64.5101 14.6231 64.256 14.7473C64.0019 14.8659 63.7308 14.9252 63.4428 14.9252C63.1322 14.9252 62.8499 14.8715 62.5957 14.7642C62.3473 14.6569 62.1327 14.5101 61.952 14.3238C61.7769 14.1318 61.6414 13.9087 61.5454 13.6546C61.4494 13.3948 61.4014 13.1153 61.4014 12.816C61.4014 12.5224 61.4494 12.2485 61.5454 11.9944C61.6414 11.7346 61.7769 11.5087 61.952 11.3167C62.1327 11.1247 62.3473 10.9751 62.5957 10.8678C62.8499 10.7605 63.1322 10.7068 63.4428 10.7068C63.7139 10.7068 63.9765 10.7661 64.2306 10.8847C64.4903 11.0033 64.6936 11.1699 64.8404 11.3845H64.8574V10.8085H65.6197V16.7548ZM63.536 11.4184C63.3327 11.4184 63.1492 11.4551 62.9854 11.5285C62.8216 11.5962 62.6833 11.6922 62.5703 11.8165C62.4574 11.9351 62.3699 12.0819 62.3077 12.2569C62.2456 12.4264 62.2146 12.6127 62.2146 12.816C62.2146 13.0193 62.2456 13.2085 62.3077 13.3835C62.3699 13.5529 62.4574 13.6998 62.5703 13.824C62.6833 13.9426 62.8216 14.0386 62.9854 14.112C63.1492 14.1798 63.3327 14.2136 63.536 14.2136C63.7393 14.2136 63.9228 14.1798 64.0866 14.112C64.2503 14.0386 64.3887 13.9426 64.5016 13.824C64.6146 13.6998 64.7021 13.5529 64.7642 13.3835C64.8263 13.2085 64.8574 13.0193 64.8574 12.816C64.8574 12.6127 64.8263 12.4264 64.7642 12.2569C64.7021 12.0819 64.6146 11.9351 64.5016 11.8165C64.3887 11.6922 64.2503 11.5962 64.0866 11.5285C63.9228 11.4551 63.7393 11.4184 63.536 11.4184ZM70.3322 14.8235H69.5699V14.2052H69.5529C69.4569 14.4198 69.2903 14.5948 69.0532 14.7304C68.816 14.8602 68.5421 14.9252 68.2315 14.9252C68.0339 14.9252 67.8475 14.8941 67.6725 14.832C67.4974 14.7755 67.3421 14.6852 67.2066 14.5609C67.0767 14.4367 66.9722 14.2786 66.8932 14.0866C66.8141 13.8889 66.7746 13.6574 66.7746 13.392V10.8085H67.5369V13.1802C67.5369 13.3666 67.5623 13.5275 67.6132 13.6631C67.664 13.7929 67.7317 13.9002 67.8165 13.9849C67.9012 14.064 67.9972 14.1233 68.1045 14.1628C68.2174 14.1967 68.3332 14.2136 68.4517 14.2136C68.6099 14.2136 68.7567 14.1882 68.8922 14.1374C69.0277 14.0866 69.1463 14.0075 69.248 13.9002C69.3496 13.7873 69.4287 13.6461 69.4852 13.4767C69.5416 13.3073 69.5699 13.1068 69.5699 12.8753V10.8085H70.3322V14.8235ZM72.0572 13.0955C72.0572 13.2706 72.0939 13.4315 72.1673 13.5784C72.2464 13.7195 72.348 13.8409 72.4722 13.9426C72.5965 14.0442 72.7405 14.1233 72.9042 14.1798C73.068 14.2362 73.2374 14.2645 73.4125 14.2645C73.6497 14.2645 73.8558 14.2108 74.0308 14.1035C74.2059 13.9906 74.3668 13.8438 74.5137 13.6631L75.0896 14.1035C74.6661 14.6513 74.0732 14.9252 73.3108 14.9252C72.9946 14.9252 72.7066 14.8715 72.4468 14.7642C72.1927 14.6569 71.9753 14.5101 71.7946 14.3238C71.6195 14.1318 71.484 13.9087 71.388 13.6546C71.292 13.3948 71.244 13.1153 71.244 12.816C71.244 12.5167 71.2948 12.24 71.3965 11.9859C71.5038 11.7261 71.6478 11.5031 71.8285 11.3167C72.0148 11.1247 72.2351 10.9751 72.4892 10.8678C72.7433 10.7605 73.02 10.7068 73.3193 10.7068C73.6751 10.7068 73.9744 10.7689 74.2172 10.8932C74.4657 11.0174 74.6689 11.1812 74.8271 11.3845C74.9852 11.5821 75.0981 11.808 75.1659 12.0621C75.2393 12.3106 75.276 12.5647 75.276 12.8245V13.0955H72.0572ZM74.4628 12.4856C74.4572 12.3162 74.4289 12.1609 74.3781 12.0198C74.3329 11.8786 74.2624 11.7572 74.1664 11.6555C74.0704 11.5482 73.9489 11.4664 73.8021 11.4099C73.6609 11.3478 73.4944 11.3167 73.3024 11.3167C73.116 11.3167 72.9438 11.3534 72.7857 11.4268C72.6332 11.4946 72.5033 11.5849 72.396 11.6979C72.2887 11.8108 72.204 11.9379 72.1419 12.0791C72.0854 12.2146 72.0572 12.3501 72.0572 12.4856H74.4628Z" fill="#000000ff"/>
</svg>
