<?xml version="1.0" ?>
<svg xmlns="http://www.w3.org/2000/svg" width="31.0" height="24.0" viewBox="0 0 31.0 24.0">
  <path d="STRING_TOO_LARGE" fill="#000000ff"/>
  <path d="M19.6318 14.8071V15.698C19.5449 15.698 19.4543 15.7451 19.3204 15.7451C19.0053 15.7451 18.8713 15.6111 18.8713 15.3431C18.8713 14.9845 19.1574 14.9411 19.6318 14.8071Z" fill="#000000ff"/>
  <path d="M17.0387 14.09C17.3538 14.09 17.4877 14.3146 17.4877 14.6731C17.4877 14.6731 16.5932 14.8071 16.5498 14.8071C16.5378 14.703 16.5474 14.5974 16.5778 14.4971C16.6084 14.3968 16.6592 14.3039 16.7272 14.224C16.7662 14.1803 16.8143 14.1457 16.8681 14.1226C16.922 14.0994 16.9801 14.0883 17.0387 14.09Z" fill="#000000ff"/>
  <path d="M11.2732 14.8071V15.698C11.1863 15.698 11.0958 15.7451 10.9617 15.7451C10.6467 15.7451 10.5126 15.6111 10.5126 15.3431C10.5126 14.9845 10.7807 14.9411 11.2732 14.8071Z" fill="#000000ff"/>
  <path d="M8.85394 5.61553L9.03867 5.64089C8.97606 5.64272 8.91366 5.63415 8.85394 5.61553Z" fill="#000000ff"/>
</svg>
