<?xml version="1.0" ?>
<svg xmlns="http://www.w3.org/2000/svg" width="50.0" height="24.0" viewBox="0 0 50.0 24.0">
  <path d="M1.41177 9.54988H3.66919C3.98119 9.54988 4.28095 9.58045 4.56848 9.64165C4.86213 9.6967 5.12212 9.79454 5.34848 9.93529C5.57484 10.076 5.7553 10.2656 5.88989 10.5042C6.02448 10.7428 6.09177 11.0456 6.09177 11.4127C6.09177 11.8837 5.96025 12.2783 5.69719 12.5965C5.44024 12.9145 5.07013 13.1072 4.58683 13.1746L6.31201 16.0468H4.91719L3.41224 13.2939H2.56801V16.0468H1.41177V9.54988ZM3.4673 12.3028C3.63248 12.3028 3.79766 12.2967 3.96283 12.2845C4.12801 12.2661 4.27789 12.2294 4.41248 12.1744C4.55318 12.1132 4.66636 12.0244 4.75201 11.9082C4.83765 11.7858 4.88048 11.6176 4.88048 11.4035C4.88048 11.2139 4.84072 11.0609 4.76119 10.9447C4.68165 10.8284 4.57766 10.7428 4.44919 10.6878C4.32071 10.6266 4.17695 10.5868 4.01789 10.5685C3.86495 10.5501 3.71507 10.5409 3.56824 10.5409H2.56801V12.3028H3.4673Z" fill="#000000ff"/>
  <path d="M7.19189 9.54988H11.4957V10.596H8.34813V12.1927H11.3305V13.2388H8.34813V15.0007H11.6608V16.0468H7.19189V9.54988ZM9.75213 7.788H11.0001L9.70625 9.10941H8.84366L9.75213 7.788Z" fill="#000000ff"/>
  <path d="M18.5737 15.5696C17.7723 15.9978 16.876 16.212 15.885 16.212C15.3834 16.212 14.9214 16.1324 14.4993 15.9734C14.0833 15.8082 13.7224 15.5788 13.4165 15.2852C13.1168 14.9854 12.8812 14.6275 12.7099 14.2115C12.5387 13.7955 12.453 13.3336 12.453 12.8259C12.453 12.3059 12.5387 11.8348 12.7099 11.4127C12.8812 10.9844 13.1168 10.6204 13.4165 10.3207C13.7224 10.0209 14.0833 9.7915 14.4993 9.63247C14.9214 9.46729 15.3834 9.3847 15.885 9.3847C16.3805 9.3847 16.8455 9.44583 17.2798 9.56823C17.7142 9.68442 18.1026 9.89548 18.4452 10.2014L17.5918 11.064C17.3838 10.8621 17.1299 10.7061 16.8301 10.596C16.5365 10.4859 16.2245 10.4308 15.8941 10.4308C15.5577 10.4308 15.2518 10.492 14.9765 10.6144C14.7073 10.7305 14.4749 10.8957 14.2791 11.1099C14.0833 11.3178 13.9304 11.5626 13.8203 11.844C13.7163 12.1254 13.6643 12.4282 13.6643 12.7525C13.6643 13.1012 13.7163 13.4224 13.8203 13.716C13.9304 14.0096 14.0833 14.2635 14.2791 14.4776C14.4749 14.6917 14.7073 14.86 14.9765 14.9824C15.2518 15.1047 15.5577 15.1659 15.8941 15.1659C16.1878 15.1659 16.4631 15.1384 16.72 15.0833C16.9831 15.0282 17.2156 14.9425 17.4174 14.8264V13.2939H16.0869V12.2478H18.5737V15.5696Z" fill="#000000ff"/>
  <path d="M19.9164 9.54988H21.0726V16.0468H19.9164V9.54988Z" fill="#000000ff"/>
  <path d="M22.1493 12.8259C22.1493 12.3059 22.2349 11.8348 22.4062 11.4127C22.5774 10.9844 22.813 10.6204 23.1128 10.3207C23.4186 10.0209 23.7796 9.7915 24.1956 9.63247C24.6177 9.46729 25.0796 9.3847 25.5813 9.3847C26.089 9.37856 26.554 9.45501 26.9761 9.61412C27.3982 9.76701 27.7622 9.99339 28.0681 10.2932C28.3739 10.5929 28.6125 10.9539 28.7838 11.376C28.9551 11.7981 29.0408 12.2692 29.0408 12.7892C29.0408 13.2969 28.9551 13.7588 28.7838 14.1748C28.6125 14.5908 28.3739 14.9487 28.0681 15.2485C27.7622 15.5482 27.3982 15.7837 26.9761 15.9551C26.554 16.1202 26.089 16.2059 25.5813 16.212C25.0796 16.212 24.6177 16.1324 24.1956 15.9734C23.7796 15.8082 23.4186 15.5788 23.1128 15.2852C22.813 14.9854 22.5774 14.6275 22.4062 14.2115C22.2349 13.7955 22.1493 13.3336 22.1493 12.8259ZM23.3606 12.7525C23.3606 13.1012 23.4125 13.4224 23.5166 13.716C23.6267 14.0096 23.7796 14.2635 23.9754 14.4776C24.1711 14.6917 24.4036 14.86 24.6728 14.9824C24.9481 15.1047 25.2539 15.1659 25.5904 15.1659C25.9269 15.1659 26.2328 15.1047 26.5081 14.9824C26.7834 14.86 27.0189 14.6917 27.2147 14.4776C27.4104 14.2635 27.5603 14.0096 27.6643 13.716C27.7744 13.4224 27.8295 13.1012 27.8295 12.7525C27.8295 12.4282 27.7744 12.1254 27.6643 11.844C27.5603 11.5626 27.4104 11.3178 27.2147 11.1099C27.0189 10.8957 26.7834 10.7305 26.5081 10.6144C26.2328 10.492 25.9269 10.4308 25.5904 10.4308C25.2539 10.4308 24.9481 10.492 24.6728 10.6144C24.4036 10.7305 24.1711 10.8957 23.9754 11.1099C23.7796 11.3178 23.6267 11.5626 23.5166 11.844C23.4125 12.1254 23.3606 12.4282 23.3606 12.7525Z" fill="#000000ff"/>
  <path d="M30.142 9.54988H31.6745L34.822 14.3767H34.8404V9.54988H35.9966V16.0468H34.5284L31.3166 11.064H31.2983V16.0468H30.142V9.54988Z" fill="#000000ff"/>
  <path d="M39.547 9.54988H40.5472L43.3461 16.0468H42.0246L41.419 14.5602H38.6018L38.0145 16.0468H36.7206L39.547 9.54988ZM41.0152 13.5692L40.015 10.9264L38.9964 13.5692H41.0152Z" fill="#000000ff"/>
  <path d="M44.068 9.54988H45.2243V15.0007H47.9864V16.0468H44.068V9.54988Z" fill="#000000ff"/>
</svg>
