<?xml version="1.0" ?>
<svg xmlns="http://www.w3.org/2000/svg" width="34.0" height="24.0" viewBox="0 0 34.0 24.0">
  <path d="M19.4752 9.60042H14.9593C14.7214 10.9535 14.3276 13.2685 14.1324 14.3999H16.0508C16.1975 13.5488 16.5994 11.215 16.7772 10.1934H18.2163C18.8204 10.1934 19.2546 10.6056 19.1541 11.3119C19.0583 11.8711 18.8261 13.2184 18.6217 14.3999H20.5401C20.6764 13.606 20.942 12.0673 21.0667 11.3423C21.2377 10.3592 20.7237 9.60042 19.4752 9.60042ZM9.6708 13.8278C8.7792 13.6795 8.94551 12.602 8.94551 12.602C9.73666 12.6977 10.7345 12.6755 11.416 12.6066C12.0061 12.5483 13.1704 12.4 13.503 11.4824C13.8321 10.5729 13.5815 9.83739 12.4958 9.63191C11.6966 9.48247 10.954 9.47428 9.98379 9.60621C8.59906 9.79419 7.83678 10.2682 7.49838 11.1006C7.31238 11.5594 7.20036 12.1046 7.15073 12.5996C7.06292 13.4997 7.23043 14.3251 8.34494 14.415C9.83944 14.5364 11.0152 14.5096 12.2602 14.3123L12.6483 13.7531C11.4668 13.9516 10.1201 13.9037 9.6708 13.8278ZM9.29548 11.1543C9.53337 10.5822 9.88334 10.2227 10.5382 10.0709C10.8281 10.0032 11.0752 10.0043 11.4217 10.0802C11.9357 10.1911 12.0939 10.797 11.8675 11.2699C11.6158 11.7976 11.2785 11.9155 10.8373 12.0066C10.3592 12.1069 9.72974 12.121 9.03678 12.0731C9.08527 11.78 9.20654 11.368 9.29548 11.1543ZM28.5046 13.8278C27.613 13.6795 27.7793 12.602 27.7793 12.602C28.5716 12.6977 29.5684 12.6755 30.2497 12.6066C30.8399 12.5483 32.0041 12.4 32.3356 11.4824C32.6648 10.5729 32.4153 9.83739 31.3296 9.63191C30.5293 9.48247 29.7866 9.47428 28.8165 9.60621C27.4317 9.79419 26.6717 10.2682 26.3322 11.1006C26.145 11.5594 26.033 12.1046 25.9845 12.5996C25.8967 13.4997 26.0642 14.3251 27.1787 14.415C28.6721 14.5364 29.8478 14.5096 31.0952 14.3123L31.4821 13.7531C30.3006 13.9516 28.955 13.9037 28.5046 13.8278ZM28.1304 11.1543C28.3672 10.5822 28.7171 10.2227 29.3709 10.0709C29.6607 10.0032 29.909 10.0043 30.2555 10.0802C30.7695 10.1911 30.9265 10.797 30.7025 11.2699C30.4496 11.7976 30.1134 11.9155 29.6723 12.0066C29.1941 12.1069 28.5647 12.121 27.8717 12.0731C27.9191 11.78 28.0403 11.368 28.1304 11.1543ZM3.88221 11.1998C3.98384 10.6138 4.18942 10.2752 4.81887 10.1596C5.38249 10.0557 6.42541 10.1246 7.03754 10.1934L7.44868 9.59922C6.52127 9.53153 4.95515 9.45445 4.02657 9.59104C2.703 9.78487 2.16364 10.058 2.0135 10.9138C1.92456 11.4263 1.52495 13.7425 1.41177 14.3999H3.33014C3.4618 13.6363 3.78866 11.7415 3.88221 11.1998ZM24.5893 6.65955C23.499 7.43245 23.1294 8.38038 22.9285 9.54551L22.1154 14.2469C21.933 15.3163 21.8521 15.8744 21.6719 16.3997C21.5276 16.8399 21.0529 17.4866 20.2629 17.4971L19.9175 17.9945C20.9374 18.0447 21.7528 17.7469 22.3291 17.3395C23.4193 16.5678 23.8213 15.4634 24.0234 14.3006C24.0373 14.2212 24.3918 12.163 24.5616 11.1882C24.6852 10.4958 25.0444 10.1164 25.8009 10.1059L26.152 9.60042H24.8353C25.0224 8.52162 25.0894 8.05581 25.2431 7.60751C25.3932 7.16739 25.8633 6.52062 26.6509 6.51129L27.0021 6.00577C25.9799 5.9544 25.1656 6.25211 24.5893 6.65955Z" fill="#000000ff"/>
</svg>
