<?xml version="1.0" ?>
<svg xmlns="http://www.w3.org/2000/svg" width="24.0" height="24.0" viewBox="0 0 24.0 24.0">
  <path d="M19.175 10.45C19.175 9.1 18.175 8.475 17.2 8.475H15.325C14.975 8.475 14.775 8.75 14.775 9.05V14.925C14.775 15.275 15.125 15.45 15.45 15.45C15.825 15.45 16.125 15.275 16.125 14.925V12.65H16.7L17.825 15.175C17.925 15.375 18.1 15.45 18.3 15.45C18.7 15.45 19.275 15.075 19.05 14.625L17.975 12.375C18.625 12.05 19.175 11.475 19.175 10.45ZM14.1 14.8C14.1 14.5 13.9 14.175 13.55 14.175H11.65V12.45H13.225C13.575 12.45 13.775 12.15 13.775 11.875C13.775 11.575 13.575 11.3 13.225 11.3H11.65V9.725H13.4C13.75 9.725 13.95 9.375 13.95 9.1C13.95 8.8 13.75 8.475 13.4 8.475H10.85C10.5 8.475 10.3 8.75 10.3 9.05V14.9C10.3 15.25 10.65 15.425 10.975 15.425H13.55C13.9 15.425 14.1 15.075 14.1 14.8ZM9.5 10.45C9.5 9.1 8.5 8.475 7.525 8.475H5.65C5.3 8.475 5.1 8.75 5.1 9.05V14.925C5.1 15.275 5.45 15.45 5.775 15.45C6.15 15.45 6.45 15.275 6.45 14.925V12.65H7.025L8.15 15.175C8.25 15.375 8.425 15.45 8.625 15.45C9.025 15.45 9.6 15.075 9.375 14.625L8.3 12.375C8.95 12.05 9.5 11.475 9.5 10.45ZM17.775 10.6C17.775 11.45 17 11.65 16.525 11.65H16.125V9.625H16.6C17.225 9.625 17.775 9.9 17.775 10.6ZM8.1 10.6C8.1 11.45 7.325 11.65 6.85 11.65H6.45V9.625H6.925C7.55 9.625 8.1 9.9 8.1 10.6ZM17.5 22H6.5C4.01667 22 2 19.9833 2 17.5V6.5C2 4.01667 4.01667 2 6.5 2H17.5C19.9833 2 22 4.01667 22 6.5V17.5C22 19.9833 19.9833 22 17.5 22Z" fill="#000000ff"/>
</svg>
