<?xml version="1.0" ?>
<svg xmlns="http://www.w3.org/2000/svg" width="24.0" height="24.0" viewBox="0 0 24.0 24.0">
  <path d="M17.5 22H6.5C4.01667 22 2 19.9833 2 17.5V6.5C2 4.01667 4.01667 2 6.5 2H17.5C19.9833 2 22 4.01667 22 6.5V17.5C22 19.9833 19.9833 22 17.5 22Z" fill="#5290cdff"/>
  <path d="M11.7499 17.2832H7.8999V6.69153H11.9249C13.9082 6.69153 15.7666 7.2332 15.7666 9.37486C15.7666 10.4749 14.8916 11.2999 14.0666 11.4499V11.4832C15.1749 11.6332 16.1082 12.4999 16.1082 14.0082C16.1082 16.6749 13.7666 17.2832 11.7499 17.2832ZM11.3916 8.46653H10.2416V10.8999H11.4249C12.6582 10.8999 13.4666 10.7082 13.4666 9.69986C13.4666 8.71653 12.7416 8.46653 11.3916 8.46653ZM11.4999 12.5749H10.2416V15.5332H11.6249C13.1082 15.5332 13.6916 15.0665 13.6916 13.9415C13.6916 12.7665 12.5666 12.5749 11.4999 12.5749Z" fill="#ffffffff"/>
</svg>
