<?xml version="1.0" ?>
<svg xmlns="http://www.w3.org/2000/svg" width="24.0" height="24.0" viewBox="0 0 24.0 24.0">
  <path d="M17.5 22H6.5C4.01667 22 2 19.9833 2 17.5V6.5C2 4.01667 4.01667 2 6.5 2H17.5C19.9833 2 22 4.01667 22 6.5V17.5C22 19.9833 19.9833 22 17.5 22Z" fill="#ffcd00ff"/>
  <path d="M12.4585 17.5415C9.77516 17.5415 7.2085 15.7665 7.2085 12.1082C7.2085 8.94154 9.0585 6.4082 12.4585 6.4082C13.7668 6.4082 14.7252 6.67487 15.4918 7.02487L14.7252 8.9582C14.0335 8.56654 13.2502 8.39154 12.5835 8.39154C10.9585 8.39154 9.64183 9.4582 9.64183 12.0082C9.64183 14.4415 11.2335 15.5665 12.7585 15.5665C13.6002 15.5665 14.3502 15.3082 14.8752 14.9999L15.5085 16.8165C14.7002 17.2415 13.5418 17.5415 12.4585 17.5415Z" fill="#24303bff"/>
</svg>
