<?xml version="1.0" ?>
<svg xmlns="http://www.w3.org/2000/svg" width="24.0" height="24.0" viewBox="0 0 24.0 24.0">
  <path d="M17.5 22H6.5C4.01667 22 2 19.9833 2 17.5V6.5C2 4.01667 4.01667 2 6.5 2H17.5C19.9833 2 22 4.01667 22 6.5V17.5C22 19.9833 19.9833 22 17.5 22Z" fill="#00804fff"/>
  <path d="M10.875 17.2832H7.8833V6.69153H10.975C14.0666 6.69153 17.4 7.38319 17.4 11.7499C17.4 16.3832 14.1166 17.2832 10.875 17.2832ZM11.3083 8.54153H10.225V15.4582H11.3833C13.425 15.4582 14.9833 14.6749 14.9833 11.8999C14.9833 8.9332 12.75 8.54153 11.3083 8.54153Z" fill="#ffffffff"/>
</svg>
