<?xml version="1.0" ?>
<svg xmlns="http://www.w3.org/2000/svg" width="24.0" height="24.0" viewBox="0 0 24.0 24.0">
  <path d="M17.5 22H6.5C4.01667 22 2 19.9833 2 17.5V6.5C2 4.01667 4.01667 2 6.5 2H17.5C19.9833 2 22 4.01667 22 6.5V17.5C22 19.9833 19.9833 22 17.5 22Z" fill="#e2051cff"/>
  <path d="M14.5249 17.2833L13.8665 15.2749H9.94985L9.29152 17.2833H6.97485L10.7249 6.67493H13.2582L17.0249 17.2833H14.5249ZM12.3915 10.7416C12.1665 10.0666 11.9832 9.19993 11.9415 8.80826H11.9082C11.8665 9.19993 11.6499 10.0666 11.4249 10.7416L10.5249 13.5166H13.2832L12.3915 10.7416Z" fill="#ffffffff"/>
</svg>
