<?xml version="1.0" ?>
<svg xmlns="http://www.w3.org/2000/svg" width="16.0" height="16.0" viewBox="0 0 16.0 16.0">
  <path d="M8,0C6.418,0 4.871,0.469 3.555,1.348C2.24,2.227 1.214,3.477 0.609,4.939C0.003,6.4 -0.155,8.009 0.154,9.561C0.462,11.113 1.224,12.538 2.343,13.657C3.462,14.776 4.887,15.538 6.439,15.846C7.991,16.155 9.6,15.997 11.061,15.391C12.523,14.785 13.773,13.76 14.652,12.445C15.531,11.129 16,9.582 16,8C16,6.949 15.793,5.909 15.391,4.939C14.989,3.968 14.4,3.086 13.657,2.343C12.914,1.6 12.032,1.011 11.061,0.609C10.091,0.207 9.051,0 8,0ZM10.698,8.345L7.627,11.308C7.535,11.396 7.412,11.444 7.285,11.442C7.157,11.44 7.036,11.387 6.948,11.295C6.86,11.204 6.811,11.081 6.814,10.954C6.816,10.826 6.869,10.705 6.96,10.617L9.673,8L6.96,5.383C6.869,5.295 6.816,5.174 6.814,5.046C6.811,4.919 6.86,4.796 6.948,4.705C7.036,4.613 7.157,4.56 7.285,4.558C7.412,4.556 7.535,4.604 7.627,4.692L10.698,7.655C10.744,7.699 10.781,7.753 10.806,7.812C10.832,7.872 10.844,7.935 10.844,8C10.844,8.064 10.832,8.128 10.806,8.187C10.781,8.247 10.744,8.3 10.698,8.345Z" fill="@color/widget_primary_blue"/>
</svg>
