<?xml version="1.0" ?>
<svg xmlns="http://www.w3.org/2000/svg" width="24.0" height="24.0" viewBox="0 0 24.0 24.0">
  <path d="M11.523,7.044C11.474,7.083 11.435,7.141 11.415,7.2L10.455,11.024H13.551L12.561,7.22C12.542,7.151 12.503,7.093 12.454,7.054C12.395,7.015 12.336,6.995 12.267,6.995H11.699C11.641,6.985 11.572,7.005 11.523,7.044Z" fill="#ed8744ff"/>
  <path d="M13.795,12H10.181L9.848,13.239H14.119L13.795,12Z" fill="#ed8744ff"/>
  <path d="M9.564,14.361L8.879,17.005H15.088L14.403,14.361H9.564Z" fill="#ed8744ff"/>
  <path d="M12,24C18.627,24 24,18.627 24,12C24,5.373 18.627,0 12,0C5.373,0 0,5.373 0,12C0,18.627 5.373,24 12,24ZM18.458,17.005C18.595,17.005 18.722,17.044 18.82,17.132H18.81C18.908,17.219 18.977,17.337 18.996,17.463C19.006,17.532 18.996,17.6 18.967,17.668C18.947,17.737 18.908,17.795 18.859,17.844C18.81,17.893 18.761,17.932 18.693,17.961C18.624,17.99 18.556,18 18.487,18H5.519C5.382,18 5.255,17.941 5.157,17.844C5.059,17.756 5,17.619 5,17.483C5,17.415 5.01,17.346 5.039,17.288C5.069,17.229 5.108,17.181 5.157,17.132C5.206,17.093 5.264,17.054 5.323,17.034C5.392,17.005 5.451,17.005 5.519,17.005H7.84L10.455,6.976C10.524,6.693 10.681,6.439 10.906,6.263C11.131,6.088 11.415,6 11.699,6H12.267C12.552,6 12.836,6.098 13.061,6.273C13.296,6.449 13.453,6.693 13.521,6.976L16.126,17.005H18.458Z" fill="#ed8744ff"/>
</svg>
