<?xml version="1.0" ?>
<svg xmlns="http://www.w3.org/2000/svg" width="24.0" height="24.0" viewBox="0 0 24.0 24.0">
  <path d="M0 4H24V19.4H0V4Z" fill="#ff1400ff"/>
  <path d="M7.76261 13.6353C7.55321 13.6353 7.38341 13.7953 7.38341 13.9931C7.38341 14.1899 7.55341 14.3497 7.76261 14.3497C7.97181 14.3497 8.14121 14.1899 8.14121 13.9931C8.14101 13.7953 7.97161 13.6353 7.76261 13.6353ZM17.1074 15.3855C17.1804 15.4223 17.2434 15.4707 17.2976 15.5329C17.3518 15.5943 17.3966 15.6685 17.4292 15.7571C17.461 15.8445 17.4772 15.9425 17.4772 16.0515C17.4772 16.2481 17.4382 16.4079 17.3608 16.5327C17.2826 16.6575 17.182 16.7557 17.0584 16.8279C16.9352 16.8991 16.7974 16.9483 16.6462 16.9745C16.4948 17.0011 16.3454 17.0143 16.199 17.0143H15.0998V13.9125H16.2458C16.3722 13.9125 16.5022 13.9215 16.6354 13.9405C16.7692 13.9603 16.8904 13.9979 16.9984 14.0529C17.1074 14.1085 17.197 14.1883 17.2678 14.2915C17.3374 14.3959 17.373 14.5309 17.373 14.6977C17.373 14.7769 17.358 14.8523 17.3284 14.9217C17.3 14.9921 17.2608 15.0531 17.2142 15.1061C17.1676 15.1587 17.1148 15.2025 17.0562 15.2353C16.9972 15.2695 16.937 15.2917 16.876 15.3041V15.3127C16.9578 15.3239 17.0356 15.3481 17.1074 15.3855ZM19.2738 16.2989C19.2856 16.2539 19.2918 16.1937 19.2918 16.1145L19.2916 14.6695H19.9088V17.0141H19.3362L19.3354 16.7241C19.2562 16.8353 19.165 16.9237 19.0612 16.9893C18.9586 17.0561 18.8324 17.0881 18.682 17.0881C18.5556 17.0881 18.447 17.0675 18.355 17.0269C18.2646 16.9857 18.1902 16.9289 18.1332 16.8561C18.0754 16.7827 18.0328 16.6971 18.005 16.5991C17.9772 16.5011 17.963 16.3947 17.963 16.2803V14.6691H18.5808V16.1527C18.5808 16.2741 18.6052 16.3713 18.6558 16.4459C18.7054 16.5209 18.7892 16.5577 18.9076 16.5577C18.9666 16.5577 19.0184 16.5485 19.0644 16.5281C19.109 16.5065 19.1474 16.4809 19.1766 16.4479C19.2296 16.3931 19.2618 16.3431 19.2738 16.2989ZM15.7514 14.4235H16.1266C16.182 14.4235 16.2708 14.4253 16.3408 14.4277C16.4114 14.4309 16.4774 14.4429 16.5382 14.4649C16.6002 14.4883 16.6522 14.5237 16.6946 14.5735C16.7374 14.6245 16.7584 14.6945 16.7584 14.7861C16.7584 14.8751 16.7376 14.9435 16.6968 14.9921C16.6552 15.0411 16.6052 15.0761 16.5448 15.0989C16.4848 15.1209 16.4202 15.1331 16.3522 15.1365C16.2832 15.1397 16.219 15.1407 16.161 15.1407H15.751L15.7514 14.4235ZM16.6398 16.4173C16.697 16.3831 16.741 16.3373 16.7748 16.2773C16.808 16.2173 16.826 16.1369 16.826 16.0335C16.826 15.9379 16.8028 15.8615 16.7574 15.8071C16.712 15.7527 16.6558 15.7137 16.5902 15.6893C16.5238 15.6641 16.4538 15.6489 16.3796 15.6427C16.304 15.6367 16.2392 15.6341 16.1832 15.6341H15.7514V16.4989H16.218C16.2976 16.4989 16.3738 16.4935 16.4472 16.4833C16.5206 16.4731 16.585 16.4509 16.6398 16.4173ZM22.0214 16.0569C21.9936 15.9845 21.9538 15.9197 21.9018 15.8631C21.851 15.8085 21.79 15.7607 21.7186 15.7235C21.6486 15.6853 21.5724 15.6505 21.4896 15.6183L21.2834 15.5431C21.2542 15.5345 21.2226 15.5223 21.1912 15.5079C21.159 15.4939 21.1286 15.4763 21.1006 15.4561C21.0726 15.4353 21.0504 15.4123 21.0324 15.3859C21.0148 15.3601 21.006 15.3287 21.006 15.2941C21.006 15.2417 21.0286 15.1897 21.074 15.1395C21.12 15.0881 21.2056 15.0629 21.3318 15.0629C21.408 15.0629 21.489 15.0755 21.5762 15.1001C21.6628 15.1245 21.7396 15.1591 21.8076 15.2035L21.9966 14.7501C21.9352 14.7165 21.8512 14.6833 21.7454 14.6481C21.6404 14.6129 21.5118 14.5957 21.3622 14.5957C21.2244 14.5957 21.0986 14.6153 20.986 14.6563C20.8724 14.6977 20.7738 14.7539 20.6928 14.8259C20.6106 14.8977 20.5466 14.9813 20.5028 15.0783C20.4584 15.1751 20.4368 15.2797 20.4368 15.3899C20.4368 15.5631 20.4828 15.6995 20.5758 15.7971C20.668 15.8951 20.7906 15.9725 20.9436 16.0323L21.138 16.1061C21.1696 16.1187 21.2056 16.1319 21.2456 16.1463C21.2852 16.1599 21.3228 16.1787 21.3582 16.2003C21.393 16.2225 21.4234 16.2491 21.4488 16.2795C21.4736 16.3103 21.4862 16.3479 21.4862 16.3909C21.4862 16.4381 21.4744 16.4773 21.4532 16.5071C21.4312 16.5379 21.4022 16.5623 21.367 16.5813C21.3316 16.6007 21.2928 16.6141 21.25 16.6209C21.2072 16.6287 21.1656 16.6327 21.1242 16.6327C21.031 16.6327 20.9344 16.6159 20.8354 16.5835C20.7374 16.5521 20.65 16.5101 20.573 16.4569L20.3836 16.9093C20.4512 16.9499 20.5464 16.9897 20.668 17.0301C20.7898 17.0691 20.9258 17.0887 21.0754 17.0887C21.2286 17.0887 21.3668 17.0699 21.4906 17.0321C21.6136 16.9939 21.7168 16.9401 21.8008 16.8719C21.884 16.8029 21.949 16.7211 21.9946 16.6261C22.0396 16.5309 22.0628 16.4265 22.0628 16.3123C22.063 16.2153 22.0492 16.1305 22.0214 16.0569ZM4.20881 16.46L4.24621 16.5155C4.30761 16.6085 4.36881 16.6973 4.42961 16.7845C4.46828 16.8406 4.50452 16.8923 4.53795 16.94L4.59021 17.0147H3.75741L3.13801 15.9605C3.08741 15.8749 3.03921 15.8231 2.99261 15.8039C2.94561 15.7855 2.90421 15.7757 2.86961 15.7757H2.58821V17.0145H1.93701V13.9127H2.92421C3.00101 13.9127 3.08621 13.9153 3.18201 13.9185C3.27701 13.9233 3.37461 13.9349 3.47201 13.9521C3.57141 13.9693 3.66801 13.9979 3.76281 14.0357C3.85881 14.0727 3.94281 14.1261 4.01621 14.1915C4.08961 14.2567 4.14961 14.3403 4.19481 14.4391C4.24021 14.5395 4.26321 14.6605 4.26321 14.8047C4.26321 14.9329 4.24041 15.0449 4.19481 15.1407C4.14941 15.2351 4.09281 15.3153 4.02481 15.3797C3.95681 15.4449 3.88421 15.4945 3.80441 15.5301C3.77384 15.5435 3.75361 15.5552 3.73637 15.5652C3.70905 15.5811 3.68926 15.5925 3.64781 15.5997C3.66801 15.6377 3.69921 15.6901 3.74261 15.7563C3.78421 15.8217 3.83201 15.8955 3.88521 15.9769C3.93861 16.0595 3.99601 16.1469 4.05921 16.2395C4.10983 16.3131 4.15942 16.3867 4.20881 16.46ZM3.55981 15.0551C3.52461 15.1111 3.47941 15.1539 3.42501 15.1851C3.37141 15.2155 3.30941 15.2367 3.24101 15.2485C3.17221 15.2607 3.10521 15.2667 3.04061 15.2667H2.58801V14.4425H3.00101C3.06821 14.4425 3.13781 14.4467 3.20961 14.4557C3.28141 14.4643 3.34761 14.4827 3.40801 14.5119C3.46721 14.5393 3.51701 14.5791 3.55441 14.6319C3.59301 14.6851 3.61221 14.7553 3.61221 14.8433C3.61241 14.9295 3.59441 14.9989 3.55981 15.0551ZM13.642 16.3081C13.6618 16.2083 13.685 16.1059 13.7108 15.9995L14.0372 14.6693H14.7154L13.9268 17.1477C13.8908 17.2615 13.8462 17.3653 13.7918 17.4591C13.7376 17.5529 13.6692 17.6357 13.5876 17.7071C13.5056 17.7793 13.4058 17.8363 13.29 17.8815C13.1738 17.9247 12.9614 17.9523 12.803 17.9641L12.7458 17.4887C12.7958 17.4887 12.8494 17.4843 12.9062 17.4747C12.9636 17.4641 13.0178 17.4457 13.0678 17.4195C13.1174 17.3929 13.1626 17.3585 13.2024 17.3153C13.241 17.2741 13.2702 17.2189 13.2882 17.1511L12.4862 14.6695H13.1644L13.4904 15.9995C13.5176 16.1059 13.5398 16.2083 13.5592 16.3081L13.5609 16.3172C13.5788 16.4119 13.5908 16.4758 13.5968 16.5103H13.605C13.6085 16.4894 13.6144 16.4577 13.6223 16.4149L13.642 16.3081ZM6.68221 14.9647C6.59061 14.8481 6.47501 14.7555 6.33581 14.6873C6.19561 14.6183 6.02861 14.5843 5.83441 14.5843C5.64321 14.5843 5.47641 14.6183 5.33441 14.6873C5.19141 14.7555 5.07281 14.8477 4.97901 14.9621C4.88421 15.0767 4.81381 15.2089 4.76701 15.3601C4.71981 15.5109 4.69681 15.6703 4.69681 15.8367C4.69681 16.0051 4.71861 16.1645 4.76261 16.3161C4.80681 16.4687 4.87421 16.6037 4.96541 16.7199C5.05681 16.8353 5.17241 16.9281 5.31161 16.9967C5.45161 17.0653 5.61921 17.1005 5.81301 17.1005C6.00341 17.1005 6.17081 17.0653 6.31341 16.9967C6.45621 16.9281 6.57441 16.8355 6.66841 16.7215C6.76321 16.6067 6.83281 16.4747 6.88081 16.3231C6.92781 16.1721 6.95121 16.0133 6.95121 15.8465C6.95121 15.6789 6.92881 15.5195 6.88481 15.3673C6.84101 15.2145 6.77301 15.0803 6.68221 14.9647ZM6.20841 16.3595C6.24481 16.2851 6.27101 16.2021 6.28561 16.1109C6.30021 16.0193 6.30741 15.9321 6.30741 15.8507C6.30741 15.7683 6.30161 15.6807 6.28961 15.5881C6.27781 15.4951 6.25421 15.4109 6.21921 15.3355C6.18381 15.2585 6.13521 15.1953 6.07321 15.1433C6.01141 15.0917 5.93201 15.0659 5.83441 15.0659C5.73741 15.0659 5.65641 15.0901 5.59201 15.1393C5.52741 15.1877 5.47561 15.2485 5.43981 15.3237C5.40281 15.3991 5.37661 15.4821 5.36161 15.5721C5.34721 15.6639 5.33981 15.7507 5.33981 15.8331C5.33981 15.9155 5.34581 16.0033 5.35801 16.0953C5.36961 16.1881 5.39261 16.2721 5.42821 16.3489C5.46421 16.4247 5.51221 16.4887 5.57421 16.5403C5.63601 16.5917 5.71601 16.6171 5.81321 16.6171C5.90981 16.6171 5.99121 16.5927 6.05581 16.5443C6.12001 16.4955 6.17081 16.4349 6.20841 16.3595ZM12.1144 15.8631C12.0636 15.8085 12.0026 15.7607 11.932 15.7235C11.8614 15.6853 11.7844 15.6505 11.7022 15.6183L11.4962 15.5431C11.467 15.5345 11.436 15.5223 11.4036 15.5079C11.372 15.4939 11.3412 15.4763 11.3138 15.4561C11.2856 15.4353 11.263 15.4123 11.2454 15.3859C11.2274 15.3601 11.2192 15.3287 11.2192 15.2941C11.2192 15.2417 11.2414 15.1897 11.2868 15.1395C11.3328 15.0881 11.418 15.0629 11.5446 15.0629C11.6208 15.0629 11.7022 15.0755 11.7896 15.1001C11.876 15.1245 11.9524 15.1591 12.0204 15.2035L12.2096 14.7501C12.1484 14.7165 12.0638 14.6833 11.9584 14.6481C11.8524 14.6129 11.725 14.5957 11.5752 14.5957C11.4368 14.5957 11.3118 14.6153 11.1984 14.6563C11.085 14.6977 10.9874 14.7539 10.9054 14.8259C10.8234 14.8979 10.7594 14.9813 10.7156 15.0783C10.6718 15.1753 10.6502 15.2797 10.6502 15.3899C10.6502 15.5631 10.696 15.6995 10.7884 15.7971C10.8812 15.8951 11.0034 15.9725 11.1562 16.0323L11.3504 16.1061C11.3716 16.1143 11.3947 16.1228 11.4189 16.1317L11.4582 16.1463C11.4982 16.1599 11.5358 16.1787 11.5708 16.2003C11.6066 16.2225 11.637 16.2491 11.6612 16.2795C11.6862 16.3103 11.6988 16.3479 11.6988 16.3909C11.6988 16.4381 11.6884 16.4773 11.666 16.5071C11.6442 16.5379 11.6152 16.5623 11.58 16.5813C11.5444 16.6007 11.5054 16.6141 11.4632 16.6209C11.421 16.6287 11.3784 16.6327 11.3376 16.6327C11.2436 16.6327 11.1468 16.6159 11.0486 16.5835C10.9504 16.5521 10.8628 16.5101 10.786 16.4569L10.5964 16.9093C10.664 16.9499 10.759 16.9897 10.8808 17.0301C11.0026 17.0691 11.1386 17.0887 11.2884 17.0887C11.4412 17.0887 11.5796 17.0699 11.7026 17.0321C11.826 16.9939 11.9304 16.9401 12.0132 16.8719C12.097 16.8029 12.1616 16.7211 12.2074 16.6261C12.253 16.5309 12.2756 16.4265 12.2756 16.3123C12.2756 16.2159 12.262 16.1311 12.2342 16.0575C12.2062 15.9845 12.1664 15.9199 12.1144 15.8631ZM9.92781 15.7235C9.99801 15.7607 10.059 15.8085 10.1104 15.8631C10.1618 15.9199 10.2008 15.9845 10.2298 16.0575C10.257 16.1311 10.2714 16.2159 10.2714 16.3123C10.2714 16.4265 10.2482 16.5309 10.2034 16.6261C10.158 16.7211 10.0928 16.8029 10.0092 16.8719C9.92541 16.9401 9.82201 16.9939 9.69861 17.0321C9.57561 17.0699 9.43661 17.0887 9.28461 17.0887C9.13461 17.0887 8.99861 17.0691 8.87681 17.0301C8.75461 16.9897 8.66021 16.9499 8.59261 16.9093L8.78221 16.4569C8.85801 16.5101 8.94601 16.5521 9.04441 16.5835C9.14281 16.6159 9.23921 16.6327 9.33281 16.6327C9.37441 16.6327 9.41621 16.6287 9.45921 16.6209C9.50181 16.6141 9.54041 16.6007 9.57561 16.5813C9.61101 16.5623 9.63981 16.5379 9.66121 16.5071C9.68401 16.4773 9.69401 16.4381 9.69401 16.3909C9.69401 16.3479 9.68261 16.3103 9.65741 16.2795C9.63221 16.2491 9.60221 16.2225 9.56701 16.2003C9.53101 16.1787 9.49381 16.1599 9.45441 16.1463C9.41441 16.1319 9.37861 16.1187 9.34621 16.1061L9.15181 16.0323C8.99941 15.9725 8.87661 15.8951 8.78401 15.7971C8.69141 15.6995 8.64521 15.5631 8.64521 15.3899C8.64521 15.2797 8.66721 15.1751 8.71101 15.0783C8.75541 14.9813 8.81881 14.8977 8.90101 14.8259C8.98281 14.7539 9.08061 14.6977 9.19341 14.6563C9.30681 14.6153 9.43241 14.5957 9.57041 14.5957C9.72061 14.5957 9.84821 14.6129 9.95441 14.6481C10.0602 14.6833 10.1428 14.7165 10.2052 14.7501L10.0162 15.2035C9.94861 15.1591 9.87161 15.1245 9.78481 15.1001C9.69861 15.0755 9.61701 15.0629 9.54041 15.0629C9.41421 15.0629 9.32841 15.0881 9.28301 15.1395C9.23761 15.1897 9.21461 15.2417 9.21461 15.2941C9.21461 15.3287 9.22341 15.3601 9.24161 15.3859C9.25801 15.4123 9.28101 15.4353 9.30921 15.4561C9.33681 15.4763 9.36701 15.4939 9.39881 15.5079C9.43241 15.5223 9.46201 15.5345 9.49121 15.5431L9.69861 15.6183C9.78061 15.6505 9.85661 15.6853 9.92781 15.7235ZM7.44781 17.0145V14.6695H8.06521V17.0145H7.44781Z" fill="#ffffffff"/>
  <path d="M14.4378 5.48169C13.4952 5.48169 12.6358 5.83529 11.982 6.41569C11.3288 5.83469 10.4684 5.48169 9.52582 5.48169C7.48162 5.48169 5.82422 7.13789 5.82422 9.18249C5.82422 11.2265 7.48182 12.8833 9.52582 12.8833C10.4684 12.8833 11.329 12.5301 11.982 11.9497C12.636 12.5297 13.4952 12.8833 14.4378 12.8833C16.4818 12.8833 18.139 11.2265 18.139 9.18249C18.139 7.13789 16.4818 5.48169 14.4378 5.48169ZM9.52582 12.4449C7.72342 12.4449 6.26302 10.9845 6.26302 9.18249C6.26302 7.38049 7.72342 5.92009 9.52582 5.92009C11.3278 5.92009 12.788 7.38069 12.788 9.18269C12.788 10.9847 11.3278 12.4449 9.52582 12.4449ZM14.6504 10.9045C15.322 10.9047 15.5532 11.6033 15.5532 11.6033H16.3772C16.3772 11.6033 15.7054 10.7995 15.3208 9.84629C14.866 8.71869 14.8506 7.69529 14.8506 7.12969C14.8506 7.05569 14.8522 6.99989 14.8812 6.96489C14.9256 6.91169 14.924 6.81189 14.924 6.81189V6.58189L14.7928 6.45029C14.7454 6.40109 14.7162 6.33409 14.7162 6.26089L14.716 6.04809C14.716 6.04809 14.7062 6.02189 14.6686 6.02149H14.6304C14.593 6.02189 14.5836 6.04809 14.5836 6.04809V6.26089C14.5836 6.33409 14.5534 6.40109 14.5062 6.45029L14.3752 6.58189V6.81189C14.3752 6.81189 14.3734 6.91169 14.4176 6.96489C14.4466 6.99989 14.4484 7.05569 14.4484 7.12969C14.4484 7.69529 14.433 8.71869 13.978 9.84629C13.5936 10.7993 12.9214 11.6033 12.9214 11.6033H13.7464C13.7464 11.6033 13.979 10.9047 14.6504 10.9045ZM10.979 8.01909C10.7728 8.17129 10.448 8.41529 10.1146 8.67069L7.88962 8.35869C7.84782 8.35289 7.78502 8.36809 7.75182 8.39489L7.50382 8.58049L9.08202 9.46909C8.77902 9.70529 8.49702 9.92709 8.27882 10.1013C8.23782 10.1347 8.16862 10.1549 8.12022 10.1505L7.22402 10.0353C7.15842 10.0263 7.10222 10.0519 7.06362 10.0813L6.90102 10.2021L7.73382 10.7841C7.89442 10.8957 9.06322 10.2793 9.52502 9.97029C9.91842 9.70649 11.239 8.71129 11.523 8.46649C11.8082 8.22329 12.0348 7.92169 11.9482 7.80689C11.8792 7.71709 11.295 7.78689 10.979 8.01909ZM14.5476 9.62069H14.7542C14.793 9.62069 14.8184 9.63649 14.8298 9.68929C14.8299 9.68967 14.8306 9.69303 14.832 9.69904C14.8474 9.76951 14.9428 10.2045 15.0202 10.4725H14.2822C14.366 10.1817 14.4714 9.69409 14.4724 9.68929C14.484 9.63649 14.5094 9.62069 14.5476 9.62069Z" fill="#ffffffff"/>
</svg>
