<?xml version="1.0" ?>
<svg xmlns="http://www.w3.org/2000/svg" width="24.0" height="24.0" viewBox="0 0 24.0 24.0">
  <g transform="translate(6.48,6.48)">
    <path d="M21.9,20.8L16.2,15.1C17.4,13.7 18,11.9 18,10C18,5.6 14.4,2 10,2C5.6,2 2,5.6 2,10C2,14.4 5.6,18 10,18C12.1,18 14,17.2 15.4,15.8L21.1,21.5C21.2,21.6 21.3,21.6 21.5,21.6C21.7,21.6 21.8,21.6 21.9,21.5C22.1,21.4 22.1,21 21.9,20.8ZM10,17C6.1,17 3,13.9 3,10C3,6.1 6.1,3 10,3C13.9,3 17,6.1 17,10C17,13.9 13.9,17 10,17Z" fill="#f3f3f4ff"/>
  </g>
</svg>
