<?xml version="1.0" ?>
<svg xmlns="http://www.w3.org/2000/svg" width="23.0" height="24.0" viewBox="0 0 23.0 24.0">
  <path d="M11.1176 17.6599C6.68838 17.6599 3.06793 15.111 3.06793 12C3.06793 8.88896 6.67682 6.34011 11.1176 6.34011C15.5585 6.34011 19.1674 8.88896 19.1674 12C19.1674 15.111 15.5585 17.6599 11.1176 17.6599ZM11.1176 5.64706C5.764 5.64706 1.41177 8.46543 1.41177 12C1.41177 15.5346 5.764 18.3529 11.1176 18.3529C16.4713 18.3529 20.8235 15.5037 20.8235 12C20.8235 8.49628 16.4713 5.64706 11.1176 5.64706Z" fill="#000000ff"/>
  <path d="M11.5413 15.3112H10.4783C10.1432 15.3112 9.96219 15.1611 9.96219 14.8877V12.462C9.96219 12.3119 10.0238 12.2502 10.174 12.2502H11.5413C12.4002 12.2502 13.1012 12.9395 13.1166 13.7981C13.1281 14.6259 12.4657 15.3035 11.6376 15.3151C11.6068 15.3151 11.576 15.3151 11.5413 15.3112ZM9.966 9.11231C9.966 8.83892 10.1471 8.68878 10.4821 8.68878H11.1793C11.8995 8.658 12.5119 9.21628 12.5427 9.93628V9.99402C12.5312 10.7371 11.9226 11.3339 11.1793 11.3262H10.1778C10.0277 11.3262 9.966 11.2646 9.966 11.1145V9.11231ZM14.2412 11.8113C14.0294 11.7189 14.0294 11.6881 14.2412 11.5688C14.7843 11.2338 15.1079 10.6331 15.0886 9.99402C15.0886 8.81195 13.5133 7.62995 11.006 7.62995C9.5501 7.62226 8.13657 8.09195 6.96184 8.96216C6.75 9.14308 6.78081 9.23548 6.84244 9.29711L7.20833 9.72064C7.3277 9.84388 7.38939 9.81304 7.45101 9.75141C7.72447 9.53965 7.75525 9.65901 7.75525 9.90162V14.0984C7.75525 14.341 7.72447 14.4642 7.45101 14.2486C7.38939 14.187 7.33158 14.1561 7.20833 14.2794L6.81548 14.7337C6.75385 14.8261 6.69608 14.9147 6.93873 15.0687C8.15584 15.9004 9.58857 16.3547 11.0599 16.3739C13.8792 16.3739 15.6432 15.1919 15.6432 13.6133C15.6663 12.5506 14.7882 12.0347 14.2412 11.8229" fill="#000000ff"/>
</svg>
