<?xml version="1.0" ?>
<svg xmlns="http://www.w3.org/2000/svg" width="30.0" height="24.0" viewBox="0 0 30.0 24.0">
  <path d="M1.59413 19.0208C1.56097 18.9891 1.51123 18.9415 1.47808 18.8939L1.41176 18.8145V12.4018C1.41176 6.3542 1.41176 5.98913 1.46149 5.89389C1.56097 5.70341 1.57755 5.70341 2.3402 5.67167C4.21366 5.60818 6.40213 5.67166 8.60717 5.81453C14.7747 6.2431 20.2624 7.43357 24.5233 9.2431C25.8828 9.81451 27.9387 10.8939 28.1708 11.1637C28.3034 11.3224 28.3531 11.132 27.0599 15.005C25.9657 18.2907 25.7502 18.8939 25.7005 18.9574C25.6673 19.005 25.6009 19.0208 25.4849 19.0367C25.402 19.0526 19.9971 19.0526 13.4815 19.0526C2.3402 19.0685 1.66045 19.0526 1.59413 19.0208ZM5.92133 17.3065C6.6674 17.259 7.18136 17.1479 7.64555 16.9256C8.15957 16.6876 8.50771 16.3542 8.70663 15.9256C8.78957 15.751 8.78957 15.7034 8.78957 15.4653C8.78957 15.2272 8.78957 15.1955 8.70663 15.0367C8.59058 14.8145 8.30872 14.5288 7.97717 14.3224C7.84453 14.2431 7.28082 13.9573 6.7503 13.6875C5.95449 13.3066 5.73896 13.1796 5.60632 13.0685C5.47369 12.9415 5.45711 12.9256 5.45711 12.8304C5.45711 12.624 5.60632 12.4653 5.95449 12.3066C6.17002 12.2113 6.45186 12.1478 6.84977 12.1161C7.18136 12.0843 7.33058 12.1002 7.8943 12.1637C8.22585 12.1955 8.27562 12.1955 8.29221 12.1637C8.32531 12.1002 8.54089 11.4653 8.54089 11.386C8.54089 11.2907 8.5243 11.2748 8.01035 11.2272C7.47981 11.1637 6.48503 11.1796 6.03738 11.259C4.97631 11.4494 4.27998 11.8304 3.99813 12.3701C3.74944 12.8622 3.83234 13.2907 4.27998 13.7192C4.54525 13.9732 4.76078 14.1002 5.49027 14.4653C6.71714 15.0685 6.89951 15.1955 7.06531 15.4494C7.14818 15.5923 7.16477 15.6558 7.09849 15.7986C6.96582 16.1002 6.61766 16.2589 6.00423 16.3066C5.09236 16.3859 4.3463 16.2589 3.05311 15.7828C3.01995 15.7669 2.98679 15.8145 2.88731 16.005C2.70494 16.3542 2.55573 16.7034 2.58889 16.7351C2.62205 16.7669 3.16917 16.9573 3.48417 17.0526C3.93181 17.1795 4.51209 17.2748 5.04263 17.3383C5.25815 17.3383 5.55659 17.3224 5.92133 17.3065ZM19.45 17.2272C19.649 17.1954 19.9309 17.1479 20.0801 17.1161C20.3454 17.0526 20.909 16.8939 20.9754 16.8621C20.9919 16.8462 21.1743 16.3383 21.3733 15.7352C21.5722 15.132 21.738 14.624 21.7546 14.6082C21.7712 14.5923 22.4178 14.5923 23.197 14.5764L24.6228 14.5605L24.7554 14.1637C24.8217 13.9415 24.8881 13.751 24.8881 13.7192C24.8881 13.6399 24.7886 13.624 23.3462 13.624C22.6499 13.624 22.0695 13.624 22.0695 13.6081C22.0695 13.5923 22.5172 12.259 22.5338 12.2431C22.5338 12.2431 23.313 12.2272 24.2581 12.2113L25.9823 12.1955L26.1149 11.7986C26.1812 11.5764 26.2475 11.3701 26.2475 11.3224C26.2475 11.259 26.2475 11.259 26.0154 11.2431C25.7171 11.2272 22.7659 11.2272 22.0033 11.2431L21.4064 11.259L21.108 12.1002C20.9422 12.5605 20.6603 13.4177 20.4614 14.005C20.2624 14.5923 20.0303 15.3066 19.9309 15.5923L19.7485 16.1319L19.5992 16.1637C18.9858 16.2748 18.0076 16.2589 17.444 16.1319C16.7476 15.9574 16.2999 15.5923 16.101 15.0367C16.0016 14.7352 16.0016 14.259 16.101 13.9098C16.3165 13.2272 16.9797 12.6399 17.8253 12.386C18.3227 12.2431 18.4553 12.2272 19.4003 12.2272H20.279L20.4448 11.751C20.5277 11.4812 20.594 11.259 20.5775 11.2431C20.478 11.1479 18.8532 11.1161 18.2895 11.1954C17.2284 11.3383 16.3829 11.7034 15.6865 12.3066C15.5539 12.4177 15.4379 12.5129 15.4379 12.5129C15.4379 12.5129 15.5041 12.259 15.5871 11.9732C15.8026 11.2748 15.8026 11.259 15.7197 11.2272C15.6368 11.2113 14.7581 11.2113 14.6255 11.2272L14.5094 11.2431L14.3934 11.5764C14.327 11.7669 14.0286 12.6558 13.7136 13.5606C13.4151 14.4653 13.1499 15.2113 13.1499 15.2272C13.1499 15.2272 13.0504 15.0367 12.951 14.7986C12.5862 13.9891 12.1717 13.2272 11.6744 12.4812C11.4257 12.1161 10.9614 11.4971 10.8122 11.3224L10.7127 11.2272L10.1822 11.2113C9.88376 11.2113 9.58538 11.2113 9.50244 11.2113L9.35322 11.2272L9.08795 12.005C8.93879 12.4335 8.72322 13.1003 8.59058 13.4812C8.47454 13.8621 8.35849 14.1954 8.35849 14.2113C8.35849 14.2272 8.45795 14.3383 8.57399 14.4653C8.83926 14.7193 8.95531 14.8621 9.07143 15.1161C9.13771 15.259 9.17089 15.2907 9.22058 15.2748C9.27035 15.2748 9.3367 15.132 9.71802 14.0209C9.95011 13.3384 10.1656 12.7669 10.1656 12.751C10.1822 12.751 10.2651 12.8622 10.3812 13.0208C11.1272 14.1161 11.7572 15.3542 12.2049 16.6717L12.3707 17.1795H13.1168H13.8628L14.211 16.1637C14.3934 15.6082 14.5592 15.132 14.5758 15.1002C14.5923 15.0526 14.6089 15.0685 14.6752 15.2748C14.9405 16.0844 15.5539 16.6558 16.5155 17.005C16.7642 17.1002 17.245 17.2113 17.5268 17.2431C17.9082 17.3224 19.0521 17.2907 19.45 17.2272Z" fill="#000000ff"/>
</svg>
