<?xml version="1.0" ?>
<svg xmlns="http://www.w3.org/2000/svg" width="69.0" height="24.0" viewBox="0 0 69.0 24.0">
  <path d="M1.54438 16.4009C1.52027 16.3779 1.4841 16.3434 1.45999 16.3089L1.41177 16.2513V11.6026C1.41177 7.2185 1.41177 6.95386 1.44794 6.88482C1.52027 6.74674 1.53232 6.74674 2.08689 6.72373C3.44921 6.6777 5.04059 6.72372 6.64403 6.82729C11.1288 7.13796 15.1193 8.00097 18.2177 9.31278C19.2063 9.72699 20.7012 10.5095 20.87 10.7051C20.9664 10.8201 21.0026 10.6821 20.0622 13.4897C19.2666 15.8716 19.1099 16.3089 19.0736 16.3549C19.0496 16.3894 19.0013 16.4009 18.9169 16.4124C18.8567 16.4239 14.9264 16.4239 10.1885 16.4239C2.0869 16.4354 1.59261 16.4239 1.54438 16.4009ZM4.69097 15.1582C5.23348 15.1237 5.60722 15.0431 5.94479 14.8821C6.31852 14.7094 6.57169 14.4678 6.71636 14.1571C6.77664 14.0305 6.77664 13.996 6.77664 13.8234C6.77664 13.6508 6.77664 13.6278 6.71636 13.5127C6.63197 13.3516 6.42702 13.1445 6.1859 12.9949C6.08946 12.9374 5.67955 12.7302 5.29377 12.5346C4.71508 12.2585 4.55836 12.1665 4.4619 12.0859C4.36546 11.9938 4.3534 11.9823 4.3534 11.9133C4.3534 11.7637 4.4619 11.6486 4.71508 11.5336C4.87181 11.4645 5.07676 11.4185 5.3661 11.3955C5.60722 11.3725 5.71572 11.384 6.12562 11.43C6.36674 11.453 6.40291 11.453 6.41496 11.43C6.43907 11.384 6.5958 10.9237 6.5958 10.8661C6.5958 10.7971 6.58374 10.7856 6.21001 10.7511C5.82422 10.7051 5.10087 10.7166 4.77536 10.7741C4.00379 10.9122 3.49744 11.1884 3.29248 11.5796C3.11165 11.9363 3.17193 12.247 3.49744 12.5577C3.69033 12.7417 3.84706 12.8338 4.37752 13.0985C5.26965 13.5357 5.40227 13.6278 5.52282 13.8119C5.58311 13.9155 5.59516 13.9615 5.54694 14.0651C5.45049 14.2837 5.19732 14.3987 4.75125 14.4333C4.08818 14.4908 3.54566 14.3987 2.6053 14.0536C2.58119 14.0421 2.55707 14.0766 2.48474 14.2146C2.35213 14.4678 2.24362 14.7209 2.26773 14.7439C2.29185 14.7669 2.68969 14.9051 2.91875 14.9741C3.24426 15.0661 3.66622 15.1352 4.05201 15.1812C4.20873 15.1812 4.42574 15.1697 4.69097 15.1582ZM14.5286 15.1007C14.6732 15.0777 14.8782 15.0431 14.9867 15.0201C15.1796 14.9741 15.5895 14.859 15.6377 14.836C15.6498 14.8245 15.7824 14.4563 15.927 14.019C16.0717 13.5817 16.1923 13.2136 16.2044 13.2021C16.2164 13.1905 16.6866 13.1905 17.2532 13.179L18.29 13.1675L18.3865 12.8798C18.4347 12.7187 18.4829 12.5807 18.4829 12.5577C18.4829 12.5001 18.4106 12.4886 17.3617 12.4886C16.8553 12.4886 16.4334 12.4886 16.4334 12.4771C16.4334 12.4656 16.7589 11.499 16.771 11.4875C16.771 11.4875 17.3376 11.476 18.0248 11.4645L19.2786 11.453L19.3751 11.1654C19.4233 11.0042 19.4715 10.8546 19.4715 10.8201C19.4715 10.7741 19.4715 10.7741 19.3027 10.7626C19.0857 10.7511 16.9398 10.7511 16.3852 10.7626L15.9512 10.7741L15.7342 11.384C15.6136 11.7177 15.4086 12.339 15.264 12.7648C15.1193 13.1905 14.9505 13.7083 14.8782 13.9155L14.7456 14.3067L14.6371 14.3297C14.191 14.4102 13.4797 14.3987 13.0698 14.3067C12.5635 14.1801 12.238 13.9155 12.0933 13.5127C12.021 13.2941 12.021 12.9489 12.0933 12.6957C12.25 12.201 12.7323 11.7752 13.3471 11.5911C13.7088 11.4875 13.8052 11.476 14.4924 11.476H15.1314L15.2519 11.1309C15.3122 10.9352 15.3604 10.7741 15.3484 10.7626C15.2761 10.6936 14.0946 10.6705 13.6847 10.7281C12.9131 10.8316 12.2982 11.0963 11.7919 11.5336C11.6954 11.6141 11.6111 11.6831 11.6111 11.6831C11.6111 11.6831 11.6593 11.499 11.7196 11.2919C11.8763 10.7856 11.8763 10.7741 11.816 10.7511C11.7557 10.7396 11.1167 10.7396 11.0203 10.7511L10.936 10.7626L10.8515 11.0042C10.8033 11.1424 10.5863 11.7867 10.3573 12.4426C10.1402 13.0985 9.94737 13.6393 9.94737 13.6508C9.94737 13.6508 9.87501 13.5127 9.80266 13.3401C9.53746 12.7533 9.23605 12.201 8.87435 11.6601C8.69351 11.3955 8.35595 10.9467 8.24746 10.8201L8.17511 10.7511L7.78934 10.7396C7.57235 10.7396 7.3553 10.7396 7.29501 10.7396L7.18652 10.7511L6.99364 11.3149C6.88514 11.6256 6.72842 12.1089 6.63197 12.3851C6.54758 12.6612 6.46319 12.9028 6.46319 12.9143C6.46319 12.9258 6.53553 13.0065 6.61991 13.0985C6.81281 13.2826 6.8972 13.3861 6.98159 13.5702C7.02981 13.6738 7.05393 13.6968 7.0901 13.6853C7.12624 13.6853 7.17452 13.5817 7.45179 12.7763C7.62057 12.2815 7.77727 11.8672 7.77727 11.8557C7.78934 11.8557 7.84962 11.9363 7.93398 12.0514C8.47652 12.8453 8.93464 13.7428 9.26019 14.6979L9.38068 15.0661H10.4658L10.7189 14.3297C10.8515 13.927 10.9721 13.5817 10.9842 13.5587C10.9962 13.5242 11.0082 13.5357 11.0565 13.6853C11.2494 14.2722 11.6954 14.6864 12.3947 14.9396C12.5755 15.0086 12.9251 15.0892 13.1301 15.1122C13.4074 15.1697 14.2393 15.1467 14.5286 15.1007Z" fill="#000000ff"/>
  <path d="M25.861 8.12435H26.6851V12.0112H25.861V8.12435ZM30.5926 10.9007L28.5856 8.11511H27.5384V12.0019H28.3625V9.12388L30.3987 11.9834L30.4083 12.0019H31.4167V8.11511H30.5926V10.9007ZM31.8628 8.79995H33.162V12.0019H33.9861V8.79995H35.2854V8.12435H31.8724V8.79995H31.8628ZM36.5459 10.3547H38.4851V9.67913H36.5459V8.8092H38.5917V8.13367H35.7217V12.0204H38.6984V11.3264H36.5459V10.3547ZM41.5295 10.3084L42.6543 12.0019H41.6653L40.686 10.3824H40.1915V12.0019H39.3673V8.11511H40.8702C41.2969 8.10586 41.6653 8.17991 41.9756 8.34649C42.2956 8.51308 42.4604 8.8092 42.4797 9.24416C42.4797 9.53104 42.3925 9.77167 42.218 9.95675C42.0628 10.1418 41.8301 10.2621 41.5295 10.3084ZM41.3744 8.84619C41.1999 8.78146 41.0156 8.75365 40.8121 8.76296H40.1915V9.73461H40.7442C40.9672 9.74386 41.1708 9.71612 41.355 9.66056C41.5295 9.60508 41.6265 9.46624 41.6362 9.23492C41.6168 9.04059 41.5393 8.91099 41.3744 8.84619ZM46.106 10.9747C45.9702 11.132 45.8248 11.2431 45.66 11.3171C45.5048 11.3911 45.3498 11.4282 45.1752 11.4282C44.7486 11.4189 44.3995 11.2893 44.1474 11.0303C43.8954 10.7804 43.7596 10.438 43.7596 10.04C43.7693 9.66057 43.8954 9.34595 44.1474 9.09607C44.3995 8.84619 44.7486 8.71666 45.1752 8.70741C45.3207 8.70741 45.4563 8.72591 45.6018 8.78146C45.7472 8.83694 45.8927 8.92948 46.0381 9.07758L46.0575 9.09607L46.6974 8.67035L46.6684 8.64261C46.455 8.42054 46.2224 8.2632 45.9703 8.17066C45.7182 8.07812 45.4467 8.03181 45.1558 8.03181C44.4868 8.04113 43.9439 8.22621 43.5269 8.59638C43.11 8.95729 42.8967 9.46624 42.8869 10.0955C42.8967 10.7063 43.11 11.1968 43.5269 11.5577C43.9341 11.9186 44.4868 12.1037 45.1558 12.1129H45.1655C45.4758 12.1129 45.7763 12.0575 46.0478 11.9464C46.3193 11.8353 46.5617 11.6595 46.7557 11.4189L46.775 11.3912L46.0963 10.9562L46.106 10.9747ZM47.2113 12.0019H48.0355V8.11511H47.2113V12.0019ZM48.4621 8.79995H49.7614V12.0019H50.5855V8.79995H51.8751V8.12435H48.4621V8.79995ZM53.1356 10.3547H55.0747V9.67913H53.1356V8.8092H55.1814V8.13367H52.3114V12.0204H55.288V11.3264H53.1356V10.3547ZM54.9099 7.08791H53.9984L53.3586 7.93002H53.9984L54.9099 7.08791ZM58.3519 10.0955C58.1483 9.93819 57.9156 9.82715 57.6539 9.75311C57.392 9.67913 57.1691 9.60508 56.9654 9.53104C56.7812 9.45699 56.6843 9.33671 56.6745 9.17012C56.6843 9.00353 56.7424 8.89249 56.8782 8.81845C57.0042 8.7444 57.1593 8.70741 57.3241 8.70741H57.3339C57.4793 8.70741 57.615 8.73515 57.7411 8.78146C57.8671 8.82769 57.9641 8.90174 58.0513 9.00353L58.0707 9.03127L58.6719 8.45753L58.6428 8.43904C58.478 8.30019 58.2841 8.18915 58.0707 8.13367C57.8671 8.06887 57.6441 8.04113 57.4211 8.04113C57.4115 8.04113 57.4115 8.04113 57.4017 8.04113C56.9945 8.04113 56.6261 8.13367 56.3158 8.328C55.9958 8.52233 55.831 8.82769 55.8116 9.22567C55.8213 9.56802 55.928 9.81791 56.1413 9.97525C56.3449 10.1326 56.5776 10.2436 56.8393 10.3084C57.1011 10.3732 57.3241 10.4564 57.5278 10.5397C57.712 10.623 57.8089 10.7526 57.8187 10.9376C57.8089 11.1042 57.7411 11.2246 57.5956 11.3079C57.4502 11.3911 57.2951 11.4374 57.1108 11.4374C56.946 11.4374 56.7909 11.4004 56.6552 11.3356C56.5097 11.2708 56.3934 11.1783 56.3061 11.0488L56.2867 11.0209L55.6662 11.5669L55.6856 11.5948C55.8601 11.7798 56.0831 11.9186 56.3255 12.0019C56.5679 12.0852 56.82 12.1223 57.0817 12.1223C57.0915 12.1223 57.0915 12.1223 57.1012 12.1223C57.5278 12.1223 57.9059 12.0204 58.2065 11.8168C58.5071 11.6132 58.6719 11.2893 58.6816 10.8729C58.6719 10.512 58.5555 10.2529 58.3519 10.0955Z" fill="#000000ff"/>
  <path d="M26.6948 16.0633H27.8389V16.3502H26.3749V13.9626H26.6948V16.0633ZM29.4097 14.9435C29.5454 15.0916 29.623 15.286 29.623 15.508V15.6376H28.2752C28.2947 15.7672 28.3528 15.8782 28.4497 15.9707C28.5467 16.0633 28.6825 16.1188 28.8376 16.1188C28.954 16.1188 29.0509 16.0911 29.1382 16.0448C29.2254 15.9985 29.2836 15.9337 29.3321 15.8689L29.3515 15.8412L29.5842 16.0263L29.5648 16.054C29.4678 16.1744 29.3515 16.2577 29.2352 16.3132C29.1188 16.3687 28.983 16.3965 28.8473 16.3965C28.8473 16.3965 28.8473 16.3965 28.8376 16.3965C28.5856 16.3872 28.3722 16.3132 28.2073 16.1558C28.0425 15.9985 27.965 15.8042 27.9553 15.5543C27.965 15.3137 28.0425 15.1101 28.1977 14.9528C28.3528 14.7954 28.5564 14.7215 28.8085 14.7122C29.0606 14.7122 29.2643 14.7954 29.4097 14.9435ZM29.2933 15.397C29.2836 15.2767 29.2448 15.1749 29.1673 15.1009C29.08 15.0176 28.9636 14.9805 28.7988 14.9713C28.6534 14.9713 28.5273 15.0268 28.4207 15.1101C28.3237 15.1934 28.2752 15.286 28.2656 15.397H29.2933ZM30.738 15.4247L30.5053 15.3693C30.4084 15.3508 30.3308 15.3229 30.2823 15.286C30.2338 15.2582 30.2144 15.2119 30.2144 15.1564C30.2144 15.0824 30.2435 15.0361 30.3017 15.0083C30.3599 14.9713 30.4374 14.9528 30.515 14.962C30.5926 14.962 30.6604 14.9805 30.7089 15.0176C30.7574 15.0546 30.8059 15.1009 30.835 15.1564L30.8543 15.1934L31.1161 15.0268L31.0967 14.9991C31.0386 14.8973 30.961 14.814 30.8543 14.7677C30.7574 14.7215 30.6508 14.7029 30.5344 14.7029H30.5247C30.3599 14.7029 30.2144 14.74 30.098 14.8232C29.972 14.9065 29.9041 15.0268 29.8945 15.2027C29.9041 15.36 29.972 15.471 30.0787 15.5266C30.1854 15.5913 30.2726 15.6191 30.3404 15.6284L30.5635 15.6746C30.6508 15.6931 30.7186 15.7209 30.7671 15.7487C30.8156 15.7764 30.8447 15.8227 30.8447 15.8874C30.8447 15.9615 30.8059 16.017 30.738 16.054C30.6702 16.0911 30.5828 16.1096 30.4956 16.1096C30.4084 16.1096 30.3308 16.0911 30.2629 16.054C30.195 16.017 30.1369 15.9615 30.098 15.8968L30.0787 15.8689L29.8169 16.0355L29.8363 16.0633C29.9139 16.1744 30.0108 16.2577 30.1272 16.3039C30.2338 16.3502 30.3599 16.378 30.4762 16.378H30.4859C30.6604 16.378 30.8059 16.3409 30.9416 16.2577C31.0774 16.1744 31.1452 16.0448 31.155 15.8689C31.155 15.7487 31.1065 15.6561 31.0289 15.5728C30.961 15.508 30.8641 15.4525 30.738 15.4247ZM33.2783 16.0633C33.2492 16.0818 33.2105 16.0911 33.1717 16.1003C33.1329 16.1096 33.0941 16.1188 33.0553 16.1188C32.9874 16.1188 32.9487 16.1096 32.9099 16.0726C32.8905 16.054 32.8614 15.9985 32.8517 15.8689V14.9991H33.3171V14.74H32.8517V14.305H32.5511V14.74H32.2021V14.9991H32.5511V15.9337C32.5608 16.1096 32.6093 16.2299 32.7063 16.2947C32.7935 16.3502 32.8808 16.378 32.9778 16.378C32.9874 16.378 32.9874 16.378 32.9972 16.378C33.0553 16.378 33.1135 16.3687 33.1717 16.3595C33.2298 16.3502 33.2783 16.3317 33.3268 16.3132L33.3462 16.3039L33.3365 16.0263L33.2783 16.0633ZM34.374 14.7029C34.2285 14.7029 34.1025 14.74 34.0055 14.814C33.957 14.851 33.9085 14.8973 33.8795 14.9435V14.7492H33.5789V14.7862C33.5789 14.8973 33.5886 14.9898 33.5886 15.0546C33.5886 15.1286 33.5886 15.1934 33.5886 15.2582V16.3502H33.8892V15.4525C33.8892 15.3508 33.928 15.2489 34.0055 15.1471C34.0831 15.0453 34.1994 14.9991 34.3643 14.9898C34.3933 14.9898 34.4224 14.9898 34.4418 14.9898C34.4612 14.9898 34.4806 14.9991 34.4903 14.9991L34.5291 15.0176L34.5872 14.74L34.5582 14.7307C34.5 14.7122 34.4418 14.7029 34.374 14.7029ZM36.0998 16.3039L36.1096 16.341H35.8187L35.809 16.3132C35.7992 16.2762 35.7992 16.2299 35.7896 16.1836C35.7896 16.1744 35.7896 16.1558 35.7896 16.1466C35.7314 16.2114 35.6635 16.2669 35.5957 16.3039C35.4987 16.3502 35.3824 16.378 35.2466 16.378C35.0915 16.378 34.946 16.3409 34.8296 16.2577C34.7133 16.1744 34.6455 16.054 34.6455 15.8968C34.6552 15.7209 34.7133 15.5913 34.8394 15.508C34.9557 15.4247 35.0915 15.3785 35.2563 15.36C35.4114 15.3414 35.5666 15.3322 35.6926 15.3322H35.7702V15.3229C35.7702 15.2027 35.7411 15.1101 35.6732 15.0453C35.615 14.9898 35.5181 14.9528 35.3824 14.9528C35.2951 14.9528 35.2078 14.9713 35.1302 14.9991C35.0527 15.0268 34.9751 15.0731 34.9072 15.1286L34.8781 15.1471L34.6939 14.9435L34.7133 14.925C34.7909 14.851 34.8879 14.7862 35.0139 14.7492C35.1303 14.7122 35.2757 14.6937 35.4308 14.6937C35.6053 14.6937 35.7508 14.74 35.8672 14.8325C35.9835 14.925 36.0514 15.0731 36.0611 15.2675V15.9522C36.0611 16.0078 36.0611 16.0726 36.0707 16.1373C36.0805 16.2114 36.0901 16.2669 36.0998 16.3039ZM35.392 15.6006C35.2757 15.6098 35.1787 15.6376 35.0915 15.6839C35.0139 15.7209 34.9654 15.7857 34.9654 15.8782C34.9654 15.9615 35.0042 16.0263 35.072 16.0633C35.14 16.1003 35.2175 16.1188 35.3048 16.1188C35.3048 16.1188 35.3048 16.1188 35.3144 16.1188C35.4696 16.1188 35.5859 16.0726 35.6635 15.9893C35.7411 15.906 35.7798 15.7949 35.7798 15.6654V15.5821H35.6829C35.6732 15.5821 35.6635 15.5821 35.6538 15.5821C35.5763 15.5821 35.489 15.5913 35.392 15.6006ZM36.8755 14.0551C36.8368 14.0181 36.7883 13.9996 36.7398 13.9996C36.6913 13.9996 36.6428 14.0181 36.604 14.0551C36.5653 14.0922 36.5459 14.1384 36.5361 14.194C36.5361 14.2494 36.5555 14.2957 36.604 14.3327C36.6428 14.3698 36.6913 14.3883 36.7398 14.3883C36.7883 14.3883 36.8368 14.3698 36.8755 14.3327C36.9143 14.2957 36.9337 14.2494 36.9434 14.194C36.9337 14.1292 36.9143 14.0829 36.8755 14.0551ZM36.5846 16.3502H36.8852V14.7492H36.5846V16.3502ZM38.1844 14.7029C38.0681 14.7029 37.9518 14.7307 37.8548 14.7862C37.7772 14.8233 37.719 14.8695 37.6705 14.925C37.6705 14.9158 37.6705 14.9065 37.6705 14.8973C37.6705 14.8602 37.6705 14.814 37.6609 14.7677V14.74H37.3603V14.7769C37.3603 14.8325 37.37 14.8973 37.37 14.9528C37.37 15.0176 37.3797 15.0638 37.3797 15.1101V16.341H37.6803V15.5173C37.69 15.3414 37.719 15.2119 37.7869 15.1379C37.8548 15.0546 37.9227 15.0083 38.0003 14.9898C38.1069 14.962 38.1263 14.962 38.136 14.962C38.2911 14.962 38.3977 14.9991 38.4559 15.0824C38.5141 15.1657 38.5432 15.2952 38.5432 15.4525V16.3316H38.8438V15.3229C38.8438 15.1194 38.7856 14.9713 38.679 14.8602C38.5723 14.7677 38.4075 14.7122 38.1844 14.7029ZM40.0751 15.4247L39.8425 15.3693C39.7455 15.3508 39.6679 15.3229 39.6194 15.286C39.571 15.2582 39.5516 15.2119 39.5516 15.1564C39.5516 15.0824 39.5807 15.0361 39.6388 15.0083C39.697 14.9713 39.7746 14.9528 39.8521 14.962C39.9297 14.962 39.9976 14.9805 40.046 15.0176C40.0945 15.0546 40.143 15.1009 40.1721 15.1564L40.1915 15.1934L40.4533 15.0268L40.4339 14.9991C40.3757 14.8973 40.2982 14.814 40.1915 14.7677C40.0945 14.7215 39.9879 14.7029 39.8716 14.7029H39.8618C39.697 14.7029 39.5516 14.74 39.4352 14.8232C39.3092 14.9065 39.2413 15.0268 39.2316 15.2027C39.2413 15.36 39.3092 15.471 39.4158 15.5266C39.5225 15.5913 39.6097 15.6191 39.6776 15.6284L39.9006 15.6746C39.9879 15.6931 40.0558 15.7209 40.1042 15.7487C40.1527 15.7764 40.1818 15.8227 40.1818 15.8874C40.1818 15.9615 40.143 16.017 40.0751 16.054C40.0073 16.0911 39.92 16.1096 39.8327 16.1096C39.7455 16.1096 39.6679 16.0911 39.6001 16.054C39.5322 16.017 39.474 15.9615 39.4352 15.8968L39.4158 15.8689L39.154 16.0355L39.1734 16.0633C39.251 16.1744 39.3577 16.2577 39.4643 16.3039C39.571 16.3502 39.697 16.378 39.8134 16.378H39.8231C39.9976 16.378 40.143 16.3409 40.2788 16.2577C40.4145 16.1744 40.4824 16.0448 40.4921 15.8689C40.4921 15.7487 40.4436 15.6561 40.366 15.5728C40.2982 15.508 40.2012 15.4525 40.0751 15.4247ZM42.567 14.9713C42.6543 14.9713 42.7319 14.9898 42.79 15.0268C42.8579 15.0638 42.9064 15.1101 42.9451 15.1564L42.9645 15.1842L43.2166 15.0083L43.1875 14.9805C43.1003 14.888 43.0033 14.8233 42.8967 14.7769C42.79 14.7307 42.6736 14.7122 42.567 14.7029C42.2858 14.7029 42.0725 14.7862 41.9077 14.9435C41.7525 15.1009 41.6653 15.3044 41.6653 15.5451C41.6653 15.7856 41.7525 15.9893 41.9077 16.1466C42.0628 16.3039 42.2858 16.378 42.567 16.3872C42.6834 16.3872 42.79 16.3595 42.8967 16.3132C43.0033 16.2669 43.1003 16.2021 43.1875 16.1096L43.2166 16.0818L42.9645 15.906L42.9451 15.9337C42.9064 15.9893 42.8579 16.0263 42.79 16.0633C42.7221 16.1003 42.6445 16.1188 42.567 16.1188C42.3828 16.1188 42.2471 16.0633 42.1404 15.9615C42.0434 15.8505 41.9852 15.7117 41.9852 15.5451C41.9852 15.3785 42.0434 15.2304 42.1404 15.1286C42.2471 15.0268 42.3925 14.9713 42.567 14.9713ZM43.4881 16.3502H43.7887V13.8053H43.4881V16.3502ZM45.6406 16.3039L45.6503 16.341H45.3594L45.3497 16.3132C45.34 16.2762 45.34 16.2299 45.3304 16.1836C45.3304 16.1744 45.3304 16.1558 45.3304 16.1466C45.2721 16.2114 45.2043 16.2669 45.1364 16.3039C45.0395 16.3502 44.9231 16.378 44.7874 16.378C44.6322 16.378 44.4868 16.3409 44.3704 16.2577C44.2541 16.1744 44.1862 16.054 44.1862 15.8968C44.1959 15.7209 44.2541 15.5913 44.3802 15.508C44.4965 15.4247 44.6322 15.3785 44.7971 15.36C44.9522 15.3414 45.1073 15.3322 45.2334 15.3322H45.3109V15.3229C45.3109 15.2027 45.2819 15.1101 45.214 15.0453C45.1558 14.9898 45.0589 14.9528 44.9231 14.9528C44.8358 14.9528 44.7486 14.9713 44.671 14.9991C44.5934 15.0268 44.5158 15.0731 44.448 15.1286L44.4189 15.1471L44.2347 14.9435L44.2541 14.925C44.3317 14.851 44.4286 14.7862 44.5547 14.7492C44.671 14.7122 44.8165 14.6937 44.9716 14.6937C45.1461 14.6937 45.2915 14.74 45.4079 14.8325C45.5339 14.925 45.5921 15.0731 45.6018 15.2675V15.9522C45.6018 16.0078 45.6018 16.0726 45.6115 16.1373C45.6309 16.2114 45.6309 16.2669 45.6406 16.3039ZM44.9328 15.6006C44.8165 15.6098 44.7195 15.6376 44.6322 15.6839C44.5547 15.7209 44.5062 15.7857 44.5062 15.8782C44.5062 15.9615 44.545 16.0263 44.6128 16.0633C44.6807 16.1003 44.7582 16.1188 44.8456 16.1188C44.8456 16.1188 44.8456 16.1188 44.8552 16.1188C45.0104 16.1188 45.1267 16.0726 45.2043 15.9893C45.2819 15.906 45.3206 15.7949 45.3206 15.6654V15.5821H45.2334C45.2237 15.5821 45.214 15.5821 45.2043 15.5821C45.1267 15.5821 45.0297 15.5913 44.9328 15.6006ZM46.8429 15.4247L46.6102 15.3693C46.5132 15.3508 46.4356 15.3229 46.3872 15.286C46.3387 15.2582 46.3193 15.2119 46.3193 15.1564C46.3193 15.0824 46.3484 15.0361 46.4065 15.0083C46.4648 14.9713 46.5423 14.9528 46.6199 14.962C46.6974 14.962 46.7653 14.9805 46.8138 15.0176C46.8623 15.0546 46.9108 15.1009 46.9398 15.1564L46.9592 15.1934L47.2211 15.0268L47.2016 14.9991C47.1435 14.8973 47.0659 14.814 46.9592 14.7677C46.8623 14.7215 46.7556 14.7029 46.6393 14.7029H46.6296C46.4648 14.7029 46.3193 14.74 46.203 14.8232C46.0769 14.9065 46.0091 15.0268 45.9993 15.2027C46.0091 15.36 46.0769 15.471 46.1835 15.5266C46.2902 15.5913 46.3775 15.6191 46.4454 15.6284L46.6684 15.6746C46.7556 15.6931 46.8235 15.7209 46.872 15.7487C46.9204 15.7764 46.9496 15.8227 46.9496 15.8874C46.9496 15.9615 46.9108 16.017 46.8429 16.054C46.775 16.0911 46.6878 16.1096 46.6005 16.1096C46.5132 16.1096 46.4356 16.0911 46.3678 16.054C46.2999 16.017 46.2417 15.9615 46.203 15.8968L46.1835 15.8689L45.9218 16.0355L45.9412 16.0633C46.0187 16.1744 46.1254 16.2577 46.232 16.3039C46.3387 16.3502 46.4648 16.378 46.5811 16.378H46.5908C46.7653 16.378 46.9108 16.3409 47.0465 16.2577C47.1822 16.1744 47.2501 16.0448 47.2598 15.8689C47.2598 15.7487 47.2113 15.6561 47.1337 15.5728C47.0659 15.508 46.9689 15.4525 46.8429 15.4247ZM48.3263 15.4247L48.0937 15.3693C47.9967 15.3508 47.9191 15.3229 47.8707 15.286C47.8222 15.2582 47.8028 15.2119 47.8028 15.1564C47.8028 15.0824 47.8319 15.0361 47.89 15.0083C47.9482 14.9713 48.0258 14.9528 48.1033 14.962C48.1809 14.962 48.2487 14.9805 48.2972 15.0176C48.3457 15.0546 48.3942 15.1009 48.4233 15.1564L48.4427 15.1934L48.7045 15.0268L48.6851 14.9991C48.6269 14.8973 48.5494 14.814 48.4427 14.7677C48.3457 14.7215 48.2391 14.7029 48.1227 14.7029H48.1131C47.9483 14.7029 47.8028 14.74 47.6864 14.8232C47.5604 14.9065 47.4925 15.0268 47.4828 15.2027C47.4925 15.36 47.5604 15.471 47.667 15.5266C47.7737 15.5913 47.8609 15.6191 47.9288 15.6284L48.1518 15.6746C48.2391 15.6931 48.307 15.7209 48.3555 15.7487C48.4039 15.7764 48.433 15.8227 48.433 15.8874C48.433 15.9615 48.3942 16.017 48.3263 16.054C48.2585 16.0911 48.1712 16.1096 48.0839 16.1096C47.9967 16.1096 47.9191 16.0911 47.8513 16.054C47.7834 16.017 47.7252 15.9615 47.6864 15.8968L47.667 15.8689L47.4052 16.0355L47.4246 16.0633C47.5022 16.1744 47.5992 16.2577 47.7155 16.3039C47.8222 16.3502 47.9483 16.378 48.0646 16.378H48.0743C48.2488 16.378 48.3942 16.3409 48.53 16.2577C48.6657 16.1744 48.7336 16.0448 48.7433 15.8689C48.7433 15.7487 48.6948 15.6561 48.6172 15.5728C48.5494 15.508 48.4524 15.4525 48.3263 15.4247ZM49.3832 14.0551C49.3444 14.0181 49.2959 13.9996 49.2475 13.9996C49.199 13.9996 49.1505 14.0181 49.1117 14.0551C49.0729 14.0922 49.0535 14.1384 49.0439 14.194C49.0439 14.2494 49.0633 14.2957 49.1117 14.3327C49.1505 14.3698 49.199 14.3883 49.2475 14.3883C49.2959 14.3883 49.3444 14.3698 49.3832 14.3327C49.422 14.2957 49.4414 14.2494 49.4511 14.194C49.4414 14.1292 49.422 14.0829 49.3832 14.0551ZM49.0924 16.3502H49.3929V14.7492H49.0924V16.3502ZM51.2739 14.7492H51.5745V17.2941H51.2739V16.1466C51.206 16.2206 51.1188 16.2762 51.0218 16.3132C50.9055 16.3595 50.7794 16.3872 50.6631 16.3872C50.3916 16.378 50.1783 16.3039 50.0135 16.1466C49.8486 15.9893 49.7613 15.7949 49.7613 15.5451C49.7613 15.3044 49.8486 15.1009 50.0135 14.9435C50.1783 14.7862 50.3916 14.7122 50.6631 14.7029C50.7794 14.7029 50.8957 14.7307 51.0218 14.7769C51.1188 14.814 51.1964 14.8695 51.2739 14.9435V14.7492ZM50.6631 14.9713C50.4885 14.9713 50.3431 15.0268 50.2364 15.1379C50.1298 15.2489 50.0813 15.3785 50.0813 15.5451C50.0813 15.7117 50.1395 15.8505 50.2364 15.9522C50.3334 16.054 50.4788 16.1096 50.6631 16.1188C50.8473 16.1188 50.9927 16.0633 51.0994 15.9522C51.2157 15.8412 51.2739 15.7117 51.2739 15.5451C51.2739 15.3785 51.2157 15.2396 51.0994 15.1379C50.9927 15.0268 50.8473 14.9713 50.6631 14.9713ZM53.4749 16.1281C53.4749 16.0633 53.4652 16.017 53.4652 15.9707V14.7492H53.1646V15.5728C53.1549 15.7487 53.1258 15.8782 53.0579 15.9522C52.9901 16.0355 52.9222 16.0818 52.8446 16.1003C52.738 16.1281 52.7186 16.1281 52.7089 16.1281C52.5538 16.1281 52.4471 16.0911 52.389 16.0078C52.3307 15.9245 52.3016 15.7949 52.3016 15.6376V14.7492H52.0011V15.7579C52.0011 15.9615 52.0592 16.1096 52.1659 16.2206C52.2726 16.3317 52.4374 16.3872 52.6507 16.3872C52.7671 16.3872 52.8834 16.3595 52.9803 16.3039C53.0579 16.2669 53.1161 16.2206 53.1646 16.1651C53.1646 16.1744 53.1646 16.1836 53.1646 16.1929C53.1646 16.2391 53.1646 16.2762 53.1743 16.3224V16.3502H53.4749V16.3132C53.4846 16.2577 53.4749 16.1929 53.4749 16.1281ZM55.3171 14.9435C55.4528 15.0916 55.5304 15.286 55.5304 15.508V15.6376H54.1827C54.2021 15.7672 54.2603 15.8782 54.3572 15.9707C54.4542 16.0633 54.5899 16.1188 54.7451 16.1188C54.8614 16.1188 54.9584 16.0911 55.0456 16.0448C55.1329 15.9985 55.191 15.9337 55.2395 15.8689L55.2589 15.8412L55.4916 16.0263L55.4625 16.0448C55.3656 16.1651 55.2492 16.2484 55.1329 16.3039C55.0165 16.3595 54.8808 16.3872 54.7451 16.3872C54.7451 16.3872 54.7451 16.3872 54.7353 16.3872C54.4832 16.378 54.2699 16.3039 54.1051 16.1466C53.9403 15.9893 53.8627 15.7949 53.853 15.5451C53.8627 15.3044 53.9403 15.1009 54.0954 14.9435C54.2505 14.7862 54.4542 14.7122 54.7062 14.7029C54.968 14.7122 55.1717 14.7954 55.3171 14.9435ZM55.2104 15.397C55.2008 15.2767 55.162 15.1749 55.0844 15.1009C54.9971 15.0176 54.8808 14.9805 54.716 14.9713C54.5705 14.9713 54.4445 15.0268 54.3378 15.1101C54.2408 15.1934 54.1923 15.286 54.1827 15.397H55.2104ZM56.6454 15.4247L56.4127 15.3693C56.3158 15.3508 56.2382 15.3229 56.1897 15.286C56.1412 15.2582 56.1219 15.2119 56.1219 15.1564C56.1219 15.0824 56.151 15.0361 56.2091 15.0083C56.2673 14.9713 56.3449 14.9528 56.4224 14.962C56.5 14.962 56.5679 14.9805 56.6163 15.0176C56.6648 15.0546 56.7133 15.1009 56.7424 15.1564L56.7618 15.1934L57.0236 15.0268L57.0042 14.9991C56.946 14.8973 56.8684 14.814 56.7618 14.7677C56.6648 14.7215 56.5582 14.7029 56.4419 14.7029H56.4321C56.2673 14.7029 56.1219 14.74 56.0055 14.8232C55.8795 14.9065 55.8116 15.0268 55.8019 15.2027C55.8116 15.36 55.8795 15.471 55.9861 15.5266C56.0928 15.5913 56.18 15.6191 56.2479 15.6284L56.4709 15.6746C56.5582 15.6931 56.626 15.7209 56.6745 15.7487C56.723 15.7764 56.7521 15.8227 56.7521 15.8874C56.7521 15.9615 56.7133 16.017 56.6454 16.054C56.5776 16.0911 56.4903 16.1096 56.403 16.1096C56.3158 16.1096 56.2382 16.0911 56.1703 16.054C56.1025 16.017 56.0443 15.9615 56.0055 15.8968L55.9861 15.8689L55.7243 16.0355L55.7437 16.0633C55.8213 16.1744 55.928 16.2577 56.0346 16.3039C56.1412 16.3502 56.2673 16.378 56.3836 16.378H56.3934C56.5582 16.378 56.7133 16.3409 56.849 16.2577C56.9848 16.1744 57.0527 16.0448 57.0623 15.8689C57.0623 15.7487 57.0139 15.6561 56.9363 15.5728C56.8684 15.508 56.7715 15.4525 56.6454 15.4247ZM59.69 15.2304C59.5639 15.1379 59.4088 15.0638 59.2439 15.0176C59.0791 14.9713 58.9434 14.9158 58.8173 14.8602C58.701 14.8048 58.6428 14.7029 58.6428 14.5641C58.6525 14.4253 58.701 14.3327 58.7979 14.268C58.8949 14.2032 59.0113 14.1755 59.1373 14.1755C59.3409 14.1755 59.4863 14.2402 59.5833 14.3883L59.6027 14.416L59.8839 14.2125L59.8548 14.1847C59.7578 14.0736 59.6415 13.9996 59.5252 13.9533C59.4088 13.9071 59.2827 13.8885 59.1469 13.8885C59.1373 13.8885 59.1373 13.8885 59.1276 13.8885C58.9143 13.8885 58.7204 13.9441 58.5652 14.0551C58.4004 14.1662 58.3131 14.342 58.3034 14.5826C58.3131 14.7954 58.381 14.9528 58.5167 15.0546C58.6428 15.1471 58.798 15.2119 58.9628 15.2582C59.1276 15.3045 59.2633 15.3508 59.3893 15.4155C59.5057 15.471 59.5639 15.5728 59.5639 15.7209C59.5542 15.8504 59.5057 15.943 59.4088 16.0078C59.3118 16.0726 59.1954 16.1096 59.0694 16.1096C58.9434 16.1096 58.8367 16.0818 58.7495 16.0355C58.6622 15.9893 58.5943 15.9245 58.5361 15.8412L58.5167 15.8135L58.2258 16.0078L58.2452 16.0355C58.3422 16.1558 58.4682 16.2484 58.604 16.3132C58.7397 16.3687 58.8852 16.3965 59.0404 16.3965C59.0404 16.3965 59.0403 16.3965 59.05 16.3965C59.2633 16.3965 59.4572 16.3317 59.6221 16.2114C59.7966 16.0911 59.8839 15.9152 59.8935 15.6931C59.9032 15.4895 59.8257 15.3322 59.69 15.2304ZM62.1333 15.8689L60.708 13.9626H60.3396V16.3502H60.6595V14.4253L62.0751 16.3316L62.0848 16.3502H62.4533V13.9626H62.1333V15.8689ZM64.8772 15.7857C64.79 15.9153 64.6833 15.9985 64.567 16.0448C64.4507 16.0911 64.3246 16.1188 64.1985 16.1188C63.8883 16.1096 63.6459 16.017 63.4811 15.832C63.3065 15.6469 63.2192 15.4155 63.2192 15.1564C63.2192 14.888 63.3065 14.6659 63.4811 14.4716C63.6459 14.2865 63.8883 14.194 64.1985 14.1847C64.3246 14.1847 64.4507 14.2217 64.5573 14.2773C64.6736 14.3327 64.7512 14.3975 64.7996 14.4716L64.8191 14.4993L65.1003 14.305L65.0809 14.2773C64.9645 14.1477 64.8288 14.0459 64.6736 13.9904C64.5185 13.9348 64.3537 13.8978 64.1985 13.8978C63.8204 13.9071 63.5004 14.0274 63.258 14.2494C63.0157 14.4808 62.8896 14.7769 62.8799 15.1471C62.8896 15.5173 63.0157 15.8135 63.258 16.0448C63.5004 16.2762 63.8204 16.3965 64.1985 16.3965C64.4118 16.3965 64.5961 16.3502 64.7609 16.2669C64.9257 16.1836 65.0518 16.0818 65.139 15.9522L65.1584 15.9245L64.8966 15.7487L64.8772 15.7857ZM67.0588 14.2402V13.9533H65.5075V16.341H65.8275V15.2397H66.9716V14.9528H65.8275V14.2309H67.0588V14.2402Z" fill="#000000ff"/>
</svg>
