<?xml version="1.0" ?>
<svg xmlns="http://www.w3.org/2000/svg" width="70.0" height="24.0" viewBox="0 0 70.0 24.0">
  <path d="M3.40307 10.596H1.41177V9.54988H6.5506V10.596H4.5593V16.0468H3.40307V10.596Z" fill="#000000ff"/>
  <path d="M7.34174 9.54988H9.59915C9.91115 9.54988 10.2109 9.58045 10.4984 9.64165C10.7921 9.6967 11.0521 9.79454 11.2784 9.93529C11.5048 10.076 11.6853 10.2656 11.8199 10.5042C11.9545 10.7428 12.0217 11.0456 12.0217 11.4127C12.0217 11.8837 11.8902 12.2783 11.6271 12.5965C11.3702 12.9145 11.0001 13.1072 10.5168 13.1746L12.242 16.0468H10.8471L9.34221 13.2939H8.49797V16.0468H7.34174V9.54988ZM9.39727 12.3028C9.56244 12.3028 9.72762 12.2967 9.89279 12.2845C10.058 12.2661 10.2079 12.2294 10.3424 12.1744C10.4832 12.1132 10.5963 12.0244 10.682 11.9082C10.7677 11.7858 10.8104 11.6176 10.8104 11.4035C10.8104 11.2139 10.7707 11.0609 10.6911 10.9447C10.6117 10.8284 10.5076 10.7428 10.3791 10.6878C10.2507 10.6266 10.107 10.5868 9.94785 10.5685C9.79496 10.5501 9.64503 10.5409 9.49821 10.5409H8.49797V12.3028H9.39727Z" fill="#000000ff"/>
  <path d="M15.2233 9.54988H16.2235L19.0223 16.0468H17.7009L17.0953 14.5602H14.2781L13.6908 16.0468H12.3969L15.2233 9.54988ZM16.6915 13.5692L15.6913 10.9264L14.6727 13.5692H16.6915Z" fill="#000000ff"/>
  <path d="M19.7169 9.54988H20.8731V16.0468H19.7169V9.54988Z" fill="#000000ff"/>
  <path d="M22.2983 9.54988H23.8308L26.9783 14.3767H26.9967V9.54988H28.1529V16.0468H26.6847L23.4729 11.064H23.4546V16.0468H22.2983V9.54988Z" fill="#000000ff"/>
  <path d="M35.5014 10.9447C35.379 10.7672 35.2139 10.6388 35.0059 10.5593C34.804 10.4736 34.5899 10.4308 34.3636 10.4308C34.229 10.4308 34.0974 10.4461 33.969 10.4767C33.8466 10.5073 33.7334 10.5562 33.6294 10.6235C33.5315 10.6908 33.452 10.7795 33.3909 10.8896C33.3297 10.9936 33.2991 11.1191 33.2991 11.2659C33.2991 11.4861 33.3755 11.6543 33.5285 11.7706C33.6814 11.8868 33.8711 11.9877 34.0974 12.0734C34.3238 12.159 34.5715 12.2416 34.8407 12.3212C35.1099 12.4007 35.3577 12.5108 35.584 12.6515C35.8103 12.7922 36 12.9788 36.153 13.2113C36.3059 13.4437 36.3824 13.7527 36.3824 14.1381C36.3824 14.4868 36.3182 14.7927 36.1897 15.0558C36.0612 15.3127 35.8869 15.5268 35.6666 15.6981C35.4525 15.8694 35.2017 15.9978 34.9142 16.0835C34.6266 16.1692 34.3238 16.212 34.0057 16.212C33.6019 16.212 33.2134 16.1447 32.8403 16.0101C32.4671 15.8755 32.1459 15.6491 31.8767 15.3311L32.7485 14.4868C32.8892 14.7009 33.0727 14.8691 33.2991 14.9915C33.5315 15.1077 33.7763 15.1659 34.0332 15.1659C34.1678 15.1659 34.3024 15.1475 34.437 15.1108C34.5715 15.0741 34.6939 15.0191 34.804 14.9456C34.9142 14.8722 35.0028 14.7805 35.0702 14.6704C35.1374 14.5541 35.1711 14.4226 35.1711 14.2758C35.1711 14.0372 35.0946 13.8536 34.9417 13.7252C34.7887 13.5967 34.599 13.4896 34.3727 13.404C34.1464 13.3122 33.8986 13.2265 33.6294 13.1471C33.3602 13.0675 33.1125 12.9604 32.8862 12.8259C32.6598 12.6851 32.4701 12.5016 32.3172 12.2753C32.1642 12.0428 32.0878 11.7339 32.0878 11.3485C32.0878 11.012 32.1551 10.7214 32.2897 10.4767C32.4304 10.232 32.6109 10.0301 32.8311 9.87106C33.0574 9.70588 33.3143 9.58348 33.6019 9.504C33.8894 9.42445 34.1831 9.3847 34.4829 9.3847C34.8254 9.3847 35.1558 9.43666 35.4739 9.5407C35.7981 9.64468 36.0887 9.816 36.3457 10.0546L35.5014 10.9447Z" fill="#000000ff"/>
  <path d="M37.5865 9.54988H39.7705C40.0825 9.54988 40.3823 9.58045 40.6698 9.64165C40.9634 9.70278 41.2204 9.80682 41.4406 9.95365C41.6608 10.0943 41.8352 10.287 41.9637 10.5318C42.0983 10.7704 42.1655 11.0701 42.1655 11.4311C42.1655 11.8409 42.0952 12.1712 41.9545 12.4221C41.8138 12.6729 41.6241 12.8687 41.3855 13.0094C41.147 13.144 40.8686 13.2357 40.5505 13.2847C40.2385 13.3336 39.9112 13.3581 39.5686 13.3581H38.7427V16.0468H37.5865V9.54988ZM39.4401 12.3671C39.6053 12.3671 39.7766 12.3609 39.954 12.3487C40.1315 12.3364 40.2935 12.2997 40.4404 12.2386C40.5933 12.1774 40.7157 12.0856 40.8074 11.9633C40.9053 11.8409 40.9543 11.6696 40.9543 11.4494C40.9543 11.2475 40.9115 11.0884 40.8258 10.9722C40.7402 10.8498 40.63 10.7581 40.4954 10.6969C40.3609 10.6296 40.211 10.5868 40.0458 10.5685C39.8806 10.5501 39.7216 10.5409 39.5686 10.5409H38.7427V12.3671H39.4401Z" fill="#000000ff"/>
  <path d="M43.1963 9.54988H47.5001V10.596H44.3526V12.1927H47.3349V13.2388H44.3526V15.0007H47.6653V16.0468H43.1963V9.54988ZM45.7566 7.78799H47.0046L45.7107 9.10941H44.8481L45.7566 7.78799Z" fill="#000000ff"/>
  <path d="M53.266 11.0732C53.0274 10.8162 52.7949 10.6449 52.5686 10.5593C52.3483 10.4736 52.125 10.4308 51.8986 10.4308C51.5622 10.4308 51.2563 10.492 50.981 10.6144C50.7118 10.7305 50.4794 10.8957 50.2836 11.1099C50.0878 11.3178 49.9349 11.5626 49.8248 11.844C49.7207 12.1254 49.6688 12.4282 49.6688 12.7525C49.6688 13.1012 49.7207 13.4224 49.8248 13.716C49.9349 14.0096 50.0878 14.2635 50.2836 14.4776C50.4794 14.6917 50.7118 14.86 50.981 14.9824C51.2563 15.1047 51.5622 15.1659 51.8986 15.1659C52.1617 15.1659 52.4156 15.1047 52.6603 14.9824C52.9111 14.8539 53.1436 14.652 53.3577 14.3767L54.3121 15.0558C54.0184 15.4595 53.6606 15.7532 53.2384 15.9367C52.8163 16.1202 52.3667 16.212 51.8894 16.212C51.3878 16.212 50.926 16.1324 50.5038 15.9734C50.0878 15.8082 49.7269 15.5788 49.421 15.2852C49.1212 14.9854 48.8857 14.6275 48.7144 14.2115C48.5431 13.7955 48.4574 13.3336 48.4574 12.8259C48.4574 12.3059 48.5431 11.8348 48.7144 11.4127C48.8857 10.9844 49.1212 10.6204 49.421 10.3207C49.7269 10.0209 50.0878 9.7915 50.5038 9.63247C50.926 9.46729 51.3878 9.3847 51.8894 9.3847C52.3299 9.3847 52.7368 9.46419 53.11 9.62329C53.4892 9.77619 53.841 10.0393 54.1653 10.4125L53.266 11.0732Z" fill="#000000ff"/>
  <path d="M55.0606 9.54988H56.2168V16.0468H55.0606V9.54988Z" fill="#000000ff"/>
  <path d="M59.7435 9.54988H60.7437L63.5425 16.0468H62.2211L61.6155 14.5602H58.7983L58.211 16.0468H56.9171L59.7435 9.54988ZM61.2117 13.5692L60.2115 10.9264L59.1929 13.5692H61.2117Z" fill="#000000ff"/>
  <path d="M64.2646 9.54988H65.4208V15.0007H68.1829V16.0468H64.2646V9.54988Z" fill="#000000ff"/>
</svg>
