<?xml version="1.0" ?>
<svg xmlns="http://www.w3.org/2000/svg" width="24.0" height="24.0" viewBox="0 0 24.0 24.0">
  <g transform="translate(6.48,6.48)">
    <path d="M21.038,8.592L13.123,2.425C12.767,2.146 12.328,1.996 11.877,2C11.426,2.004 10.989,2.161 10.639,2.445L2.936,8.659C2.703,8.846 2.516,9.083 2.387,9.352C2.258,9.621 2.192,9.916 2.192,10.215V20.986C2.193,21.254 2.3,21.512 2.49,21.703C2.68,21.893 2.938,22 3.207,22H20.794C21.063,22 21.321,21.893 21.511,21.702C21.701,21.512 21.808,21.254 21.808,20.985V10.169C21.809,9.864 21.74,9.564 21.607,9.291C21.473,9.017 21.278,8.778 21.038,8.592ZM9.173,21H7.172V17.122C7.173,16.857 7.279,16.603 7.467,16.416C7.654,16.229 7.908,16.124 8.173,16.124C8.438,16.124 8.692,16.229 8.879,16.416C9.067,16.603 9.172,16.857 9.173,17.122V21ZM16.828,21H14.827V17.122C14.828,16.857 14.934,16.603 15.122,16.416C15.309,16.229 15.563,16.125 15.828,16.125C16.092,16.125 16.346,16.229 16.534,16.416C16.721,16.603 16.827,16.857 16.828,17.122V21ZM20.794,21H17.828V17.122C17.828,16.591 17.617,16.082 17.242,15.707C16.867,15.332 16.358,15.122 15.828,15.122C15.297,15.122 14.788,15.332 14.413,15.707C14.038,16.082 13.828,16.591 13.828,17.122V21H10.173V17.122C10.172,16.592 9.961,16.084 9.586,15.71C9.211,15.336 8.703,15.126 8.173,15.126C7.643,15.126 7.135,15.336 6.76,15.71C6.385,16.084 6.174,16.592 6.172,17.122V21H3.207L3.192,10.215C3.192,10.065 3.225,9.918 3.289,9.783C3.354,9.649 3.448,9.531 3.564,9.437L11.267,3.223C11.442,3.081 11.66,3.003 11.885,3.001C12.111,2.999 12.33,3.074 12.508,3.213L20.424,9.381C20.544,9.474 20.641,9.593 20.708,9.73C20.774,9.867 20.809,10.017 20.808,10.169L20.794,21ZM12,5.507C11.09,5.507 10.2,5.777 9.443,6.283C8.686,6.789 8.096,7.508 7.748,8.349C7.399,9.19 7.308,10.116 7.486,11.008C7.664,11.901 8.102,12.721 8.746,13.365C9.39,14.009 10.21,14.447 11.103,14.625C11.995,14.802 12.921,14.711 13.762,14.363C14.603,14.014 15.322,13.424 15.828,12.667C16.333,11.91 16.603,11.02 16.603,10.11C16.602,8.89 16.116,7.72 15.253,6.857C14.39,5.994 13.22,5.509 12,5.507ZM12,13.713C11.288,13.713 10.591,13.502 9.998,13.106C9.406,12.71 8.944,12.147 8.672,11.489C8.399,10.83 8.328,10.106 8.467,9.407C8.606,8.708 8.949,8.066 9.453,7.563C9.957,7.059 10.599,6.716 11.297,6.577C11.996,6.437 12.721,6.509 13.379,6.781C14.037,7.054 14.6,7.516 14.996,8.108C15.392,8.701 15.603,9.397 15.603,10.11C15.602,11.065 15.222,11.981 14.547,12.657C13.871,13.332 12.955,13.712 12,13.713ZM14.201,8.746C14.248,8.793 14.284,8.848 14.309,8.908C14.335,8.969 14.348,9.034 14.348,9.1C14.348,9.165 14.335,9.231 14.309,9.291C14.284,9.352 14.248,9.407 14.201,9.453L12.027,11.627C11.937,11.717 11.816,11.769 11.689,11.773C11.562,11.777 11.438,11.732 11.342,11.648L9.75,10.24C9.701,10.196 9.661,10.144 9.632,10.085C9.603,10.026 9.587,9.962 9.582,9.896C9.578,9.831 9.587,9.765 9.609,9.703C9.63,9.641 9.663,9.583 9.707,9.534C9.75,9.485 9.803,9.445 9.862,9.416C9.921,9.387 9.985,9.37 10.051,9.366C10.116,9.362 10.182,9.371 10.244,9.393C10.306,9.414 10.363,9.447 10.412,9.491L11.653,10.587L13.494,8.746C13.54,8.7 13.596,8.663 13.656,8.638C13.717,8.613 13.782,8.6 13.848,8.6C13.913,8.6 13.978,8.613 14.039,8.638C14.099,8.663 14.155,8.7 14.201,8.746H14.201Z" fill="#f3f3f4ff"/>
  </g>
</svg>
