<?xml version="1.0" ?>
<svg xmlns="http://www.w3.org/2000/svg" width="20.0" height="24.0" viewBox="0 0 20.0 24.0">
  <path d="M3.46375 9.49355H1.41176V8.47058H6.70722V9.49355H4.65522V14.8235H3.46375V9.49355Z" fill="#000000ff"/>
  <path d="M7.52252 8.47058H11.9574V9.49355H8.71398V11.0548H11.7873V12.0778H8.71398V13.8006H12.1277V14.8235H7.52252V8.47058Z" fill="#000000ff"/>
  <path d="M13.3033 8.47058H15.6296C15.9511 8.47058 16.26 8.50051 16.5563 8.5603C16.8589 8.61416 17.1268 8.70988 17.3601 8.84745C17.5933 8.98503 17.7793 9.17046 17.918 9.40376C18.0566 9.63705 18.126 9.93317 18.126 10.2921C18.126 10.7528 17.9905 11.1386 17.7194 11.4496C17.4546 11.7607 17.0732 11.9492 16.5752 12.015L18.3529 14.8235H16.9156L15.3648 12.1316H14.4948V14.8235H13.3033V8.47058ZM15.4216 11.1625C15.5917 11.1625 15.7619 11.1565 15.9322 11.1445C16.1024 11.1266 16.2568 11.0907 16.3955 11.0369C16.5405 10.977 16.6571 10.8903 16.7454 10.7766C16.8337 10.6571 16.8778 10.4925 16.8778 10.2831C16.8778 10.0977 16.8368 9.94813 16.7548 9.83449C16.6729 9.72084 16.5657 9.63705 16.4334 9.58326C16.3009 9.5234 16.1528 9.48451 15.9889 9.46658C15.8313 9.44865 15.6769 9.43969 15.5255 9.43969H14.4948V11.1625H15.4216Z" fill="#000000ff"/>
</svg>
