<?xml version="1.0" ?>
<svg xmlns="http://www.w3.org/2000/svg" width="41.0" height="24.0" viewBox="0 0 41.0 24.0">
  <path d="M6.22024 10.2749C5.98166 10.018 5.74919 9.84664 5.52283 9.76101C5.3026 9.67532 5.07931 9.63254 4.85295 9.63254C4.51648 9.63254 4.2106 9.69367 3.9353 9.81607C3.66613 9.93226 3.43365 10.0974 3.23789 10.3116C3.04213 10.5196 2.88919 10.7643 2.77907 11.0457C2.67507 11.3271 2.62307 11.6299 2.62307 11.9542C2.62307 12.3029 2.67507 12.6241 2.77907 12.9177C2.88919 13.2114 3.04213 13.4652 3.23789 13.6794C3.43365 13.8935 3.66613 14.0617 3.9353 14.1841C4.2106 14.3064 4.51648 14.3676 4.85295 14.3676C5.11601 14.3676 5.36989 14.3064 5.6146 14.1841C5.86542 14.0556 6.09789 13.8537 6.31201 13.5784L7.26636 14.2575C6.97271 14.6612 6.61483 14.9549 6.19271 15.1384C5.7706 15.322 5.32095 15.4137 4.84377 15.4137C4.34212 15.4137 3.88024 15.3342 3.45813 15.1751C3.04213 15.01 2.68118 14.7805 2.3753 14.4869C2.07554 14.1871 1.84001 13.8292 1.66871 13.4132C1.49742 12.9972 1.41177 12.5353 1.41177 12.0276C1.41177 11.5076 1.49742 11.0365 1.66871 10.6144C1.84001 10.1862 2.07554 9.82214 2.3753 9.52243C2.68118 9.22264 3.04213 8.99323 3.45813 8.83419C3.88024 8.66901 4.34212 8.58643 4.84377 8.58643C5.28424 8.58643 5.69107 8.66591 6.06424 8.82501C6.44354 8.97791 6.79531 9.24099 7.11954 9.61419L6.22024 10.2749Z" fill="#000000ff"/>
  <path d="M10.1438 8.7516H11.144L13.9429 15.2485H12.6214L12.0158 13.762H9.19862L8.61133 15.2485H7.31744L10.1438 8.7516ZM11.612 12.7709L10.6118 10.1281L9.59321 12.7709H11.612Z" fill="#000000ff"/>
  <path d="M14.6649 8.7516H16.9223C17.2343 8.7516 17.5341 8.78217 17.8216 8.84337C18.1152 8.89843 18.3753 8.99626 18.6016 9.13701C18.8279 9.2777 19.0084 9.46737 19.143 9.70596C19.2776 9.94454 19.3449 10.2474 19.3449 10.6144C19.3449 11.0855 19.2134 11.48 18.9503 11.7982C18.6933 12.1163 18.3232 12.309 17.84 12.3763L19.5652 15.2485H18.1703L16.6653 12.4956H15.8211V15.2485H14.6649V8.7516ZM16.7204 11.5045C16.8856 11.5045 17.0508 11.4984 17.216 11.4862C17.3812 11.4678 17.531 11.4311 17.6656 11.3761C17.8063 11.3149 17.9195 11.2261 18.0052 11.11C18.0908 10.9876 18.1336 10.8193 18.1336 10.6052C18.1336 10.4156 18.0938 10.2626 18.0143 10.1464C17.9348 10.0302 17.8308 9.94454 17.7023 9.88948C17.5739 9.82828 17.4301 9.78854 17.271 9.77019C17.1181 9.75184 16.9682 9.74266 16.8213 9.74266H15.8211V11.5045H16.7204Z" fill="#000000ff"/>
  <path d="M24.4909 9.79772H22.4996V8.7516H27.6384V9.79772H25.6471V15.2485H24.4909V9.79772Z" fill="#000000ff"/>
  <path d="M28.4296 8.7516H32.7333V9.79772H29.5858V11.3944H32.5682V12.4405H29.5858V14.2024H32.8986V15.2485H28.4296V8.7516Z" fill="#000000ff"/>
  <path d="M34.0394 8.7516H36.2968C36.6088 8.7516 36.9086 8.78217 37.1961 8.84337C37.4898 8.89843 37.7497 8.99626 37.9761 9.13701C38.2025 9.2777 38.383 9.46737 38.5175 9.70596C38.6521 9.94454 38.7194 10.2474 38.7194 10.6144C38.7194 11.0855 38.5879 11.48 38.3248 11.7982C38.0679 12.1163 37.6978 12.309 37.2145 12.3763L38.9396 15.2485H37.5448L36.0399 12.4956H35.1956V15.2485H34.0394V8.7516ZM36.0949 11.5045C36.2601 11.5045 36.4253 11.4984 36.5905 11.4862C36.7556 11.4678 36.9055 11.4311 37.0401 11.3761C37.1808 11.3149 37.294 11.2261 37.3796 11.11C37.4653 10.9876 37.5081 10.8193 37.5081 10.6052C37.5081 10.4156 37.4684 10.2626 37.3888 10.1464C37.3093 10.0302 37.2053 9.94454 37.0768 9.88948C36.9484 9.82828 36.8046 9.78854 36.6455 9.77019C36.4926 9.75184 36.3427 9.74266 36.1959 9.74266H35.1956V11.5045H36.0949Z" fill="#000000ff"/>
</svg>
