<?xml version="1.0" ?>
<svg xmlns="http://www.w3.org/2000/svg" width="34.0" height="24.0" viewBox="0 0 34.0 24.0">
  <path d="M3.40306 9.79772H1.41177V8.7516H6.55059V9.79772H4.5593V15.2485H3.40306V9.79772Z" fill="#000000ff"/>
  <path d="M7.34174 8.7516H11.6455V9.79772H8.49798V11.3944H11.4803V12.4405H8.49798V14.2024H11.8107V15.2485H7.34174V8.7516Z" fill="#000000ff"/>
  <path d="M12.9516 8.7516H15.209C15.521 8.7516 15.8208 8.78217 16.1083 8.84337C16.402 8.89843 16.6619 8.99626 16.8883 9.13701C17.1147 9.2777 17.2951 9.46737 17.4297 9.70596C17.5643 9.94454 17.6316 10.2474 17.6316 10.6144C17.6316 11.0855 17.5001 11.48 17.237 11.7982C16.9801 12.1163 16.61 12.309 16.1267 12.3763L17.8518 15.2485H16.457L14.9521 12.4956H14.1078V15.2485H12.9516V8.7516ZM15.0071 11.5045C15.1723 11.5045 15.3375 11.4984 15.5027 11.4862C15.6678 11.4678 15.8177 11.4311 15.9523 11.3761C16.093 11.3149 16.2062 11.2261 16.2918 11.11C16.3775 10.9876 16.4203 10.8193 16.4203 10.6052C16.4203 10.4156 16.3806 10.2626 16.301 10.1464C16.2215 10.0302 16.1175 9.94454 15.989 9.88948C15.8605 9.82828 15.7168 9.78854 15.5577 9.77019C15.4048 9.75184 15.2549 9.74266 15.1081 9.74266H14.1078V11.5045H15.0071Z" fill="#000000ff"/>
  <path d="M24.5037 14.7714C23.7023 15.1996 22.8061 15.4137 21.815 15.4137C21.3133 15.4137 20.8515 15.3342 20.4294 15.1751C20.0134 15.01 19.6524 14.7805 19.3465 14.4869C19.0468 14.1871 18.8113 13.8292 18.64 13.4132C18.4686 12.9972 18.383 12.5353 18.383 12.0276C18.383 11.5076 18.4686 11.0365 18.64 10.6144C18.8113 10.1862 19.0468 9.82214 19.3465 9.52243C19.6524 9.22264 20.0134 8.99323 20.4294 8.83419C20.8515 8.66901 21.3133 8.58643 21.815 8.58643C22.3105 8.58643 22.7755 8.64756 23.2098 8.76996C23.6442 8.88614 24.0327 9.0972 24.3752 9.40313L23.5218 10.2657C23.3138 10.0638 23.06 9.90784 22.7602 9.79772C22.4665 9.6876 22.1545 9.63254 21.8242 9.63254C21.4877 9.63254 21.1818 9.69367 20.9065 9.81607C20.6374 9.93226 20.4049 10.0974 20.2091 10.3116C20.0134 10.5196 19.8604 10.7643 19.7503 11.0457C19.6463 11.3271 19.5943 11.6299 19.5943 11.9542C19.5943 12.3029 19.6463 12.6241 19.7503 12.9177C19.8604 13.2114 20.0134 13.4652 20.2091 13.6794C20.4049 13.8935 20.6374 14.0617 20.9065 14.1841C21.1818 14.3064 21.4877 14.3676 21.8242 14.3676C22.1178 14.3676 22.3931 14.3401 22.6501 14.285C22.9132 14.23 23.1456 14.1443 23.3475 14.0281V12.4956H22.0169V11.4495H24.5037V14.7714Z" fill="#000000ff"/>
  <path d="M25.1214 8.7516H26.4521L28.2231 13.661L30.0493 8.7516H31.2972L28.6728 15.2485H27.6726L25.1214 8.7516Z" fill="#000000ff"/>
</svg>
