<?xml version="1.0" ?>
<svg xmlns="http://www.w3.org/2000/svg" width="26.0" height="24.0" viewBox="0 0 26.0 24.0">
  <path d="M10.2857 9.68584C10.8162 9.19885 11.4914 8.88897 12.2631 8.88897C13.083 8.84471 13.8546 9.11033 14.4333 9.64158L14.5298 9.7301L15.4461 8.84471L15.3496 8.75619C14.144 7.60518 12.0219 7.56092 10.6233 8.09217C9.12825 8.62335 8.11545 10.04 8.11545 11.6337C8.11545 13.2274 9.08004 14.644 10.6233 15.2195C11.1538 15.4409 11.7807 15.5294 12.456 15.5294C12.6489 15.5294 12.8418 15.5294 13.0347 15.4852C13.4687 15.4409 13.9028 15.3523 14.2886 15.2638C14.2886 15.2638 14.3369 15.2638 14.3851 15.2195C14.9639 15.0867 15.3014 14.9539 15.3014 14.7325V10.9254H12.6006V12.0321H14.0475V14.1128C13.9993 14.2899 12.7453 14.3784 12.2148 14.3784C11.4432 14.3341 10.768 14.0243 10.2375 13.5373C9.22468 12.5191 9.22468 10.7926 10.2857 9.68584C10.2857 9.7301 10.2857 9.7301 10.2857 9.68584ZM1.41176 8.93323H3.87138V15.2195H5.07709V8.93323H7.5367V7.78229H1.41176V8.93323ZM22.1498 7.78229L19.8349 13.4045L17.6163 7.87081L17.5681 7.78229H16.0731L19.1597 15.0867L19.2079 15.1753H20.3653L23.5967 7.78229H22.1498Z" fill="#000000ff"/>
</svg>
