<?xml version="1.0" ?>
<svg xmlns="http://www.w3.org/2000/svg" width="30.0" height="24.0" viewBox="0 0 30.0 24.0">
  <path d="M1.74808 6.5949V6.91136H2.59464V9.07201H2.95415V6.91136H3.80072V6.5949H1.74808ZM5.48226 7.68615V8.0026H6.0621V8.69012C5.98093 8.73375 5.88815 8.7665 5.77218 8.78831C5.65622 8.81012 5.54025 8.82107 5.41268 8.82107C5.26192 8.82107 5.13436 8.79925 5.00679 8.74469C4.87922 8.69012 4.77485 8.62462 4.68208 8.5373C4.5893 8.45005 4.51972 8.34093 4.46173 8.22085C4.41535 8.10085 4.38056 7.96984 4.38056 7.82803C4.38056 7.69709 4.40375 7.56608 4.45014 7.44608C4.49653 7.32601 4.56611 7.21688 4.64729 7.12963C4.72847 7.04231 4.83284 6.96592 4.96041 6.92227C5.07637 6.86771 5.21553 6.84588 5.3663 6.84588C5.50545 6.84588 5.63302 6.86771 5.74899 6.90045C5.86496 6.9441 5.98093 7.00957 6.0969 7.10775L6.35202 6.85679C6.24765 6.75858 6.12009 6.68219 5.96933 6.61672C5.81857 6.56216 5.62142 6.52942 5.37789 6.52942C5.18075 6.52942 4.99519 6.56216 4.82124 6.62763C4.64729 6.69311 4.50813 6.78041 4.39216 6.90045C4.27619 7.02048 4.18341 7.15144 4.11383 7.31514C4.04425 7.47883 4.00946 7.64252 4.00946 7.82803C4.00946 8.0026 4.04425 8.16629 4.10224 8.32998C4.16022 8.48274 4.25299 8.62462 4.38056 8.74469C4.49653 8.86469 4.64729 8.96288 4.82124 9.02838C4.99519 9.09389 5.19234 9.13751 5.41268 9.13751C5.49386 9.13751 5.57504 9.13751 5.66781 9.12657C5.76059 9.1157 5.84176 9.10476 5.93454 9.08295C6.02731 9.06114 6.10849 9.03933 6.18967 9.00657C6.27085 8.97382 6.34043 8.94107 6.41001 8.90831V7.68615H5.48226ZM7.72045 9.06114H8.05673L9.08887 6.58398H8.69457L7.90602 8.60281H7.89438L7.11741 6.5949H6.69993L7.72045 9.06114ZM5.08797 12.4222C5.08797 11.7674 5.65622 11.2218 6.36362 11.2218C7.05946 11.2218 7.63927 11.7565 7.63927 12.4222V15.9688H9.1121V12.4222C9.1121 11.0036 7.8828 9.84685 6.37522 9.84685C4.86763 9.84685 3.61517 11.0036 3.61517 12.4222V15.9688H5.08797V12.4222ZM1.84085 10.1196C1.60891 11.0363 1.48134 11.9966 1.48134 12.9787C1.48134 13.0005 1.48134 14.9102 1.48134 14.9102C1.52773 14.8775 1.56252 14.8557 1.60891 14.8229C1.79446 14.7247 2.0032 14.6593 2.23514 14.6593C2.50187 14.6593 2.757 14.7465 2.96574 14.8775V10.1196H1.84085Z" fill="#000000ff"/>
  <path d="M27.4119 10.8941C26.9596 10.8941 26.5885 10.5449 26.5885 10.1193C26.5885 9.69367 26.9596 9.34447 27.4119 9.34447C27.8642 9.34447 28.2353 9.69367 28.2353 10.1193C28.2353 10.5558 27.8642 10.8941 27.4119 10.8941ZM2.23514 15.2045C1.78286 15.2045 1.41176 15.5537 1.41176 15.9793C1.41176 16.4049 1.78286 16.7541 2.23514 16.7541C2.68742 16.7541 3.05852 16.4049 3.05852 15.9793C3.05852 15.5428 2.68742 15.2045 2.23514 15.2045ZM14.8293 17.8235C12.0345 17.8235 9.7615 15.6847 9.7615 13.0547C9.7615 10.4248 12.0345 8.286 14.8293 8.286C17.6242 8.286 19.8971 10.4248 19.8971 13.0547C19.8971 15.6847 17.6242 17.8235 14.8293 17.8235ZM14.8293 9.84649C12.9506 9.84649 11.4315 11.2869 11.4315 13.0439C11.4315 14.8007 12.9623 16.2412 14.8293 16.2412C16.708 16.2412 18.2388 14.8007 18.2388 13.0439C18.2388 11.2869 16.6964 9.84649 14.8293 9.84649ZM24.5591 13.6659C24.5591 14.3206 23.9908 14.8662 23.2835 14.8662C22.5876 14.8662 22.0078 14.3315 22.0078 13.6659V10.1193H20.5466V13.6659C20.5466 15.0845 21.7758 16.2412 23.2835 16.2412C24.791 16.2412 26.0319 15.0845 26.0319 13.6659V10.1193H24.5591V13.6659ZM27.8062 15.9684C28.0381 15.0517 28.1657 14.0915 28.1657 13.1093C28.1657 13.0875 28.1657 11.1778 28.1657 11.1778C28.1193 11.2105 28.0845 11.2323 28.0381 11.2651C27.8526 11.3633 27.6438 11.4288 27.4119 11.4288C27.1452 11.4288 26.89 11.3415 26.6813 11.2105V15.9793H27.8062V15.9684Z" fill="#000000ff"/>
</svg>
