<?xml version="1.0" ?>
<svg xmlns="http://www.w3.org/2000/svg" width="38.0" height="24.0" viewBox="0 0 38.0 24.0">
  <path d="M1.41177 5.64706H35.7032V18.3529H1.41177V5.64706ZM28.8261 7.96568H27.6458V9.19335H28.8261V7.96568ZM27.6032 9.65718C27.3663 9.64433 26.3845 9.59111 25.9934 10.4125V9.76906H24.1131L23.0711 13.0202L22.0048 9.76906H20.7431L21.9234 13.0287H19.5628V7.96568H18.2522V14.1547H22.306C22.306 14.1547 22.3467 14.2564 22.3548 14.2902C22.4281 14.5611 22.2815 14.9929 21.8664 14.9929H21.1583V16.0427H22.2001C22.7211 16.0427 23.1851 15.6533 23.4537 14.9167L24.8701 10.9459V14.1547H26.0504V12.2836C26.0504 10.6355 27.3515 10.7792 27.6046 10.8071C27.6193 10.8088 27.6305 10.81 27.6377 10.8105V14.1547H28.818V10.4125H27.6377L27.6458 9.65902C27.6371 9.65902 27.6227 9.65817 27.6032 9.65718ZM30.2832 8.45676V8.25353H30.4786V8.16043H30.2832V7.95721H30.1936V8.16043H29.9983V8.25353H30.1936V8.45676H30.2832ZM30.2832 9.18488V8.98165H30.4786V8.88855H30.2832V8.68532H30.1936V8.88855H29.9983V8.98165H30.1936V9.18488H30.2832ZM31.6914 8.45676V8.25353H31.8868V8.16043H31.6914V7.95721H31.6019V8.16043H31.4065V8.25353H31.6019V8.45676H31.6914ZM30.9914 8.45676V8.25353H31.1867V8.16043H30.9914V7.95721H30.9018V8.16043H30.7065V8.25353H30.9018V8.45676H30.9914ZM30.9914 9.18488H30.9018V8.98165H30.7065V8.88855H30.9018V8.68532H30.9914V8.88855H31.1867V8.98165H30.9914V9.18488ZM3.69786 9.98916H5.16307V14.1547H6.00963V9.98916H7.4748V9.19335H3.69786V9.98916ZM10.2506 14.2817C10.9913 14.2817 11.6507 14.1124 12.2286 13.7907L12.2368 11.2507H10.4053V12.0465H11.3821V13.2234C11.0809 13.4012 10.6902 13.4859 10.2587 13.4859C9.27381 13.4859 8.62257 12.6985 8.62257 11.6401C8.62257 10.6496 9.27381 9.86217 10.2587 9.86217C10.739 9.86217 11.203 10.04 11.5041 10.3448L12.1309 9.68436C11.6344 9.21876 10.9751 9.05789 10.2506 9.05789C8.77722 9.05789 7.72715 10.0993 7.72715 11.691C7.72715 13.2403 8.77722 14.2817 10.2506 14.2817ZM13.5229 9.18488H12.5461L14.4264 14.1547H15.159L17.0882 9.18488H16.1684L14.8253 12.9355L13.5229 9.18488ZM30.0716 9.94688C29.8925 10.0569 29.7378 10.2093 29.6157 10.3956C29.4936 10.5818 29.4285 10.8189 29.3959 11.0814H30.56C30.5762 10.8443 30.6577 10.675 30.7879 10.5733C30.9263 10.4718 31.1053 10.4209 31.3333 10.4209C31.4391 10.4209 31.5368 10.4294 31.6263 10.4464C31.7159 10.4633 31.7972 10.4887 31.8624 10.5311C31.9275 10.5733 31.9844 10.6326 32.0252 10.7088C32.0658 10.785 32.0903 10.8951 32.0903 11.0221C32.0984 11.1491 32.0577 11.2422 31.9844 11.3099C31.9112 11.3777 31.8054 11.4285 31.6751 11.4623C31.5368 11.4962 31.3902 11.5216 31.2193 11.5386C31.069 11.5535 30.9186 11.5749 30.7628 11.5972C30.7414 11.6002 30.7199 11.6032 30.6983 11.6063C30.6847 11.609 30.671 11.6117 30.6573 11.6144C30.4989 11.6457 30.3347 11.6781 30.1774 11.7249C29.9983 11.7756 29.8437 11.8518 29.7134 11.9449C29.5832 12.0465 29.4692 12.1736 29.3878 12.3345C29.2983 12.4953 29.2576 12.6985 29.2576 12.9525C29.2576 13.1726 29.2983 13.3758 29.3715 13.5366C29.4448 13.6975 29.5506 13.833 29.6809 13.9431C29.8192 14.0531 29.9658 14.1293 30.1448 14.1801C30.3239 14.2309 30.5111 14.2564 30.7146 14.2564C30.9751 14.2564 31.2356 14.214 31.4879 14.1378C31.7403 14.0616 31.96 13.9261 32.1473 13.7229C32.1554 13.7992 32.1635 13.8753 32.1798 13.9431C32.1961 14.0193 32.2124 14.087 32.2368 14.1547H33.4171C33.3601 14.0701 33.3276 13.9346 33.3032 13.7483C33.2788 13.5705 33.2706 13.3758 33.2706 13.1811V10.8866C33.2706 10.6157 33.2136 10.4041 33.0997 10.2432C32.9776 10.0823 32.831 9.95535 32.6519 9.86217C32.4647 9.76906 32.2693 9.70977 32.0496 9.67589C31.8298 9.64208 31.61 9.62513 31.3984 9.62513C31.1623 9.62513 30.9344 9.65055 30.6983 9.7013C30.4704 9.75212 30.2588 9.83676 30.0716 9.94688ZM31.6833 12.1736C31.7647 12.1566 31.8461 12.1312 31.9194 12.1058C31.9926 12.0804 32.0577 12.0465 32.1066 12.0127V12.4614C32.1066 12.5291 32.0984 12.6223 32.0821 12.7324C32.0658 12.8509 32.0252 12.9609 31.9682 13.071C31.9112 13.1811 31.8136 13.2827 31.6914 13.3589C31.5612 13.4351 31.3821 13.4774 31.1542 13.4774C31.0646 13.4774 30.9751 13.4689 30.8855 13.452C30.8041 13.4351 30.7228 13.4012 30.6577 13.3589C30.5925 13.3165 30.5437 13.2573 30.503 13.1811C30.4623 13.1049 30.446 13.0202 30.446 12.9102C30.446 12.8001 30.4623 12.7069 30.503 12.6308C30.5437 12.5545 30.5925 12.4953 30.6577 12.4445C30.7146 12.3937 30.796 12.3513 30.8774 12.326C30.8934 12.3214 30.9091 12.3169 30.9246 12.3124C30.9963 12.2917 31.0643 12.2721 31.1379 12.2582C31.2275 12.2413 31.3252 12.2243 31.4147 12.2159C31.5124 12.2074 31.6019 12.1905 31.6833 12.1736Z" fill="#000000ff"/>
</svg>
