<?xml version="1.0" ?>
<svg xmlns="http://www.w3.org/2000/svg" width="24.0" height="24.0" viewBox="0 0 24.0 24.0">
  <g transform="translate(6.48,6.48)">
    <path d="M18,6H16V8H18V6Z" fill="#f3f3f4ff"/>
    <path d="M13,3V11H21V3H13ZM20,10H14V4H20V10Z" fill="#f3f3f4ff"/>
    <path d="M8,16H6V18H8V16Z" fill="#f3f3f4ff"/>
    <path d="M3,21H11V13H3V21ZM4,14H10V20H4V14Z" fill="#f3f3f4ff"/>
    <path d="M18,16H16V18H18V16Z" fill="#f3f3f4ff"/>
    <path d="M5,9H3V11H5V9Z" fill="#f3f3f4ff"/>
    <path d="M11,3H9V5H11V3Z" fill="#f3f3f4ff"/>
    <path d="M8,6H6V8H8V6Z" fill="#f3f3f4ff"/>
    <path d="M5,3H3V5H5V3Z" fill="#f3f3f4ff"/>
    <path d="M11,9H9V11H11V9Z" fill="#f3f3f4ff"/>
    <path d="M15,13H13V15H15V13Z" fill="#f3f3f4ff"/>
    <path d="M21,13H19V15H21V13Z" fill="#f3f3f4ff"/>
    <path d="M15,19H13V21H15V19Z" fill="#f3f3f4ff"/>
  </g>
</svg>
