<?xml version="1.0" ?>
<svg xmlns="http://www.w3.org/2000/svg" width="24.0" height="24.0" viewBox="0 0 24.0 24.0">
  <g transform="translate(6.48,6.48)">
    <path d="M21.5,19.721H17.938L13.89,4.294C13.814,4.004 13.643,3.746 13.405,3.563C13.167,3.379 12.875,3.279 12.574,3.279H11.426C11.125,3.279 10.833,3.379 10.595,3.563C10.357,3.746 10.186,4.004 10.109,4.294L6.062,19.721H2.5C2.367,19.721 2.24,19.774 2.146,19.868C2.053,19.961 2,20.089 2,20.221C2,20.354 2.053,20.481 2.146,20.575C2.24,20.669 2.367,20.721 2.5,20.721H21.5C21.633,20.721 21.76,20.669 21.854,20.575C21.947,20.481 22,20.354 22,20.221C22,20.089 21.947,19.961 21.854,19.868C21.76,19.774 21.633,19.721 21.5,19.721ZM9.187,11.748H14.813L15.466,14.24H8.533L9.187,11.748ZM11.076,4.548C11.097,4.471 11.142,4.403 11.205,4.354C11.268,4.306 11.346,4.279 11.426,4.279H12.574C12.653,4.279 12.731,4.306 12.794,4.354C12.858,4.403 12.903,4.471 12.923,4.548L14.55,10.748H9.449L11.076,4.548ZM7.095,19.721L8.271,15.24H15.729L16.904,19.721H7.095Z" fill="#f3f3f4ff"/>
  </g>
</svg>
