<?xml version="1.0" ?>
<svg xmlns="http://www.w3.org/2000/svg" width="24.0" height="24.0" viewBox="0 0 24.0 24.0">
  <path d="M21.3158 15.8408C18.4642 13.0292 14.7999 11.1867 10.8423 10.5747C11.0262 9.46471 10.7786 8.32642 10.1504 7.39301C9.52213 6.4596 8.56078 5.80174 7.46322 5.55416C6.36566 5.30659 5.21498 5.48805 4.24687 6.06137C3.27877 6.6347 2.56652 7.55649 2.25603 8.63794C1.94553 9.71938 2.06029 10.8786 2.5768 11.8782C3.09331 12.8778 3.97246 13.642 5.03419 14.0144C6.09591 14.3868 7.25984 14.3391 8.28755 13.8811C9.31526 13.4232 10.129 12.5896 10.562 11.5511C14.3428 12.1234 17.8498 13.8645 20.5912 16.5303C20.7163 16.6342 20.8178 16.7637 20.8887 16.9101C20.9597 17.0565 20.9985 17.2164 21.0025 17.379C21.0065 17.5417 20.9757 17.7033 20.9121 17.853C20.8485 18.0027 20.7535 18.1371 20.6337 18.2471C20.025 18.2518 18.243 18.2489 16.708 18.2429L16.0257 17.3418C15.7152 16.934 15.3148 16.6033 14.8558 16.3752C14.3967 16.147 13.8913 16.0277 13.3787 16.0264H6.78014C6.64753 16.0264 6.52035 16.0791 6.42659 16.1728C6.33282 16.2666 6.28014 16.3938 6.28014 16.5264C6.28014 16.659 6.33282 16.7862 6.42659 16.8799C6.52035 16.9737 6.64753 17.0264 6.78014 17.0264H13.3788C13.737 17.0274 14.0901 17.1108 14.411 17.2702C14.7318 17.4295 15.0116 17.6605 15.2289 17.9453L15.4507 18.2383H15.1234C15.0543 18.2384 14.986 18.2527 14.9227 18.2805C14.8594 18.3082 14.8026 18.3487 14.7557 18.3995C14.6555 18.4828 14.5291 18.5282 14.3988 18.5277C14.2684 18.5271 14.1424 18.4807 14.0428 18.3965C13.9961 18.3467 13.9396 18.3069 13.8768 18.2797C13.8141 18.2525 13.7465 18.2384 13.6781 18.2383H8.95983C8.89092 18.2385 8.82278 18.2528 8.75961 18.2803C8.69645 18.3079 8.63962 18.3481 8.59264 18.3985C8.54747 18.4463 8.49305 18.4844 8.43268 18.5105C8.37232 18.5366 8.30728 18.5502 8.24151 18.5504C8.17574 18.5506 8.11062 18.5374 8.05011 18.5116C7.9896 18.4858 7.93496 18.448 7.88952 18.4005C7.84269 18.3494 7.78572 18.3085 7.72225 18.2806C7.65878 18.2527 7.59019 18.2383 7.52086 18.2384H6.7025C6.56989 18.2384 6.44271 18.2911 6.34895 18.3848C6.25518 18.4786 6.2025 18.6058 6.2025 18.7384C6.2025 18.871 6.25518 18.9982 6.34895 19.0919C6.44271 19.1857 6.56989 19.2384 6.7025 19.2384H7.32706C7.58972 19.4377 7.9104 19.5456 8.24014 19.5456C8.56988 19.5456 8.89057 19.4377 9.15323 19.2384H13.4862C13.7465 19.4452 14.0691 19.5577 14.4015 19.5577C14.7339 19.5577 15.0565 19.4452 15.3168 19.2384H15.6581C21.0814 19.2667 21.0833 19.2667 21.2577 19.0734C21.3084 19.0171 21.3456 18.9501 21.3667 18.8774C21.3878 18.8047 21.3921 18.7281 21.3792 18.6535C21.3962 18.7579 21.3829 18.865 21.3407 18.962C21.5511 18.7595 21.7181 18.5162 21.8314 18.2469C21.9446 17.9777 22.0019 17.6882 21.9995 17.3961C21.9972 17.104 21.9354 16.8155 21.8178 16.5481C21.7003 16.2807 21.5294 16.04 21.3158 15.8408ZM9.5122 11.3986C9.10154 12.1659 8.41607 12.7496 7.59317 13.0328C6.77027 13.316 5.87075 13.2777 5.07491 12.9255C4.27907 12.5734 3.64571 11.9336 3.30177 11.1341C2.95784 10.3347 2.92875 9.43487 3.22034 8.61492C3.51192 7.79496 4.10263 7.11551 4.87407 6.71274C5.64551 6.30996 6.54068 6.21364 7.38015 6.44306C8.21962 6.67249 8.94136 7.21071 9.40071 7.94986C9.86007 8.68901 10.0231 9.57446 9.85711 10.4287C9.79194 10.7676 9.67564 11.0947 9.5122 11.3986ZM6.89 7.60159V10.0635C6.89 10.1961 6.83732 10.3233 6.74355 10.4171C6.64978 10.5108 6.52261 10.5635 6.39 10.5635C6.25739 10.5635 6.13021 10.5108 6.03645 10.4171C5.94268 10.3233 5.89 10.1961 5.89 10.0635V7.60159C5.89 7.46898 5.94268 7.3418 6.03645 7.24804C6.13021 7.15427 6.25739 7.10159 6.39 7.10159C6.52261 7.10159 6.64978 7.15427 6.74355 7.24804C6.83732 7.3418 6.89 7.46898 6.89 7.60159ZM6.89 11.6739V11.8164C6.89 11.949 6.83732 12.0762 6.74355 12.17C6.64978 12.2638 6.52261 12.3164 6.39 12.3164C6.25739 12.3164 6.13021 12.2638 6.03645 12.17C5.94268 12.0762 5.89 11.949 5.89 11.8164V11.6739C5.89 11.5412 5.94268 11.4141 6.03645 11.3203C6.13021 11.2265 6.25739 11.1739 6.39 11.1739C6.52261 11.1739 6.64978 11.2265 6.74355 11.3203C6.83732 11.4141 6.89 11.5412 6.89 11.6739Z" fill="#000000ff"/>
</svg>
