<?xml version="1.0" ?>
<svg xmlns="http://www.w3.org/2000/svg" width="24.0" height="24.0" viewBox="0 0 24.0 24.0">
  <path d="M21.4772 10.9635C21.6407 11.1159 21.7715 11.3 21.8615 11.5045C21.9515 11.709 21.999 11.9298 22.0009 12.1533C22.0028 12.3767 21.9592 12.5983 21.8728 12.8044C21.7863 13.0104 21.6588 13.1967 21.4979 13.3519L21.4949 13.3499C21.4793 13.3806 21.4597 13.4091 21.4368 13.4347C21.2963 13.5944 21.2929 13.5914 17.2081 13.5737H16.9651C16.7651 13.7289 16.5191 13.8132 16.2659 13.8132C16.0128 13.8132 15.7668 13.7289 15.5668 13.5737H14.7945V12.7497H15.7235C15.7799 12.7497 15.8356 12.7613 15.8873 12.7837C15.939 12.806 15.9856 12.8388 16.0242 12.8798C16.091 12.9369 16.176 12.9685 16.2639 12.9691C16.3518 12.9696 16.4371 12.9391 16.5047 12.8828C16.5432 12.8409 16.59 12.8074 16.642 12.7845C16.6941 12.7616 16.7504 12.7498 16.8073 12.7497H16.9787L16.8571 12.589C16.6975 12.3801 16.492 12.2106 16.2565 12.0937C16.021 11.9768 15.7617 11.9156 15.4988 11.9148H14.7945V11.0908H15.4988C15.8888 11.092 16.2734 11.1829 16.6227 11.3563C16.9721 11.5298 17.2769 11.7813 17.5136 12.0913L18.014 12.7533C19.1456 12.7573 20.4513 12.7583 20.9207 12.7567C21.0049 12.677 21.0713 12.5804 21.1153 12.4732C21.1594 12.366 21.1802 12.2506 21.1763 12.1348C21.1724 12.019 21.144 11.9053 21.0929 11.8012C21.0418 11.6972 20.9691 11.6052 20.8798 11.5314C17.4091 7.87933 12.0537 7.64276 12 7.64079H5.58948V7.7019H4.76542V7.22865C4.7654 7.17454 4.77604 7.12096 4.79674 7.07096C4.81744 7.02097 4.84779 6.97554 4.88605 6.93728C4.92431 6.89902 4.96974 6.86867 5.01973 6.84797C5.06973 6.82727 5.12331 6.81663 5.17742 6.81665H12.0153C12.2633 6.82549 17.7774 7.07093 21.4772 10.9635ZM13.5226 9.01476C13.8098 9.31017 13.9706 9.70579 13.971 10.1178V15.6772C13.971 15.7313 13.9604 15.7849 13.9397 15.8349C13.919 15.8849 13.8886 15.9303 13.8504 15.9686C13.8121 16.0068 13.7667 16.0372 13.7167 16.0579C13.6667 16.0786 13.6131 16.0892 13.559 16.0892H11.8936C11.8043 16.4026 11.6153 16.6784 11.3551 16.8748C11.095 17.0712 10.7779 17.1774 10.452 17.1774C10.1261 17.1774 9.80904 17.0712 9.5489 16.8748C9.28877 16.6784 9.09972 16.4026 9.0104 16.0892H6.61068C6.52136 16.4026 6.33231 16.6784 6.07217 16.8748C5.81204 17.0711 5.495 17.1774 5.16908 17.1774C4.84315 17.1774 4.52611 17.0711 4.26598 16.8748C4.00584 16.6784 3.81679 16.4026 3.72747 16.0892H2.412C2.35789 16.0892 2.30431 16.0786 2.25431 16.0579C2.20432 16.0372 2.15889 16.0068 2.12063 15.9686C2.08237 15.9303 2.05202 15.8849 2.03132 15.8349C2.01062 15.7849 1.99998 15.7313 2 15.6772V11.2169C2.00438 10.5045 2.28931 9.82258 2.79302 9.31887C3.29673 8.81516 3.97866 8.53023 4.691 8.52585H12.3801C12.5936 8.52606 12.805 8.56948 13.0013 8.6535C13.1977 8.73752 13.375 8.86041 13.5226 9.01476ZM12.74 15.2652H13.147V14.175H12.3988C12.3725 14.175 12.3494 14.1607 12.3234 14.1588C12.0501 14.1144 11.7951 13.9932 11.588 13.8093C11.5842 13.8049 11.5834 13.7987 11.5795 13.7942C11.4139 13.5473 11.3251 13.2569 11.3244 12.9596L11.34 12.8327L11.4526 11.9148L11.5328 11.2604L11.5536 11.0907L11.5905 10.7901C11.624 10.5282 11.7513 10.2875 11.9489 10.1125C12.1466 9.93756 12.401 9.84031 12.6649 9.83884H13.0906C13.0351 9.6953 12.9376 9.57184 12.8109 9.48461C12.6841 9.39738 12.534 9.35044 12.3801 9.34993H4.691C4.24199 9.35168 3.80894 9.51661 3.47253 9.814C3.53313 9.80435 3.59423 9.79816 3.65553 9.79546H10.4959C10.5912 9.79472 10.6838 9.82772 10.7571 9.88863C10.8305 9.94953 10.88 10.0344 10.8968 10.1283C10.9009 10.1604 10.9012 10.193 10.8978 10.2253C10.9 10.2482 10.9002 10.2713 10.8985 10.2943L10.7266 11.0907L10.7196 11.1232L10.5752 11.7926C10.5613 11.8325 10.5454 11.8716 10.5275 11.9099C10.4435 12.1803 10.2758 12.417 10.0488 12.5862C9.82169 12.7553 9.54685 12.8481 9.26373 12.8512H2.82406V15.2652H3.72747C3.81679 14.9518 4.00584 14.676 4.26598 14.4796C4.52611 14.2832 4.84315 14.177 5.16908 14.177C5.495 14.177 5.81204 14.2832 6.07217 14.4796C6.33231 14.676 6.52136 14.9518 6.61068 15.2652H9.0104C9.1008 14.9519 9.28995 14.6761 9.5497 14.479C9.80945 14.2818 10.1259 14.1738 10.452 14.171C10.7776 14.1789 11.0929 14.2866 11.3552 14.4797C11.6185 14.6729 11.8083 14.9499 11.8936 15.2651L12.74 15.2652ZM2.824 11.4515V12.0271H9.26373C9.38193 12.0268 9.49648 11.9861 9.58849 11.912C9.6805 11.8378 9.74449 11.7344 9.7699 11.619L9.98577 10.6195H3.65551C3.43503 10.6199 3.2237 10.7077 3.06784 10.8636C2.91198 11.0196 2.82432 11.231 2.82406 11.4515H2.824ZM13.1469 11.0907V10.6629H12.6649C12.6018 10.6629 12.5409 10.6859 12.4936 10.7277C12.4463 10.7694 12.4159 10.827 12.4081 10.8896L12.3834 11.0907L12.3233 11.5797L12.2822 11.9148L12.1794 12.751L12.1414 13.0602C12.1368 13.0966 12.1401 13.1336 12.1511 13.1686C12.1621 13.2036 12.1805 13.2359 12.205 13.2632C12.2382 13.2955 12.2788 13.3191 12.3233 13.3319C12.3471 13.3427 12.3726 13.3492 12.3987 13.3509H13.147V11.0907H13.1469ZM5.24935 16.3431C5.41375 16.3251 5.56584 16.2474 5.67676 16.1247C5.78769 16.0021 5.84973 15.843 5.85113 15.6776L5.85119 15.6772C5.84988 15.5118 5.78787 15.3525 5.67692 15.2298C5.56598 15.107 5.41383 15.0293 5.24935 15.0113C5.22296 15.0042 5.19615 14.9988 5.16907 14.9951C5.14199 14.9988 5.11518 15.0042 5.0888 15.0113C4.92432 15.0293 4.77217 15.107 4.66123 15.2298C4.55028 15.3525 4.48827 15.5118 4.48696 15.6772L4.48702 15.6776C4.48842 15.843 4.55046 16.0021 4.66139 16.1247C4.77231 16.2474 4.9244 16.3251 5.0888 16.3431C5.11518 16.3502 5.14199 16.3556 5.16907 16.3593C5.19615 16.3556 5.22297 16.3502 5.24935 16.3431ZM10.5323 16.3431C10.6967 16.3251 10.8488 16.2474 10.9597 16.1247C11.0706 16.0021 11.1327 15.843 11.1341 15.6776L11.1341 15.6772C11.1328 15.5118 11.0708 15.3525 10.9599 15.2298C10.8489 15.107 10.6968 15.0293 10.5323 15.0113C10.5059 15.0042 10.4791 14.9988 10.452 14.9951C10.4249 14.9988 10.3981 15.0042 10.3717 15.0113C10.2073 15.0293 10.0551 15.107 9.94417 15.2298C9.83322 15.3525 9.77121 15.5118 9.7699 15.6772L9.76996 15.6776C9.77136 15.843 9.8334 16.0021 9.94433 16.1247C10.0553 16.2474 10.2073 16.3251 10.3717 16.3431C10.3981 16.3502 10.4249 16.3556 10.452 16.3593C10.4791 16.3556 10.5059 16.3502 10.5323 16.3431Z" fill="#000000ff"/>
</svg>
