<?xml version="1.0" ?>
<svg xmlns="http://www.w3.org/2000/svg" width="24.0" height="24.0" viewBox="0 0 24.0 24.0">
  <path d="M2.04492 16.7715C2.04492 16.904 2.15158 17.1099 2.24534 17.2037C2.33909 17.2974 2.46626 17.3501 2.59885 17.3501L2.85078 17.3737C3.16905 17.6291 3.5649 17.7682 3.97295 17.7682C4.38101 17.7682 4.77686 17.6291 5.09513 17.3737H10.757C11.0721 17.6386 11.4705 17.7838 11.8821 17.7838C12.2938 17.7838 12.6922 17.6386 13.0072 17.3737H13.4964C20.4004 17.4098 20.4004 17.4098 20.581 17.2057C20.6182 17.164 20.6479 17.1163 20.6689 17.0646L20.6806 17.0705C20.9421 16.8252 21.1501 16.5286 21.2915 16.1992C21.4329 15.8698 21.5047 15.5147 21.5023 15.1562C21.4999 14.7977 21.4234 14.4436 21.2777 14.1161C21.1319 13.7886 20.92 13.4948 20.6552 13.2531C14.3787 6.64838 5.01897 6.23144 4.60545 6.2168H2.59251C2.52667 6.21651 2.46142 6.22922 2.4005 6.25421C2.33959 6.27921 2.28421 6.31598 2.23755 6.36244C2.19089 6.40889 2.15387 6.4641 2.1286 6.5249C2.10334 6.5857 2.09033 6.6509 2.09033 6.71674C2.09033 6.71674 2.04492 16.6389 2.04492 16.7715ZM13.0575 15.7708C12.7656 15.3876 12.3893 15.0767 11.9578 14.8622C11.5264 14.6478 11.0513 14.5355 10.5695 14.5342H3.18164V13.5343H10.5696C11.2057 13.5359 11.833 13.6841 12.4026 13.9673C12.9723 14.2505 13.469 14.6612 13.8543 15.1674L14.7731 16.3803L13.5144 16.3738L13.0575 15.7708Z" fill="#000000ff"/>
</svg>
