<?xml version="1.0" ?>
<svg xmlns="http://www.w3.org/2000/svg" width="16.0" height="16.0" viewBox="0 0 16.0 16.0">
  <path d="M8 16C12.4183 16 16 12.4183 16 8C16 3.58172 12.4183 0 8 0C3.58172 0 0 3.58172 0 8C0 12.4183 3.58172 16 8 16ZM4.46663 11.4001C4.39997 11.3334 4.39997 11.1334 4.46663 11.0667L4.86663 10.6667C4.59997 10.7334 4.3333 10.6667 4.1333 10.5334H3.7333C3.59997 10.5334 3.46663 10.4001 3.46663 10.2667C3.46663 10.1334 3.59997 10.0001 3.7333 10.0001H4.19997C4.26663 10.0001 4.3333 10.0001 4.39997 10.0667C4.5333 10.2001 4.79997 10.2001 4.9333 10.0667C4.99997 10.0001 5.06663 10.0001 5.1333 10.0001H5.5333L6.39997 9.1334H3.79997C3.66663 9.1334 3.5333 9.00007 3.5333 8.86673C3.5333 8.7334 3.66663 8.60007 3.79997 8.60007H6.86663L8.86663 6.60007C6.79997 5.7334 4.99997 5.66673 4.9333 5.66673H3.99997C3.86663 5.66673 3.7333 5.5334 3.7333 5.40006C3.7333 5.26673 3.86663 5.1334 3.99997 5.1334H4.9333C5.06663 5.1334 6.99997 5.20007 9.19997 6.20007L11.2 4.20007C11.2666 4.1334 11.4666 4.1334 11.5333 4.20007C11.6 4.26673 11.6 4.46673 11.5333 4.5334L4.79997 11.4001C4.79997 11.4667 4.7333 11.4667 4.66663 11.4667C4.59997 11.4667 4.5333 11.4667 4.46663 11.4001ZM9.06663 10.5334H8.86663C8.7333 10.6667 8.5333 10.7334 8.3333 10.7334C8.1333 10.7334 7.9333 10.6667 7.79997 10.5334H6.19997L6.66663 10.0667H7.86663C7.9333 10.0667 7.99997 10.0667 8.06663 10.1334C8.19997 10.2667 8.46663 10.2667 8.59997 10.1334C8.66663 10.0667 8.7333 10.0667 8.79997 10.0667H9.1333L8.9333 9.80007C8.59997 9.40006 8.19997 9.20007 7.7333 9.20007H7.59997L8.06663 8.7334C8.5333 8.80006 8.99997 9.06673 9.3333 9.46673L9.7333 10.0667H12.2C12.4666 9.80007 12.6666 9.40007 12.2 8.9334C11.4666 8.1334 10.6 7.5334 9.7333 7.1334L10.0666 6.80006C10.9333 7.26673 11.7333 7.86673 12.5333 8.66673C12.8 9.00007 13.1333 9.60006 12.4666 10.4001C12.3333 10.5334 12.3333 10.5334 9.06663 10.5334Z" fill="#ff5072ff"/>
</svg>
