<?xml version="1.0" ?>
<svg xmlns="http://www.w3.org/2000/svg" width="24.0" height="24.0" viewBox="0 0 24.0 24.0">
  <path d="M9.47511 9.57482V15.8915H7.77511V9.57482H5.40845V8.19149H11.8501V9.57482H9.47511ZM13.6001 15.8998V14.8832C13.7918 13.9915 14.6834 13.1665 15.7084 12.2748C16.2168 11.8248 16.7751 11.2748 16.7751 10.5248C16.7751 9.85815 16.3418 9.29982 15.5001 9.29982C14.8251 9.29982 14.3584 9.79149 14.1668 9.99982L13.3584 8.93315C14.1001 8.29149 14.7918 7.98315 15.8251 7.98315C17.1751 7.98315 18.4584 8.76649 18.4584 10.3415C18.4584 11.6582 17.6168 12.2832 16.6918 13.1248C16.3001 13.4832 15.5251 14.1582 15.4251 14.6082H18.6001V15.8998H13.6001Z" fill="#000000ff"/>
  <path d="M21 5H3C2.45 5 2 4.55 2 4V3C2 2.45 2.45 2 3 2H21C21.55 2 22 2.45 22 3V4C22 4.55 21.55 5 21 5ZM22 21V20C22 19.45 21.55 19 21 19H3C2.45 19 2 19.45 2 20V21C2 21.55 2.45 22 3 22H21C21.55 22 22 21.55 22 21Z" fill="#bf4190ff"/>
</svg>
