<?xml version="1.0" ?>
<svg xmlns="http://www.w3.org/2000/svg" width="24.0" height="24.0" viewBox="0 0 24.0 24.0">
  <path d="M20.9948 4.99825H2.9965C2.4458 4.99825 2 4.55245 2 4.00175V3.00524C2 2.4458 2.4458 2 2.9965 2H20.9948C21.5455 2 21.9913 2.4458 21.9913 2.9965V3.99301C21.9913 4.54371 21.5455 4.98951 20.9948 4.98951M22 20.9948V19.9983C22 19.4476 21.5542 19.0017 21.0035 19.0017H2.9965C2.4458 18.993 2 19.4476 2 19.9983V20.9948C2 21.5455 2.4458 21.9913 2.9965 21.9913H20.9948C21.5455 21.9913 21.9913 21.5455 21.9913 20.9948" fill="#00a78eff"/>
  <path d="M6.72899 9.57883V15.8988H5.02445V9.57883H2.66431V8.19771H9.09787V9.57883H6.72899Z" fill="#0c131fff"/>
  <path d="M12.9353 15.8988V9.84106C12.4633 10.2082 11.7203 10.5491 11.2133 10.8026L10.6888 9.62253C11.493 9.28162 12.4633 8.77463 13.2325 8.19771H14.5786V15.8988H12.9353ZM20.4265 15.89H18.8968V14.2904H15.4265V12.8568L18.4161 8.18896H20.4265V13.0841H21.3356V14.2816H20.4265V15.89ZM18.9056 9.54386H18.8881C18.8531 9.67498 18.6346 10.147 18.3286 10.6278L16.7552 13.0928H18.9056V9.54386Z" fill="#0c131fff"/>
</svg>
