<?xml version="1.0" ?>
<svg xmlns="http://www.w3.org/2000/svg" width="24.0" height="24.0" viewBox="0 0 24.0 24.0">
  <path d="M9.46657 9.57498V15.8916H7.76657V9.57498H5.3999V8.19165H11.8416V9.57498H9.46657ZM15.6749 16.0833C14.7832 16.0833 14.0916 15.8916 13.4999 15.525L14.1249 14.325C14.5499 14.6166 14.9916 14.8166 15.5832 14.8166C16.1832 14.8166 16.9332 14.4583 16.9332 13.55C16.9332 12.9916 16.5666 12.2333 15.1416 12.2083C14.7082 12.2083 14.1916 12.2 13.9416 12.2L14.2499 8.19165H18.2999V9.48332H15.5249L15.4166 10.9416C15.4582 10.9416 15.5582 10.95 15.6332 10.95C17.7416 11.05 18.5916 12.2417 18.5916 13.3916C18.5999 14.8666 17.4332 16.0833 15.6749 16.0833Z" fill="#000000ff"/>
  <path d="M21 5H3C2.45 5 2 4.55 2 4V3C2 2.45 2.45 2 3 2H21C21.55 2 22 2.45 22 3V4C22 4.55 21.55 5 21 5ZM22 21V20C22 19.45 21.55 19 21 19H3C2.45 19 2 19.45 2 20V21C2 21.55 2.45 22 3 22H21C21.55 22 22 21.55 22 21Z" fill="#662482ff"/>
</svg>
