<?xml version="1.0" ?>
<svg xmlns="http://www.w3.org/2000/svg" width="24.0" height="24.0" viewBox="0 0 24.0 24.0">
  <path d="M9.36675 9.57489V15.8916H7.66675V9.57489H5.29175V8.19155H11.7334V9.57489H9.36675ZM15.9584 16.0999C14.2417 16.0999 13.2751 15.0749 13.2751 13.9082C13.2751 12.8832 13.8501 12.2416 14.5917 11.8582C13.9251 11.4416 13.5084 10.9166 13.5084 10.1249C13.5084 8.84989 14.6667 7.96655 15.9834 7.96655C17.3334 7.96655 18.4584 8.63322 18.4584 9.94989C18.4584 10.6666 18.0917 11.2832 17.3667 11.7166C18.0751 12.0582 18.7001 12.7082 18.7001 13.7249C18.7084 15.1916 17.5334 16.0999 15.9584 16.0999ZM15.8251 12.3916C15.3251 12.5832 14.8167 13.1332 14.8167 13.7332C14.8167 14.3666 15.2334 14.9666 15.9751 14.9666C16.7084 14.9666 17.1084 14.4499 17.1084 13.8416C17.1084 13.1499 16.4751 12.7249 15.8251 12.3916ZM16.0084 9.07489C15.4084 9.07489 15.0251 9.44989 15.0251 9.98322C15.0251 10.6166 15.6584 11.0082 16.1501 11.2166C16.5501 11.0332 16.9917 10.5332 16.9917 10.0499C16.9917 9.50822 16.6417 9.07489 16.0084 9.07489Z" fill="#000000ff"/>
  <path d="M21 5H3C2.45 5 2 4.55 2 4V3C2 2.45 2.45 2 3 2H21C21.55 2 22 2.45 22 3V4C22 4.55 21.55 5 21 5ZM22 21V20C22 19.45 21.55 19 21 19H3C2.45 19 2 19.45 2 20V21C2 21.55 2.45 22 3 22H21C21.55 22 22 21.55 22 21Z" fill="#9e9724ff"/>
</svg>
