<?xml version="1.0" ?>
<svg xmlns="http://www.w3.org/2000/svg" width="24.0" height="24.0" viewBox="0 0 24.0 24.0">
  <path d="M10.1167 9.57498V15.8916H8.40841V9.57498H6.04175V8.19165H12.4834V9.57498H10.1167ZM16.3251 15.9V9.84165C15.8584 10.2083 15.1167 10.575 14.6001 10.8L14.0751 9.62498C14.8834 9.28332 15.8501 8.77498 16.6167 8.19165H17.9584V15.9H16.3251Z" fill="#000000ff"/>
  <path d="M21 5H3C2.45 5 2 4.55 2 4V3C2 2.45 2.45 2 3 2H21C21.55 2 22 2.45 22 3V4C22 4.55 21.55 5 21 5ZM22 21V20C22 19.45 21.55 19 21 19H3C2.45 19 2 19.45 2 20V21C2 21.55 2.45 22 3 22H21C21.55 22 22 21.55 22 21Z" fill="#0064afff"/>
</svg>
