<?xml version="1.0" ?>
<svg xmlns="http://www.w3.org/2000/svg" width="24.0" height="24.0" viewBox="0 0 24.0 24.0">
  <path d="M6.95851 9.58337V15.9H5.25851V9.58337H2.89185V8.1917H9.33351V9.58337H6.95851ZM13.1668 15.9V9.8417C12.7002 10.2084 11.9585 10.575 11.4418 10.8L10.9168 9.62503C11.7252 9.28337 12.6918 8.77503 13.4585 8.1917H14.8002V15.9H13.1668ZM18.1085 16.0834C17.0085 16.0834 16.3918 15.8084 15.8835 15.5084L16.4835 14.3167C16.8085 14.5417 17.3418 14.8167 18.0002 14.8167C18.8918 14.8167 19.4502 14.2917 19.4502 13.6417C19.4502 12.7584 18.7752 12.45 17.9918 12.45H17.1918V11.175H18.0002C18.7502 11.175 19.2252 10.7834 19.2252 10.1917C19.2252 9.70003 18.8585 9.25003 18.0502 9.25003C17.3418 9.25003 16.8752 9.58337 16.6168 9.80837L16.0585 8.67503C16.7085 8.2417 17.4252 7.9917 18.3918 7.9917C19.9668 7.9917 20.8585 8.93337 20.8585 9.95837C20.8585 10.7584 20.4335 11.3917 19.6168 11.6917V11.7167C20.4668 11.8834 21.1085 12.5334 21.1085 13.6167C21.1085 14.9584 19.9002 16.0834 18.1085 16.0834Z" fill="#000000ff"/>
  <path d="M20.5 5H3.5C2.675 5 2 4.325 2 3.5C2 2.675 2.675 2 3.5 2H20.5C21.325 2 22 2.675 22 3.5C22 4.325 21.325 5 20.5 5ZM22 20.5C22 19.675 21.325 19 20.5 19H3.5C2.675 19 2 19.675 2 20.5C2 21.325 2.675 22 3.5 22H20.5C21.325 22 22 21.325 22 20.5Z" fill="#8d5e2bff"/>
</svg>
