<?xml version="1.0" ?>
<svg xmlns="http://www.w3.org/2000/svg" width="24.0" height="24.0" viewBox="0 0 24.0 24.0">
  <path d="M6.96685 9.58315V15.8998H5.26685V9.58315H2.89185V8.19149H9.33351V9.58315H6.96685ZM13.1752 15.8998V9.84149C12.7085 10.2165 11.9668 10.5748 11.4502 10.7998L10.9252 9.62482C11.7335 9.28315 12.7002 8.77482 13.4668 8.19149H14.8085V15.8998H13.1752ZM16.1085 15.8998V14.8832C16.3002 13.9915 17.1835 13.1665 18.2168 12.2748C18.7335 11.8248 19.2835 11.2748 19.2835 10.5248C19.2835 9.85815 18.8502 9.29982 18.0085 9.29982C17.3335 9.29982 16.8668 9.79149 16.6752 9.99982L15.8668 8.93315C16.6085 8.29149 17.3002 7.98315 18.3335 7.98315C19.6835 7.98315 20.9668 8.76649 20.9668 10.3415C20.9668 11.6582 20.1252 12.2832 19.2002 13.1248C18.8085 13.4832 18.0335 14.1582 17.9335 14.6082H21.1085V15.8998H16.1085Z" fill="#000000ff"/>
  <path d="M20.5 5H3.5C2.675 5 2 4.325 2 3.5C2 2.675 2.675 2 3.5 2H20.5C21.325 2 22 2.675 22 3.5C22 4.325 21.325 5 20.5 5ZM22 20.5C22 19.675 21.325 19 20.5 19H3.5C2.675 19 2 19.675 2 20.5C2 21.325 2.675 22 3.5 22H20.5C21.325 22 22 21.325 22 20.5Z" fill="#b90845ff"/>
</svg>
