<?xml version="1.0" ?>
<svg xmlns="http://www.w3.org/2000/svg" width="24.0" height="24.0" viewBox="0 0 24.0 24.0">
  <path d="M13.0665 16.0917C11.9665 16.0917 11.3498 15.8167 10.8415 15.5167L11.4415 14.325C11.7665 14.5584 12.3082 14.825 12.9582 14.825C13.8498 14.825 14.4082 14.3 14.4082 13.65C14.4082 12.7667 13.7332 12.4584 12.9498 12.4584H12.1498V11.1834H12.9582C13.7082 11.1834 14.1832 10.7917 14.1832 10.2C14.1832 9.70837 13.8165 9.25837 13.0082 9.25837C12.2998 9.25837 11.8248 9.60003 11.5748 9.8167L11.0165 8.68337C11.6748 8.25003 12.3832 7.9917 13.3498 7.9917C14.9248 7.9917 15.8165 8.93337 15.8165 9.95837C15.8165 10.7584 15.3915 11.3917 14.5748 11.6917V11.7167C15.4248 11.8834 16.0665 12.5334 16.0665 13.6167C16.0665 14.9667 14.8582 16.0917 13.0665 16.0917ZM20.2415 14.3917C19.8332 14.3917 19.6248 14.1334 19.5582 13.7917C19.1998 14.2167 18.8582 14.4334 18.2582 14.4334C17.4832 14.4334 16.9582 13.875 16.9582 13.125C16.9582 11.9334 18.2082 11.7 19.1832 11.7C19.3665 11.7 19.4748 11.6917 19.4748 11.5417V11.25C19.4748 10.9417 19.2748 10.6417 18.6665 10.6417C18.1582 10.6417 17.7665 10.8834 17.5832 11.0417L17.1832 10.2167C17.6665 9.90003 18.1998 9.7667 18.9582 9.7667C19.5748 9.7667 20.5665 9.9917 20.5665 11.2584V13.2834C20.5665 13.4417 20.5832 13.575 20.7248 13.575C20.7748 13.575 20.8665 13.55 20.9165 13.5334L20.9832 14.2834C20.8082 14.325 20.5165 14.3917 20.2415 14.3917ZM19.4665 12.4167C19.3415 12.4084 19.2165 12.4084 19.1248 12.4084C18.7248 12.4084 18.1165 12.5084 18.1165 13.0334C18.1165 13.35 18.3498 13.5834 18.6665 13.5834C18.9248 13.5834 19.1332 13.5 19.2832 13.3417C19.4165 13.2 19.4748 13.0334 19.4748 12.825V12.4167H19.4665ZM6.93315 9.58337V15.9H5.23315V9.58337H2.85815V8.20003H9.29982V9.58337H6.93315Z" fill="#000000ff"/>
  <path d="M21 5H3C2.45 5 2 4.55 2 4V3C2 2.45 2.45 2 3 2H21C21.55 2 22 2.45 22 3V4C22 4.55 21.55 5 21 5ZM22 21V20C22 19.45 21.55 19 21 19H3C2.45 19 2 19.45 2 20V21C2 21.55 2.45 22 3 22H21C21.55 22 22 21.55 22 21Z" fill="#f18d42ff"/>
</svg>
