<?xml version="1.0" ?>
<svg xmlns="http://www.w3.org/2000/svg" width="24.0" height="24.0" viewBox="0 0 24.0 24.0">
  <path d="M21.0002 2H2.99979C2.44762 2 2 2.44762 2 2.99979V4.00028C2 4.55245 2.44762 5.00007 2.99979 5.00007H21.0002C21.5524 5.00007 22 4.55245 22 4.00028V2.99979C22 2.44762 21.5524 2 21.0002 2Z" fill="#9e9724ff"/>
  <path d="M21.0002 18.9999H2.99979C2.44762 18.9999 2 19.4475 2 19.9997V21.0002C2 21.5524 2.44762 22 2.99979 22H21.0002C21.5524 22 22 21.5524 22 21.0002V19.9997C22 19.4475 21.5524 18.9999 21.0002 18.9999Z" fill="#9e9724ff"/>
  <path d="M6.75911 9.58135V15.8997H5.05658V9.58135H2.68799V8.19562H9.12629V9.58135H6.75911ZM12.966 15.8997V9.84312C12.4968 10.2142 11.7545 10.5741 11.2416 10.8034L10.7173 9.62439C11.5252 9.28642 12.4968 8.77771 13.2574 8.19562H14.598V15.8997H12.966ZM18.4856 16.1071C16.1573 16.1071 15.7029 13.8155 15.7029 12.0367C15.7029 10.258 16.2045 7.96631 18.5294 7.96631C20.8542 7.96631 21.3121 10.258 21.3121 12.0367C21.3121 13.8155 20.8098 16.1071 18.4856 16.1071ZM18.5075 9.26314C17.3941 9.26314 17.3617 11.2493 17.3617 12.0353C17.3617 12.8213 17.416 14.8181 18.5075 14.8181C19.599 14.8181 19.6428 12.7994 19.6428 12.0353C19.6428 11.2288 19.6096 9.26737 18.5103 9.26737L18.5075 9.26314Z" fill="#000000ff"/>
</svg>
