<?xml version="1.0" ?>
<svg xmlns="http://www.w3.org/2000/svg" width="24.0" height="24.0" viewBox="0 0 24.0 24.0">
  <path d="M13.0667 16.0917C11.9667 16.0917 11.35 15.8167 10.8417 15.5167L11.4417 14.325C11.7667 14.5584 12.3084 14.825 12.9584 14.825C13.8584 14.825 14.4084 14.3 14.4084 13.65C14.4084 12.7667 13.7334 12.4584 12.95 12.4584H12.15V11.1834H12.9584C13.7084 11.1834 14.1834 10.7917 14.1834 10.2C14.1834 9.70837 13.8167 9.25837 13.0084 9.25837C12.3 9.25837 11.8334 9.60003 11.575 9.8167L11.0167 8.68337C11.675 8.25003 12.3834 7.9917 13.35 7.9917C14.925 7.9917 15.8167 8.93337 15.8167 9.95837C15.8167 10.7584 15.3917 11.3917 14.575 11.6917V11.7167C15.425 11.8834 16.0667 12.5334 16.0667 13.6167C16.0667 14.9667 14.8584 16.0917 13.0667 16.0917ZM19.1667 14.45C18.8334 14.45 18.45 14.3167 18.225 14.1167V14.3167H17.1084V8.23337H18.2667V10.5C18.5667 10.075 18.9 9.78337 19.4584 9.78337C20.6084 9.78337 21.0834 11.0084 21.0834 12.0667C21.0917 13.05 20.575 14.45 19.1667 14.45ZM19.0167 10.7834C18.7834 10.7834 18.6084 10.8834 18.4834 11.0084C18.2834 11.2 18.2584 11.3167 18.2584 11.575V13.0667C18.2584 13.3667 18.4417 13.6417 18.9667 13.6417C19.7084 13.6417 19.8917 12.8417 19.8917 12.2417C19.8917 11.6417 19.75 10.7834 19.0167 10.7834ZM6.93337 9.58337V15.9H5.23337V9.58337H2.8667V8.20003H9.30837V9.58337H6.93337Z" fill="#000000ff"/>
  <path d="M21 5H3C2.45 5 2 4.55 2 4V3C2 2.45 2.45 2 3 2H21C21.55 2 22 2.45 22 3V4C22 4.55 21.55 5 21 5ZM22 21V20C22 19.45 21.55 19 21 19H3C2.45 19 2 19.45 2 20V21C2 21.55 2.45 22 3 22H21C21.55 22 22 21.55 22 21Z" fill="#00804fff"/>
</svg>
