<?xml version="1.0" ?>
<svg xmlns="http://www.w3.org/2000/svg" width="24.0" height="24.0" viewBox="0 0 24.0 24.0">
  <path d="M21.35 3.3H2.65C2.29167 3.3 2 3.00833 2 2.65C2 2.29167 2.29167 2 2.65 2H21.35C21.7083 2 22 2.29167 22 2.65C22 3.00833 21.7083 3.3 21.35 3.3ZM22 21.35C22 20.9917 21.7083 20.7 21.35 20.7H2.65C2.29167 20.7 2 20.9917 2 21.35C2 21.7083 2.29167 22 2.65 22H21.35C21.7083 22 22 21.7083 22 21.35ZM19.7167 18.6417C19.875 18.6417 20 18.5167 20 18.3583V18.0833C20 17.925 19.875 17.8 19.7167 17.8H4V18.6417H19.7167ZM4 14.05H6.90833C6.98333 14.05 7.05 13.9833 7.05 13.9083V10.0417C7.05 9.96667 6.98333 9.9 6.90833 9.9H4V9H8.54167L10.325 7.53333L8.08333 5.7C7.98333 5.61667 7.975 5.475 8.05 5.38333L8.19167 5.20833C8.275 5.10833 8.41667 5.1 8.50833 5.175L11.0583 7.26667C11.225 7.40833 11.225 7.66667 11.0583 7.80833L9.61667 9H16.5333C17.0833 9 17.6083 9.23333 17.975 9.63333C19.0667 10.825 19.7583 12.3 19.9833 13.8917C20.05 14.4 19.975 14.9 19.7583 15.3417C19.25 16.3667 18.2333 17 17.1 17H4V14.05ZM17.3 10.2333C17.1 10.0167 16.825 9.9 16.5333 9.9H14.0917C14.0167 9.9 13.95 9.96667 13.95 10.0417V13.9083C13.95 13.9833 14.0167 14.05 14.0917 14.05H18.2583C18.75 14.05 19.0417 13.6667 18.9167 13.1917C18.625 12.0917 18.075 11.0833 17.3 10.2333ZM12.9083 16.1C12.9833 16.1 13.05 16.0333 13.05 15.9583V10.0417C13.05 9.96667 12.9833 9.9 12.9083 9.9H11.0917C11.0167 9.9 10.95 9.96667 10.95 10.0417V15.9583C10.95 16.0333 11.0167 16.1 11.0917 16.1H12.9083ZM8.09167 9.9C8.01667 9.9 7.95 9.96667 7.95 10.0417V15.9583C7.95 16.0333 8.01667 16.1 8.09167 16.1H9.90833C9.98333 16.1 10.05 16.0333 10.05 15.9583V10.0417C10.05 9.96667 9.98333 9.9 9.90833 9.9H8.09167Z" fill="#000000ff"/>
</svg>
