<?xml version="1.0" ?>
<svg xmlns="http://www.w3.org/2000/svg" width="24.0" height="24.0" viewBox="0 0 24.0 24.0">
  <path d="M9.38335 9.5833V15.9H7.68335V9.5833H5.30835V8.19163H11.75V9.5833H9.38335ZM14.9667 16.1083C14.5333 16.1083 14.1417 16.05 13.8083 15.975L14.05 14.6666C14.2583 14.7583 14.6583 14.85 15.1083 14.85C16.1917 14.85 16.975 13.9916 17.0834 12.4416C16.8167 12.675 16.3167 12.9666 15.4917 12.9666C14.2167 12.9666 13.1917 12.125 13.1917 10.6833C13.1917 9.14163 14.2167 8.0083 15.8334 8.0083C17.9417 8.0083 18.6917 9.47497 18.6917 11.5083C18.6917 14.1833 17.4334 16.1083 14.9667 16.1083ZM15.8917 9.21663C15.125 9.21663 14.7333 9.84163 14.7333 10.5083C14.7333 11.225 15.2167 11.75 15.975 11.75C16.4667 11.75 16.8584 11.5666 17.0167 11.325C17.1 11.1916 17.1 10.8916 17.1 10.6583C17.1084 9.9333 16.6833 9.21663 15.8917 9.21663Z" fill="#000000ff"/>
  <path d="M20.5 5H3.5C2.675 5 2 4.325 2 3.5C2 2.675 2.675 2 3.5 2H20.5C21.325 2 22 2.675 22 3.5C22 4.325 21.325 5 20.5 5ZM22 20.5C22 19.675 21.325 19 20.5 19H3.5C2.675 19 2 19.675 2 20.5C2 21.325 2.675 22 3.5 22H20.5C21.325 22 22 21.325 22 20.5Z" fill="#5291ceff"/>
</svg>
