<?xml version="1.0" ?>
<svg xmlns="http://www.w3.org/2000/svg" width="24.0" height="24.0" viewBox="0 0 24.0 24.0">
  <path d="M7.71685 9.58332V15.9H6.00851V9.58332H3.64185V8.19165H10.0835V9.58332H7.71685ZM13.9168 15.9V9.84165C13.4502 10.2083 12.7085 10.575 12.1918 10.8L11.6668 9.62498C12.4752 9.28332 13.4418 8.77498 14.2085 8.19165H15.5502V15.9H13.9168ZM18.7252 15.9V9.84165C18.2585 10.2083 17.5168 10.575 17.0002 10.8L16.4752 9.62498C17.2835 9.28332 18.2502 8.77498 19.0168 8.19165H20.3585V15.9H18.7252Z" fill="#000000ff"/>
  <path d="M21 5H3C2.45 5 2 4.55 2 4V3C2 2.45 2.45 2 3 2H21C21.55 2 22 2.45 22 3V4C22 4.55 21.55 5 21 5ZM22 21V20C22 19.45 21.55 19 21 19H3C2.45 19 2 19.45 2 20V21C2 21.55 2.45 22 3 22H21C21.55 22 22 21.55 22 21Z" fill="#f18d42ff"/>
</svg>
