<?xml version="1.0" ?>
<svg xmlns="http://www.w3.org/2000/svg" width="24.0" height="24.0" viewBox="0 0 24.0 24.0">
  <path d="M9.24175 9.57498V15.8916H7.54175V9.57498H5.16675V8.19165H11.6084V9.57498H9.24175ZM17.9251 14.2916V15.9H16.4001V14.2916H12.9334V12.8583L15.9251 8.19165H17.9334V13.0917H18.8417V14.2916H17.9251ZM16.4001 9.54165H16.3751C16.3417 9.67498 16.1251 10.1417 15.8167 10.625L14.2417 13.0917H16.3917V9.54165H16.4001Z" fill="#000000ff"/>
  <path d="M21 5H3C2.45 5 2 4.55 2 4V3C2 2.45 2.45 2 3 2H21C21.55 2 22 2.45 22 3V4C22 4.55 21.55 5 21 5ZM22 21V20C22 19.45 21.55 19 21 19H3C2.45 19 2 19.45 2 20V21C2 21.55 2.45 22 3 22H21C21.55 22 22 21.55 22 21Z" fill="#e2b229ff"/>
</svg>
