<?xml version="1.0" ?>
<svg xmlns="http://www.w3.org/2000/svg" width="24.0" height="24.0" viewBox="0 0 24.0 24.0">
  <path d="M9.31667 9.57503V15.8917H7.61667V9.57503H5.25V8.1917H11.6917V9.57503H9.31667ZM16.1167 16.0834C14.0083 16.0834 13.2583 14.625 13.2583 12.5834C13.2583 9.90837 14.5167 7.9917 16.9833 7.9917C17.4167 7.9917 17.8083 8.05003 18.1417 8.12503L17.9 9.43337C17.6917 9.3417 17.2917 9.25003 16.8417 9.25003C15.7583 9.25003 14.975 10.1084 14.8667 11.6584C15.125 11.425 15.6333 11.1334 16.4583 11.1334C17.7333 11.1334 18.7583 11.975 18.7583 13.4167C18.7583 14.95 17.725 16.0834 16.1167 16.0834ZM15.9583 12.3417C15.4667 12.3417 15.075 12.525 14.925 12.7667C14.8417 12.9 14.8417 13.2 14.8417 13.4334C14.8417 14.1667 15.2667 14.875 16.05 14.875C16.8167 14.875 17.2083 14.25 17.2083 13.5834C17.2083 12.8667 16.725 12.3417 15.9583 12.3417Z" fill="#000000ff"/>
  <path d="M21 5H3C2.45 5 2 4.55 2 4V3C2 2.45 2.45 2 3 2H21C21.55 2 22 2.45 22 3V4C22 4.55 21.55 5 21 5ZM22 21V20C22 19.45 21.55 19 21 19H3C2.45 19 2 19.45 2 20V21C2 21.55 2.45 22 3 22H21C21.55 22 22 21.55 22 21Z" fill="#e2051cff"/>
</svg>
