<?xml version="1.0" ?>
<svg xmlns="http://www.w3.org/2000/svg" width="24.0" height="24.0" viewBox="0 0 24.0 24.0">
  <path d="M9.3748 9.57498V15.8916H7.66647V9.57498H5.2998V8.19165H11.7415V9.57498H9.3748ZM15.9831 15.9H14.2248C14.2248 14.8833 14.4998 14.2333 15.1748 12.975L17.0498 9.48332H13.3081V8.19165H18.6998V9.44998C17.0081 12.3833 15.9831 14.6833 15.9831 15.9Z" fill="#000000ff"/>
  <path d="M21 5H3C2.45 5 2 4.55 2 4V3C2 2.45 2.45 2 3 2H21C21.55 2 22 2.45 22 3V4C22 4.55 21.55 5 21 5ZM22 21V20C22 19.45 21.55 19 21 19H3C2.45 19 2 19.45 2 20V21C2 21.55 2.45 22 3 22H21C21.55 22 22 21.55 22 21Z" fill="#8c5d2bff"/>
</svg>
