<?xml version="1.0" ?>
<svg xmlns="http://www.w3.org/2000/svg" width="24.0" height="24.0" viewBox="0 0 24.0 24.0">
  <path d="M17.499,22H6.501C4.016,22 2,19.983 2,17.498V6.502C2,4.017 4.016,2 6.501,2H17.499C19.984,2 22,4.017 22,6.502V17.498C22,19.983 19.984,22 17.499,22Z" fill="#9e9724ff"/>
  <path d="M13.239,17.289H10.78L7.025,6.679H9.528L11.431,12.458C11.791,13.571 11.968,14.406 12.044,14.817H12.076C12.152,14.412 12.316,13.647 12.689,12.49L14.611,6.685H16.968L13.233,17.295L13.239,17.289Z" fill="#ffffffff"/>
</svg>
