<?xml version="1.0" ?>
<svg xmlns="http://www.w3.org/2000/svg" width="24.0" height="24.0" viewBox="0 0 24.0 24.0">
  <path d="M17.5 22H6.5C4.01667 22 2 19.9833 2 17.5V6.5C2 4.01667 4.01667 2 6.5 2H17.5C19.9833 2 22 4.01667 22 6.5V17.5C22 19.9833 19.9833 22 17.5 22Z" fill="#00a78eff"/>
  <path d="M14.4 17.2833L10.5917 12.0167C10.05 11.2833 9.76667 10.6333 9.67501 10.3916H9.64167V17.275H7.46667V6.69165H9.60834L13.3583 12.15C13.925 12.975 14.275 13.5917 14.3333 13.8417H14.3667V6.69165H16.525V17.2833H14.4Z" fill="#ffffffff"/>
</svg>
