<?xml version="1.0" ?>
<svg xmlns="http://www.w3.org/2000/svg" width="24.0" height="24.0" viewBox="0 0 24.0 24.0">
  <path d="M16.1496 17.1591C16.2075 17.1153 16.2654 17.0824 16.3117 17.0386C16.8094 16.6554 17.284 16.075 17.6197 15.1661C18.0943 13.8958 18.4299 12.757 18.5225 11.3553C18.6499 9.62509 17.8975 6.9422 17.3998 5.69384L17.2261 5.25582C17.122 4.9711 16.7053 4.37977 15.9876 3.65703C15.3625 3.0438 14.7606 3 13.8578 3H10.1538C9.23936 3 8.64903 3.0438 8.02398 3.65703C7.29475 4.36882 6.88962 4.9711 6.78545 5.25582L6.61182 5.69384C6.1141 6.9422 5.36172 9.62509 5.48905 11.3553C5.58165 12.757 5.91732 13.8849 6.3919 15.1661C6.72757 16.075 7.19058 16.6663 7.69988 17.0386C7.74618 17.0715 7.80405 17.1153 7.86193 17.1591L5.16494 19.9953C4.94502 20.2252 4.94502 20.5976 5.16494 20.8275C5.38487 21.0575 5.7437 21.0575 5.95205 20.8275L6.87805 19.8529H17.122L18.048 20.8275C18.2679 21.0575 18.6151 21.0575 18.8351 20.8275C19.055 20.5976 19.055 20.2252 18.8351 19.9953L16.1496 17.1591ZM15.2468 16.1297C14.7375 16.1297 14.3208 15.7355 14.3208 15.2537C14.3208 14.7719 14.7375 14.3776 15.2468 14.3776C15.7561 14.3776 16.1728 14.7719 16.1728 15.2537C16.1728 15.7355 15.7561 16.1297 15.2468 16.1297ZM6.86647 10.5121C6.2993 10.5121 7.19057 5.8143 7.5957 5.8143H16.3001C16.74 5.8143 17.7702 10.5121 17.0757 10.5121H6.86647ZM7.80405 15.2537C7.80405 14.7719 8.22075 14.3776 8.73005 14.3776C9.23936 14.3776 9.65606 14.7719 9.65606 15.2537C9.65606 15.7355 9.23936 16.1297 8.73005 16.1297C8.22075 16.1297 7.80405 15.7355 7.80405 15.2537ZM8.00083 18.6703L8.99628 17.63C9.48243 17.7395 9.92228 17.7395 10.2464 17.7395H13.7536C14.0777 17.7395 14.5291 17.7395 15.0037 17.63L15.9992 18.6703H8.00083Z" fill="#000000ff"/>
</svg>
