<?xml version="1.0" ?>
<svg xmlns="http://www.w3.org/2000/svg" width="24.0" height="24.0" viewBox="0 0 24.0 24.0">
  <path d="M17.5 22H6.5C4.01667 22 2 19.9833 2 17.5V6.5C2 4.01667 4.01667 2 6.5 2H17.5C19.9833 2 22 4.01667 22 6.5V17.5C22 19.9833 19.9833 22 17.5 22Z" fill="#d4c900ff"/>
  <path d="M10.2416 17.4083C10.0583 17.4083 9.88328 17.4083 9.69995 17.3916L9.75829 15.65C9.83329 15.65 9.92495 15.6666 9.99995 15.6666C11.2416 15.6666 11.9666 14.95 11.9666 13.325V6.69165H14.3083V13.5166C14.3 15.4583 13.2666 17.4083 10.2416 17.4083Z" fill="#24303bff"/>
</svg>
