<?xml version="1.0" ?>
<svg xmlns="http://www.w3.org/2000/svg" width="24.0" height="24.0" viewBox="0 0 24.0 24.0">
  <path d="M17.5 22H6.5C4.01667 22 2 19.9833 2 17.5V6.5C2 4.01667 4.01667 2 6.5 2H17.5C19.9833 2 22 4.01667 22 6.5V17.5C22 19.9833 19.9833 22 17.5 22Z" fill="#b90845ff"/>
  <path d="M12.0167 17.5416C8.92498 17.5416 7.44165 16.1167 7.44165 13.2667V6.69165H9.78332V13.1917C9.78332 14.5833 10.4 15.6333 12.0666 15.6333C13.7167 15.6333 14.2833 14.5833 14.2833 13.1917V6.69165H16.5666V13.2667C16.5583 16.1167 15.15 17.5416 12.0167 17.5416Z" fill="#ffffffff"/>
</svg>
