<?xml version="1.0" ?>
<svg xmlns="http://www.w3.org/2000/svg" width="24.0" height="24.0" viewBox="0 0 24.0 24.0">
  <path d="M17.5 22H6.5C4.01667 22 2 19.9833 2 17.5V6.5C2 4.01667 4.01667 2 6.5 2H17.5C19.9833 2 22 4.01667 22 6.5V17.5C22 19.9833 19.9833 22 17.5 22Z" fill="#f2a3b9ff"/>
  <path d="M14.2583 17.2833L12.1417 13.6833C11.8 13.1 11.4667 13.05 11.225 13.05H10.5333V17.2833H8.19165V6.69165H11.625C14.0083 6.69165 16.1833 7.23332 16.1833 9.74165C16.1833 11.5083 14.8 12.3083 13.875 12.4583C14.3083 13.225 16.1083 15.9083 17.0833 17.2917H14.2583V17.2833ZM11.675 8.50832H10.5333V11.3167H11.8083C12.7083 11.3167 13.7583 11.05 13.7583 9.87498C13.7583 8.65832 12.6083 8.50832 11.675 8.50832Z" fill="#24303bff"/>
</svg>
