<?xml version="1.0" ?>
<svg xmlns="http://www.w3.org/2000/svg" width="24.0" height="24.0" viewBox="0 0 24.0 24.0">
  <path d="M17.5 22H6.5C4.01667 22 2 19.9833 2 17.5V6.5C2 4.01667 4.01667 2 6.5 2H17.5C19.9833 2 22 4.01667 22 6.5V17.5C22 19.9833 19.9833 22 17.5 22ZM20.7 17.5V6.5C20.7 4.73333 19.2667 3.3 17.5 3.3H6.5C4.73333 3.3 3.3 4.73333 3.3 6.5V17.5C3.3 19.2667 4.73333 20.7 6.5 20.7H17.5C19.2667 20.7 20.7 19.2667 20.7 17.5ZM14.975 16.4333C15.0167 16.4 15.0583 16.375 15.0917 16.3417C15.45 16.05 15.7917 15.6083 16.0333 14.9167C16.375 13.95 16.6167 13.0833 16.6833 12.0167C16.775 10.7 16.2333 8.65833 15.875 7.70833L15.75 7.375C15.675 7.15833 15.375 6.70833 14.8583 6.15833C14.4083 5.69167 13.975 5.65833 13.325 5.65833H10.6583C10 5.65833 9.575 5.69167 9.125 6.15833C8.6 6.7 8.30833 7.15833 8.23333 7.375L8.10833 7.70833C7.75 8.65833 7.20833 10.7 7.3 12.0167C7.36667 13.0833 7.60833 13.9417 7.95 14.9167C8.19167 15.6083 8.525 16.0583 8.89167 16.3417C8.925 16.3667 8.96667 16.4 9.00833 16.4333L7.06667 18.5917C6.90833 18.7667 6.90833 19.05 7.06667 19.225C7.225 19.4 7.48333 19.4 7.63333 19.225L8.3 18.4833H15.675L16.3417 19.225C16.5 19.4 16.75 19.4 16.9083 19.225C17.0667 19.05 17.0667 18.7667 16.9083 18.5917L14.975 16.4333ZM14.325 15.65C13.9583 15.65 13.6583 15.35 13.6583 14.9833C13.6583 14.6167 13.9583 14.3167 14.325 14.3167C14.6917 14.3167 14.9917 14.6167 14.9917 14.9833C14.9917 15.35 14.6917 15.65 14.325 15.65ZM8.29167 11.375C7.88333 11.375 8.525 7.8 8.81667 7.8H15.0833C15.4 7.8 16.1417 11.375 15.6417 11.375H8.29167ZM8.96667 14.9833C8.96667 14.6167 9.26667 14.3167 9.63333 14.3167C10 14.3167 10.3 14.6167 10.3 14.9833C10.3 15.35 10 15.65 9.63333 15.65C9.26667 15.65 8.96667 15.35 8.96667 14.9833ZM9.10833 17.5833L9.825 16.7917C10.175 16.875 10.4917 16.875 10.725 16.875H13.25C13.4833 16.875 13.8083 16.875 14.15 16.7917L14.8667 17.5833H9.10833Z" fill="#000000ff"/>
</svg>
