<?xml version="1.0" ?>
<svg xmlns="http://www.w3.org/2000/svg" width="24.0" height="24.0" viewBox="0 0 24.0 24.0">
  <path d="M17.5 22H6.5C4.01667 22 2 19.9833 2 17.5V6.5C2 4.01667 4.01667 2 6.5 2H17.5C19.9833 2 22 4.01667 22 6.5V17.5C22 19.9833 19.9833 22 17.5 22Z" fill="#f18d42ff"/>
  <path d="M12.1584 13.5667H11.075V17.2917H8.7417V6.69165H12C14.4417 6.69165 16.55 7.34998 16.55 9.97498C16.5417 13.0583 13.975 13.5667 12.1584 13.5667ZM12.1334 8.50832H11.0834V11.7667H12.1667C13.0334 11.7667 14.175 11.5 14.175 10.1333C14.175 8.69165 12.9084 8.50832 12.1334 8.50832Z" fill="#24303bff"/>
</svg>
