<?xml version="1.0" ?>
<svg xmlns="http://www.w3.org/2000/svg" width="85.0" height="34.0" viewBox="0 0 85.0 34.0">
  <path d="M27.6552 17.7608H33.4843L32.9245 18.5669C32.8675 18.4795 32.7498 18.4221 32.6144 18.4146H31.0564L28.6891 21.8187H27.1632L29.5269 18.4146H27.5946C27.3878 18.4221 27.1917 18.477 27.0349 18.5669L27.6552 17.7608ZM45.014 21.0326L44.4828 21.8187H38.8427L41.4916 18.0453C41.5202 17.9979 41.5309 17.9454 41.5237 17.893C41.5273 17.8481 41.5166 17.8032 41.4916 17.7633H46.5435L45.9517 18.5494C45.8946 18.462 45.777 18.4046 45.6415 18.3972H42.743L42.0549 19.358H44.9855L44.4258 20.1641C44.3687 20.0767 44.2511 20.0193 44.1156 20.0118H41.5915L40.7822 21.1673H44.4258C44.6326 21.1673 44.8429 21.1224 45.014 21.0326ZM72.9364 21.0326L72.4088 21.8187H68.1092L70.7581 18.0453C70.7866 17.9979 70.7973 17.9454 70.7902 17.893C70.7938 17.8481 70.7831 17.8032 70.7581 17.7633H72.473L70.0736 21.1673H72.3803C72.5799 21.1648 72.776 21.1174 72.9364 21.0326ZM31.7694 21.8187L34.3863 18.0677C34.4148 18.0203 34.4255 17.9679 34.4183 17.9155C34.4219 17.8706 34.4112 17.8257 34.3863 17.7857H37.4095C38.0013 17.7857 39.0923 17.7857 39.0923 18.7465C39.0317 19.4254 38.3507 19.9994 37.4095 20.1641L37.8445 21.5592C37.8766 21.6764 37.9799 21.7788 38.1261 21.8437H36.504L36.0369 20.1641H34.4469L33.2953 21.8437H31.7694C31.7694 21.8412 31.7694 21.8187 31.7694 21.8187ZM37.6912 18.7216C37.6769 18.5444 37.463 18.4071 37.2063 18.4146C37.2027 18.4146 37.1956 18.4146 37.192 18.4146H35.6661L34.8854 19.5052H36.2865C37.1279 19.5052 37.6912 19.1359 37.6912 18.7216ZM55.296 17.7608C55.3209 17.8032 55.3316 17.8481 55.3281 17.8905C55.3281 17.933 55.296 18.0003 55.296 18.0428L52.6791 21.8162H54.205L57.0393 17.7583H55.296V17.7608ZM75.7422 17.7608C75.7672 17.8032 75.7779 17.8481 75.7743 17.8905C75.7743 17.933 75.7422 18.0003 75.7422 18.0428L73.1254 21.8162H74.6513L77.4856 17.7583H75.7422V17.7608ZM58.1018 17.7608H63.9593L63.3996 18.5669C63.3426 18.4795 63.2249 18.4221 63.0894 18.4146H61.5315L59.1642 21.8187H57.6383L60.0056 18.4146H58.1053C57.8986 18.4221 57.7025 18.477 57.5456 18.5669L58.1018 17.7608ZM65.6136 17.7608C65.6064 17.8806 65.5423 17.9979 65.4282 18.0877L60.8149 21.8187H62.1554L63.2463 20.9028H66.0806L66.1127 21.8187H67.5138L67.2037 17.7608H65.6136ZM64.0235 20.2489L65.9879 18.5918L66.0485 20.2489H64.0235ZM80.1024 17.7608C80.0953 17.8806 80.0311 17.9979 79.917 18.0877L75.3037 21.8187H76.6442L77.7352 20.9028H80.5695L80.6016 21.8187H82.0027L81.6925 17.7608H80.1024ZM78.5159 20.2489L80.5089 18.5918L80.5695 20.2489H78.5159ZM47.8483 18.3273L48.0337 18.0652C48.0729 18.0178 48.0943 17.9654 48.0943 17.913C48.0979 17.8681 48.0872 17.8232 48.0622 17.7832H49.5596L50.9607 20.5983L52.7397 18.0677C52.779 18.0203 52.8004 17.9679 52.8004 17.9155C52.8039 17.8706 52.7932 17.8257 52.7683 17.7857H54.0125L51.1461 21.8212H50.0623L48.5649 18.8114L46.4472 21.8212H45.3884L47.8483 18.3273Z" fill="#000000ff"/>
  <path d="M4.9665 24.7636L3.50121 24.7411V25.113H4.28199C4.2606 25.1828 4.21781 25.2502 4.15721 25.3101C3.99677 25.4474 3.75434 25.5198 3.50121 25.5073C2.97713 25.4898 2.5707 25.1779 2.59566 24.811C2.62062 24.4691 3.00922 24.1946 3.50121 24.1771C3.65808 24.1721 3.80782 24.2021 3.93616 24.2644C4.05382 24.3094 4.16077 24.3668 4.24633 24.4391L4.77755 24.222C4.69911 24.1272 4.59216 24.0473 4.46738 23.9824C4.19286 23.8302 3.8506 23.7528 3.50121 23.7653C2.67766 23.7628 2.00741 24.2295 2.00384 24.806C2.00384 24.8235 2.00384 24.8384 2.00384 24.8559C1.9468 25.405 2.53149 25.8816 3.31583 25.9216C3.36574 25.9241 3.41922 25.9241 3.46913 25.9241C4.01103 25.939 4.52085 25.7369 4.77755 25.4C4.91659 25.1978 4.98076 24.9807 4.9665 24.7636ZM81.9742 24.217V23.8252H80.3235V25.8741H81.9742V25.4599H80.9474V25.0231H81.9457V24.6288H80.9474V24.217H81.9742ZM70.94 25.8766L69.7563 23.8252H69.0718L67.9203 25.8766H68.6048L68.8223 25.4624H70.038L70.2555 25.8766H70.94ZM69.8205 25.068H69.0112L69.4176 24.2619L69.8205 25.068ZM72.8402 25.4848H71.842V23.8477H71.2181V25.8991H72.8402V25.4848ZM73.8064 25.8766V23.8277H73.1825V25.8766H73.8064ZM77.0792 25.8766L75.8956 23.8252H75.211L74.0595 25.8766H74.744L74.9615 25.4624H76.1772L76.3947 25.8766H77.0792ZM75.9277 25.068H75.1148L75.5212 24.2619L75.9277 25.068ZM79.8244 25.8766V23.8277H79.2326V25.1804L77.86 23.8277H77.3002V25.8766H77.8921L77.86 24.5015L79.2326 25.8766H79.8244ZM68.0736 24.217V23.8252H66.2054V24.217H66.8293V25.8542H67.4532V24.2195L68.0736 24.217ZM63.7419 24.8509C63.7562 24.2719 63.1002 23.7928 62.273 23.7828C62.2445 23.7828 62.2124 23.7828 62.1839 23.7828C61.339 23.7878 60.6652 24.2719 60.6723 24.8634C60.6794 25.4549 61.3711 25.9266 62.216 25.9216C63.0182 25.949 63.7027 25.5173 63.7419 24.9557C63.7419 24.9183 63.7419 24.8859 63.7419 24.8509ZM63.0859 24.8509C63.1109 25.1953 62.733 25.4873 62.2445 25.5048C62.2338 25.5048 62.2267 25.5048 62.216 25.5048C61.6991 25.5098 61.2748 25.2228 61.2641 24.8609C61.2534 24.499 61.667 24.2021 62.1839 24.1946C62.6759 24.1896 63.0823 24.4666 63.0895 24.811C63.0895 24.8235 63.0895 24.836 63.0859 24.8509ZM65.8917 25.8766V23.8252H65.2678V25.8741L65.8917 25.8766ZM60.5618 24.2195V23.8252H58.6936V24.217H59.3175V25.8542H59.9414V24.2195H60.5618ZM58.8184 25.8766L57.6348 23.8252H56.9502L55.7987 25.8766H56.4832L56.7007 25.4624H57.9164L58.1339 25.8766H58.8184ZM57.6954 25.068H56.8861L57.2925 24.2619L57.6954 25.068ZM55.952 24.217V23.8252H54.0839V24.217H54.7078V25.8542H55.3317V24.2195L55.952 24.217ZM50.59 24.8509C50.6078 24.2719 49.9483 23.7928 49.1211 23.7803C49.0926 23.7803 49.0605 23.7803 49.032 23.7803C48.1871 23.7928 47.5204 24.2794 47.5346 24.8709C47.5525 25.4624 48.2477 25.929 49.0926 25.9191C49.9269 25.9066 50.59 25.4324 50.59 24.8509ZM49.9376 24.8509C49.9625 25.1953 49.5846 25.4873 49.0962 25.5048C49.0855 25.5048 49.0784 25.5048 49.0677 25.5048C48.5507 25.5098 48.1265 25.2228 48.1158 24.8609C48.1086 24.499 48.5186 24.2021 49.0356 24.1946C49.5276 24.1896 49.934 24.4666 49.9411 24.811C49.9376 24.8235 49.9376 24.836 49.9376 24.8509ZM53.8949 25.2427C53.8949 24.6088 52.7113 24.6762 52.7113 24.3493C52.7148 24.252 52.8289 24.1721 52.9715 24.1746C52.9786 24.1746 52.9858 24.1746 52.9929 24.1746C53.1747 24.1871 53.3352 24.2595 53.4279 24.3718L53.8343 24.0448C53.6275 23.8676 53.3209 23.7628 52.9929 23.7603C52.5187 23.7329 52.1016 23.9799 52.0624 24.3094C52.0624 24.3218 52.0588 24.3343 52.0588 24.3468C52.0588 24.6962 52.4653 24.8709 52.8396 25.0007C52.9323 25.0231 53.0179 25.0606 53.0892 25.1105C53.1605 25.1554 53.2033 25.2178 53.214 25.2852C53.2175 25.4149 53.0713 25.5223 52.886 25.5272C52.8717 25.5272 52.8539 25.5272 52.8396 25.5248C52.6079 25.5123 52.4011 25.4224 52.2799 25.2852L51.8734 25.6121C52.1159 25.7918 52.4546 25.8941 52.8075 25.8966C53.3173 25.9565 53.7986 25.7194 53.8842 25.3625C53.8913 25.3226 53.8949 25.2827 53.8949 25.2427ZM47.3172 25.8766V25.4848H46.3225V23.8477H45.6986V25.8991H47.3207L47.3172 25.8766ZM41.2421 24.8285C41.2457 24.6363 41.1708 24.4466 41.0246 24.2819C40.6824 23.8676 40.0906 23.8452 39.4987 23.8452H38.9069V25.8966H39.5914C39.9872 25.9191 40.3793 25.8517 40.7145 25.6994C41.0496 25.4723 41.2385 25.1604 41.2421 24.8285ZM40.6218 24.8285C40.6859 25.1554 40.3579 25.4574 39.8909 25.4998C39.8339 25.5048 39.7768 25.5073 39.7198 25.5048H39.5344V24.1746H39.6271C39.8695 24.1596 40.1119 24.207 40.3116 24.3044C40.5184 24.4391 40.6289 24.6313 40.6218 24.8285ZM43.2992 24.217V23.8252H41.6485V25.8741H43.2992V25.4599H42.2724V25.0231H43.2671V24.6288H42.2724V24.217H43.2992ZM45.3563 25.4848H44.3581V23.8477H43.7342V25.8991H45.3563V25.4848ZM37.2242 24.217V23.8252H35.5735V25.8741H37.2242V25.4599H36.1938V25.0231H37.1921V24.6288H36.1938V24.217H37.2242ZM34.9781 25.8766V23.8277H34.3542V25.8766H34.9781ZM34.1046 23.8252H33.4201L32.7035 25.2877L31.9869 23.8252H31.3024L32.3934 25.8741H33.0173L34.1046 23.8252ZM31.2097 24.8509C31.2275 24.2719 30.5716 23.7928 29.7444 23.7803C29.7159 23.7803 29.6838 23.7803 29.6553 23.7803C28.8104 23.7853 28.1365 24.2694 28.1437 24.8609C28.1508 25.4524 28.8424 25.9241 29.6874 25.9191C30.4896 25.9465 31.1741 25.5123 31.2133 24.9508C31.2097 24.9183 31.2097 24.8834 31.2097 24.8509ZM30.5537 24.8509C30.5787 25.1953 30.2008 25.4873 29.7123 25.5048C29.7017 25.5048 29.6945 25.5048 29.6838 25.5048C29.1669 25.5098 28.7426 25.2228 28.7319 24.8609C28.7248 24.499 29.1348 24.2021 29.6517 24.1946C30.1437 24.1896 30.5502 24.4666 30.5573 24.811C30.5573 24.8235 30.5573 24.836 30.5573 24.8484L30.5537 24.8509ZM14.7529 24.4591C14.7636 24.3268 14.7101 24.1946 14.596 24.0873C14.4035 23.925 14.1183 23.8302 13.8153 23.8252H12.7885V25.8741H13.4124V25.088H13.7226C14.0006 25.1055 14.2787 25.0506 14.5033 24.9358C14.6638 24.8035 14.7493 24.6338 14.7529 24.4591ZM14.1326 24.4591C14.1326 24.6563 13.9472 24.7212 13.6976 24.7212H13.416V24.1971H13.6655C13.7297 24.1946 13.7939 24.2021 13.8509 24.2195C14.022 24.2295 14.1468 24.3368 14.1326 24.4566C14.1326 24.4541 14.1326 24.4566 14.1326 24.4591ZM17.9615 24.8509C17.9794 24.2719 17.3198 23.7928 16.4927 23.7803C16.4642 23.7803 16.4357 23.7803 16.4071 23.7803C15.5622 23.7853 14.8884 24.2694 14.8955 24.8609C14.9026 25.4524 15.5943 25.9241 16.4392 25.9191C17.2414 25.9465 17.9259 25.5123 17.9651 24.9508C17.9651 24.9183 17.9651 24.8834 17.9615 24.8509ZM17.3091 24.8509C17.3341 25.1953 16.9562 25.4873 16.4677 25.5048C16.457 25.5048 16.4499 25.5048 16.4392 25.5048C15.9223 25.5098 15.498 25.2228 15.4909 24.8609C15.4838 24.499 15.8937 24.2021 16.4107 24.1971C16.9027 24.1921 17.3091 24.4691 17.3163 24.8135C17.3127 24.8235 17.3127 24.836 17.3091 24.8509ZM21.2023 24.6113H20.1434V24.2195H21.2023V23.8277H19.5195V25.8766H20.1434V25.0256H21.2023V24.6113ZM23.1346 24.217V23.8252H21.4839V25.8741H23.1346V25.4599H22.1078V25.0231H23.1061V24.6288H22.1078V24.217H23.1346ZM25.6908 25.8766L24.853 25.0057C24.9635 24.9907 25.0705 24.9607 25.1632 24.9183C25.3771 24.8035 25.5054 24.6263 25.5054 24.4391C25.509 24.3169 25.4662 24.1971 25.3807 24.0898C25.1382 23.8851 24.7568 23.7853 24.3824 23.8277H23.5731V25.8766H24.197V25.0057L24.9778 25.8766H25.6908ZM24.8815 24.4591C24.8744 24.5115 24.853 24.5639 24.8209 24.6113C24.7211 24.7087 24.5535 24.7611 24.386 24.7411H24.1685V24.1946H24.386C24.632 24.1746 24.8815 24.2395 24.8815 24.4591ZM27.9975 25.8766L27.1561 25.0057C27.2666 24.9907 27.3736 24.9607 27.4663 24.9183C27.6802 24.8035 27.8085 24.6263 27.8085 24.4391C27.8121 24.3169 27.7693 24.1971 27.6838 24.0898C27.4413 23.8851 27.0599 23.7853 26.6855 23.8277H25.8762V25.8766H26.5001V25.0057L27.2809 25.8766H27.9975ZM27.1882 24.4566C27.1811 24.509 27.1597 24.5614 27.1276 24.6088C27.0278 24.7062 26.8602 24.7586 26.6926 24.7386H26.4752V24.1921H26.6926C26.9386 24.1746 27.1882 24.2395 27.1882 24.4566ZM12.5104 24.4566C12.5211 24.3243 12.4676 24.1921 12.3535 24.0848C12.161 23.9225 11.8758 23.8277 11.5728 23.8227H10.546V25.8741H11.1699V25.088H11.4801C11.7581 25.1055 12.0362 25.0506 12.2608 24.9358C12.4177 24.8035 12.5068 24.6338 12.5104 24.4566ZM11.8865 24.4566C11.8865 24.6538 11.7011 24.7187 11.4515 24.7187H11.1699V24.1946H11.4195C11.4836 24.1921 11.5478 24.1996 11.6048 24.217C11.7724 24.237 11.8936 24.3393 11.8865 24.4566ZM7.49421 25.8766L6.65282 25.0057C6.76335 24.9907 6.8703 24.9607 6.963 24.9183C7.17691 24.8035 7.30525 24.6263 7.30525 24.4391C7.30882 24.3169 7.26603 24.1971 7.18047 24.0898C6.93804 23.8851 6.56013 23.7853 6.18579 23.8277H5.37293V25.8766H5.99683V25.0057L6.77761 25.8766H7.49421ZM6.68135 24.4566C6.67422 24.509 6.65283 24.5614 6.62074 24.6088C6.52091 24.7062 6.35335 24.7586 6.18579 24.7386H5.96831V24.1921H6.18935C6.46744 24.1746 6.68491 24.2395 6.68135 24.4566ZM10.0469 24.9582V23.8252H9.42296V25.0905C9.42296 25.3526 9.26609 25.5048 8.89175 25.5048C8.70993 25.5148 8.53167 25.4574 8.42472 25.3526C8.34272 25.2627 8.31063 25.1529 8.33202 25.0481V23.7828H7.70812V25.0481C7.69029 25.1754 7.72238 25.3026 7.80081 25.4199C7.99689 25.7144 8.42828 25.8941 8.89175 25.8766C9.26609 25.8916 9.62618 25.7768 9.85791 25.5722C10.0077 25.3825 10.0718 25.1704 10.0469 24.9582Z" fill="#000000ff"/>
  <path d="M13.4445 14.1845L7.1484 14.6212L2.90941 20.511C6.27493 20.511 7.98978 20.2939 9.95062 18.3298C11.2341 16.9971 12.3999 15.612 13.4445 14.1845Z" fill="#000000ff"/>
  <path d="M30.4896 8.729L30.9887 8.07513H17.7156C13.227 8.07513 10.9204 9.14327 9.51925 11.1074L8.42831 12.6572H14.4713C16.5925 9.77717 19.2094 8.79388 25.5982 8.729H30.4896Z" fill="#000000ff"/>
  <path d="M30.0867 9.3629C21.983 9.40533 20.6425 10.3437 18.835 12.6572H27.78L30.0867 9.3629Z" fill="#000000ff"/>
  <path d="M21.5196 17.4763C20.992 19.5701 18.6496 21.2073 15.6585 21.5766C14.6816 21.6964 13.6905 21.7688 12.6994 21.7938C11.5157 21.8162 2.01099 21.8162 2.01099 21.8162L2.41742 21.2272C2.41742 21.2272 6.0325 21.2048 6.53162 21.2048C7.70813 21.1923 8.88463 21.1324 10.054 21.0301C12.5354 20.8828 14.6174 19.6625 15.2556 17.9754L15.9722 16.2734C16.3786 14.8334 18.1755 13.7927 20.2718 13.7852L27.1918 13.4807L26.8495 13.9599L24.7318 14.0472C23.1489 14.1321 21.8797 14.9931 21.7086 16.0987L21.5196 17.4763Z" fill="#000000ff"/>
</svg>
