<?xml version="1.0" ?>
<svg xmlns="http://www.w3.org/2000/svg" width="16.0" height="16.0" viewBox="0 0 16.0 16.0">
  <path d="M8,16C12.418,16 16,12.418 16,8C16,3.582 12.418,0 8,0C3.582,0 0,3.582 0,8C0,12.418 3.582,16 8,16ZM8.831,11.889C8.722,12.053 8.565,12.182 8.383,12.257C8.2,12.333 7.999,12.353 7.805,12.314C7.611,12.276 7.433,12.18 7.293,12.04C7.153,11.901 7.058,11.722 7.019,11.528C6.981,11.334 7,11.133 7.076,10.951C7.152,10.768 7.28,10.612 7.444,10.502C7.609,10.392 7.802,10.333 8,10.333C8.265,10.333 8.52,10.439 8.707,10.626C8.895,10.814 9,11.068 9,11.333C9,11.531 8.941,11.724 8.831,11.889ZM7.529,3.529C7.654,3.404 7.823,3.333 8,3.333C8.177,3.333 8.346,3.404 8.471,3.529C8.596,3.654 8.667,3.823 8.667,4V8.667C8.667,8.843 8.596,9.013 8.471,9.138C8.346,9.263 8.177,9.333 8,9.333C7.823,9.333 7.654,9.263 7.529,9.138C7.404,9.013 7.333,8.843 7.333,8.667V4C7.333,3.823 7.404,3.654 7.529,3.529Z" fill="#ff5072ff"/>
</svg>
