<?xml version="1.0" ?>
<svg xmlns="http://www.w3.org/2000/svg" width="24.0" height="24.0" viewBox="0 0 24.0 24.0">
  <path d="M9.631,5.895C9.547,5.96 9.477,6.04 9.426,6.13C9.322,6.313 9.298,6.528 9.359,6.728C9.42,6.928 9.561,7.097 9.752,7.198C9.846,7.247 9.95,7.278 10.057,7.289C10.163,7.301 10.272,7.291 10.375,7.262C10.478,7.233 10.575,7.185 10.658,7.12C10.742,7.056 10.812,6.976 10.863,6.885C10.967,6.702 10.991,6.487 10.93,6.287C10.869,6.087 10.728,5.918 10.538,5.818C10.443,5.768 10.34,5.737 10.233,5.726C10.125,5.714 10.017,5.724 9.914,5.753C9.811,5.782 9.714,5.83 9.631,5.895Z" fill="#000000ff"/>
  <path d="M4.866,9.341C4.883,9.441 4.938,9.531 5.021,9.594C5.056,9.618 5.094,9.637 5.135,9.651C5.14,9.593 5.16,9.537 5.193,9.488C5.226,9.44 5.271,9.4 5.325,9.372C5.378,9.344 5.437,9.329 5.498,9.329C5.559,9.329 5.618,9.343 5.672,9.37L5.719,9.393C5.733,9.378 5.746,9.363 5.759,9.348C5.785,9.318 5.812,9.288 5.841,9.261C6.322,8.844 6.919,8.57 7.559,8.47C7.657,8.465 7.753,8.497 7.827,8.559C7.9,8.62 7.946,8.707 7.955,8.8C7.962,8.894 7.929,8.987 7.865,9.058C7.8,9.129 7.709,9.173 7.61,9.18C7.165,9.257 6.75,9.448 6.409,9.733L10.739,11.868C10.739,11.866 10.739,11.865 10.739,11.863C10.74,11.862 10.74,11.86 10.74,11.858C10.732,11.807 10.714,11.758 10.687,11.714C10.659,11.668 10.622,11.628 10.578,11.595C10.17,11.295 9.885,10.868 9.769,10.388C9.654,9.912 9.721,9.413 9.958,8.98C9.999,8.908 10.015,8.824 10.002,8.742C9.99,8.672 9.96,8.606 9.913,8.551L8.742,7.936C7.469,7.27 5.998,8.181 5.577,8.476C5.331,8.641 5.112,8.838 4.925,9.063C4.899,9.101 4.881,9.142 4.871,9.186C4.859,9.237 4.857,9.289 4.866,9.341Z" fill="#000000ff"/>
  <path d="M13.071,14.78C13.025,14.803 12.985,14.837 12.956,14.878L11.973,16.249L19.254,16.226L16.301,11.478C16.28,11.445 16.25,11.418 16.215,11.399C16.18,11.38 16.141,11.371 16.101,11.371C16.06,11.371 16.021,11.382 15.987,11.401C15.952,11.421 15.924,11.449 15.904,11.482L14.345,14.224C14.242,14.406 14.083,14.553 13.89,14.646C13.698,14.74 13.48,14.775 13.266,14.747C13.251,14.745 13.236,14.744 13.222,14.744C13.169,14.744 13.118,14.756 13.071,14.78Z" fill="#000000ff"/>
  <path d="M13.955,13.425L13.076,12.902L12.403,13.824L12.989,14.049C12.993,14.05 12.996,14.052 12.999,14.055C13.002,14.057 13.005,14.059 13.008,14.061C13.125,14.035 13.247,14.029 13.366,14.043C13.431,14.052 13.498,14.042 13.556,14.013C13.615,13.985 13.663,13.94 13.693,13.885L13.955,13.425Z" fill="#000000ff"/>
  <path d="M12,24C5.373,24 0,18.627 0,12C0,5.373 5.373,0 12,0C18.627,0 24,5.373 24,12C24,18.627 18.627,24 12,24ZM16.937,11.114C16.85,10.974 16.726,10.858 16.577,10.778C16.428,10.699 16.26,10.658 16.09,10.661C15.919,10.663 15.752,10.708 15.606,10.792C15.46,10.876 15.339,10.995 15.256,11.138L14.311,12.8L13.17,12.122C13.089,12.074 12.992,12.057 12.899,12.075C12.807,12.094 12.724,12.145 12.67,12.22L12.347,12.661L11.434,12.211C11.435,12.208 11.437,12.206 11.439,12.203C11.441,12.201 11.443,12.199 11.444,12.196C11.485,12.055 11.495,11.908 11.475,11.764C11.454,11.62 11.404,11.481 11.327,11.356C11.251,11.231 11.15,11.121 11.03,11.033C10.759,10.833 10.569,10.549 10.491,10.23C10.417,9.921 10.46,9.596 10.613,9.315C10.729,9.107 10.772,8.869 10.735,8.636C10.698,8.402 10.585,8.186 10.411,8.019C10.393,8.003 10.373,7.988 10.352,7.976C10.43,7.971 10.507,7.96 10.583,7.944C10.891,7.86 11.164,7.688 11.367,7.451C11.569,7.214 11.691,6.924 11.716,6.618C11.741,6.313 11.668,6.008 11.507,5.743C11.345,5.479 11.104,5.268 10.813,5.139C10.523,5.01 10.199,4.97 9.884,5.023C9.569,5.075 9.279,5.219 9.052,5.435C8.825,5.65 8.672,5.927 8.614,6.229C8.556,6.53 8.595,6.841 8.727,7.12C8.661,7.088 8.587,7.077 8.514,7.087C7.924,6.986 7.319,7.007 6.738,7.147C6.157,7.287 5.614,7.543 5.145,7.899C4.839,8.105 4.566,8.352 4.335,8.633C4.245,8.751 4.182,8.885 4.148,9.027C4.114,9.167 4.109,9.313 4.135,9.456C4.18,9.734 4.336,9.986 4.57,10.158C4.772,10.305 5.019,10.384 5.272,10.385C5.288,10.385 5.304,10.384 5.32,10.384C5.494,10.373 5.663,10.324 5.813,10.238L5.944,10.303L5.467,11.197C5.302,11.508 5.22,11.854 5.23,12.203L5.253,13.026C5.261,13.286 5.191,13.543 5.052,13.767L4.151,15.219C4.078,15.337 4.03,15.469 4.01,15.605C3.99,15.742 4,15.881 4.037,16.014C4.075,16.147 4.14,16.271 4.228,16.38C4.317,16.489 4.428,16.579 4.554,16.646C4.8,16.776 5.089,16.808 5.36,16.736C5.631,16.664 5.862,16.494 6.004,16.262L7.089,14.466C7.113,14.427 7.129,14.383 7.136,14.337L7.274,13.38L7.9,14.083C7.975,14.168 8.016,14.277 8.013,14.388L7.97,15.989C7.964,16.249 8.065,16.501 8.251,16.69C8.438,16.879 8.694,16.99 8.966,16.999L8.999,17C9.265,16.999 9.52,16.9 9.711,16.723C9.903,16.546 10.016,16.306 10.026,16.051L10.113,13.728C10.126,13.422 10.012,13.124 9.796,12.899L8.699,11.746C8.633,11.677 8.54,11.636 8.442,11.632C8.344,11.628 8.249,11.661 8.176,11.725C8.104,11.788 8.061,11.876 8.056,11.97C8.051,12.064 8.086,12.156 8.151,12.225L9.248,13.377C9.333,13.465 9.377,13.582 9.372,13.701L9.285,16.024C9.28,16.096 9.246,16.163 9.191,16.212C9.137,16.261 9.065,16.289 8.99,16.289C8.914,16.287 8.842,16.256 8.79,16.203C8.738,16.15 8.71,16.08 8.712,16.007L8.755,14.406C8.762,14.119 8.659,13.84 8.464,13.622L7.301,12.316C7.255,12.264 7.194,12.226 7.125,12.206C7.057,12.186 6.984,12.186 6.915,12.205C6.847,12.225 6.785,12.262 6.738,12.314C6.692,12.366 6.662,12.43 6.652,12.498L6.411,14.171L5.362,15.906C5.34,15.942 5.311,15.974 5.276,16C5.241,16.025 5.201,16.044 5.158,16.055C5.116,16.066 5.072,16.068 5.028,16.062C4.984,16.057 4.942,16.042 4.904,16.021C4.867,16 4.833,15.971 4.807,15.938C4.781,15.904 4.762,15.865 4.751,15.824C4.74,15.783 4.738,15.741 4.744,15.699C4.751,15.658 4.766,15.618 4.789,15.581L5.69,14.13C5.9,13.791 6.006,13.401 5.995,13.007L5.972,12.184C5.965,11.953 6.019,11.725 6.128,11.52L6.604,10.628L11.918,13.249L11.527,13.784C11.495,13.828 11.474,13.878 11.465,13.931C11.456,13.984 11.46,14.038 11.476,14.089C11.491,14.141 11.519,14.188 11.557,14.227C11.595,14.267 11.641,14.298 11.693,14.318L12.293,14.547L11.343,15.874C11.28,15.983 11.247,16.106 11.249,16.23C11.25,16.355 11.285,16.477 11.351,16.584C11.417,16.691 11.511,16.781 11.624,16.842C11.736,16.904 11.864,16.937 11.994,16.937H19.254C19.386,16.937 19.516,16.903 19.63,16.84C19.743,16.777 19.838,16.685 19.903,16.575C19.968,16.466 20.001,16.341 20,16.215C19.999,16.089 19.962,15.965 19.894,15.857L16.937,11.114Z" fill="#000000ff"/>
</svg>
