<svg viewBox="0 0 360 120" aria-hidden="true">
    <svg aria-hidden="true" viewBox="0 0 360 120" xmlns="http://www.w3.org/2000/svg">
        <path class="animated-confirm-loop" d="M504 74c-70-22-163 17-183 24-9 3-19 3-21 0-3-4-3-10 10-19 23-20 20-26 18-29-3-3-15 0-24 6-41 27-47 32-72 40-71 23-97-18-97-46 0-12 11-39 39-39 27 0 40 23 40 39s-10 37-40 42c-42 6-67 6-98 0S38 71 36 63s9-8 9 0c0 7 1 18-27 29-43 16-256 19-317-31">
        </path>
    </svg>
    <svg aria-hidden="true" viewBox="0 0 360 120" xmlns="http://www.w3.org/2000/svg">
        <path class="animated-confirm-check" d="m153 53 14 14 28-27">
        </path>
    </svg>
</svg>
