<svg width="130" height="64" viewBox="0 0 130 64" fill="none" xmlns="http://www.w3.org/2000/svg">
<path d="M33.5932 11.9553H10.2756C4.59436 11.9553 0 16.5744 0 22.2556C0 27.9368 4.59436 32.5312 10.2756 32.5312H33.5932C39.2744 32.5312 43.8688 27.9368 43.8688 22.2556C43.8688 16.5744 39.2744 11.9553 33.5932 11.9553Z" fill="#8DE8FE"/>
<path d="M4.56966 42.2881C3.68043 42.2881 2.7665 42.6092 2.7665 43.4984C2.7665 44.363 3.63103 44.5606 5.18719 44.9311C6.84215 45.3263 8.79352 46.0673 8.79352 48.2904C8.79352 51.0075 6.57044 52.0202 4.12505 52.0202C2.89 52.0202 1.48205 51.6744 0.617522 51.0075C0.123504 50.637 0 50.2171 0 49.896C0 49.2537 0.494018 48.7103 1.16094 48.7103C1.45735 48.7103 1.75376 48.8091 2.12428 49.0808C2.7665 49.5995 3.48283 49.8713 4.27325 49.8713C5.08838 49.8713 6.10112 49.5501 6.10112 48.5374C6.10112 47.5988 5.21189 47.3518 3.50753 46.9565C1.85257 46.5613 0.197607 45.8944 0.197607 43.7701C0.197607 41.2753 2.42069 40.2132 4.64377 40.2132C5.75531 40.2132 6.94095 40.4849 7.73138 41.0777C8.2748 41.473 8.3983 41.8435 8.3983 42.1646C8.3983 42.7821 7.95369 43.3008 7.26206 43.3008C7.01505 43.3008 6.74334 43.202 6.44693 42.9797C5.85411 42.4857 5.23659 42.2881 4.56966 42.2881ZM11.2142 41.7694C11.2142 40.5096 12.1281 40.312 12.5481 40.312C12.968 40.312 13.8819 40.5096 13.8819 41.7694V42.3128H13.9313C14.4253 41.2012 15.7592 40.1885 17.3894 40.1885C20.3041 40.1885 21.5145 42.4116 21.5145 44.7088V50.3406C21.5145 51.6744 20.5758 51.8967 20.1065 51.8967C19.6372 51.8967 18.6986 51.6744 18.6986 50.3406V45.4992C18.6986 44.1653 18.4022 42.5104 16.599 42.5104C14.8205 42.5104 13.9807 44.0418 13.9807 45.5486V50.3406C13.9807 51.6744 13.0421 51.8967 12.5728 51.8967C12.1034 51.8967 11.1648 51.6744 11.1648 50.3406V41.7694H11.2142ZM32.6546 48.8585C33.3709 48.8585 33.7908 49.4019 33.7908 49.9701C33.7908 50.3653 33.6673 50.7605 33.0498 51.2051C32.2594 51.7732 31.0243 52.0202 30.061 52.0202C26.7264 52.0202 24.1081 49.8218 24.1081 46.1167C24.1081 42.4857 26.8005 40.2132 30.0857 40.2132C31.1478 40.2132 32.2347 40.4602 33.0251 41.0036C33.6673 41.4482 33.8155 41.8929 33.8155 42.214C33.8155 42.8315 33.3462 43.4243 32.6052 43.4243C32.3582 43.4243 32.0865 43.3502 31.6665 43.0538C31.296 42.7821 30.7526 42.5351 30.0857 42.5351C28.0355 42.5351 27.0228 44.363 27.0228 46.1167C27.0228 47.8705 28.0108 49.6736 30.0857 49.6736C30.7032 49.6736 31.2466 49.5254 31.7406 49.2043C32.1112 48.9573 32.4076 48.8585 32.6546 48.8585ZM36.7549 42.7574C35.6928 42.7574 35.4952 42.0164 35.4952 41.6459C35.4952 41.2753 35.6928 40.5343 36.7549 40.5343H37.8171V38.8794C37.8171 36.2117 38.8545 33.8157 42.0903 33.8157C43.2513 33.8157 43.8688 34.2109 43.8688 35.0507C43.8688 35.6682 43.4489 36.187 42.5596 36.187C41.0529 36.187 40.6083 37.1503 40.6083 38.7064V40.5343H42.1397C43.2019 40.5343 43.3995 41.2753 43.3995 41.6459C43.3995 42.0164 43.2019 42.7574 42.1397 42.7574H40.6083V50.3406C40.6083 51.6744 39.6696 51.8967 39.2003 51.8967C38.7557 51.8967 37.7924 51.6744 37.7924 50.3406V42.7574H36.7549Z" fill="#8DE8FE"/>
<path d="M56.1213 11.9553C50.4401 11.9553 45.8457 16.5497 45.8457 22.2309C45.8457 27.9121 50.4401 32.5065 56.1213 32.5065C61.8025 32.5065 66.3968 27.9121 66.3968 22.2309C66.3968 16.5497 61.8025 11.9553 56.1213 11.9553Z" fill="white"/>
<path d="M54.3915 48.8582C55.1078 48.8582 55.5278 49.4017 55.5278 49.9698C55.5278 50.365 55.4043 50.7602 54.7867 51.2048C53.9963 51.773 52.7613 52.02 51.7979 52.02C48.4633 52.02 45.8203 49.8216 45.8203 46.0918C45.8203 42.4607 48.5374 40.1635 51.8226 40.1635C52.8848 40.1635 53.9716 40.4105 54.762 40.954C55.4043 41.3986 55.5525 41.8432 55.5525 42.1643C55.5525 42.7818 55.0831 43.3747 54.3421 43.3747C54.0951 43.3747 53.8234 43.3006 53.4035 43.0041C53.033 42.7324 52.4896 42.4854 51.8226 42.4854C49.7725 42.4854 48.735 44.338 48.735 46.067C48.735 47.8208 49.7231 49.624 51.8226 49.624C52.4402 49.624 52.9836 49.4758 53.4776 49.1547C53.8481 48.9818 54.1445 48.8582 54.3915 48.8582ZM63.1603 52.0447C59.7763 52.0447 57.0839 49.5993 57.0839 46.067C57.0839 42.5348 59.801 40.1882 63.1603 40.1882C66.5444 40.1882 69.2367 42.5348 69.2367 46.067C69.2367 49.5746 66.5444 52.0447 63.1603 52.0447ZM63.1603 42.4607C60.9373 42.4607 59.9245 44.3133 59.9245 46.0423C59.9245 47.7961 60.962 49.6734 63.1603 49.6734C65.3834 49.6734 66.3961 47.7961 66.3961 46.0423C66.3961 44.3133 65.3587 42.4607 63.1603 42.4607ZM71.6327 41.7691C71.6327 40.5094 72.5467 40.287 72.9666 40.287C73.3865 40.287 74.3004 40.4847 74.3004 41.7691V42.3125H74.3498C74.8439 41.201 76.1777 40.1882 77.8327 40.1882C80.7474 40.1882 81.9577 42.436 81.9577 44.7085V50.365C81.9577 51.6988 81.0191 51.9212 80.5498 51.9212C80.0804 51.9212 79.1418 51.6988 79.1418 50.365V45.5236C79.1418 44.1898 78.8454 42.5348 77.0422 42.5348C75.2638 42.5348 74.4239 44.0663 74.4239 45.573V50.3897C74.4239 51.7236 73.4853 51.9459 73.016 51.9459C72.5467 51.9459 71.608 51.7236 71.608 50.3897V41.7691H71.6327ZM84.7242 41.7691C84.7242 40.5094 85.6381 40.287 86.0581 40.287C86.478 40.287 87.3919 40.4847 87.3919 41.7691V42.3125H87.4413C87.9353 41.201 89.2692 40.1882 90.9241 40.1882C93.8388 40.1882 95.0492 42.436 95.0492 44.7085V50.365C95.0492 51.6988 94.1105 51.9212 93.6412 51.9212C93.1719 51.9212 92.2333 51.6988 92.2333 50.365V45.5236C92.2333 44.1898 91.9369 42.5348 90.1337 42.5348C88.3552 42.5348 87.5154 44.0663 87.5154 45.573V50.3897C87.5154 51.7236 86.5768 51.9459 86.1075 51.9459C85.6381 51.9459 84.6995 51.7236 84.6995 50.3897V41.7691H84.7242ZM100.138 47.0057C100.261 48.5865 101.694 49.7475 103.324 49.7475C104.485 49.7475 105.201 49.377 105.893 48.7841C106.288 48.463 106.535 48.3889 106.856 48.3889C107.474 48.3889 107.968 48.8335 107.968 49.5005C107.968 49.7228 107.869 50.1427 107.498 50.5132C106.412 51.5506 105.152 52.02 103.349 52.02C99.8905 52.02 97.3217 49.7969 97.3217 46.1659C97.3217 42.5595 99.8659 40.1635 103.25 40.1635C105.967 40.1635 108.141 41.695 108.585 44.9802C108.61 45.2025 108.635 45.3754 108.635 45.573C108.635 46.5611 108.091 46.981 107.177 46.981H100.138V47.0057ZM105.868 44.9802C105.868 43.5229 105.053 42.2631 103.225 42.2631C101.57 42.2631 100.236 43.3994 100.113 44.9802H105.868ZM118.96 48.8582C119.676 48.8582 120.096 49.4017 120.096 49.9698C120.096 50.365 119.972 50.7602 119.355 51.2048C118.564 51.773 117.329 52.02 116.366 52.02C113.031 52.02 110.388 49.8216 110.388 46.0918C110.388 42.4607 113.106 40.1635 116.391 40.1635C117.453 40.1635 118.54 40.4105 119.33 40.954C119.972 41.3986 120.121 41.8432 120.121 42.1643C120.121 42.7818 119.651 43.3747 118.91 43.3747C118.663 43.3747 118.392 43.3006 117.972 43.0041C117.601 42.7324 117.058 42.4854 116.391 42.4854C114.341 42.4854 113.303 44.338 113.303 46.067C113.303 47.8208 114.291 49.624 116.391 49.624C117.008 49.624 117.552 49.4758 118.046 49.1547C118.416 48.9818 118.713 48.8582 118.96 48.8582ZM127.21 51.9459C124.246 51.9459 123.603 50.118 123.603 47.969V42.7324H122.689C121.627 42.7324 121.43 41.9914 121.43 41.6209C121.43 41.2504 121.627 40.5093 122.689 40.5093H123.603V38.5827C123.603 37.2982 124.517 37.0759 124.987 37.0759C125.456 37.0759 126.37 37.2982 126.37 38.5827V40.5093H128.124C129.186 40.5093 129.383 41.2504 129.383 41.6209C129.383 41.9914 129.186 42.7324 128.124 42.7324H126.37V47.9443C126.37 49.0312 126.74 49.624 127.432 49.624C127.556 49.624 127.704 49.5993 127.877 49.5746C128.074 49.5499 128.099 49.5499 128.198 49.5499C128.889 49.5499 129.26 50.0686 129.26 50.5873C129.26 51.0319 129.013 51.4024 128.593 51.6247C128.198 51.8224 127.728 51.9459 127.21 51.9459Z" fill="white"/>
<path d="M39.8679 25.5916C41.7164 21.8945 40.2179 17.399 36.5209 15.5505C32.8238 13.702 28.3283 15.2005 26.4798 18.8975C24.6313 22.5945 26.1298 27.0901 29.8268 28.9386C33.5238 30.7871 38.0194 29.2886 39.8679 25.5916Z" fill="#0C131F"/>
</svg>
