<svg aria-hidden="true" viewBox="0 0 24 24" xmlns="http://www.w3.org/2000/svg" class="css-1oqmxjn"><path d="M8.5 15.5H5.5V18.5H8.5V15.5Z"></path><path d="M8.5 5.5H5.5V8.5H8.5V5.5Z"></path><path d="M2.5 11.5H11.5V2.5H2.5V11.5ZM4.5 4.5H9.5V9.5H4.5V4.5Z"></path><path d="M11.5 18.5H8.5V21.5H11.5V18.5Z"></path><path d="M5.5 12.5H2.5V15.5H5.5V12.5Z"></path><path d="M11.5 12.5H8.5V15.5H11.5V12.5Z"></path><path d="M18.5 5.5H15.5V8.5H18.5V5.5Z"></path><path d="M15.5 2.5H12.5V5.5H15.5V2.5Z"></path><path d="M15.5 8.5H12.5V11.5H15.5V8.5Z"></path><path d="M21.5 2.5H18.5V5.5H21.5V2.5Z"></path><path d="M12.5 21.5H21.5V12.5H12.5V21.5ZM14.5 14.5H19.5V19.5H14.5V14.5Z"></path><path d="M18.5 15.5H15.5V18.5H18.5V15.5Z"></path><path d="M21.5 8.5H18.5V11.5H21.5V8.5Z"></path></svg>