<svg aria-hidden="true" viewBox="0 0 24 24" xmlns="http://www.w3.org/2000/svg" class="css-1oqmxjn"><path d="M14.2507 10.0988C14.9317 9.65003 15.4628 9.00399 15.7743 8.24522C16.0859 7.48646 16.1634 6.65033 15.9968 5.84629C15.8476 5.03646 15.4591 4.29126 14.8826 3.70878C14.3061 3.12629 13.5686 2.73381 12.7671 2.58299C11.9711 2.41824 11.1444 2.49999 10.3952 2.81754C9.86342 3.0379 9.38334 3.36855 8.98599 3.78813C8.58863 4.2077 8.28284 4.70685 8.08837 5.25332C7.89391 5.79978 7.81511 6.3814 7.85706 6.96056C7.89901 7.53973 8.06078 8.10355 8.33191 8.61559C8.60304 9.12763 8.9775 9.57648 9.43109 9.93313C9.88467 10.2898 10.4073 10.5463 10.9651 10.6861C11.523 10.8259 12.1036 10.8458 12.6696 10.7447C13.2356 10.6435 13.7742 10.4235 14.2507 10.0988ZM13.6956 4.05147C14.2053 4.39619 14.6022 4.88597 14.8361 5.45877C15.1178 6.15045 15.1443 6.92136 14.9107 7.63109C14.6771 8.34082 14.1989 8.94216 13.5633 9.32559C12.9277 9.70903 12.177 9.84904 11.4478 9.72014C10.7186 9.59123 10.0594 9.20198 9.59045 8.62329C9.12146 8.04459 8.87378 7.31494 8.89254 6.56722C8.9113 5.81951 9.19524 5.10347 9.69264 4.54953C10.1901 3.99558 10.8678 3.64057 11.6026 3.54915C12.3373 3.45774 13.0801 3.636 13.6956 4.05147Z"></path><path d="M7.39753 15.1161C8.30094 14.1869 9.45816 13.551 10.7212 13.2899C11.9842 13.0287 13.2956 13.1542 14.4877 13.6502C15.6798 14.1462 16.6983 14.9902 17.413 16.0743C18.1278 17.1583 18.5062 18.4332 18.4999 19.7357V20.9901C18.4973 21.1245 18.4433 21.2527 18.3493 21.3477C18.2552 21.4428 18.1283 21.4974 17.9953 21.5C17.8622 21.4974 17.7354 21.4428 17.6413 21.3477C17.5472 21.2527 17.4932 21.1245 17.4906 20.9901V19.7357C17.4906 18.2644 16.9121 16.8534 15.8824 15.813C14.8528 14.7726 13.4562 14.1881 12 14.1881C10.5438 14.1881 9.14721 14.7726 8.11751 15.813C7.08782 16.8534 6.50934 18.2644 6.50934 19.7357V20.9901C6.50676 21.1245 6.45276 21.2527 6.35867 21.3477C6.26459 21.4428 6.13772 21.4974 6.00469 21.5C5.9385 21.5008 5.87288 21.4876 5.81204 21.4612C5.7512 21.4349 5.69649 21.396 5.65143 21.347C5.60295 21.3015 5.56443 21.2462 5.53836 21.1847C5.51228 21.1233 5.49923 21.0569 5.50004 20.9901V19.7357C5.5014 18.0026 6.18392 16.341 7.39753 15.1161Z"></path></svg>