<svg xmlns="http://www.w3.org/2000/svg" width="24" height="24" viewBox="0 0 24 24" aria-hidden="true" class="vsc-svg-mono"><path d="M9 6.34H5.47a.84.84 0 0 0-.55.28.8.8 0 0 0 0 1.12.9.9 0 0 0 .55.26H9a.94.94 0 0 0 .56-.28.82.82 0 0 0 0-1.12.9.9 0 0 0-.56-.26m0 3.35H5.47a.84.84 0 0 0-.55.31.8.8 0 0 0 0 1.12.84.84 0 0 0 .55.28H9a.9.9 0 0 0 .56-.28.82.82 0 0 0-.04-1.12.9.9 0 0 0-.52-.31M5.47 13a.83.83 0 0 0-.48.15.84.84 0 0 0-.33.37.82.82 0 0 0 .19.92.9.9 0 0 0 1 .18.8.8 0 0 0 .39-.31.81.81 0 0 0-.11-1.06.87.87 0 0 0-.66-.25M9 13h-.91a.9.9 0 0 0-.36 0 1.1 1.1 0 0 0-.32.17.9.9 0 0 0-.21.29.77.77 0 0 0 0 .68c.049.11.12.21.21.29.091.082.201.14.32.17a.9.9 0 0 0 .36 0H9a.9.9 0 0 0 .56-.28.82.82 0 0 0 0-1.12A.94.94 0 0 0 9 13m9.58 0h-3.49a.94.94 0 0 0-.56.28.82.82 0 0 0 0 1.12.9.9 0 0 0 .56.28h3.49a.84.84 0 0 0 .55-.28.8.8 0 0 0 0-1.12.9.9 0 0 0-.55-.28m-3.49-5a.9.9 0 0 0 .49-.14A.82.82 0 0 0 16 7a.86.86 0 0 0-.69-.66.9.9 0 0 0-.51 0 .8.8 0 0 0-.39.31.74.74 0 0 0-.14.47.82.82 0 0 0 .25.59.86.86 0 0 0 .57.29m0 1.69a.9.9 0 0 0-.56.28.82.82 0 0 0 0 1.12.9.9 0 0 0 .56.28H16a.9.9 0 0 0 .56-.28.82.82 0 0 0 0-1.12.9.9 0 0 0-.56-.28zM17 7.81q.134.12.3.19a.9.9 0 0 0 .36 0h.87a.9.9 0 0 0 .55-.28.8.8 0 0 0 0-1.12.84.84 0 0 0-.55-.28h-.87a.9.9 0 0 0-.36 0 .76.76 0 0 0-.32.17.9.9 0 0 0-.21.29.77.77 0 0 0 0 .68.86.86 0 0 0 .23.35m1.53 1.88a.9.9 0 0 0-.49.14.8.8 0 0 0-.33.38.75.75 0 0 0-.05.49.78.78 0 0 0 .24.43c.123.12.28.2.45.23a.9.9 0 0 0 .51 0 .85.85 0 0 0 .39-.36.9.9 0 0 0 .14-.47.8.8 0 0 0-.25-.59.86.86 0 0 0-.61-.25"></path><path d="M21.41 3.57A2 2 0 0 0 20 3h-4.4a4.17 4.17 0 0 0-2.11.57A4 4 0 0 0 12 5.12a4 4 0 0 0-1.49-1.55A4.17 4.17 0 0 0 8.4 3H4a2 2 0 0 0-1.41.57A1.88 1.88 0 0 0 2 4.94V17a1.9 1.9 0 0 0 .59 1.37c.388.345.891.53 1.41.52h3.62a4.1 4.1 0 0 1 2.38.78l.65.47.59.57q.146.138.33.22c.252.093.528.093.78 0q.184-.082.33-.22l.59-.57.66-.47a4.1 4.1 0 0 1 2.42-.78H20a2.06 2.06 0 0 0 1.42-.56c.36-.35.57-.828.58-1.33V5a1.88 1.88 0 0 0-.59-1.43m-10 15.89-.79-.57a5.15 5.15 0 0 0-3-1H4a1 1 0 0 1-.71-.28A.94.94 0 0 1 3 17V5a.94.94 0 0 1 .29-.69A1 1 0 0 1 4 4h4.4a3.06 3.06 0 0 1 2.14.85 2.82 2.82 0 0 1 .89 2.05zM21 17a.94.94 0 0 1-.29.68 1 1 0 0 1-.71.28h-3.6a5.15 5.15 0 0 0-3 1l-.8.57V6.87a2.82 2.82 0 0 1 .89-2A3.06 3.06 0 0 1 15.6 4H20a1 1 0 0 1 .71.28.94.94 0 0 1 .29.69z"></path></svg>