<svg xmlns="http://www.w3.org/2000/svg" width="24" height="24" viewBox="0 0 24 24" aria-hidden="true" class="vsc-svg-mono"><path d="M18.969 14.983c-.65.004-1.28.219-1.797.613a3 3 0 0 0-1.07 1.573H7.645a3.54 3.54 0 0 1-2.057-.551 1.53 1.53 0 0 1-.69-1.324 2.1 2.1 0 0 1 .73-1.775 3.2 3.2 0 0 1 1.997-.561h8.349a4.34 4.34 0 0 0 2.606-1.003 4.01 4.01 0 0 0 1.288-3.169 3.41 3.41 0 0 0-1.328-2.768 4.7 4.7 0 0 0-2.916-.912h-7.77A3 3 0 0 0 6.58 3.455a2.986 2.986 0 0 0-3.857.594 3.016 3.016 0 0 0 0 3.919 2.986 2.986 0 0 0 3.857.595A3 3 0 0 0 7.854 6.91h7.83a3 3 0 0 1 1.817.531 1.6 1.6 0 0 1 .629 1.344 2.26 2.26 0 0 1-.67 1.805 2.67 2.67 0 0 1-1.777.532H7.694a5.06 5.06 0 0 0-3.136.942 3.91 3.91 0 0 0-1.408 3.2 3.34 3.34 0 0 0 1.398 2.827c.915.611 1.998.92 3.096.883h8.529a2.989 2.989 0 0 0 5.282.748 3.016 3.016 0 0 0-.918-4.316 3 3 0 0 0-1.568-.424M4.988 7.963a1.99 1.99 0 0 1-1.845-1.237 2.01 2.01 0 0 1 .432-2.186 1.995 1.995 0 0 1 3.41 1.418A2 2 0 0 1 6.4 7.376a2 2 0 0 1-1.412.588"></path></svg>