<?xml version="1.0" ?>
<svg xmlns="http://www.w3.org/2000/svg" width="512.0" height="512.0" viewBox="0 0 512.0 512.0">
  <path d="M512,0H0V512H512V0Z" fill="#0c131fff"/>
  <path d="M191.804,214.557H143.709C138.078,214.557 132.676,216.799 128.694,220.789C124.712,224.779 122.475,230.19 122.475,235.833C122.475,241.476 124.712,246.887 128.694,250.877C132.676,254.867 138.078,257.109 143.709,257.109H191.804C197.435,257.109 202.837,254.867 206.819,250.877C210.801,246.887 213.038,241.476 213.038,235.833C213.038,230.19 210.801,224.779 206.819,220.789C202.837,216.799 197.435,214.557 191.804,214.557V214.557Z" fill="#8de8feff"/>
  <path d="M131.894,277.281C130.068,277.281 128.191,277.955 128.191,279.785C128.191,281.614 129.971,282.002 133.189,282.774C136.606,283.591 140.639,285.134 140.639,289.707C140.639,295.328 136.05,297.412 131.027,297.412C128.477,297.412 125.596,296.692 123.77,295.292C123.386,295.038 123.068,294.696 122.843,294.295C122.617,293.893 122.491,293.443 122.475,292.982C122.468,292.663 122.526,292.346 122.644,292.049C122.762,291.752 122.938,291.482 123.162,291.255C123.386,291.027 123.653,290.847 123.947,290.724C124.242,290.601 124.558,290.539 124.876,290.54C125.602,290.561 126.298,290.834 126.845,291.312C128.085,292.354 129.648,292.933 131.266,292.952C132.949,292.952 135.02,292.272 135.02,290.203C135.02,288.277 133.189,287.75 129.68,286.928C126.269,286.095 122.837,284.7 122.837,280.321C122.837,275.171 127.426,272.953 132.016,272.953C134.326,272.953 136.774,273.531 138.411,274.737C139.517,275.554 139.803,276.326 139.803,277C139.814,277.313 139.761,277.625 139.647,277.917C139.533,278.208 139.359,278.473 139.138,278.695C138.917,278.916 138.653,279.09 138.362,279.204C138.071,279.319 137.759,279.372 137.447,279.361C136.826,279.334 136.232,279.096 135.764,278.686C134.685,277.766 133.31,277.267 131.894,277.281V277.281ZM145.662,276.223C145.662,273.623 147.534,273.188 148.401,273.188C149.268,273.188 151.139,273.623 151.139,276.223V277.332H151.236C152.256,275.018 154.985,272.948 158.376,272.948C164.383,272.948 166.882,277.572 166.882,282.288V293.943C166.882,296.692 164.959,297.172 164.001,297.172C163.042,297.172 161.114,296.692 161.114,293.943V283.928C161.114,281.185 160.492,277.766 156.79,277.766C153.087,277.766 151.394,280.945 151.394,284.026V293.943C151.394,296.692 149.472,297.172 148.508,297.172C147.544,297.172 145.627,296.692 145.627,293.943L145.662,276.223ZM189.927,290.862C190.236,290.849 190.545,290.899 190.833,291.01C191.122,291.121 191.385,291.29 191.606,291.507C191.827,291.724 192.001,291.984 192.118,292.272C192.234,292.559 192.29,292.867 192.283,293.177C192.283,293.994 192.043,294.812 190.753,295.731C189.121,296.886 186.571,297.418 184.603,297.418C177.729,297.418 172.298,292.891 172.298,285.185C172.298,277.674 177.872,272.953 184.649,272.953C186.784,272.899 188.889,273.467 190.707,274.588C192.054,275.503 192.339,276.423 192.339,277.097C192.346,277.428 192.286,277.756 192.163,278.063C192.04,278.37 191.856,278.649 191.623,278.883C191.389,279.117 191.111,279.301 190.805,279.424C190.498,279.548 190.17,279.608 189.84,279.601C189.131,279.569 188.453,279.297 187.918,278.829C186.972,278.129 185.824,277.757 184.649,277.772C180.421,277.772 178.305,281.573 178.305,285.185C178.305,288.798 180.345,292.553 184.649,292.553C185.858,292.582 187.048,292.247 188.066,291.593C188.597,291.177 189.236,290.924 189.907,290.862H189.927ZM198.311,278.247C196.103,278.247 195.715,276.714 195.715,275.932C195.715,275.15 196.103,273.623 198.311,273.623H200.524V270.204C200.524,264.666 202.686,259.75 209.367,259.75C211.769,259.75 213.023,260.573 213.023,262.305C213.023,263.603 212.156,264.666 210.331,264.666C207.204,264.666 206.292,266.638 206.292,269.867V273.623H209.464C211.677,273.623 212.059,275.155 212.059,275.932C212.059,276.709 211.677,278.247 209.464,278.247H206.292V293.943C206.292,296.692 204.369,297.172 203.405,297.172C202.441,297.172 200.524,296.692 200.524,293.943V278.247H198.311Z" fill="#8de8feff"/>
  <path d="M238.343,214.552C234.142,214.551 230.035,215.798 226.541,218.136C223.047,220.474 220.324,223.797 218.716,227.685C217.108,231.574 216.686,235.853 217.505,239.981C218.324,244.11 220.347,247.902 223.317,250.879C226.287,253.856 230.072,255.883 234.192,256.705C238.312,257.526 242.583,257.105 246.464,255.494C250.346,253.884 253.663,251.156 255.997,247.656C258.332,244.157 259.577,240.042 259.577,235.833C259.577,230.19 257.34,224.778 253.358,220.787C249.376,216.796 243.975,214.553 238.343,214.552V214.552Z" fill="#ffffffff"/>
  <path d="M234.778,290.882C235.087,290.869 235.396,290.919 235.685,291.03C235.974,291.141 236.238,291.31 236.459,291.527C236.68,291.744 236.855,292.004 236.972,292.292C237.089,292.579 237.146,292.887 237.139,293.197C237.139,294.02 236.899,294.837 235.609,295.752C233.972,296.907 231.417,297.438 229.444,297.438C222.559,297.438 217.113,292.901 217.113,285.175C217.113,277.649 222.722,272.912 229.49,272.912C231.629,272.854 233.738,273.424 235.558,274.553C236.91,275.467 237.2,276.387 237.2,277.061C237.207,277.393 237.146,277.722 237.022,278.03C236.898,278.337 236.713,278.617 236.479,278.851C236.245,279.085 235.966,279.27 235.658,279.393C235.351,279.517 235.022,279.577 234.691,279.57C233.981,279.541 233.303,279.269 232.769,278.799C231.821,278.095 230.669,277.722 229.49,277.736C225.252,277.736 223.136,281.547 223.136,285.165C223.136,288.782 225.175,292.548 229.49,292.548C230.702,292.58 231.895,292.244 232.911,291.582C233.455,291.176 234.102,290.934 234.778,290.882V290.882ZM252.876,297.443C245.895,297.443 240.306,292.38 240.306,285.088C240.306,277.797 245.915,272.933 252.876,272.933C259.837,272.933 265.447,277.802 265.447,285.088C265.447,292.374 259.832,297.443 252.876,297.443ZM252.876,277.659C248.287,277.659 246.181,281.471 246.181,285.088C246.181,288.706 248.287,292.62 252.876,292.62C257.466,292.62 259.572,288.711 259.572,285.088C259.572,281.466 257.425,277.659 252.876,277.659ZM270.353,276.234C270.353,273.628 272.229,273.168 273.096,273.168C273.963,273.168 275.845,273.602 275.845,276.234V277.342H275.942C276.962,275.028 279.695,272.953 283.117,272.953C289.135,272.953 291.638,277.582 291.638,282.314V293.989C291.638,296.738 289.716,297.223 288.752,297.223C287.788,297.223 285.861,296.738 285.861,293.989V283.934C285.861,281.185 285.233,277.756 281.526,277.756C277.819,277.756 276.131,280.939 276.131,284.031V293.969C276.131,296.717 274.208,297.203 273.244,297.203C272.28,297.203 270.353,296.717 270.353,293.969V276.234ZM297.381,276.234C297.381,273.628 299.257,273.168 300.124,273.168C300.991,273.168 302.873,273.602 302.873,276.234V277.342H302.97C303.99,275.028 306.723,272.953 310.145,272.953C316.162,272.953 318.666,277.582 318.666,282.314V293.989C318.666,296.738 316.744,297.223 315.78,297.223C314.816,297.223 312.889,296.738 312.889,293.989V283.934C312.889,281.185 312.261,277.756 308.554,277.756C304.846,277.756 303.158,280.939 303.158,284.031V293.969C303.158,296.717 301.236,297.203 300.272,297.203C299.308,297.203 297.381,296.717 297.381,293.969V276.234ZM329.187,287.04C329.427,290.32 332.415,292.737 335.786,292.737C337.75,292.792 339.658,292.073 341.1,290.734C341.624,290.212 342.333,289.918 343.073,289.917C343.38,289.905 343.686,289.956 343.971,290.068C344.257,290.18 344.517,290.35 344.734,290.567C344.951,290.785 345.12,291.045 345.232,291.331C345.344,291.618 345.395,291.924 345.383,292.231C345.37,292.624 345.278,293.011 345.113,293.367C344.947,293.724 344.711,294.043 344.419,294.306C342.16,296.477 339.559,297.443 335.847,297.443C328.707,297.443 323.424,292.844 323.424,285.334C323.424,277.823 328.672,272.933 335.663,272.933C341.247,272.933 345.776,276.116 346.689,282.917C346.743,283.318 346.775,283.723 346.786,284.128C346.786,286.171 345.679,287.02 343.751,287.02L329.187,287.04ZM341.054,282.876C341.054,279.887 339.371,277.255 335.612,277.255C332.196,277.255 329.447,279.616 329.207,282.876H341.054ZM368.081,290.888C368.391,290.874 368.7,290.925 368.989,291.035C369.278,291.146 369.541,291.316 369.762,291.532C369.984,291.749 370.158,292.01 370.275,292.297C370.392,292.584 370.449,292.892 370.443,293.202C370.443,294.025 370.203,294.842 368.913,295.757C367.276,296.912 364.721,297.443 362.747,297.443C355.863,297.443 350.422,292.906 350.422,285.18C350.422,277.654 356.031,272.917 362.798,272.917C364.937,272.861 367.046,273.431 368.867,274.558C370.213,275.472 370.504,276.392 370.504,277.066C370.51,277.398 370.45,277.727 370.326,278.034C370.202,278.341 370.018,278.62 369.784,278.854C369.551,279.088 369.272,279.273 368.965,279.397C368.659,279.521 368.33,279.581 368,279.575C367.288,279.547 366.608,279.274 366.072,278.804C365.126,278.101 363.976,277.728 362.798,277.741C358.561,277.741 356.439,281.553 356.439,285.17C356.439,288.788 358.479,292.553 362.798,292.553C364.008,292.585 365.2,292.248 366.215,291.588C366.761,291.178 367.412,290.933 368.092,290.882L368.081,290.888ZM385.084,297.254C378.964,297.254 377.618,293.493 377.618,289.079V278.236H375.777C373.564,278.236 373.176,276.704 373.176,275.922C373.176,275.14 373.564,273.607 375.777,273.607H377.653V269.591C377.653,266.939 379.535,266.454 380.499,266.454C381.463,266.454 383.34,266.965 383.34,269.591V273.597H386.95C389.163,273.597 389.551,275.13 389.551,275.912C389.551,276.693 389.163,278.226 386.95,278.226H383.34V289.007C383.34,291.276 384.11,292.482 385.553,292.482C385.86,292.469 386.167,292.438 386.471,292.39C386.693,292.354 386.918,292.336 387.144,292.339C387.434,292.324 387.725,292.371 387.996,292.474C388.268,292.578 388.516,292.736 388.724,292.94C388.932,293.144 389.095,293.389 389.204,293.659C389.313,293.929 389.365,294.219 389.357,294.51C389.351,294.961 389.216,295.401 388.969,295.778C388.721,296.154 388.371,296.452 387.96,296.636C387.063,297.055 386.083,297.265 385.094,297.249L385.084,297.254Z" fill="#ffffffff"/>
  <path d="M204.769,242.766C208.586,235.118 205.493,225.819 197.86,221.994C190.228,218.17 180.946,221.269 177.129,228.916C173.312,236.563 176.405,245.863 184.038,249.688C191.67,253.512 200.952,250.413 204.769,242.766Z" fill="#0c131fff"/>
</svg>
