<?xml version="1.0" encoding="utf-8"?>
<!-- Generator: Adobe Illustrator 26.0.2, SVG Export Plug-In . SVG Version: 6.00 Build 0)  -->
<svg version="1.1" id="Calque_1" xmlns="http://www.w3.org/2000/svg" xmlns:xlink="http://www.w3.org/1999/xlink" x="0px" y="0px"
	 viewBox="0 0 435.1 238" style="enable-background:new 0 0 435.1 238;" xml:space="preserve">
<style type="text/css">
	.st0{fill:#FFFFFF;}
	.st1{fill:#E4267D;}
</style>
<g id="Calque_2_00000144308637513161491890000001885698156709564839_">
	<g id="Calque_1-2">
		<ellipse class="st0" cx="139.2" cy="117.6" rx="106.9" ry="86.1"/>
		<path class="st1" d="M62.1,105.5c-7.8,0-13.2,6.1-13.2,13.5v0.2c0,7.4,5.6,13.7,13.4,13.7s13.2-6.1,13.2-13.5v-0.2
			C75.5,111.8,69.9,105.5,62.1,105.5z"/>
		<path class="st1" d="M217.7,105.5c-7.8,0-13.2,6.1-13.2,13.5v0.2c0,7.4,5.6,13.7,13.4,13.7s13.2-6.1,13.2-13.5v-0.2
			C231.1,111.8,225.6,105.5,217.7,105.5z"/>
		<path class="st1" d="M140.3,6C78.7,6,28.7,55.8,28.7,117.6s50,111.4,111.6,111.4s111.6-50,111.6-111.6S201.8,6,140.3,6z
			 M85.6,119.2c0,12.5-9.9,22.6-23.5,22.6s-23.5-10.1-23.5-22.4v-0.2c0-12.5,9.9-22.6,23.5-22.6S85.6,106.7,85.6,119.2L85.6,119.2z
			 M128,122.1c0,13.2-7.6,19.7-19.3,19.7s-19.1-6.7-19.1-19.5v-20.4c0-2.7,2.2-4.9,4.9-4.9s4.9,2.2,4.9,4.9v20.2
			c0,7,3.6,10.8,9.6,10.8c6,0,9.6-3.6,9.6-10.5v-20.6c0-2.7,2.2-4.9,4.9-4.9s4.9,2.2,4.9,4.9L128,122.1z M144,136.5
			c0,2.7-2.3,4.7-5.1,4.7c-2.5,0-4.7-2.2-4.7-4.7v-34.7c0-2.7,2.3-4.7,5.1-4.7c2.5,0,4.7,2.2,4.7,4.7V136.5z M139.2,91.4
			c-3.2,0-6-2.7-6-5.8s2.7-6,5.8-6c3.2,0,6,2.7,6,5.8l0,0C144.9,88.7,142.4,91.4,139.2,91.4z M191,131.3c0,2.9-1.1,4.7-3.4,6.1
			c-4.7,2.9-9.9,4.3-15.5,4.3c-13.7,0-23.1-9.6-23.1-22.4v-0.2c0-12.5,9.7-22.6,23.1-22.6c6.7,0,11,1.4,15,4.2
			c2.2,1.4,2.7,4.5,1.1,6.7c-1.4,2.2-4.5,2.7-6.7,1.1l-0.2-0.2c-2.7-2-6.1-3.1-9.6-3.1c-7,0-12.6,6.1-12.6,13.5v0.2
			c0,7.9,5.6,13.9,13.4,13.9c3.6,0,6.7-0.9,9.2-2.7v-6h-6.5c-2.3,0-4.2-1.8-4.2-4.2l0,0c0-2.3,2-4.2,4.2-4.2l0,0h11
			c2.7,0,4.9,2,4.9,4.7l0,0V131.3z M217.7,141.7c-13.5,0-23.5-10.1-23.5-22.4v-0.2c0-12.5,9.9-22.6,23.5-22.6
			c13.5,0,23.5,10.1,23.5,22.4v0.2C241.3,131.6,231.4,141.7,217.7,141.7L217.7,141.7z"/>
	</g>
</g>
</svg>
